<?xml version="1.0" encoding="utf-8"?>
<!-- Generator: Adobe Illustrator 20.1.0, SVG Export Plug-In . SVG Version: 6.00 Build 0)  -->
<svg version="1.1" id="Layer_1" xmlns="http://www.w3.org/2000/svg" xmlns:xlink="http://www.w3.org/1999/xlink" x="0px" y="0px"
	 viewBox="0 0 512 512" style="enable-background:new 0 0 512 512;" xml:space="preserve">
<style type="text/css">
	.st0{fill:#40919A;}
</style>
<g>
	<g>
		<path class="st0" d="M362.6,181.6c0-0.1,0-0.1,0-0.2v-10.7c0-21-15.2-38.5-35.2-42c-7.9-17.5-20.4-27.1-29.8-34.2
			c-3.9-2.9-9.7-7.4-9.7-9.2c0-6.5,1.6-9.8,4-14.8c2.7-5.7,6.1-12.7,6.6-24.4c1-21.3-12-39.7-31.5-44.7C253.9-2,240.3,0.8,229.8,9
			c-10.5,8.1-16.5,20.4-16.5,33.7c0,13.4,3.7,21.2,6.6,27.5c2.3,5,4.1,8.6,4.1,15.2c0,1.7-5.9,6.2-9.7,9.2
			c-9.4,7.1-21.8,16.7-29.8,34.2c-20,3.5-35.2,21-35.2,42v10.7c0,0.1,0,0.1,0,0.2c-12.9,9.7-21.4,25.1-21.4,42.4v234.7
			c0,29.4,23.9,53.3,53.3,53.3h149.3c29.4,0,53.3-23.9,53.3-53.3V224C384,206.6,375.5,191.3,362.6,181.6z M227.2,111.4
			c8.9-6.8,18.1-13.8,18.1-26.1c0-11.4-3.2-18.3-6.1-24.3c-2.6-5.4-4.6-9.7-4.6-18.3c0-6.6,3-12.8,8.3-16.9
			c5.3-4.1,12.1-5.5,18.9-3.7c9.7,2.5,16,11.9,15.5,23c-0.3,7.4-2.2,11.3-4.6,16.2c-2.7,5.6-6.1,12.6-6.1,24
			c0,12.3,9.2,19.3,18.1,26.1c5.9,4.5,12.1,9.6,17.4,16.6h-92.3C215.1,121,221.4,115.9,227.2,111.4z M170.7,170.7
			c0-11.8,9.6-21.3,21.3-21.3h128c11.8,0,21.3,9.6,21.3,21.3v1.1c-3.5-0.7-7-1.1-10.7-1.1H181.3c-3.6,0-7.2,0.4-10.7,1.1
			L170.7,170.7L170.7,170.7z M362.7,458.7c0,17.6-14.4,32-32,32H181.3c-17.6,0-32-14.4-32-32V448h53.3c5.9,0,10.7-4.8,10.7-10.7
			s-4.8-10.7-10.7-10.7h-53.3V384h32c5.9,0,10.7-4.8,10.7-10.7s-4.8-10.7-10.7-10.7h-32V320h53.3c5.9,0,10.7-4.8,10.7-10.7
			s-4.8-10.7-10.7-10.7h-53.3V256h32c5.9,0,10.7-4.8,10.7-10.7s-4.8-10.7-10.7-10.7h-32V224c0-17.6,14.4-32,32-32h149.3
			c17.6,0,32,14.4,32,32L362.7,458.7L362.7,458.7z"/>
	</g>
</g>
</svg>
