<?xml version="1.0" encoding="utf-8"?>
<!-- Generator: Adobe Illustrator 20.1.0, SVG Export Plug-In . SVG Version: 6.00 Build 0)  -->
<svg version="1.1" id="Capa_1" xmlns="http://www.w3.org/2000/svg" xmlns:xlink="http://www.w3.org/1999/xlink" x="0px" y="0px"
	 viewBox="0 0 480 480" style="enable-background:new 0 0 480 480;" xml:space="preserve">
<style type="text/css">
	.st0{fill:#40919A;stroke:#40919A;stroke-width:5;stroke-miterlimit:10;}
</style>
<path class="st0" d="M354.7,308.7c-4.8,20.9-15.5,40.1-30.8,55.4c-7.1,7.1-15.1,13.2-23.8,18.2c-1.5,0.9-2.5,2.6-2.5,4.4V448H187.4
	v-45.1c0-2.8-2.3-5-5-5h-55.1v-55.1c0-2.8-2.3-5-5-5H96.9l30.9-68.5c0.2-0.5,0.4-0.9,0.4-1.4c5.7-43.8,35.2-78.6,73.9-93.2
	c-0.2-4.1-0.2-6.9-0.2-8c0-0.5,0-1.3,0-2.6c-17.6,6-34.1,16-48.1,30c-19.3,19.5-31.8,44.6-35.4,71.8l-33.7,74.8
	c-1.1,2.6,0,5.5,2.5,6.6c0.7,0.3,1.3,0.5,2.1,0.5h28v55.1c0,2.8,2.3,5,5,5h55.1V453c0,2.8,2.3,5,5,5h120.2c2.8,0,5-2.3,5-5v-63.4
	c8.5-5.1,16.4-11.3,23.5-18.3c18.3-18.3,29.7-40.8,34.4-64.5c-0.7,0.6-1.4,0.9-2.3,1C362.5,307.8,359.4,308.3,354.7,308.7z"/>
<path class="st0" d="M356.8,297.4c-0.1,0.7-0.2,1.4-0.3,2.1c0.7-0.1,1.2-0.1,1.8-0.2c0.3-5.4,0.6-16.6-1.3-30.3
	C358,278.2,358,287.8,356.8,297.4z"/>
<path class="st0" d="M300.8,171.8c-4.1-2.2-8.3-4.1-12.5-5.8c-0.7,0.2-1.3,0.4-2.1,0.6C291.2,168.1,296.1,169.8,300.8,171.8z"/>
<path class="st0" d="M356.2,230c9.2,22.4,11.2,44.8,11.4,59C368.6,269,364.8,248.6,356.2,230z"/>
<path class="st0" d="M354.6,256c-4.6-20.6-14.2-44.1-34.4-61.8c-9.3-8.2-20.6-13.8-32.4-17.5C321.5,191,346.2,220.6,354.6,256z"/>
<path class="st0" d="M331,194c10.7,10.7,19.1,23,25.2,36c-6.2-15-15.7-30.1-30-42.7c-7.5-6.6-16.1-11.7-25.3-15.6
	C311.7,177.5,321.9,184.9,331,194L331,194z"/>
<path class="st0" d="M211.9,161.2c-0.3,0-0.6,0.1-0.9,0.1v0.1C211.4,161.3,211.7,161.3,211.9,161.2z"/>
<path class="st0" d="M365.3,306.7c0.9-0.8,1.4-1.7,1.5-2.8c0.1-0.8,0.7-6.4,0.7-14.8C367.2,294.9,366.5,300.9,365.3,306.7z"/>
<path class="st0" d="M354.6,256c1,4.6,1.8,8.9,2.3,13C356.4,264.6,355.6,260.2,354.6,256z"/>
<path class="st0" d="M287.7,176.7c-6-2.6-12.2-4.6-18.6-6.1c-1.7,0.3-3.3,0.6-5,0.8C272,172.4,279.9,174.1,287.7,176.7z"/>
<path class="st0" d="M248.7,275.5c-32.4-28.4-37-85.4-37.6-103.4c-0.3,0-0.6-0.1-0.9-0.1c-2.8,0.8-5.4,1.7-8.1,2.7
	c0.9,21.4,6.6,77.7,40.6,107.6c34.1,29.9,90.5,28.3,111.9,26.4c0.7-3,1.3-6.2,1.8-9.2C338.7,301.2,281.3,304.1,248.7,275.5z"/>
<path class="st0" d="M205.8,171.4c-2.2-0.3-3.8-2.2-3.8-4.4c0-0.1,0-0.2,0-0.4c0,1,0,3.9,0.2,8c2.7-0.9,5.3-1.9,8.1-2.7
	C207.8,171.7,206.2,171.4,205.8,171.4z"/>
<path class="st0" d="M356.2,230c-6-13-14.4-25.3-25.2-36l0,0c-9.1-9.1-19.3-16.5-30.1-22.2c-4.7-2-9.7-3.7-14.6-5.1
	c-5.7,1.6-11.4,2.8-17.1,3.8c6.5,1.5,12.7,3.6,18.6,6.1c11.9,3.8,23.2,9.4,32.4,17.5c20.1,17.8,29.8,41.2,34.4,61.8
	c1,4.3,1.8,8.6,2.3,13c1.8,13.7,1.6,24.9,1.3,30.3c-0.6,0.1-1.1,0.1-1.8,0.2c-0.5,3.1-1,6.2-1.8,9.2c4.8-0.4,7.9-0.9,8.5-0.9
	c0.9-0.1,1.6-0.5,2.3-1c1.1-5.9,1.9-11.8,2.2-17.7C367.4,274.9,365.4,252.4,356.2,230z"/>
<path class="st0" d="M211.9,161.2c-0.3,0.1-0.6,0.2-0.9,0.2c0,0.6,0,1-0.1,1.6c8.5,0.9,29.9,2.5,53.1-0.9
	C242,158.9,221.7,160.2,211.9,161.2z"/>
<path class="st0" d="M205.8,161.9c0.5-0.1,2.3-0.4,5.3-0.7c0.7-18,5.2-75,37.6-103.4c33.8-29.6,94.2-25.4,109.5-23.7
	c0.8,14.5,1.1,70.8-38.1,105.1c-13.5,11.9-31.2,18.2-48.6,21.7c5.7,1.3,11.3,3.1,16.8,5.2c13.7-4.2,26.9-10.4,37.9-20.1
	c48.6-42.7,41-113.5,40.7-116.5c-0.2-2-1.8-3.6-3.8-4c-3.2-0.4-78.6-11.1-120.3,25.5c-37.7,33.1-40.6,98.3-40.8,113.1
	c0.3-0.1,0.6-0.2,0.8-0.3C203.4,162.8,204.5,162.1,205.8,161.9z"/>
<path class="st0" d="M264.1,162c7.3,1,14.7,2.5,22.1,4.7c0.7-0.2,1.3-0.4,2.1-0.6c-5.5-2.2-11.1-3.9-16.8-5.2
	C269,161.3,266.6,161.6,264.1,162z"/>
<path class="st0" d="M202,166.7c0-0.2,0-0.3,0-0.4c0-0.9,0.3-1.7,0.8-2.5c-0.3,0.1-0.6,0.2-0.8,0.3C202,165.3,202,166.1,202,166.7z"
	/>
<path class="st0" d="M211,170.4c0,0.4,0,0.9,0,1.3c2.8-0.8,5.6-1.5,8.5-2.1C216,169.9,213.1,170.1,211,170.4z"/>
<path class="st0" d="M211.1,161.3c-2.9,0.3-4.8,0.6-5.3,0.7c-1.3,0.2-2.4,0.9-3,2c2.8-0.9,5.5-1.7,8.4-2.5
	C211.1,161.4,211.1,161.3,211.1,161.3z"/>
<path class="st0" d="M219.5,169.6c10.7-0.7,27.2-0.9,44.5,1.6c1.7-0.2,3.3-0.5,5-0.8c-3.9-0.9-7.9-1.6-11.9-2.2
	C244.3,166.7,231.6,167.2,219.5,169.6z"/>
<path class="st0" d="M211.1,171.7c-0.3,0.1-0.6,0.2-0.9,0.3c0.3,0,0.6,0.1,0.9,0.1C211.1,171.9,211.1,171.8,211.1,171.7z"/>
<path class="st0" d="M211,163c0-0.5,0-1,0.1-1.6c-2.8,0.8-5.6,1.5-8.4,2.5c-0.5,0.7-0.8,1.5-0.8,2.5c0,0.1,0,0.2,0,0.4s0,0.3,0,0.4
	c0.1,2.2,1.7,4.1,3.8,4.4c0.4,0.1,1.9,0.3,4.4,0.6c0.3-0.1,0.6-0.2,0.9-0.3c0-0.5,0-0.9,0-1.3c2.1-0.2,5-0.5,8.5-0.7
	c12.1-2.5,24.8-3,37.7-1.3c4.1,0.5,8,1.2,11.9,2.2c5.7-0.9,11.4-2.2,17.1-3.8c-7.4-2.1-14.8-3.6-22.1-4.7
	C240.9,165.4,219.5,163.8,211,163z"/>
<path class="st0" d="M449.2,97.3l-18.4-18.4c-1.4-1.4-3.2-2.2-5.2-2.2s-3.9,0.8-5.2,2.2l-85.7,85.7c-1.4,1.4-2.2,3.2-2.2,5.2
	s0.8,3.9,2.2,5.2l5.2,5.2l6.7-6.7l-3.7-3.7L425.6,87l15.6,15.6l-82.7,82.7l-3.7-3.7l-6.7,6.7l5.2,5.2l0,0c1.4,1.4,3.2,2.2,5.2,2.2
	s3.9-0.8,5.2-2.2l85.7-85.7c1.4-1.4,2.2-3.2,2.2-5.2C451.6,100.7,450.6,98.7,449.2,97.3z"/>
<polygon class="st0" points="288.4,231.5 284.2,235.7 292.6,243.5 347.9,188.2 339.8,180.2 "/>
<rect x="342.3" y="175.2" transform="matrix(0.7071 -0.7071 0.7071 0.7071 -26.2704 298.4158)" class="st0" width="9.5" height="11.4"/>
</svg>
