<?xml version="1.0" encoding="UTF-8"?>
<!DOCTYPE svg PUBLIC "-//W3C//DTD SVG 1.1//EN" "http://www.w3.org/Graphics/SVG/1.1/DTD/svg11.dtd">
<!-- Creator: CorelDRAW 2018 (64-Bit) -->
<svg xmlns="http://www.w3.org/2000/svg" xml:space="preserve" width="118px" height="118px" version="1.1" style="shape-rendering:geometricPrecision; text-rendering:geometricPrecision; image-rendering:optimizeQuality; fill-rule:evenodd; clip-rule:evenodd"
viewBox="0 0 118 118"
 xmlns:xlink="http://www.w3.org/1999/xlink">
 <defs>
  <style type="text/css">
   <![CDATA[
    .fil0 {fill:#48A1AA}
   ]]>
  </style>
 </defs>
 <g id="Слой_x0020_1">
  <metadata id="CorelCorpID_0Corel-Layer"/>
  <g id="_2377241911264">
   <path class="fil0" d="M71.73 43.19c0,6.88 -0.75,12.16 -3.63,18.14 -1.2,2.51 -5.36,9.95 -7.25,11.22 -1.47,-2.2 -3.21,-4.71 -4.97,-6.73 -1.81,-2.07 -4.62,-5.25 -6.68,-7.07 -0.44,-0.39 -0.58,-0.41 -1.03,-0.83 -3.36,-3.13 -10.14,-7.61 -14.85,-9.16 -0.88,-0.29 -1.73,-0.77 -2.65,-0.84l5.08 4.15c3.93,3.65 6.5,6.24 9.62,10.91 1.86,2.79 3.73,6.43 4.88,9.9 4.21,12.67 1.94,24.79 -3.77,35.59l10.88 0 2.94 -5.88c4.87,-9.75 9.88,-22.19 11.92,-32.62l1.34 -7.49c0.8,-5.62 0.82,-10.75 -0.1,-16.29 -0.23,-1.35 -1.14,-5.24 -1.72,-6.5 -0.19,-0.42 -0.07,-0.18 -0.22,-0.4 0,1.57 0.21,2.29 0.21,3.9z"/>
   <path class="fil0" d="M51.61 54.28c0,1.84 0.94,4.3 1.73,5.46l1.67 1.81c0.88,0.69 1.16,0.94 2.28,1.42 3.83,1.64 7.87,-1.26 7.87,-5.41 0,-3.14 -0.42,-4.34 -2.25,-6.78 -2.27,-3.02 -7.38,-4.15 -9.78,-0.94 -0.79,1.06 -1.52,2.71 -1.52,4.44z"/>
   <path class="fil0" d="M89.59 54.07c1.13,0 2.56,-0.1 3.31,-0.12 2.13,-0.05 6.17,0.32 8.37,0.75 0.38,0.08 0.39,0.06 0.69,0.14 0.07,0.01 0.26,0.07 0.32,0.08l0.3 0.12c0.03,0.01 0.1,0.03 0.14,0.06 -4.14,0.96 -8.02,1.03 -13.13,1.03 1.26,1.88 6.91,4.51 10.05,4.51 4.16,0 6.69,-1.55 9.61,-3.53 0.58,-0.39 1.96,-1.5 2.3,-2.01 -1.45,-2.17 -7.43,-5.54 -10.47,-5.54 -3.09,0 -4.43,0.05 -7.33,1.5 -1.27,0.64 -3.47,1.97 -4.16,3.01z"/>
   <path class="fil0" d="M6.45 55.1c0.63,0.95 3.65,3.01 4.79,3.63 4.26,2.3 8.43,2.59 12.8,0.41 1.18,-0.59 3.77,-2.11 4.37,-3.01 -5.11,0 -8.99,-0.07 -13.13,-1.03 1.26,-0.8 8.22,-1.12 9.68,-1.2 0.82,-0.05 0.69,0.12 1.61,0.17 0.57,0.04 1.26,0 1.84,0 -0.8,-1.2 -3.29,-2.58 -4.71,-3.28 -5.13,-2.54 -10.75,-1.07 -15.11,2.34 -0.79,0.62 -1.62,1.2 -2.14,1.97z"/>
   <path class="fil0" d="M37.24 17.33l0 0zm0 0c1.42,0.95 6.77,8.91 7.19,10.67l0.41 0c0,-3.84 1.11,-8.82 -2.8,-13.01 -0.03,-0.03 -0.07,-0.07 -0.1,-0.1l-0.42 -0.4c-2.69,-2.44 -4.67,-4 -8.79,-4.96 -1.38,2.88 -0.98,9.45 1.03,12.93 0.94,1.63 2.18,2.93 3.77,4.03 3.4,2.34 2.21,1.28 5.25,2.75 -0.16,-0.71 -5.27,-8.68 -5.54,-11.91z"/>
   <path class="fil0" d="M80.96 93.07c-1.59,-1.06 -6.93,-9.1 -7.39,-11.08l-0.41 0c0,3.62 -0.93,6.05 1.03,10.47 0.65,1.47 1.63,2.54 2.72,3.64 0.7,0.72 0.89,0.78 1.71,1.37 3.51,2.55 4.61,2.22 6.66,3.2 1.17,-2.45 0.93,-7.85 -0.03,-10.86 -0.88,-2.77 -3.24,-5.3 -5.68,-6.84 -1.25,-0.78 -2.77,-1.64 -4.35,-2.01 0.15,0.59 4.57,7.08 5.74,12.11z"/>
   <path class="fil0" d="M80.76 17.33l0 0zm0 0c-0.27,3.26 -5.38,11.19 -5.54,11.91 2.66,-1.41 3.86,-1.13 7.23,-4.47 2.44,-2.41 3.03,-4.68 3.53,-8.17 0.28,-1.91 -0.12,-5.85 -0.7,-7.07 -1.32,0.11 -4.4,1.6 -5.39,2.22 -0.74,0.46 -1.66,1.03 -2.27,1.62l-1.95 1.95c-1.2,1.39 -2.02,3.34 -2.46,5.34 -0.58,2.71 -0.05,5.11 -0.05,7.34l1.86 -2.86c0.55,-0.97 1.15,-1.77 1.75,-2.77 0.68,-1.11 3.12,-4.46 3.99,-5.04z"/>
   <path class="fil0" d="M31.9 95.13c0,1.43 0.4,4.64 0.83,5.54 0.65,-0.31 1.6,-0.55 2.28,-0.79 0.85,-0.31 1.49,-0.69 2.23,-1.06 4.35,-2.15 7.8,-6.38 7.8,-11.49l-0.61 -5.34c-0.5,2.14 -3.7,6.55 -5.19,8.56 -0.43,0.57 -1.75,2.22 -2.2,2.52 0.33,-1.43 1.84,-4.93 2.53,-6.29 0.55,-1.1 0.98,-1.99 1.56,-2.96 0.44,-0.74 1.45,-2.08 1.65,-2.86 -3.85,0.9 -8.67,4.72 -9.98,8.7 -0.53,1.58 -0.9,3.46 -0.9,5.47z"/>
   <path class="fil0" d="M25.13 74.81c4.03,0.33 7.17,1.36 11.24,-2.11 0.51,-0.44 1.61,-1.9 1.97,-2.55 0.51,-0.94 1.11,-2.07 1.36,-3.14 -2.04,1.36 -6.39,3.74 -8.82,4.31 0.79,-1.18 6.35,-4.96 8,-5.34l0 -0.41c-3.65,-0.32 -7.18,-0.48 -10.21,2.51 -1.18,1.15 -3.54,4.59 -3.54,6.73z"/>
   <path class="fil0" d="M54.89 23.49c0,3.38 0.56,5.41 2.72,8.16 0.47,0.6 0.22,0.46 0.77,0.67 -0.66,-2.87 0.41,-7.56 0.41,-9.45l0.42 0c0,1.21 0.35,2.23 0.4,3.49 0.09,2 0.47,3.97 0.01,5.96 0.64,-0.24 0.19,0.02 0.68,-0.55 3.02,-3.52 3.79,-8.43 1.33,-12.56 -0.57,-0.97 -1.78,-2.75 -2.63,-3.32 -1.6,1.08 -4.11,5.47 -4.11,7.6z"/>
   <path class="fil0" d="M79.12 65.61l0 0.37c1.65,0.38 7.21,4.16 8,5.34 -1.56,-0.37 -3.27,-1.23 -4.65,-1.92 -1.64,-0.82 -2.76,-1.45 -4.17,-2.39 0.97,4.18 4.83,8.21 9.85,8.21 2.42,0 3.39,-0.38 4.72,-0.41 0,-2.09 -2.3,-5.49 -3.43,-6.63 -3.07,-3.08 -6.58,-2.89 -10.32,-2.57z"/>
   <path class="fil0" d="M30.88 38.88l0 0zm0 0c1.21,0.1 3.55,1.26 4.58,1.78l4.24 2.33c-0.59,-2.56 -2.83,-5.39 -4.96,-6.74 -2.69,-1.71 -6.46,-1.59 -9.61,-0.86 0.03,1.56 1.69,4.64 2.82,5.81 0.3,0.3 0.42,0.42 0.7,0.73 2.61,2.9 5.8,2.87 10.23,2.5 -0.45,-0.62 -1.36,-0.85 -2.04,-1.24 -2.22,-1.28 -4.05,-2.65 -5.96,-4.31z"/>
   <path class="fil0" d="M87.12 38.88l0 0zm0 0c-1.99,1.74 -3.54,2.87 -5.83,4.23 -0.77,0.45 -1.69,0.66 -2.17,1.32 5.84,0.48 9.17,-0.12 12.15,-4.89 1.08,-1.72 1.16,-2.81 1.8,-4.15 -2.13,-0.17 -5.95,-1.48 -9.69,0.78 -2.31,1.4 -4.51,4.33 -5.08,6.82l4.1 -2.26c1.01,-0.5 3.47,-1.74 4.72,-1.85z"/>
   <path class="fil0" d="M75.22 54.69c1.68,0 2.58,0.2 4.1,0.2 -0.04,0.03 -0.1,0.02 -0.12,0.09l-3.98 0.33c0.2,0.56 0.26,0.56 1.36,1.1 2.51,1.22 5,0.01 6.03,-1.52 -1.16,-0.61 -1.93,-1.55 -3.59,-1.73 -1.3,-0.14 -3.22,0.66 -3.8,1.53z"/>
   <path class="fil0" d="M48.94 37.65l0 0zm0 0c0.95,0.64 1.47,2.72 2.47,3.08 0,-2.71 -0.26,-4.5 -3.24,-5.84 -2.11,-0.94 -1.14,3.22 -0.59,4.12 0.84,1.39 1.63,1.61 3,2.34 -0.25,-1.1 -1.18,-1.72 -1.64,-3.7z"/>
   <path class="fil0" d="M69.06 37.65l0 0zm0 0c-0.46,1.98 -1.39,2.6 -1.64,3.7 1.36,-0.73 2.16,-0.95 3,-2.34 1.14,-1.89 0.49,-2.38 0.49,-4.44 -1.34,0.31 -2.42,1.01 -3.25,1.89 -0.95,1.02 -1.07,2.33 -1.07,4.27 0.97,-0.35 1.48,-2.42 2.47,-3.08z"/>
  </g>
 </g>
</svg>
