<svg width="28" height="28" viewBox="0 0 28 28" fill="none" xmlns="http://www.w3.org/2000/svg">
<path d="M6.132 0H21.868C25.2547 0 28 2.74531 28 6.132V21.868C28 25.2547 25.2547 28 21.868 28H6.132C2.74531 28 0 25.2547 0 21.868V6.132C0 2.74531 2.74531 0 6.132 0Z" fill="url(#paint0_linear)"/>
<path d="M8.97338 20.3231L8.976 20.324L8.01864 21.9821C7.66919 22.5874 6.89525 22.7948 6.28997 22.4453C5.6848 22.0959 5.47732 21.3219 5.82677 20.7167L6.53202 19.4952L6.59972 19.3779C6.72058 19.2042 7.01885 18.9043 7.61549 18.9608C7.61549 18.9608 9.01953 19.1131 9.12114 19.8429C9.12114 19.8429 9.13493 20.0829 8.97338 20.3231ZM22.5515 16.0881H19.5662C19.3629 16.0745 19.2742 16.0018 19.2392 15.9596L19.237 15.9558L16.0414 10.4208L16.0373 10.4235L15.8456 10.1487C15.5315 9.66837 15.0328 10.8969 15.0328 10.8969C14.4372 12.2658 15.1173 13.8221 15.3543 14.2925L19.793 21.9805C20.1423 22.5857 20.9163 22.7931 21.5216 22.4436C22.1268 22.0941 22.3343 21.3202 21.9847 20.7149L20.8749 18.7925C20.8534 18.7459 20.816 18.6195 21.0436 18.619H22.5515C23.2504 18.619 23.817 18.0524 23.817 17.3535C23.817 16.6546 23.2504 16.088 22.5515 16.088V16.0881ZM16.7531 17.8084C16.7531 17.8084 16.9125 18.619 16.2959 18.619H5.2601C4.56119 18.619 3.99463 18.0524 3.99463 17.3535C3.99463 16.6546 4.56119 16.088 5.2601 16.088H8.09728C8.55535 16.0616 8.66385 15.7971 8.66385 15.7971L8.66647 15.7984L12.3699 9.38377L12.3688 9.38355C12.4363 9.25963 12.3801 9.14249 12.3703 9.12401L11.1472 7.00552C10.7978 6.40035 11.0051 5.6263 11.6104 5.27696C12.2157 4.92751 12.9896 5.13477 13.3391 5.74005L13.9063 6.72257L14.4725 5.7418C14.822 5.13663 15.5959 4.92915 16.2012 5.27871C16.8065 5.62816 17.0139 6.40199 16.6644 7.00727L11.5109 15.9334C11.4883 15.9877 11.4815 16.073 11.6491 16.088H14.7296L14.7302 16.1181C14.7302 16.1181 16.5106 16.1458 16.7531 17.8084Z" fill="white"/>
<defs>
<linearGradient id="paint0_linear" x1="14" y1="0" x2="14" y2="28" gradientUnits="userSpaceOnUse">
<stop stop-color="#17C9FB"/>
<stop offset="1" stop-color="#1A74E8"/>
</linearGradient>
</defs>
</svg>
