<svg width="20" height="20" viewBox="0 0 20 20" fill="none" xmlns="http://www.w3.org/2000/svg">
<rect width="20" height="20" rx="10" fill="#D8E0F0"/>
<path fill-rule="evenodd" clip-rule="evenodd" d="M6.08162 6.08159C6.30157 5.86164 6.65818 5.86164 6.87813 6.08159L9.99999 9.20345L13.1219 6.08159C13.3418 5.86164 13.6984 5.86164 13.9184 6.08159C14.1383 6.30154 14.1383 6.65815 13.9184 6.8781L10.7965 9.99996L13.9184 13.1218C14.1383 13.3418 14.1383 13.6984 13.9184 13.9183C13.6984 14.1383 13.3418 14.1383 13.1219 13.9183L9.99999 10.7965L6.87813 13.9183C6.65818 14.1383 6.30157 14.1383 6.08162 13.9183C5.86167 13.6984 5.86167 13.3418 6.08162 13.1218L9.20348 9.99996L6.08162 6.8781C5.86167 6.65815 5.86167 6.30154 6.08162 6.08159Z" fill="#151833"/>
</svg>
