<svg width="20" height="20" viewBox="0 0 20 20" fill="none" xmlns="http://www.w3.org/2000/svg">
<path d="M9.99984 1.66669C8.35166 1.66669 6.7405 2.15543 5.37009 3.07111C3.99968 3.98679 2.93158 5.28827 2.30084 6.81099C1.67011 8.33371 1.50509 10.0093 1.82663 11.6258C2.14817 13.2423 2.94185 14.7271 4.10728 15.8926C5.27272 17.058 6.75758 17.8517 8.37409 18.1732C9.9906 18.4948 11.6662 18.3297 13.1889 17.699C14.7116 17.0683 16.0131 16.0002 16.9288 14.6298C17.8444 13.2594 18.3332 11.6482 18.3332 10C18.3332 8.90567 18.1176 7.82204 17.6988 6.81099C17.28 5.79994 16.6662 4.88129 15.8924 4.10746C15.1186 3.33364 14.1999 2.71981 13.1889 2.30102C12.1778 1.88224 11.0942 1.66669 9.99984 1.66669ZM9.99984 16.6667C8.6813 16.6667 7.39237 16.2757 6.29604 15.5432C5.19971 14.8106 4.34523 13.7694 3.84064 12.5512C3.33606 11.3331 3.20404 9.99263 3.46127 8.69942C3.71851 7.40621 4.35345 6.21833 5.2858 5.28598C6.21815 4.35363 7.40603 3.71869 8.69924 3.46145C9.99245 3.20422 11.3329 3.33624 12.5511 3.84082C13.7692 4.34541 14.8104 5.19989 15.543 6.29622C16.2755 7.39255 16.6665 8.68148 16.6665 10C16.6665 11.7681 15.9641 13.4638 14.7139 14.7141C13.4636 15.9643 11.768 16.6667 9.99984 16.6667Z" fill="#A4A6B7"/>
<path d="M13.3332 9.16669H10.8332V6.66669C10.8332 6.44567 10.7454 6.23371 10.5891 6.07743C10.4328 5.92115 10.2209 5.83335 9.99984 5.83335C9.77883 5.83335 9.56687 5.92115 9.41059 6.07743C9.25431 6.23371 9.16651 6.44567 9.16651 6.66669V10C9.16651 10.221 9.25431 10.433 9.41059 10.5893C9.56687 10.7456 9.77883 10.8334 9.99984 10.8334H13.3332C13.5542 10.8334 13.7662 10.7456 13.9224 10.5893C14.0787 10.433 14.1665 10.221 14.1665 10C14.1665 9.77901 14.0787 9.56705 13.9224 9.41077C13.7662 9.25449 13.5542 9.16669 13.3332 9.16669Z" fill="#A4A6B7"/>
</svg>
