<svg width="24" height="24" viewBox="0 0 24 24" fill="none" xmlns="http://www.w3.org/2000/svg">
<path fill-rule="evenodd" clip-rule="evenodd" d="M6.43427 6.43427C6.74669 6.12185 7.25322 6.12185 7.56564 6.43427L12 10.8686L16.4343 6.43427C16.7467 6.12185 17.2532 6.12185 17.5656 6.43427C17.8781 6.74669 17.8781 7.25322 17.5656 7.56564L13.1313 12L17.5656 16.4343C17.8781 16.7467 17.8781 17.2532 17.5656 17.5656C17.2532 17.8781 16.7467 17.8781 16.4343 17.5656L12 13.1313L7.56564 17.5656C7.25322 17.8781 6.74669 17.8781 6.43427 17.5656C6.12185 17.2532 6.12185 16.7467 6.43427 16.4343L10.8686 12L6.43427 7.56564C6.12185 7.25322 6.12185 6.74669 6.43427 6.43427Z" fill="#0F2240"/>
</svg>
