<svg width="16" height="17" viewBox="0 0 16 17" fill="none" xmlns="http://www.w3.org/2000/svg">
<path fill-rule="evenodd" clip-rule="evenodd" d="M1.91911 3.75247C2.29418 3.3774 2.80289 3.16669 3.33332 3.16669H12.6667C13.1971 3.16669 13.7058 3.3774 14.0809 3.75247C14.4559 4.12755 14.6667 4.63625 14.6667 5.16669V5.82301C14.6667 5.8295 14.6667 5.83599 14.6667 5.84247V11.8334C14.6667 12.3638 14.4559 12.8725 14.0809 13.2476C13.7058 13.6226 13.1971 13.8334 12.6667 13.8334H3.33332C2.80289 13.8334 2.29418 13.6226 1.91911 13.2476C1.54404 12.8725 1.33332 12.3638 1.33332 11.8334V5.84247C1.33323 5.83599 1.33323 5.8295 1.33332 5.82301V5.16669C1.33332 4.63625 1.54404 4.12755 1.91911 3.75247ZM2.66666 7.07903V11.8334C2.66666 12.0102 2.73689 12.1797 2.86192 12.3048C2.98694 12.4298 3.15651 12.5 3.33332 12.5H12.6667C12.8435 12.5 13.013 12.4298 13.1381 12.3048C13.2631 12.1797 13.3333 12.0102 13.3333 11.8334V7.07903L9.10999 9.89459C9.10992 9.89463 9.10986 9.89468 9.10979 9.89472C8.78117 10.1139 8.395 10.2309 7.99999 10.2309C7.60497 10.2309 7.21881 10.1139 6.89019 9.89472C6.89012 9.89468 6.89006 9.89463 6.88999 9.89459L2.66666 7.07903ZM13.3333 5.47656L8.37019 8.78532L8.36999 8.78545C8.26044 8.85855 8.13169 8.89755 7.99999 8.89755C7.86829 8.89755 7.73954 8.85855 7.62999 8.78545L7.62979 8.78532L2.66666 5.47656V5.16669C2.66666 4.98988 2.73689 4.82031 2.86192 4.69528C2.98694 4.57026 3.15651 4.50002 3.33332 4.50002H12.6667C12.8435 4.50002 13.013 4.57026 13.1381 4.69528C13.2631 4.82031 13.3333 4.98988 13.3333 5.16669V5.47656Z" fill="#A4A6B7"/>
</svg>
