<svg width="28" height="28" viewBox="0 0 28 28" fill="none" xmlns="http://www.w3.org/2000/svg">
<rect width="28" height="28" rx="14" fill="#A4A6B7"/>
<path d="M14.0001 5.03735C9.02951 5.03735 5 9.06687 5 14.0374C5 18.4954 8.2447 22.1874 12.499 22.9023V15.9151H10.3279V13.4006H12.499V11.5466C12.499 9.39539 13.8129 8.22311 15.7322 8.22311C16.6515 8.22311 17.4414 8.2916 17.6708 8.32177V10.5704L16.3396 10.571C15.296 10.571 15.0948 11.0668 15.0948 11.7946V13.3994H17.5849L17.2601 15.9138H15.0948V22.9624C19.5478 22.4205 23 18.6344 23 14.0348C23 9.06687 18.9705 5.03735 14.0001 5.03735Z" fill="white"/>
</svg>
