<svg width="28" height="28" viewBox="0 0 28 28" fill="none" xmlns="http://www.w3.org/2000/svg">
<path d="M0 14C0 6.26801 6.26801 0 14 0C21.732 0 28 6.26801 28 14C28 21.732 21.732 28 14 28C6.26801 28 0 21.732 0 14Z" fill="#3B5998"/>
<path d="M11.716 23.3333V14.5744H9.33337V11.4207H11.716V8.72709C11.716 6.61042 13.1234 4.66663 16.3663 4.66663C17.6793 4.66663 18.6503 4.78899 18.6503 4.78899L18.5737 7.73395C18.5737 7.73395 17.5836 7.72458 16.503 7.72458C15.3336 7.72458 15.1462 8.24846 15.1462 9.11797V11.4207H18.6667L18.5135 14.5744H15.1462V23.3333H11.716Z" fill="white"/>
</svg>
