<svg width="28" height="28" viewBox="0 0 28 28" fill="none" xmlns="http://www.w3.org/2000/svg">
<rect width="28" height="28" rx="14" fill="#A4A6B7"/>
<g clip-path="url(#clip0)">
<path d="M22.9825 10.292C22.9403 9.33564 22.7856 8.67812 22.5641 8.10836C22.3355 7.50359 21.9839 6.96213 21.5232 6.51201C21.0731 6.05489 20.5281 5.69969 19.9303 5.4747C19.3572 5.25315 18.7032 5.09848 17.7468 5.05632C16.7832 5.01058 16.4773 5 14.0335 5C11.5896 5 11.2838 5.01058 10.3238 5.05274C9.36737 5.09491 8.70985 5.24971 8.14023 5.47113C7.53532 5.69969 6.99386 6.05132 6.54375 6.51201C6.08663 6.96213 5.73157 7.50716 5.50644 8.10493C5.28488 8.67812 5.13022 9.33207 5.08805 10.2885C5.04231 11.252 5.03174 11.5579 5.03174 14.0018C5.03174 16.4456 5.04231 16.7515 5.08448 17.7115C5.12665 18.6679 5.28145 19.3254 5.50301 19.8952C5.73157 20.4999 6.08663 21.0414 6.54375 21.4915C6.99386 21.9486 7.53889 22.3038 8.13666 22.5288C8.70985 22.7504 9.3638 22.905 10.3203 22.9472C11.2802 22.9895 11.5862 22.9999 14.03 22.9999C16.4739 22.9999 16.7798 22.9895 17.7397 22.9472C18.6962 22.905 19.3537 22.7504 19.9233 22.5288C21.133 22.0611 22.0894 21.1047 22.5571 19.8952C22.7785 19.322 22.9333 18.6679 22.9755 17.7115C23.0176 16.7515 23.0282 16.4456 23.0282 14.0018C23.0282 11.5579 23.0246 11.252 22.9825 10.292ZM21.3615 17.6411C21.3228 18.5202 21.1752 18.9949 21.0521 19.3114C20.7496 20.0956 20.1273 20.7179 19.3431 21.0204C19.0266 21.1434 18.5485 21.2911 17.6729 21.3297C16.7235 21.372 16.4387 21.3824 14.0371 21.3824C11.6354 21.3824 11.3471 21.372 10.4011 21.3297C9.52203 21.2911 9.04733 21.1434 8.73086 21.0204C8.34064 20.8761 7.98544 20.6476 7.69713 20.3487C7.39824 20.0568 7.16968 19.7052 7.02546 19.315C6.90239 18.9985 6.75473 18.5202 6.71613 17.6447C6.67383 16.6953 6.66339 16.4104 6.66339 14.0088C6.66339 11.6071 6.67383 11.3188 6.71613 10.373C6.75473 9.49387 6.90239 9.01917 7.02546 8.7027C7.16968 8.31234 7.39824 7.95727 7.7007 7.66883C7.99244 7.36994 8.34407 7.14138 8.73444 6.99729C9.0509 6.87422 9.52918 6.72656 10.4047 6.68783C11.3541 6.64566 11.639 6.63508 14.0405 6.63508C16.4457 6.63508 16.7305 6.64566 17.6764 6.68783C18.5555 6.72656 19.0302 6.87422 19.3467 6.99729C19.7369 7.14138 20.0921 7.36994 20.3804 7.66883C20.6793 7.96071 20.9079 8.31234 21.0521 8.7027C21.1752 9.01917 21.3228 9.49731 21.3615 10.373C21.4037 11.3224 21.4143 11.6071 21.4143 14.0088C21.4143 16.4104 21.4037 16.6917 21.3615 17.6411Z" fill="white"/>
<path d="M14.0334 9.37769C11.4806 9.37769 9.40942 11.4487 9.40942 14.0016C9.40942 16.5545 11.4806 18.6256 14.0334 18.6256C16.5863 18.6256 18.6573 16.5545 18.6573 14.0016C18.6573 11.4487 16.5863 9.37769 14.0334 9.37769ZM14.0334 17.0011C12.3773 17.0011 11.0339 15.6579 11.0339 14.0016C11.0339 12.3454 12.3773 11.0022 14.0334 11.0022C15.6896 11.0022 17.0328 12.3454 17.0328 14.0016C17.0328 15.6579 15.6896 17.0011 14.0334 17.0011Z" fill="white"/>
<path d="M19.9199 9.19496C19.9199 9.79109 19.4365 10.2744 18.8402 10.2744C18.2441 10.2744 17.7607 9.79109 17.7607 9.19496C17.7607 8.5987 18.2441 8.11548 18.8402 8.11548C19.4365 8.11548 19.9199 8.5987 19.9199 9.19496Z" fill="white"/>
</g>
<defs>
<clipPath id="clip0">
<rect width="18" height="18" fill="white" transform="translate(5 5)"/>
</clipPath>
</defs>
</svg>
