<svg width="24" height="24" viewBox="0 0 24 24" fill="none" xmlns="http://www.w3.org/2000/svg">
<g clip-path="url(#clip0)">
<path d="M18.5208 7.3821C18.5205 7.37694 18.52 7.37178 18.5191 7.36666C18.4991 7.33809 18.4745 7.3135 18.4539 7.28551C18.3045 7.08201 18.1464 6.88615 17.9795 6.69789C17.9338 6.64645 17.888 6.59558 17.8412 6.54527C17.6693 6.36124 17.4891 6.18574 17.3005 6.01885C17.2656 5.98797 17.233 5.95599 17.1981 5.92568C16.7333 5.52743 16.2243 5.18374 15.6811 4.9014C15.6594 4.88998 15.6366 4.88027 15.6142 4.86881C15.3724 4.7459 15.1244 4.63541 14.8712 4.53785C14.814 4.51728 14.762 4.49783 14.7077 4.48068C14.4825 4.39953 14.2538 4.32846 14.0218 4.26747C13.9532 4.24918 13.8846 4.23033 13.8149 4.21432C13.5862 4.16117 13.3576 4.12058 13.1238 4.08742C13.0529 4.07714 12.9832 4.0634 12.9117 4.05483C12.3096 3.98165 11.7008 3.98165 11.0986 4.05483C11.0272 4.0634 10.9575 4.07714 10.8866 4.08742C10.6528 4.12058 10.4219 4.16117 10.1955 4.21432C10.1258 4.23033 10.0572 4.24918 9.98858 4.26747C9.75497 4.32842 9.52636 4.39949 9.30267 4.48068C9.2455 4.5001 9.19349 4.51956 9.13919 4.53785C8.88603 4.63541 8.63799 4.74587 8.39611 4.86881C8.37381 4.88023 8.35097 4.88995 8.32923 4.9014C7.78429 5.18343 7.27357 5.52709 6.80707 5.92568C6.7722 5.95595 6.73961 5.98797 6.70475 6.01885C6.51421 6.18651 6.33396 6.36201 6.16402 6.54527C6.11717 6.59558 6.07142 6.64645 6.0257 6.69789C5.85841 6.88575 5.70026 7.08161 5.55129 7.28547C5.53073 7.31347 5.50615 7.33805 5.48612 7.36662C5.48351 7.37161 5.4812 7.37677 5.47925 7.38206C3.50773 10.145 3.50773 13.8549 5.47925 16.6178C5.4812 16.6231 5.48347 16.6283 5.48612 16.6333C5.50611 16.6618 5.5307 16.6864 5.55129 16.7144C5.7003 16.9179 5.85841 17.1138 6.0257 17.302C6.07142 17.3535 6.11717 17.4043 6.16402 17.4547C6.33627 17.6387 6.51649 17.8142 6.70475 17.9811C6.73961 18.012 6.7722 18.0439 6.80707 18.0742C7.27193 18.4725 7.78094 18.8162 8.32407 19.0985C8.34581 19.1099 8.36865 19.1197 8.39096 19.1311C8.63283 19.254 8.88084 19.3645 9.13404 19.4621C9.19121 19.4826 9.24322 19.5021 9.29751 19.5192C9.52271 19.6004 9.75136 19.6715 9.98342 19.7325C10.052 19.7507 10.1206 19.7696 10.1903 19.7856C10.419 19.8388 10.6476 19.8794 10.8814 19.9125C10.9523 19.9228 11.022 19.9365 11.0935 19.9451C11.6956 20.0183 12.3044 20.0183 12.9066 19.9451C12.978 19.9365 13.0477 19.9228 13.1186 19.9125C13.3524 19.8794 13.5833 19.8388 13.8097 19.7856C13.8794 19.7696 13.948 19.7507 14.0166 19.7325C14.2506 19.6715 14.4792 19.6004 14.7025 19.5192C14.7597 19.4998 14.8117 19.4804 14.866 19.4621C15.1192 19.3645 15.3672 19.2541 15.6091 19.1311C15.6314 19.1197 15.6542 19.11 15.676 19.0985C16.2191 18.8162 16.7281 18.4725 17.193 18.0742C17.2278 18.0439 17.2604 18.012 17.2953 17.9811C17.4858 17.8138 17.6661 17.6383 17.836 17.4547C17.8829 17.4043 17.9286 17.3535 17.9743 17.302C18.1416 17.1138 18.2998 16.9179 18.4488 16.7144C18.4693 16.6864 18.4939 16.6618 18.5139 16.6333C18.5165 16.6283 18.5189 16.6231 18.5208 16.6178C20.4923 13.8549 20.4923 10.1451 18.5208 7.3821ZM17.8686 8.46358C18.4153 9.36387 18.7454 10.3788 18.8329 11.4284H15.409C15.3671 10.7473 15.2599 10.0719 15.089 9.41129C16.0561 9.23017 16.9922 8.91099 17.8686 8.46358ZM13.457 5.29865C13.4891 5.30608 13.5199 5.31636 13.5519 5.3238C13.7566 5.37182 13.9595 5.42668 14.1578 5.49528C14.1881 5.50556 14.2178 5.51758 14.2476 5.52843C14.4442 5.59702 14.638 5.67305 14.8278 5.75708C14.8609 5.77252 14.8935 5.78967 14.9267 5.80511C15.1084 5.89162 15.286 5.98516 15.4594 6.08577L15.5737 6.15493C15.7383 6.25554 15.8984 6.36318 16.0538 6.47789C16.0939 6.50703 16.1338 6.53506 16.1733 6.56704C16.3257 6.68135 16.4717 6.80386 16.6111 6.93458C16.6477 6.96774 16.6854 7.00032 16.7215 7.03462C16.8678 7.17351 17.0072 7.3204 17.1421 7.47246C17.1593 7.49245 17.1776 7.51074 17.1947 7.52963C16.4208 7.89847 15.6009 8.16185 14.7569 8.3127C14.3659 7.23788 13.8494 6.21297 13.2182 5.25926C13.2976 5.27353 13.3787 5.28153 13.457 5.29865ZM9.73712 11.4284C9.7822 10.8099 9.8875 10.1973 10.0515 9.59931C10.6991 9.67624 11.3508 9.71439 12.0029 9.71362C12.6557 9.71342 13.3079 9.6743 13.9561 9.59643C14.1198 10.1954 14.2245 10.809 14.2687 11.4284H9.73712ZM14.2687 12.5716C14.2236 13.1901 14.1183 13.8027 13.9543 14.4007C13.3067 14.3238 12.6551 14.2856 12.0029 14.2864C11.3502 14.2856 10.698 14.3238 10.0498 14.4007C9.88623 13.8026 9.78153 13.19 9.73709 12.5716H14.2687ZM12.0029 5.51359C12.6534 6.43552 13.1884 7.43374 13.5959 8.48588C13.0668 8.54208 12.5351 8.57031 12.0029 8.57048C11.4714 8.56985 10.9402 8.54144 10.4116 8.48531C10.8196 7.43387 11.354 6.43599 12.0029 5.51359ZM6.8643 7.47185C6.99864 7.3198 7.13867 7.17291 7.28499 7.03402C7.321 6.99972 7.35874 6.96713 7.39531 6.93398C7.53631 6.80557 7.68227 6.68306 7.83315 6.56644C7.8726 6.53613 7.91259 6.50927 7.95262 6.47728C8.10809 6.36298 8.26814 6.2553 8.43275 6.15432L8.54706 6.08516C8.72045 5.98382 8.89802 5.89024 9.07978 5.8045C9.11294 5.78906 9.14552 5.77192 9.17868 5.75648C9.36845 5.67074 9.56223 5.59471 9.75886 5.52783C9.78857 5.51698 9.81603 5.50495 9.84858 5.49467C10.0469 5.42836 10.2487 5.3735 10.4545 5.32319C10.4865 5.31576 10.5173 5.30548 10.5499 5.29861C10.6282 5.28146 10.7094 5.27346 10.7889 5.25916C10.1573 6.21304 9.6407 7.23815 9.24955 8.31317C8.40559 8.16232 7.58565 7.89894 6.81172 7.5301C6.82887 7.51013 6.84716 7.49185 6.8643 7.47185ZM6.13723 8.46358C7.01341 8.91096 7.94933 9.23013 8.91631 9.41129C8.74553 10.0719 8.63853 10.7474 8.5968 11.4284H5.17297C5.26052 10.3788 5.59061 9.36387 6.13723 8.46358ZM6.13723 15.5365C5.59058 14.6362 5.26049 13.6212 5.17297 12.5716H8.5968C8.63873 13.2527 8.7459 13.9281 8.91688 14.5887C7.94974 14.7698 7.01361 15.089 6.13723 15.5365ZM10.5488 18.7013C10.5168 18.6939 10.4859 18.6836 10.4539 18.6762C10.2493 18.6282 10.0464 18.5733 9.84801 18.5047C9.8177 18.4944 9.788 18.4824 9.75826 18.4716C9.56163 18.403 9.36788 18.3269 9.17808 18.2429C9.14492 18.2275 9.11233 18.2103 9.07918 18.1949C8.89742 18.1084 8.71984 18.0148 8.54646 17.9142L8.43215 17.8451C8.26754 17.7445 8.10748 17.6368 7.95201 17.5221C7.91199 17.493 7.872 17.4649 7.83255 17.433C7.68013 17.3186 7.53417 17.1961 7.39471 17.0654C7.35814 17.0323 7.32039 16.9997 7.28439 16.9654C7.13806 16.8265 6.9986 16.6796 6.8637 16.5275C6.84655 16.5075 6.82827 16.4893 6.81112 16.4704C7.58508 16.1015 8.40499 15.8381 9.24895 15.6873C9.63993 16.7621 10.1564 17.787 10.7877 18.7407C10.7082 18.7265 10.6271 18.7185 10.5488 18.7013ZM12.0029 18.4864C11.3524 17.5645 10.8174 16.5663 10.4099 15.5141C11.4684 15.4002 12.5362 15.4002 13.5948 15.5141L13.5942 15.5147C13.1862 16.5661 12.6518 17.564 12.0029 18.4864ZM17.1415 16.5281C17.0072 16.6802 16.8672 16.8271 16.7208 16.966C16.6848 17.0003 16.6471 17.0329 16.6105 17.066C16.4695 17.1948 16.3236 17.3173 16.1727 17.4336C16.1332 17.4638 16.0932 17.4936 16.0532 17.5227C15.8978 17.637 15.7377 17.7447 15.5731 17.8457L15.4588 17.9148C15.2858 18.0158 15.1082 18.1093 14.9261 18.1955C14.8929 18.2109 14.8603 18.2281 14.8272 18.2435C14.6374 18.3293 14.4436 18.4053 14.247 18.4722C14.2173 18.483 14.1898 18.495 14.1573 18.5053C13.9589 18.5716 13.7571 18.6265 13.5514 18.6768C13.5193 18.6842 13.4885 18.6945 13.4559 18.7014C13.3776 18.7185 13.2964 18.7265 13.217 18.7408C13.8482 17.7871 14.3647 16.7622 14.7557 15.6874C15.5996 15.8382 16.4196 16.1016 17.1935 16.4705C17.177 16.4899 17.1587 16.5081 17.1415 16.5281ZM17.8686 15.5365C16.9924 15.0891 16.0565 14.7699 15.0895 14.5887C15.2603 13.9281 15.3673 13.2527 15.409 12.5716H18.8329C18.7453 13.6212 18.4152 14.6361 17.8686 15.5365Z" fill="#151833"/>
</g>
<defs>
<clipPath id="clip0">
<rect width="16" height="16" fill="white" transform="translate(4 4)"/>
</clipPath>
</defs>
</svg>
