<svg width="24" height="24" viewBox="0 0 24 24" fill="none" xmlns="http://www.w3.org/2000/svg">
<path fill-rule="evenodd" clip-rule="evenodd" d="M11.3332 4.80001C7.63278 4.79982 4.63284 7.79961 4.63284 11.5C4.63284 15.2004 7.63278 18.2002 11.3332 18.2C15.0334 18.1998 18.0328 15.2002 18.0328 11.5C18.0328 7.79979 15.0334 4.8002 11.3332 4.80001ZM3.03284 11.5C3.03284 6.91593 6.74918 3.19978 11.3333 3.20001C15.9171 3.20025 19.6328 6.91617 19.6328 11.5C19.6328 16.0839 15.9171 19.7998 11.3333 19.8C6.74918 19.8002 3.03284 16.0841 3.03284 11.5Z" fill="#858A97"/>
<path fill-rule="evenodd" clip-rule="evenodd" d="M20.9341 21.1012C20.6216 21.4136 20.1151 21.4136 19.8027 21.1012L16.2672 17.5657C15.9547 17.2533 15.9547 16.7467 16.2672 16.4343C16.5796 16.1219 17.0861 16.1219 17.3985 16.4343L20.9341 19.9698C21.2465 20.2823 21.2465 20.7888 20.9341 21.1012Z" fill="#858A97"/>
</svg>
