<svg width="24" height="24" viewBox="0 0 24 24" fill="none" xmlns="http://www.w3.org/2000/svg">
<path fill-rule="evenodd" clip-rule="evenodd" d="M2.87866 4.87868C3.44127 4.31607 4.20433 4 4.99998 4H19C19.7956 4 20.5587 4.31607 21.1213 4.87868C21.6839 5.44129 22 6.20435 22 7V7.98448C22.0001 7.99422 22.0001 8.00395 22 8.01368V17C22 17.7957 21.6839 18.5587 21.1213 19.1213C20.5587 19.6839 19.7956 20 19 20H4.99998C4.20433 20 3.44127 19.6839 2.87866 19.1213C2.31605 18.5587 1.99998 17.7956 1.99998 17V8.01367C1.99984 8.00395 1.99984 7.99422 1.99998 7.98449V7C1.99998 6.20435 2.31605 5.44129 2.87866 4.87868ZM3.99998 9.86852V17C3.99998 17.2652 4.10534 17.5196 4.29288 17.7071C4.48041 17.8946 4.73477 18 4.99998 18H19C19.2652 18 19.5196 17.8946 19.7071 17.7071C19.8946 17.5196 20 17.2652 20 17V9.86852L13.665 14.0919C13.6649 14.0919 13.6648 14.092 13.6647 14.0921C13.1718 14.4208 12.5925 14.5963 12 14.5963C11.4075 14.5963 10.8282 14.4208 10.3353 14.0921C10.3352 14.092 10.3351 14.0919 10.335 14.0919L3.99998 9.86852ZM20 7.46482L12.5553 12.4279L12.555 12.4282C12.3907 12.5378 12.1975 12.5963 12 12.5963C11.8024 12.5963 11.6093 12.5378 11.445 12.4282L11.4447 12.4279L3.99998 7.46482V7C3.99998 6.73478 4.10534 6.48043 4.29288 6.29289C4.48041 6.10536 4.73477 6 4.99998 6H19C19.2652 6 19.5196 6.10536 19.7071 6.29289C19.8946 6.48043 20 6.73478 20 7V7.46482Z" fill="#151833"/>
</svg>
