<svg width="28" height="28" viewBox="0 0 28 28" fill="none" xmlns="http://www.w3.org/2000/svg">
<path d="M0 14C0 6.26801 6.26801 0 14 0C21.732 0 28 6.26801 28 14C28 21.732 21.732 28 14 28C6.26801 28 0 21.732 0 14Z" fill="#F68634"/>
<path d="M13.9877 14.297C11.5268 14.297 9.48141 12.2534 9.48141 9.83518C9.48141 7.33333 11.5268 5.28882 13.9886 5.28882C16.534 5.28882 18.4949 7.33246 18.4949 9.83518C18.4905 11.0226 18.0148 12.1596 17.1724 12.9964C16.3301 13.8333 15.1899 14.3014 14.0025 14.2979L13.9877 14.297ZM13.9877 7.91698C12.9458 7.91698 12.1531 8.79245 12.1531 9.83605C12.1531 10.8779 12.9458 11.6706 13.9886 11.6706C15.0731 11.6706 15.824 10.8779 15.824 9.83605C15.8249 8.79158 15.0731 7.91698 13.9877 7.91698ZM15.7822 18.0097L18.3285 20.4707C18.8294 21.0116 18.8294 21.8043 18.3285 22.3052C17.7866 22.8462 16.9512 22.8462 16.534 22.3052L13.9886 19.8025L11.5268 22.3052C11.2768 22.5552 10.9423 22.6798 10.5659 22.6798C10.2741 22.6798 9.94049 22.5544 9.64779 22.3052C9.1469 21.8043 9.1469 21.0116 9.64779 20.4698L12.235 18.0089C11.3007 17.7322 10.4044 17.3404 9.56678 16.8424C8.94044 16.5088 8.81587 15.6752 9.14951 15.0488C9.56678 14.4234 10.3177 14.257 10.9858 14.6742C11.8906 15.2264 12.93 15.5185 13.9899 15.5185C15.0498 15.5185 16.0892 15.2264 16.9939 14.6742C17.6621 14.257 18.4539 14.4234 18.8294 15.0488C19.2057 15.6752 19.0376 16.5079 18.453 16.8424C17.6612 17.3433 16.743 17.7188 15.7831 18.0106L15.7822 18.0097Z" fill="white"/>
</svg>
