<svg width="20" height="21" viewBox="0 0 20 21" fill="none" xmlns="http://www.w3.org/2000/svg">
<path d="M16.2502 18.625H16.144C3.86272 17.9187 2.11897 7.55625 1.87522 4.39375C1.85558 4.14786 1.88465 3.90052 1.96076 3.66588C2.03688 3.43125 2.15854 3.21394 2.31879 3.02641C2.47903 2.83888 2.67471 2.6848 2.8946 2.57302C3.11449 2.46124 3.35427 2.39395 3.60022 2.375H7.04397C7.29432 2.37476 7.53897 2.44969 7.74624 2.5901C7.95351 2.73051 8.11384 2.92992 8.20647 3.1625L9.15647 5.5C9.24794 5.72722 9.27064 5.9763 9.22175 6.21631C9.17285 6.45631 9.05453 6.67667 8.88147 6.85L7.55022 8.19375C7.75816 9.37547 8.32408 10.4648 9.1714 11.3143C10.0187 12.1639 11.1066 12.7327 12.2877 12.9438L13.644 11.6C13.8199 11.4288 14.0423 11.3133 14.2835 11.2677C14.5247 11.2221 14.774 11.2486 15.0002 11.3438L17.3565 12.2875C17.5855 12.3831 17.781 12.5446 17.9179 12.7517C18.0548 12.9587 18.127 13.2018 18.1252 13.45V16.75C18.1252 17.2473 17.9277 17.7242 17.576 18.0758C17.2244 18.4275 16.7475 18.625 16.2502 18.625ZM3.75022 3.625C3.58446 3.625 3.42548 3.69085 3.30827 3.80806C3.19106 3.92527 3.12522 4.08424 3.12522 4.25V4.3C3.41272 8 5.25647 16.75 16.2127 17.375C16.2948 17.3801 16.3771 17.3689 16.4549 17.3421C16.5327 17.3153 16.6044 17.2734 16.666 17.2188C16.7275 17.1642 16.7777 17.098 16.8136 17.024C16.8495 16.95 16.8704 16.8696 16.8752 16.7875V13.45L14.519 12.5062L12.7252 14.2875L12.4252 14.25C6.98772 13.5688 6.25022 8.13125 6.25022 8.075L6.21272 7.775L7.98772 5.98125L7.05022 3.625H3.75022Z" fill="#151833" stroke="#151833" stroke-width="0.4"/>
</svg>
