<svg width="20" height="20" viewBox="0 0 20 20" fill="none" xmlns="http://www.w3.org/2000/svg">
<path d="M16.2502 18.125H16.144C3.86272 17.4187 2.11897 7.05625 1.87522 3.89375C1.85558 3.64786 1.88465 3.40052 1.96076 3.16588C2.03688 2.93125 2.15854 2.71394 2.31879 2.52641C2.47903 2.33888 2.67471 2.1848 2.8946 2.07302C3.11449 1.96124 3.35427 1.89395 3.60022 1.875H7.04397C7.29432 1.87476 7.53897 1.94969 7.74624 2.0901C7.95351 2.23051 8.11384 2.42992 8.20647 2.6625L9.15647 5C9.24794 5.22722 9.27064 5.4763 9.22175 5.71631C9.17285 5.95631 9.05453 6.17667 8.88147 6.35L7.55022 7.69375C7.75816 8.87547 8.32408 9.96479 9.1714 10.8143C10.0187 11.6639 11.1066 12.2327 12.2877 12.4438L13.644 11.1C13.8199 10.9288 14.0423 10.8133 14.2835 10.7677C14.5247 10.7221 14.774 10.7486 15.0002 10.8438L17.3565 11.7875C17.5855 11.8831 17.781 12.0446 17.9179 12.2517C18.0548 12.4587 18.127 12.7018 18.1252 12.95V16.25C18.1252 16.7473 17.9277 17.2242 17.576 17.5758C17.2244 17.9275 16.7475 18.125 16.2502 18.125ZM3.75022 3.125C3.58446 3.125 3.42548 3.19085 3.30827 3.30806C3.19106 3.42527 3.12522 3.58424 3.12522 3.75V3.8C3.41272 7.5 5.25647 16.25 16.2127 16.875C16.2948 16.8801 16.3771 16.8689 16.4549 16.8421C16.5327 16.8153 16.6044 16.7734 16.666 16.7188C16.7275 16.6642 16.7777 16.598 16.8136 16.524C16.8495 16.45 16.8704 16.3696 16.8752 16.2875V12.95L14.519 12.0062L12.7252 13.7875L12.4252 13.75C6.98772 13.0688 6.25022 7.63125 6.25022 7.575L6.21272 7.275L7.98772 5.48125L7.05022 3.125H3.75022Z" fill="#A4A6B7" stroke="#A4A6B7" stroke-width="0.4"/>
</svg>
