<svg width="24" height="24" viewBox="0 0 24 24" fill="none" xmlns="http://www.w3.org/2000/svg">
<path fill-rule="evenodd" clip-rule="evenodd" d="M9.99187 2C5.58505 2 2 5.58364 2 9.98874V10.2068C2 12.4429 3.2809 15.0298 5.77513 17.8923C7.5848 19.9691 9.36904 21.4172 9.44581 21.4793L10.0907 22V19.7478L10.057 19.7183C9.2787 19.0367 7.69549 17.5742 6.30766 15.8201C4.91603 14.0612 3.73772 12.0297 3.73772 10.2068V9.98874C3.73772 6.54169 6.54347 3.73704 9.99187 3.73704C13.2318 3.73704 15.9042 6.21285 16.2154 9.37117L16.2192 9.4089L17.9372 10.9757L17.9557 10.7783C17.9738 10.5858 17.9837 10.3951 17.9837 10.2068V9.98874C17.9837 5.58364 14.3987 2 9.99187 2ZM9.99187 6.61851C8.13275 6.61851 6.62032 8.13034 6.62032 9.98874C6.62032 11.8471 8.13275 13.359 9.99187 13.359C11.851 13.359 13.3634 11.8471 13.3634 9.98874C13.3634 8.13034 11.851 6.61851 9.99187 6.61851ZM8.35804 9.98874C8.35804 9.08824 9.09102 8.35555 9.99187 8.35555C10.8926 8.35555 11.6257 9.08824 11.6257 9.98874C11.6257 10.8891 10.8926 11.6219 9.99187 11.6219C9.09102 11.6219 8.35804 10.8891 8.35804 9.98874ZM22 16.4971L15.8634 10.901L9.72699 16.4971L10.8981 17.7803L11.2387 17.4697V19.7174C11.2387 20.9227 12.2197 21.9032 13.4255 21.9032H18.3015C19.5073 21.9032 20.4883 20.9227 20.4883 19.7174V17.4697L20.8289 17.7803L22 16.4971ZM12.9764 15.885L15.8634 13.2522L18.7506 15.885V19.7172C18.7506 19.9647 18.5491 20.1661 18.3015 20.1661H13.4255C13.1779 20.1661 12.9764 19.9647 12.9764 19.7172V15.885ZM17.1366 16.2789H14.6289V18.7856H17.1366V16.2789Z" fill="#56CBD6"/>
</svg>
