<svg width="28" height="28" viewBox="0 0 28 28" fill="none" xmlns="http://www.w3.org/2000/svg">
<rect width="28" height="28" rx="5" fill="white"/>
<path d="M7.30137 6.25722C7.11266 6.45665 7 6.76564 7 7.16731V21.4945C7 21.8955 7.11196 22.2052 7.30137 22.4046L7.34995 22.4509L15.3981 14.4247V14.2358L7.34995 6.20947L7.30137 6.25722Z" fill="url(#paint0_linear)"/>
<path d="M18.0787 17.1031L15.3967 14.4263V14.2367L18.0794 11.5613L18.14 11.5957L21.3177 13.3969C22.2253 13.9109 22.2253 14.7535 21.3177 15.2676L18.14 17.0694L18.0787 17.1031Z" fill="url(#paint1_linear)"/>
<path d="M18.1398 17.0683L15.3958 14.3318L7.2998 22.4051C7.59906 22.7211 8.09265 22.7597 8.64961 22.4444L18.1398 17.0683Z" fill="url(#paint2_linear)"/>
<path d="M18.1398 11.5955L8.64961 6.21797C8.09265 5.90268 7.59906 5.9413 7.2998 6.2573L15.3951 14.3306L18.1398 11.5955Z" fill="url(#paint3_linear)"/>
<path opacity="0.2" d="M18.0793 17.0085L8.65035 22.3502C8.12296 22.6487 7.65119 22.629 7.34912 22.3573L7.30054 22.4057L7.34912 22.4521C7.6519 22.7238 8.12296 22.7442 8.65035 22.445L18.1406 17.0675L18.0793 17.0078V17.0085Z" fill="black"/>
<path opacity="0.12" d="M7.30137 22.3124C7.11266 22.1137 7 21.804 7 21.4023V21.4971C7 21.8974 7.11196 22.2078 7.30137 22.4072L7.34995 22.3581L7.30137 22.3124Z" fill="black"/>
<path opacity="0.12" d="M21.3183 15.173L18.0793 17.0079L18.1399 17.0683L21.3176 15.2671C21.7718 15.0094 21.9992 14.6703 21.9992 14.3318C21.9605 14.6387 21.7302 14.9399 21.3183 15.173Z" fill="black"/>
<path opacity="0.25" d="M8.65118 6.31366L21.3191 13.4917C21.731 13.7248 21.9613 14.0253 22 14.3322C22 13.993 21.7733 13.6539 21.3191 13.3969L8.65118 6.21887C7.74356 5.70485 7 6.13179 7 7.16824V7.26304C7 6.22659 7.74285 5.79964 8.65118 6.31366Z" fill="#151833"/>
<defs>
<linearGradient id="paint0_linear" x1="12.1255" y1="7.01665" x2="5.24378" y2="13.917" gradientUnits="userSpaceOnUse">
<stop stop-color="#00A0FF"/>
<stop offset="0.0066" stop-color="#00A1FF"/>
<stop offset="0.2601" stop-color="#00BEFF"/>
<stop offset="0.5122" stop-color="#00D2FF"/>
<stop offset="0.7604" stop-color="#00DFFF"/>
<stop offset="1" stop-color="#00E3FF"/>
</linearGradient>
<linearGradient id="paint1_linear" x1="22.5006" y1="14.3325" x2="6.78232" y2="14.3325" gradientUnits="userSpaceOnUse">
<stop stop-color="#FFE000"/>
<stop offset="0.4087" stop-color="#FFBD00"/>
<stop offset="0.7754" stop-color="#FFA500"/>
<stop offset="1" stop-color="#FF9C00"/>
</linearGradient>
<linearGradient id="paint2_linear" x1="16.6491" y1="16.9064" x2="4.89973" y2="28.6877" gradientUnits="userSpaceOnUse">
<stop stop-color="#FF3A44"/>
<stop offset="1" stop-color="#C31162"/>
</linearGradient>
<linearGradient id="paint3_linear" x1="5.26179" y1="5.01291" x2="10.5083" y2="10.2738" gradientUnits="userSpaceOnUse">
<stop stop-color="#32A071"/>
<stop offset="0.0685" stop-color="#2DA771"/>
<stop offset="0.4762" stop-color="#15CF74"/>
<stop offset="0.8009" stop-color="#06E775"/>
<stop offset="1" stop-color="#00F076"/>
</linearGradient>
</defs>
</svg>
