<svg width="20" height="20" viewBox="0 0 20 20" fill="none" xmlns="http://www.w3.org/2000/svg">
<path fill-rule="evenodd" clip-rule="evenodd" d="M9.4443 4.00002C6.36063 3.99986 3.86068 6.49969 3.86068 9.58335C3.86068 12.667 6.36063 15.1668 9.4443 15.1667C12.5278 15.1665 15.0273 12.6669 15.0273 9.58335C15.0273 6.49984 12.5278 4.00018 9.4443 4.00002ZM2.52734 9.58335C2.52734 5.76328 5.62429 2.66649 9.44436 2.66669C13.2642 2.66688 16.3607 5.76349 16.3607 9.58335C16.3607 13.4032 13.2642 16.4998 9.44436 16.5C5.62429 16.5002 2.52734 13.4034 2.52734 9.58335Z" fill="#151833"/>
<path fill-rule="evenodd" clip-rule="evenodd" d="M17.445 17.5843C17.1847 17.8447 16.7626 17.8447 16.5022 17.5843L13.556 14.6381C13.2956 14.3777 13.2956 13.9556 13.556 13.6953C13.8163 13.4349 14.2384 13.4349 14.4988 13.6953L17.445 16.6415C17.7054 16.9019 17.7054 17.324 17.445 17.5843Z" fill="#151833"/>
</svg>
