<svg width="24" height="24" viewBox="0 0 24 24" fill="none" xmlns="http://www.w3.org/2000/svg">
<path d="M7.98617 12.0008C7.98617 12.266 8.09129 12.5204 8.27839 12.7079C8.4655 12.8955 8.71927 13.0008 8.98388 13.0008H14.9701C15.2347 13.0008 15.4885 12.8955 15.6756 12.7079C15.8627 12.5204 15.9678 12.266 15.9678 12.0008C15.9678 11.7356 15.8627 11.4813 15.6756 11.2937C15.4885 11.1062 15.2347 11.0008 14.9701 11.0008H8.98388C8.71927 11.0008 8.4655 11.1062 8.27839 11.2937C8.09129 11.4813 7.98617 11.7356 7.98617 12.0008Z" fill="#8A8B99"/>
<path d="M8.98388 16.0008H7.19798C6.1727 16.0283 5.17406 15.6714 4.39729 15.0001C3.62052 14.3288 3.12145 13.3913 2.99764 12.3708C2.94615 11.8153 3.01117 11.2551 3.18854 10.7262C3.36591 10.1974 3.6517 9.71158 4.02754 9.30003C4.40339 8.88847 4.86098 8.56028 5.3709 8.33653C5.88083 8.11278 6.43182 7.99843 6.98847 8.00082H8.98388C9.24849 8.00082 9.50226 7.89547 9.68936 7.70793C9.87647 7.52039 9.98158 7.26604 9.98158 7.00082C9.98158 6.73561 9.87647 6.48125 9.68936 6.29372C9.50226 6.10618 9.24849 6.00082 8.98388 6.00082H7.19798C5.71911 5.98101 4.28285 6.49728 3.15359 7.45458C2.02432 8.41189 1.27804 9.74581 1.05212 11.2108C0.93982 12.0582 1.00948 12.9199 1.25643 13.7381C1.50338 14.5563 1.92192 15.3122 2.48401 15.9551C3.0461 16.5981 3.73878 17.1132 4.51563 17.466C5.29248 17.8188 6.13559 18.0011 6.98847 18.0008H8.98388C9.24849 18.0008 9.50226 17.8955 9.68936 17.7079C9.87647 17.5204 9.98158 17.266 9.98158 17.0008C9.98158 16.7356 9.87647 16.4813 9.68936 16.2937C9.50226 16.1062 9.24849 16.0008 8.98388 16.0008ZM22.9518 11.2408C22.7286 9.75734 21.9731 8.40646 20.8268 7.44169C19.6806 6.47692 18.2224 5.96458 16.7261 6.00082H15.2195C14.4114 6.00082 13.9724 6.45082 13.9724 7.00082C13.9724 7.26604 14.0775 7.52039 14.2646 7.70793C14.4517 7.89547 14.7055 8.00082 14.9701 8.00082H16.756C17.7813 7.97339 18.7799 8.3302 19.5567 9.0015C20.3335 9.6728 20.8325 10.6103 20.9563 11.6308C21.0078 12.1864 20.9428 12.7466 20.7654 13.2754C20.5881 13.8043 20.3023 14.2901 19.9264 14.7016C19.5506 15.1132 19.093 15.4414 18.5831 15.6651C18.0732 15.8889 17.5222 16.0032 16.9655 16.0008H14.9701C14.7055 16.0008 14.4517 16.1062 14.2646 16.2937C14.0775 16.4813 13.9724 16.7356 13.9724 17.0008C13.9724 17.266 14.0775 17.5204 14.2646 17.7079C14.4517 17.8955 14.7055 18.0008 14.9701 18.0008H16.9655C17.8197 18.0077 18.6655 17.8313 19.446 17.4834C20.2266 17.1355 20.9238 16.6242 21.4909 15.9839C22.0579 15.3436 22.4817 14.589 22.7336 13.7709C22.9856 12.9528 23.06 12.0901 22.9518 11.2408Z" fill="#8A8B99"/>
</svg>
