<svg width="24" height="25" viewBox="0 0 24 25" fill="none" xmlns="http://www.w3.org/2000/svg">
<path d="M8.414 11.1569L12.364 7.20692C12.5462 7.01832 12.647 6.76571 12.6447 6.50352C12.6424 6.24132 12.5372 5.99051 12.3518 5.8051C12.1664 5.61969 11.9156 5.51452 11.6534 5.51224C11.3912 5.50997 11.1386 5.61076 10.95 5.79292L5.293 11.4499C5.19981 11.5426 5.12586 11.6527 5.0754 11.7741C5.02494 11.8954 4.99896 12.0255 4.99896 12.1569C4.99896 12.2883 5.02494 12.4184 5.0754 12.5398C5.12586 12.6611 5.19981 12.7713 5.293 12.8639L10.95 18.5209C11.0422 18.6164 11.1526 18.6926 11.2746 18.745C11.3966 18.7974 11.5278 18.825 11.6606 18.8262C11.7934 18.8273 11.9251 18.802 12.048 18.7517C12.1708 18.7015 12.2825 18.6272 12.3764 18.5333C12.4703 18.4394 12.5445 18.3278 12.5948 18.2049C12.6451 18.082 12.6704 17.9503 12.6692 17.8175C12.6681 17.6847 12.6405 17.5535 12.5881 17.4315C12.5357 17.3095 12.4595 17.1992 12.364 17.1069L8.414 13.1569H18C18.2652 13.1569 18.5196 13.0516 18.7071 12.864C18.8946 12.6765 19 12.4221 19 12.1569C19 11.8917 18.8946 11.6373 18.7071 11.4498C18.5196 11.2623 18.2652 11.1569 18 11.1569H8.414Z" fill="#151833"/>
</svg>
