<svg width="20" height="20" viewBox="0 0 20 20" fill="none" xmlns="http://www.w3.org/2000/svg">
<path fill-rule="evenodd" clip-rule="evenodd" d="M4.40229 4.40229C4.7165 4.08807 5.22595 4.08807 5.54016 4.40229L9.99996 8.86209L14.4598 4.40229C14.774 4.08807 15.2834 4.08807 15.5976 4.40229C15.9118 4.7165 15.9118 5.22595 15.5976 5.54016L11.1378 9.99996L15.5976 14.4598C15.9118 14.774 15.9118 15.2834 15.5976 15.5976C15.2834 15.9118 14.774 15.9118 14.4598 15.5976L9.99996 11.1378L5.54016 15.5976C5.22595 15.9118 4.7165 15.9118 4.40229 15.5976C4.08807 15.2834 4.08807 14.774 4.40229 14.4598L8.86209 9.99996L4.40229 5.54016C4.08807 5.22595 4.08807 4.7165 4.40229 4.40229Z" fill="white"/>
</svg>
