<svg width="28" height="28" viewBox="0 0 28 28" fill="none" xmlns="http://www.w3.org/2000/svg">
<path d="M0 14C0 6.26801 6.26801 0 14 0C21.732 0 28 6.26801 28 14C28 21.732 21.732 28 14 28C6.26801 28 0 21.732 0 14Z" fill="#1DA1F2"/>
<path d="M22.8947 9.56167C22.2835 9.8325 21.6269 10.0155 20.9367 10.0982C21.6489 9.67204 22.1817 9.00131 22.4358 8.21116C21.7666 8.60862 21.0343 8.88839 20.2706 9.0383C19.757 8.48995 19.0768 8.12649 18.3355 8.00436C17.5942 7.88223 16.8333 8.00825 16.1709 8.36287C15.5086 8.71748 14.9819 9.28085 14.6725 9.9655C14.3632 10.6502 14.2885 11.4178 14.4601 12.1492C13.1043 12.0811 11.7779 11.7287 10.567 11.1149C9.35621 10.501 8.28797 9.63937 7.43167 8.58594C7.13888 9.091 6.97053 9.67659 6.97053 10.3002C6.9702 10.8617 7.10846 11.4145 7.37303 11.9097C7.6376 12.4048 8.0203 12.8271 8.48719 13.1388C7.94572 13.1216 7.41621 12.9753 6.94271 12.7121V12.756C6.94266 13.5434 7.21503 14.3066 7.71362 14.9161C8.21221 15.5255 8.9063 15.9437 9.67812 16.0997C9.17582 16.2356 8.6492 16.2557 8.13803 16.1583C8.35579 16.8358 8.77998 17.4283 9.35119 17.8527C9.92241 18.2772 10.6121 18.5124 11.3236 18.5255C10.1157 19.4737 8.62398 19.988 7.08837 19.9858C6.81636 19.9859 6.54457 19.97 6.27441 19.9382C7.83315 20.9404 9.64762 21.4723 11.5007 21.4702C17.7738 21.4702 21.2031 16.2746 21.2031 11.7686C21.2031 11.6222 21.1995 11.4743 21.1929 11.3279C21.8599 10.8455 22.4357 10.2482 22.8933 9.56386L22.8947 9.56167Z" fill="white"/>
</svg>
