<svg width="28" height="28" viewBox="0 0 28 28" fill="none" xmlns="http://www.w3.org/2000/svg">
<path d="M0 14C0 6.26801 6.26801 0 14 0C21.732 0 28 6.26801 28 14C28 21.732 21.732 28 14 28C6.26801 28 0 21.732 0 14Z" fill="#3B5998"/>
<path d="M21.9238 10.0522C22.0398 9.64666 21.9238 9.34924 21.3751 9.34924H19.5574C19.0949 9.34924 18.8835 9.60654 18.7675 9.88913C18.7675 9.88913 17.8433 12.2606 16.5337 13.7983C16.111 14.2457 15.9178 14.387 15.6874 14.387C15.5722 14.387 15.4048 14.2457 15.4048 13.8401V10.0522C15.4048 9.56554 15.2713 9.34924 14.8859 9.34924H12.0296C11.7412 9.34924 11.5671 9.57427 11.5671 9.78882C11.5671 10.2493 12.2219 10.3557 12.2891 11.6536V14.469C12.2891 15.0856 12.1838 15.1981 11.9517 15.1981C11.3359 15.1981 9.83727 12.8179 8.9479 10.0932C8.77467 9.5638 8.59978 9.35012 8.13561 9.35012H6.31874C5.79904 9.35012 5.69543 9.60741 5.69543 9.89C5.69543 10.3976 6.31128 12.9095 8.56414 16.2316C10.066 18.5002 12.1805 19.73 14.1068 19.73C15.2614 19.73 15.4039 19.457 15.4039 18.986V17.2713C15.4039 16.7253 15.5142 16.6154 15.8797 16.6154C16.1483 16.6154 16.6108 16.7584 17.6891 17.8513C18.9208 19.1474 19.1247 19.7291 19.8168 19.7291H21.6337C22.1525 19.7291 22.412 19.4561 22.2628 18.9171C22.0995 18.3807 21.511 17.6001 20.7302 16.6765C20.3058 16.1497 19.6718 15.5827 19.4786 15.2993C19.2092 14.9338 19.2872 14.7725 19.4786 14.448C19.4795 14.4489 21.6934 11.1677 21.9238 10.0522Z" fill="white"/>
</svg>
