<svg width="24" height="24" viewBox="0 0 24 24" fill="none" xmlns="http://www.w3.org/2000/svg">
<path fill-rule="evenodd" clip-rule="evenodd" d="M5.441 5.44064C4.31294 6.56857 3.79995 8.51673 3.79995 11.9999C3.79995 15.4774 4.33028 17.4277 5.46788 18.5572C6.60689 19.6882 8.55872 20.1999 12.0004 20.1999C15.4421 20.1999 17.3937 19.6882 18.5324 18.5573C19.6698 17.4277 20.2 15.4775 20.2 11.9999C20.2 8.51666 19.6872 6.56851 18.5593 5.44059C17.4315 4.31269 15.4834 3.79992 12.0004 3.79992C8.51741 3.79992 6.5691 4.31269 5.441 5.44064ZM4.3097 4.3092C5.93195 2.68715 8.48388 2.19992 12.0004 2.19992C15.5169 2.19992 18.0687 2.68715 19.6907 4.30925C21.3127 5.93134 21.7999 8.48318 21.7999 11.9999C21.7999 15.5224 21.2916 18.0721 19.6599 19.6926C18.0295 21.3117 15.4813 21.7999 12.0004 21.7999C8.51949 21.7999 5.97109 21.3116 4.34052 19.6926C2.70854 18.0722 2.19995 15.5224 2.19995 11.9999C2.19995 8.48312 2.68743 5.93127 4.3097 4.3092Z" fill="#151833"/>
<path fill-rule="evenodd" clip-rule="evenodd" d="M12 13.2999C12.4418 13.2999 12.8 12.9417 12.8 12.4999V7.99991C12.8 7.55808 12.4418 7.19991 12 7.19991C11.5581 7.19991 11.2 7.55808 11.2 7.99991V12.4999C11.2 12.9417 11.5581 13.2999 12 13.2999Z" fill="#151833"/>
<path fill-rule="evenodd" clip-rule="evenodd" d="M12 16.7999C12.4418 16.7999 12.8 16.4417 12.8 15.9999C12.8 15.5581 12.4418 15.1989 12 15.1989C11.5581 15.1989 11.2 15.5571 11.2 15.9989C11.2 16.4407 11.5581 16.7999 12 16.7999Z" fill="#151833"/>
</svg>
