<svg width="28" height="28" viewBox="0 0 28 28" fill="none" xmlns="http://www.w3.org/2000/svg">
<rect width="28" height="28" rx="14" fill="#A4A6B7"/>
<g clip-path="url(#clip0)">
<path d="M18.1301 15.7301L18.1234 15.7864C16.4741 14.9644 16.3016 14.8549 16.0886 15.1744C15.9409 15.3956 15.5104 15.8974 15.3806 16.0459C15.2494 16.1921 15.1189 16.2034 14.8961 16.1021C14.6711 15.9896 13.9489 15.7534 13.0939 14.9884C12.4279 14.3921 11.9809 13.6609 11.8489 13.4359C11.6291 13.0564 12.0889 13.0024 12.5074 12.2104C12.5824 12.0529 12.5441 11.9291 12.4886 11.8174C12.4324 11.7049 11.9846 10.6024 11.7971 10.1629C11.6171 9.72488 11.4319 9.78038 11.2931 9.78038C10.8611 9.74288 10.5454 9.74888 10.2671 10.0384C9.05661 11.3689 9.36186 12.7414 10.3976 14.2009C12.4331 16.8649 13.5176 17.3554 15.5006 18.0364C16.0361 18.2066 16.5244 18.1826 16.9106 18.1271C17.3411 18.0589 18.2359 17.5864 18.4226 17.0576C18.6139 16.5289 18.6139 16.0901 18.5576 15.9889C18.5021 15.8876 18.3551 15.8314 18.1301 15.7301Z" fill="white"/>
<path d="M20.39 7.58561C14.6233 2.01086 5.0795 6.05411 5.07575 13.9186C5.07575 15.4906 5.4875 17.0236 6.272 18.3774L5 22.9989L9.75125 21.7599C15.68 24.9624 22.997 20.7099 23 13.9231C23 11.5411 22.07 9.29936 20.3787 7.61486L20.39 7.58561ZM21.5015 13.8984C21.497 19.6231 15.2127 23.1984 10.2425 20.2764L9.9725 20.1159L7.16 20.8471L7.91375 18.1134L7.7345 17.8321C4.6415 12.9084 8.195 6.47336 14.054 6.47336C16.0445 6.47336 17.9128 7.24961 19.3197 8.65586C20.726 10.0501 21.5015 11.9184 21.5015 13.8984Z" fill="white"/>
</g>
<defs>
<clipPath id="clip0">
<rect width="18" height="18" fill="white" transform="translate(5 5)"/>
</clipPath>
</defs>
</svg>
