<svg width="18" height="18" viewBox="0 0 18 18" fill="none" xmlns="http://www.w3.org/2000/svg">
<g clip-path="url(#clip0)">
<path d="M13.1301 10.7303L13.1234 10.7865C11.4741 9.96451 11.3016 9.85501 11.0886 10.1745C10.9409 10.3958 10.5104 10.8975 10.3806 11.046C10.2494 11.1923 10.1189 11.2035 9.89611 11.1023C9.67111 10.9898 8.94886 10.7535 8.09386 9.98851C7.42786 9.39226 6.98086 8.66101 6.84886 8.43601C6.62911 8.05651 7.08886 8.00251 7.50736 7.21051C7.58236 7.05301 7.54411 6.92926 7.48861 6.81751C7.43236 6.70501 6.98461 5.6025 6.79711 5.163C6.61711 4.725 6.43186 4.78051 6.29311 4.78051C5.86111 4.74301 5.54536 4.749 5.26711 5.0385C4.05661 6.36901 4.36186 7.7415 5.39761 9.201C7.43311 11.865 8.51761 12.3555 10.5006 13.0365C11.0361 13.2068 11.5244 13.1828 11.9106 13.1273C12.3411 13.059 13.2359 12.5865 13.4226 12.0578C13.6139 11.529 13.6139 11.0903 13.5576 10.989C13.5021 10.8878 13.3551 10.8315 13.1301 10.7303Z" fill="#151833"/>
<path d="M15.39 2.58567C9.62325 -2.98908 0.0795 1.05417 0.07575 8.91867C0.07575 10.4907 0.4875 12.0237 1.272 13.3774L0 17.9989L4.75125 16.7599C10.68 19.9624 17.997 15.7099 18 8.92317C18 6.54117 17.07 4.29942 15.3787 2.61492L15.39 2.58567ZM16.5015 8.89842C16.497 14.6232 10.2127 18.1984 5.2425 15.2764L4.9725 15.1159L2.16 15.8472L2.91375 13.1134L2.7345 12.8322C-0.3585 7.90842 3.195 1.47342 9.054 1.47342C11.0445 1.47342 12.9128 2.24967 14.3197 3.65592C15.726 5.05017 16.5015 6.91842 16.5015 8.89842Z" fill="#151833"/>
</g>
<defs>
<clipPath id="clip0">
<rect width="18" height="18" fill="white"/>
</clipPath>
</defs>
</svg>
