<svg width="72" height="62" viewBox="0 0 72 62" version="1.1" xmlns="http://www.w3.org/2000/svg" xmlns:xlink="http://www.w3.org/1999/xlink">
<title>boy</title>
<desc>Created using Figma</desc>
<g id="Canvas" transform="translate(-43324 -878)">
<g id="boy">
<g id="Group">
<g id="Vector">
<use xlink:href="#path0_fill" transform="translate(43324.9 878.747)" fill="#40919A"/>
<mask id="mask0_outline_ins">
<use xlink:href="#path0_fill" fill="white" transform="translate(43324.9 878.747)"/>
</mask>
<g mask="url(#mask0_outline_ins)">
<use xlink:href="#path1_stroke_2x" transform="translate(43324.9 878.747)" fill="#FFFFFF"/>
</g>
</g>
<g id="Vector">
<use xlink:href="#path2_fill" transform="translate(43354.6 926.408)" fill="#40919A"/>
<mask id="mask1_outline_ins">
<use xlink:href="#path2_fill" fill="white" transform="translate(43354.6 926.408)"/>
</mask>
<g mask="url(#mask1_outline_ins)">
<use xlink:href="#path3_stroke_2x" transform="translate(43354.6 926.408)" fill="#FFFFFF"/>
</g>
</g>
<g id="Vector">
<use xlink:href="#path4_fill" transform="translate(43343.6 913.758)" fill="#40919A"/>
<mask id="mask2_outline_ins">
<use xlink:href="#path4_fill" fill="white" transform="translate(43343.6 913.758)"/>
</mask>
<g mask="url(#mask2_outline_ins)">
<use xlink:href="#path5_stroke_2x" transform="translate(43343.6 913.758)" fill="#FFFFFF"/>
</g>
</g>
<g id="Vector">
<use xlink:href="#path6_fill" transform="translate(43373.3 913.758)" fill="#40919A"/>
<mask id="mask3_outline_ins">
<use xlink:href="#path6_fill" fill="white" transform="translate(43373.3 913.758)"/>
</mask>
<g mask="url(#mask3_outline_ins)">
<use xlink:href="#path7_stroke_2x" transform="translate(43373.3 913.758)" fill="#FFFFFF"/>
</g>
</g>
</g>
</g>
</g>
<defs>
<path id="path0_fill" d="M 61.6525 29.3276C 61.1558 27.7991 60.5256 26.3156 59.7708 24.8943L 59.7708 24.704C 59.7708 11.0821 48.6885 1.37713e-07 35.0668 1.37713e-07C 21.4451 1.37713e-07 10.3629 11.0821 10.3629 24.704L 10.3629 24.8935C 9.60818 26.3159 8.97767 27.8002 8.48113 29.3292C 3.78822 29.4272 0 33.2727 0 37.9888C 0 42.7664 3.88687 46.6532 8.66443 46.6532C 8.67595 46.6532 8.68762 46.6526 8.69929 46.6526C 10.0878 50.0835 12.3702 52.9777 15.4913 55.2143C 20.3447 58.6923 27.1135 60.5308 35.0662 60.5308C 43.0195 60.5308 49.7888 58.6924 54.6423 55.2143C 57.7641 52.9775 60.0467 50.0829 61.4351 46.6515C 61.4663 46.6518 61.4974 46.6532 61.5285 46.6532C 66.3061 46.6532 70.1929 42.7664 70.1929 37.9888C 70.1928 33.2529 66.3728 29.3945 61.6525 29.3276ZM 56.6265 23.5178L 45.7015 23.5178C 45.5873 17.5875 44.6179 12.0328 42.943 7.76721C 42.3639 6.29269 41.7124 5.01486 41.0026 3.94336C 49.6661 6.42402 56.1189 14.1925 56.6265 23.5178ZM 35.0668 3.11211C 36.7603 3.11211 38.6218 5.27752 40.046 8.90469C 41.5844 12.8218 42.4772 17.9734 42.589 23.5178L 27.5447 23.5178C 27.6564 17.9735 28.5493 12.8219 30.0876 8.90469C 31.512 5.27752 33.3735 3.11211 35.0668 3.11211ZM 25.9768 26.6299L 44.1568 26.6299L 46.865 26.6299C 43.8609 29.3804 39.5876 31.0071 35.0667 31.0071C 30.5474 31.0071 26.2746 29.3804 23.2694 26.6299L 25.9768 26.6299ZM 29.1312 3.9432C 28.4214 5.0147 27.7699 6.29254 27.1908 7.76706C 25.5157 12.0327 24.5465 17.5873 24.4323 23.5176L 13.5073 23.5176C 14.0149 14.1925 20.4677 6.42402 29.1312 3.9432ZM 3.11211 37.9888C 3.11211 35.2747 5.07025 33.0107 7.64771 32.5314C 7.29215 34.3223 7.10853 36.1505 7.10853 37.9879C 7.10853 39.9094 7.30911 41.7352 7.70092 43.4555C 5.09733 42.998 3.11211 40.7215 3.11211 37.9888ZM 52.8295 52.6847C 48.5079 55.7815 42.3653 57.4185 35.0662 57.4185C 27.7678 57.4185 21.6258 55.7815 17.3043 52.6847C 12.6041 49.3164 10.2208 44.3717 10.2208 37.988C 10.2208 34.0325 11.1672 30.1231 12.9637 26.6299L 19.0729 26.6299C 22.5921 31.2682 28.6358 34.1192 35.0668 34.1192C 41.5002 34.1192 47.5439 31.2682 51.0611 26.6299L 57.17 26.6299C 58.9668 30.1206 59.9133 34.0299 59.9133 37.988C 59.9132 44.3717 57.5299 49.3164 52.8295 52.6847ZM 62.4304 43.4667C 62.8238 41.7431 63.0253 39.9136 63.0253 37.988C 63.0253 36.1464 62.8409 34.3145 62.4842 32.5207C 65.0916 32.9752 67.0807 35.2534 67.0807 37.9889C 67.0807 40.7432 65.0642 43.0343 62.4304 43.4667Z"/>
<path id="path1_stroke_2x" d="M 59.7708 24.8943L 59.6208 24.8943L 59.6208 24.9316L 59.6383 24.9646L 59.7708 24.8943ZM 10.3629 24.8935L 10.4954 24.9638L 10.5129 24.9308L 10.5129 24.8935L 10.3629 24.8935ZM 8.48113 29.3292L 8.48426 29.4791L 8.59086 29.4769L 8.6238 29.3755L 8.48113 29.3292ZM 8.69929 46.6526L 8.83834 46.5963L 8.8004 46.5026L 8.69929 46.5026L 8.69929 46.6526ZM 15.4913 55.2143L 15.4039 55.3363L 15.4039 55.3363L 15.4913 55.2143ZM 54.6423 55.2143L 54.555 55.0924L 54.555 55.0924L 54.6423 55.2143ZM 61.4351 46.6515L 61.4366 46.5015L 61.3344 46.5005L 61.2961 46.5952L 61.4351 46.6515ZM 70.1929 37.9888L 70.3429 37.9888L 70.3429 37.9888L 70.1929 37.9888ZM 45.7015 23.5178L 45.5516 23.5207L 45.5544 23.6678L 45.7015 23.6678L 45.7015 23.5178ZM 42.943 7.76721L 43.0826 7.71239L 43.0826 7.71239L 42.943 7.76721ZM 41.0026 3.94336L 41.0438 3.79915L 40.6529 3.68722L 40.8775 4.0262L 41.0026 3.94336ZM 40.046 8.90469L 39.9064 8.95951L 39.9064 8.95952L 40.046 8.90469ZM 42.589 23.5178L 42.589 23.6678L 42.742 23.6678L 42.7389 23.5148L 42.589 23.5178ZM 27.5447 23.5178L 27.3947 23.5148L 27.3916 23.6678L 27.5447 23.6678L 27.5447 23.5178ZM 30.0876 8.90469L 29.948 8.84986L 30.0876 8.90469ZM 46.865 26.6299L 46.9663 26.7405L 47.251 26.4799L 46.865 26.4799L 46.865 26.6299ZM 23.2694 26.6299L 23.2694 26.4799L 22.8834 26.4799L 23.1682 26.7405L 23.2694 26.6299ZM 27.1908 7.76706L 27.3305 7.82189L 27.3305 7.82188L 27.1908 7.76706ZM 24.4323 23.5176L 24.4323 23.6676L 24.5794 23.6676L 24.5822 23.5205L 24.4323 23.5176ZM 13.5073 23.5176L 13.3576 23.5095L 13.349 23.6676L 13.5073 23.6676L 13.5073 23.5176ZM 7.64771 32.5314L 7.79483 32.5606L 7.83795 32.3434L 7.62028 32.3839L 7.64771 32.5314ZM 7.70092 43.4555L 7.67496 43.6033L 7.89731 43.6423L 7.84718 43.4222L 7.70092 43.4555ZM 52.8295 52.6847L 52.7421 52.5627L 52.8295 52.6847ZM 17.3043 52.6847L 17.3917 52.5627L 17.3917 52.5627L 17.3043 52.6847ZM 12.9637 26.6299L 12.9637 26.4799L 12.8721 26.4799L 12.8303 26.5613L 12.9637 26.6299ZM 19.0729 26.6299L 19.1924 26.5392L 19.1474 26.4799L 19.0729 26.4799L 19.0729 26.6299ZM 51.0611 26.6299L 51.0611 26.4799L 50.9866 26.4799L 50.9415 26.5393L 51.0611 26.6299ZM 57.17 26.6299L 57.3034 26.5612L 57.2615 26.4799L 57.17 26.4799L 57.17 26.6299ZM 59.9133 37.988L 60.0633 37.988L 60.0633 37.988L 59.9133 37.988ZM 62.4842 32.5207L 62.51 32.3729L 62.2944 32.3353L 62.3371 32.5499L 62.4842 32.5207ZM 61.7952 29.2813C 61.2958 27.7444 60.6622 26.2528 59.9033 24.8239L 59.6383 24.9646C 60.3891 26.3783 61.0159 27.8538 61.5099 29.374L 61.7952 29.2813ZM 59.9208 24.8943L 59.9208 24.704L 59.6208 24.704L 59.6208 24.8943L 59.9208 24.8943ZM 59.9208 24.704C 59.9208 10.9992 48.7714 -0.15 35.0668 -0.15L 35.0668 0.15C 48.6057 0.15 59.6208 11.1649 59.6208 24.704L 59.9208 24.704ZM 35.0668 -0.15C 21.3623 -0.15 10.2129 10.9992 10.2129 24.704L 10.5129 24.704C 10.5129 11.1649 21.5279 0.15 35.0668 0.15L 35.0668 -0.15ZM 10.2129 24.704L 10.2129 24.8935L 10.5129 24.8935L 10.5129 24.704L 10.2129 24.704ZM 10.2304 24.8232C 9.47164 26.2532 8.83772 27.7455 8.33846 29.2829L 8.6238 29.3755C 9.11762 27.8549 9.74472 26.3786 10.4954 24.9638L 10.2304 24.8232ZM 8.478 29.1792C 3.70374 29.2789 -0.15 33.1908 -0.15 37.9888L 0.15 37.9888C 0.15 33.3546 3.8727 29.5755 8.48426 29.4791L 8.478 29.1792ZM -0.15 37.9888C -0.15 42.8492 3.80403 46.8032 8.66443 46.8032L 8.66443 46.5032C 3.96972 46.5032 0.15 42.6835 0.15 37.9888L -0.15 37.9888ZM 8.66443 46.8032C 8.67256 46.8032 8.68039 46.803 8.68584 46.8029C 8.69198 46.8027 8.69581 46.8026 8.69929 46.8026L 8.69929 46.5026C 8.6911 46.5026 8.68326 46.5028 8.67776 46.503C 8.67158 46.5031 8.66783 46.5032 8.66443 46.5032L 8.66443 46.8032ZM 8.56024 46.7089C 9.95962 50.1668 12.2603 53.0834 15.4039 55.3363L 15.5787 55.0924C 12.4801 52.8719 10.2159 50.0003 8.83834 46.5963L 8.56024 46.7089ZM 15.4039 55.3363C 20.29 58.8377 27.0924 60.6808 35.0662 60.6808L 35.0662 60.3808C 27.1346 60.3808 20.3993 58.5469 15.5787 55.0924L 15.4039 55.3363ZM 35.0662 60.6808C 43.0406 60.6808 49.8435 58.8378 54.7297 55.3363L 54.555 55.0924C 49.7342 58.5471 42.9985 60.3808 35.0662 60.3808L 35.0662 60.6808ZM 54.7297 55.3363C 57.874 53.0833 60.1748 50.1661 61.5742 46.7078L 61.2961 46.5952C 59.9185 49.9997 57.6542 52.8717 54.555 55.0924L 54.7297 55.3363ZM 61.4336 46.8015C 61.4532 46.8017 61.5009 46.8032 61.5285 46.8032L 61.5285 46.5032C 61.4939 46.5032 61.4793 46.5019 61.4366 46.5015L 61.4336 46.8015ZM 61.5285 46.8032C 66.3889 46.8032 70.3429 42.8492 70.3429 37.9888L 70.0429 37.9888C 70.0429 42.6835 66.2232 46.5032 61.5285 46.5032L 61.5285 46.8032ZM 70.3429 37.9888C 70.3428 33.1707 66.4567 29.2457 61.6546 29.1776L 61.6504 29.4776C 66.2889 29.5434 70.0428 33.3351 70.0429 37.9888L 70.3429 37.9888ZM 56.6265 23.3678L 45.7015 23.3678L 45.7015 23.6678L 56.6265 23.6678L 56.6265 23.3678ZM 45.8515 23.5149C 45.737 17.5719 44.7657 11.9987 43.0826 7.71239L 42.8033 7.82204C 44.4701 12.0669 45.4376 17.6031 45.5516 23.5207L 45.8515 23.5149ZM 43.0826 7.71239C 42.5004 6.22991 41.8443 4.94235 41.1276 3.86051L 40.8775 4.0262C 41.5805 5.08737 42.2275 6.35547 42.8033 7.82204L 43.0826 7.71239ZM 40.9613 4.08756C 49.5647 6.55104 55.9726 14.266 56.4767 23.5259L 56.7762 23.5096C 56.2651 14.119 49.7674 6.297 41.0438 3.79915L 40.9613 4.08756ZM 35.0668 3.26211C 35.8489 3.26211 36.6998 3.76431 37.5436 4.74599C 38.3842 5.72383 39.1981 7.15553 39.9064 8.95951L 40.1857 8.84987C 39.4698 7.02668 38.6408 5.5621 37.7711 4.55043C 36.9048 3.54262 35.9782 2.96211 35.0668 2.96211L 35.0668 3.26211ZM 39.9064 8.95952C 41.4365 12.8557 42.3275 17.9887 42.439 23.5208L 42.7389 23.5148C 42.627 17.9581 41.7322 12.7878 40.1857 8.84986L 39.9064 8.95952ZM 42.589 23.3678L 27.5447 23.3678L 27.5447 23.6678L 42.589 23.6678L 42.589 23.3678ZM 27.6947 23.5208C 27.8061 17.9889 28.6971 12.8558 30.2272 8.95952L 29.948 8.84986C 28.4014 12.788 27.5067 17.9582 27.3947 23.5148L 27.6947 23.5208ZM 30.2272 8.95952C 30.9357 7.15554 31.7496 5.72383 32.5901 4.74599C 33.434 3.76431 34.2848 3.26211 35.0668 3.26211L 35.0668 2.96211C 34.1555 2.96211 33.2289 3.54263 32.3626 4.55043C 31.493 5.56209 30.664 7.02667 29.948 8.84986L 30.2272 8.95952ZM 25.9768 26.7799L 44.1568 26.7799L 44.1568 26.4799L 25.9768 26.4799L 25.9768 26.7799ZM 44.1568 26.7799L 46.865 26.7799L 46.865 26.4799L 44.1568 26.4799L 44.1568 26.7799ZM 46.7637 26.5193C 43.7893 29.2425 39.553 30.8571 35.0667 30.8571L 35.0667 31.1571C 39.6223 31.1571 43.9325 29.5182 46.9663 26.7405L 46.7637 26.5193ZM 35.0667 30.8571C 30.5821 30.8571 26.3462 29.2426 23.3707 26.5192L 23.1682 26.7405C 26.203 29.5182 30.5128 31.1571 35.0667 31.1571L 35.0667 30.8571ZM 23.2694 26.7799L 25.9768 26.7799L 25.9768 26.4799L 23.2694 26.4799L 23.2694 26.7799ZM 29.0062 3.86036C 28.2895 4.94219 27.6334 6.22976 27.0512 7.71223L 27.3305 7.82188C 27.9064 6.35532 28.5533 5.08721 29.2563 4.02605L 29.0062 3.86036ZM 27.0512 7.71223C 25.368 11.9986 24.3968 17.5717 24.2823 23.5147L 24.5822 23.5205C 24.6962 17.6029 25.6635 12.0668 27.3305 7.82189L 27.0512 7.71223ZM 24.4323 23.3676L 13.5073 23.3676L 13.5073 23.6676L 24.4323 23.6676L 24.4323 23.3676ZM 13.6571 23.5258C 14.1612 14.266 20.5691 6.55104 29.1725 4.08741L 29.09 3.799C 20.3664 6.29701 13.8687 14.119 13.3576 23.5095L 13.6571 23.5258ZM 3.26211 37.9888C 3.26211 35.3485 5.16725 33.1452 7.67513 32.6789L 7.62028 32.3839C 4.97326 32.8761 2.96211 35.201 2.96211 37.9888L 3.26211 37.9888ZM 7.50058 32.5022C 7.14314 34.3025 6.95853 36.1405 6.95853 37.9879L 7.25853 37.9879C 7.25853 36.1604 7.44115 34.342 7.79483 32.5606L 7.50058 32.5022ZM 6.95853 37.9879C 6.95853 39.9199 7.1602 41.7568 7.55467 43.4888L 7.84718 43.4222C 7.45801 41.7135 7.25853 39.899 7.25853 37.9879L 6.95853 37.9879ZM 7.72688 43.3078C 5.1936 42.8627 3.26211 40.6473 3.26211 37.9888L 2.96211 37.9888C 2.96211 40.7958 5.00106 43.1334 7.67496 43.6033L 7.72688 43.3078ZM 52.7421 52.5627C 48.4539 55.6357 42.3454 57.2685 35.0662 57.2685L 35.0662 57.5685C 42.3853 57.5685 48.5618 55.9274 52.9169 52.8066L 52.7421 52.5627ZM 35.0662 57.2685C 27.7877 57.2685 21.6797 55.6357 17.3917 52.5627L 17.2169 52.8066C 21.5718 55.9274 27.7479 57.5685 35.0662 57.5685L 35.0662 57.2685ZM 17.3917 52.5627C 12.7353 49.2259 10.3708 44.3292 10.3708 37.988L 10.0708 37.988C 10.0708 44.4142 12.4729 49.4069 17.2169 52.8066L 17.3917 52.5627ZM 10.3708 37.988C 10.3708 34.0563 11.3115 30.1704 13.0971 26.6985L 12.8303 26.5613C 11.0229 30.0758 10.0708 34.0087 10.0708 37.988L 10.3708 37.988ZM 12.9637 26.7799L 19.0729 26.7799L 19.0729 26.4799L 12.9637 26.4799L 12.9637 26.7799ZM 18.9534 26.7206C 22.5039 31.4001 28.5939 34.2692 35.0668 34.2692L 35.0668 33.9692C 28.6777 33.9692 22.6803 31.1363 19.1924 26.5392L 18.9534 26.7206ZM 35.0668 34.2692C 41.542 34.2692 47.6321 31.4001 51.1806 26.7205L 50.9415 26.5393C 47.4557 31.1363 41.4583 33.9692 35.0668 33.9692L 35.0668 34.2692ZM 51.0611 26.7799L 57.17 26.7799L 57.17 26.4799L 51.0611 26.4799L 51.0611 26.7799ZM 57.0366 26.6985C 58.8224 30.1679 59.7633 34.0536 59.7633 37.988L 60.0633 37.988C 60.0633 34.0061 59.1111 30.0733 57.3034 26.5612L 57.0366 26.6985ZM 59.7633 37.988C 59.7632 44.3292 57.3987 49.2259 52.7421 52.5627L 52.9169 52.8066C 57.6611 49.4069 60.0632 44.4143 60.0633 37.988L 59.7633 37.988ZM 62.5766 43.5001C 62.9727 41.7648 63.1753 39.9241 63.1753 37.988L 62.8753 37.988C 62.8753 39.9031 62.6749 41.7214 62.2841 43.4334L 62.5766 43.5001ZM 63.1753 37.988C 63.1753 36.1364 62.9899 34.2947 62.6313 32.4914L 62.3371 32.5499C 62.6919 34.3343 62.8753 36.1564 62.8753 37.988L 63.1753 37.988ZM 62.4585 32.6684C 64.9954 33.1107 66.9307 35.3277 66.9307 37.9889L 67.2307 37.9889C 67.2307 35.1791 65.1877 32.8397 62.51 32.3729L 62.4585 32.6684ZM 66.9307 37.9889C 66.9307 40.6684 64.9687 42.898 62.4061 43.3187L 62.4547 43.6147C 65.1596 43.1706 67.2307 40.818 67.2307 37.9889L 66.9307 37.9889Z"/>
<path id="path2_fill" d="M 8.11495 0.455808C 7.38516 1.1856 6.41589 1.58753 5.38578 1.58753C 4.35567 1.58753 3.38625 1.1856 2.65646 0.455652C 2.04867 -0.151833 1.06368 -0.151833 0.455729 0.455652C -0.151911 1.06329 -0.151911 2.04859 0.455729 2.65638C 1.7734 3.97405 3.52427 4.69964 5.38578 4.69964C 7.24729 4.69964 8.99801 3.9739 10.3157 2.65623C 10.9233 2.04859 10.9233 1.06329 10.3157 0.455652C 9.70773 -0.151988 8.72243 -0.151832 8.11495 0.455808Z"/>
<path id="path3_stroke_2x" d="M 2.65646 0.455652L 2.76254 0.349597L 2.7625 0.349559L 2.65646 0.455652ZM 0.455729 0.455652L 0.349704 0.349545L 0.349663 0.349586L 0.455729 0.455652ZM 0.455729 2.65638L 0.34965 2.76244L 0.349663 2.76245L 0.455729 2.65638ZM 10.3157 2.65623L 10.2096 2.55016L 10.3157 2.65623ZM 10.3157 0.455652L 10.4217 0.349586L 10.4217 0.349559L 10.3157 0.455652ZM 8.00888 0.349742C 7.30716 1.05146 6.37602 1.43753 5.38578 1.43753L 5.38578 1.73753C 6.45576 1.73753 7.46316 1.31973 8.22102 0.561874L 8.00888 0.349742ZM 5.38578 1.43753C 4.39554 1.43753 3.46425 1.05146 2.76254 0.349597L 2.55038 0.561706C 3.30825 1.31974 4.31581 1.73753 5.38578 1.73753L 5.38578 1.43753ZM 2.7625 0.349559C 2.09612 -0.316476 1.01622 -0.316456 0.349704 0.349545L 0.561755 0.561758C 1.11114 0.0127908 2.00121 0.0128103 2.55042 0.561745L 2.7625 0.349559ZM 0.349663 0.349586C -0.316563 1.01581 -0.316543 2.09607 0.34965 2.76244L 0.561809 2.55033C 0.012722 2.0011 0.0127415 1.11077 0.561795 0.561718L 0.349663 0.349586ZM 0.349663 2.76245C 1.69543 4.10822 3.48445 4.84964 5.38578 4.84964L 5.38578 4.54964C 3.5641 4.54964 1.85136 3.83989 0.561795 2.55032L 0.349663 2.76245ZM 5.38578 4.84964C 7.28713 4.84964 9.07599 4.10805 10.4217 2.76229L 10.2096 2.55016C 8.92004 3.83974 7.20746 4.54964 5.38578 4.54964L 5.38578 4.84964ZM 10.4217 2.76229C 11.088 2.09607 11.088 1.0158 10.4217 0.349586L 10.2096 0.561718C 10.7587 1.11078 10.7587 2.0011 10.2096 2.55016L 10.4217 2.76229ZM 10.4217 0.349559C 9.7552 -0.316621 8.67494 -0.316484 8.00887 0.349756L 8.22103 0.561861C 8.76993 0.0128203 9.66026 0.0126444 10.2096 0.561745L 10.4217 0.349559Z"/>
<path id="path4_fill" d="M 1.55606 -4.55876e-07C 0.696803 -4.55876e-07 4.36881e-07 0.696646 4.36881e-07 1.55606L 4.36881e-07 6.37983C 4.36881e-07 7.23924 0.696803 7.93589 1.55606 7.93589C 2.41531 7.93589 3.11211 7.23924 3.11211 6.37983L 3.11211 1.55606C 3.11211 0.696646 2.41547 -4.55876e-07 1.55606 -4.55876e-07Z"/>
<path id="path5_stroke_2x" d="M 1.55606 -0.15C 0.61397 -0.15 -0.15 0.613794 -0.15 1.55606L 0.15 1.55606C 0.15 0.779499 0.779636 0.15 1.55606 0.15L 1.55606 -0.15ZM -0.15 1.55606L -0.15 6.37983L 0.15 6.37983L 0.15 1.55606L -0.15 1.55606ZM -0.15 6.37983C -0.15 7.32209 0.61397 8.08589 1.55606 8.08589L 1.55606 7.78589C 0.779636 7.78589 0.15 7.15639 0.15 6.37983L -0.15 6.37983ZM 1.55606 8.08589C 2.49814 8.08589 3.26211 7.32209 3.26211 6.37983L 2.96211 6.37983C 2.96211 7.15639 2.33248 7.78589 1.55606 7.78589L 1.55606 8.08589ZM 3.26211 6.37983L 3.26211 1.55606L 2.96211 1.55606L 2.96211 6.37983L 3.26211 6.37983ZM 3.26211 1.55606C 3.26211 0.613803 2.49831 -0.15 1.55606 -0.15L 1.55606 0.15C 2.33262 0.15 2.96211 0.779489 2.96211 1.55606L 3.26211 1.55606Z"/>
<path id="path6_fill" d="M 1.55605 -4.55876e-07C 0.6968 -4.55876e-07 -1.93747e-06 0.696646 -1.93747e-06 1.55606L -1.93747e-06 6.37983C -1.93747e-06 7.23924 0.6968 7.93589 1.55605 7.93589C 2.41531 7.93589 3.11211 7.23924 3.11211 6.37983L 3.11211 1.55606C 3.11211 0.696646 2.41546 -4.55876e-07 1.55605 -4.55876e-07Z"/>
<path id="path7_stroke_2x" d="M 1.55605 -0.15C 0.613967 -0.15 -0.150002 0.613794 -0.150002 1.55606L 0.149998 1.55606C 0.149998 0.779499 0.779633 0.15 1.55605 0.15L 1.55605 -0.15ZM -0.150002 1.55606L -0.150002 6.37983L 0.149998 6.37983L 0.149998 1.55606L -0.150002 1.55606ZM -0.150002 6.37983C -0.150002 7.32209 0.613967 8.08589 1.55605 8.08589L 1.55605 7.78589C 0.779633 7.78589 0.149998 7.15639 0.149998 6.37983L -0.150002 6.37983ZM 1.55605 8.08589C 2.49814 8.08589 3.26211 7.32209 3.26211 6.37983L 2.96211 6.37983C 2.96211 7.15639 2.33248 7.78589 1.55605 7.78589L 1.55605 8.08589ZM 3.26211 6.37983L 3.26211 1.55606L 2.96211 1.55606L 2.96211 6.37983L 3.26211 6.37983ZM 3.26211 1.55606C 3.26211 0.613803 2.49831 -0.15 1.55605 -0.15L 1.55605 0.15C 2.33262 0.15 2.96211 0.779489 2.96211 1.55606L 3.26211 1.55606Z"/>
</defs>
</svg>
