<?xml version="1.0" encoding="utf-8"?>
<!-- Generator: Adobe Illustrator 20.1.0, SVG Export Plug-In . SVG Version: 6.00 Build 0)  -->
<svg version="1.1" id="Capa_1" xmlns="http://www.w3.org/2000/svg" xmlns:xlink="http://www.w3.org/1999/xlink" x="0px" y="0px"
	 viewBox="0 0 512 512" style="enable-background:new 0 0 512 512;" xml:space="preserve">
<style type="text/css">
	.st0{fill:#48A1AA;}
</style>
<g>
	<g>
		<path class="st0" d="M496.4,302.3c-0.2-0.2-66-35.9-79.3-42.7c-11.7-19.3-48.5-80.2-48.5-80.2c-6.6-10.9-18-18-30.8-19.2
			c-1.1-0.2-1.8-0.2-2.6-0.1c-32.6,0-121-0.1-159.2-0.1c-0.2,0-0.4,0-0.6,0c-0.1,0-0.2,0-0.3,0c-0.1,0-0.1,0-0.2,0
			c-12.9,0.9-24.7,8.1-31.5,19.3c0,0-36.8,60.8-48.5,80.2c-18.6,9.5-71.6,38.7-77.6,41.6c-0.6,0.3-1.2,0.7-1.8,1.1
			c-19.4,15-20.8,43.1-3.9,60c12.9,12.9,32.8,15.4,48.5,6.2c1.7-1,34.7-22,55.1-33.3c15.3-8.5,29.2-19.4,41.3-32.6
			c5.1-5.6,6.8-7.4,9.4-10.3v83.4L78.7,419c-11.9,5.9-21,16.6-25,29.3c-4,12.7-2.5,26.7,4,38.3c8.9,15.9,25.2,25.4,43.6,25.4h309.6
			c18,0,34.2-9.2,43.1-24.7c6.8-11.6,8.4-25.7,4.5-38.6c-3.9-12.9-13-23.8-25.1-29.7L346,375.8v-83.5c3.4,3.7,6.7,7.2,9.8,10.6
			c11.9,12.9,25.6,23.8,41,32.2c20.4,11.3,53.4,32.3,55.1,33.3c15.6,9.2,35.6,6.7,48.5-6.2C517.2,345.3,515.7,317.2,496.4,302.3z
			 M226,179.9l60,0v30c0,16.5-13.5,30-30,30c-16.6,0-30-13.4-30-30V179.9z M186,179.9l20,0V210c0,27.6,22.4,50,50,50
			c27.6,0,50-22.4,50-50v-30l20,0v90v102H186C186,366.9,186,181.6,186,179.9z M141.8,289.1C141.8,289.1,141.8,289.2,141.8,289.1
			c-10.7,11.6-22.8,21.2-36.2,28.6C85.1,329,52.1,350,50.1,351.3c-7.8,4.6-17.8,3.3-24.2-3.1c-8.1-8.1-7.9-21.7,1.3-29.5
			c10.2-5.2,63.8-34.7,79.3-42.5c1.7-0.8,3.1-2.2,4.1-3.8c9.6-15.9,49.9-82.6,49.9-82.6c1.4-2.4,3.3-4.4,5.4-5.9v79
			C165.8,263,141.9,289,141.8,289.1z M226,492h-40c-11,0-20-9-20-20s9-20,20-20h40V492z M424.5,436.9c7.1,3.5,12.5,9.9,14.8,17.6
			c2.3,7.6,1.3,15.9-2.7,22.8c-5.4,9.4-14.9,14.7-25.9,14.7H246v-40h50c5.5,0,10-4.5,10-10s-4.5-10-10-10H186c-22.1,0-40,17.9-40,40
			c0,7.3,2,14.1,5.4,20h-50.2c-11.2,0-20.7-5.5-26.1-15.2c-3.8-6.9-4.7-15.1-2.3-22.6c2.3-7.5,7.7-13.8,14.8-17.3l90.8-44.9h155.3
			L424.5,436.9z M486.1,348.1c-6.4,6.4-16.4,7.7-24.1,3.2c-2.2-1.3-34.9-22.1-55.6-33.6c-13.4-7.5-25.5-17-35.9-28.3
			c-7.6-8.3-17-18.5-24.5-26.6v-78.9c2.2,1.6,4,3.5,5.4,5.9c0,0,40.3,66.7,50,82.6c1,1.6,2.4,2.9,4.1,3.8
			c15.5,7.7,69.3,37.4,79.3,42.5C494.1,326.5,494.2,340.1,486.1,348.1z"/>
	</g>
</g>
<g>
	<g>
		<path class="st0" d="M256,0c-38.6,0-70,31.4-70,70s31.4,70,70,70c38.6,0,70-31.4,70-70S294.6,0,256,0z M256,120
			c-27.6,0-50-22.4-50-50s22.4-50,50-50s50,22.4,50,50S283.6,120,256,120z"/>
	</g>
</g>
</svg>
