<?xml version="1.0" encoding="utf-8"?>
<!-- Generator: Adobe Illustrator 20.1.0, SVG Export Plug-In . SVG Version: 6.00 Build 0)  -->
<svg version="1.1" id="Слой_1" xmlns="http://www.w3.org/2000/svg" xmlns:xlink="http://www.w3.org/1999/xlink" x="0px" y="0px"
	 viewBox="0 0 57.1 57.3" style="enable-background:new 0 0 57.1 57.3;" xml:space="preserve">
<style type="text/css">
	.st0{fill:#40919A;}
</style>
<title>diagnostic</title>
<path class="st0" d="M41,38.3C39.5,27.7,30,17.8,18.6,16l-1.9-0.3L16,17.5l-1.5,3.8l-0.1,0.3V22l-0.8,8.9l-12,12L1,43.5l-0.1,0.9
	L0.2,54.5L0,57.3l2.8-0.2l9.9-0.8l0.9-0.1l0.6-0.6l12-12l7.9-0.3h0.5l0.5-0.2l4.6-2.2l1.6-0.8L41,38.3z M34,40.9L34,40.9l-8.8,0.3
	L12.5,53.8L5,54.5l-2.4,0.2l0,0l0.2-2.4l0.5-7.7l12.7-12.7l0.9-9.7l0,0l1.5-3.8c10.3,1.6,19,10.7,20.3,20.3L34,40.9z"/>
<path id="path2_stroke" class="st0" d="M39.1,0c-0.6-0.2-1.3,0.2-1.5,0.8c-0.2,0.6,0.2,1.3,0.8,1.5L39.1,0z M54.8,19.1
	c0.2,0.6,0.8,1,1.5,0.8c0.6-0.2,1-0.8,0.8-1.5L54.8,19.1z M38.4,2.4c3.8,1.2,7.3,3.2,10.1,6.1l1.7-1.7C47.2,3.6,43.3,1.3,39.1,0
	L38.4,2.4z M48.6,8.4c2.9,2.9,5.1,6.6,6.2,10.6l2.3-0.6C55.9,14,53.5,10,50.3,6.7L48.6,8.4z"/>
<path id="path3_stroke" class="st0" d="M36.5,6.5c-0.6-0.2-1.3,0.2-1.5,0.8s0.2,1.3,0.8,1.5L36.5,6.5z M48.2,21.1
	c0.2,0.6,0.8,1,1.5,0.9s1-0.8,0.9-1.5l0,0L48.2,21.1z M35.8,8.8c3,0.8,5.7,2.3,7.8,4.5l1.7-1.7c-2.5-2.5-5.5-4.2-8.9-5.1L35.8,8.8z
	 M43.7,13.3c2.2,2.2,3.7,4.9,4.5,7.8l2.3-0.6c-0.9-3.4-2.7-6.4-5.1-8.9L43.7,13.3z"/>
<path id="path4_stroke" class="st0" d="M34.1,13.2c-0.7-0.1-1.3,0.3-1.4,0.9c-0.1,0.7,0.3,1.3,0.9,1.4L34.1,13.2z M41.5,23.5
	c0.1,0.7,0.8,1.1,1.5,0.9c0.7-0.1,1.1-0.8,0.9-1.5l0,0L41.5,23.5z M33.6,15.6c1.9,0.4,3.7,1.4,5.1,2.8l1.7-1.7
	c-1.7-1.7-3.9-2.9-6.3-3.4L33.6,15.6z M38.7,18.3c1.4,1.4,2.4,3.2,2.8,5.1l2.4-0.5c-0.5-2.4-1.7-4.6-3.4-6.3L38.7,18.3z"/>
</svg>
