<?xml version="1.0" encoding="utf-8"?>
<!-- Generator: Adobe Illustrator 20.1.0, SVG Export Plug-In . SVG Version: 6.00 Build 0)  -->
<svg version="1.1" id="Layer_1" xmlns="http://www.w3.org/2000/svg" xmlns:xlink="http://www.w3.org/1999/xlink" x="0px" y="0px"
	 viewBox="0 0 512 512" style="enable-background:new 0 0 512 512;" xml:space="preserve">
<style type="text/css">
	.st0{fill:#40919A;}
</style>
<g>
	<g>
		<path class="st0" d="M174.5,186.2h-10.5c2.3-5.8,4.7-10.5,8.1-16.3c7-12.8,14-26.8,14-43.1c0-37.2-18.6-57-52.4-57
			C57,69.8,0,132.7,0,215.3c0,71,32.6,110.5,93.1,110.5c22.1,0,39.6-5.8,52.4-18.6c14-14,19.8-34.9,19.8-62.8
			c0-7-5.8-11.6-11.6-11.6c-7,0-11.6,5.8-11.6,11.6c0,22.1-3.5,37.2-12.8,46.5c-8.1,8.1-19.8,11.6-36.1,11.6
			c-46.5,0-69.8-27.9-69.8-87.3c0-69.8,47.7-122.2,110.5-122.2c15.1,0,29.1,3.5,29.1,32.6c0,10.5-5.8,20.9-11.6,32.6
			c-7,11.6-12.8,24.4-12.8,39.6c0,7,4.7,11.6,11.6,11.6h24.4c25.6,0,46.5,20.9,46.5,46.5v174.5c0,7,4.7,11.6,11.6,11.6
			s11.6-4.7,11.6-11.6V256C244.4,217.6,212.9,186.2,174.5,186.2z"/>
	</g>
</g>
<g>
	<g>
		<path class="st0" d="M378.2,69.8c-33.7,0-52.4,19.8-52.4,55.9c0,16.3,7,30.3,14,43.1c3.5,5.8,5.8,11.6,8.1,16.3h-10.5
			c-38.4,0-69.8,31.4-69.8,69.8v174.5c0,7,4.7,11.6,11.6,11.6c7,0,11.6-4.7,11.6-11.6V256c0-25.6,20.9-46.5,46.5-46.5h24.4
			c7,0,11.6-4.7,11.6-11.6c0-15.1-7-26.8-12.8-39.6c-5.8-10.5-11.6-20.9-11.6-32.6c0-29.1,14-32.6,29.1-32.6
			c62.8,0,110.5,52.4,110.5,122.2c0,58.2-23.3,87.3-69.8,87.3c-16.3,0-27.9-3.5-36.1-11.6c-9.3-9.3-12.8-24.4-12.8-46.5
			c0-7-4.7-11.6-11.6-11.6c-5.8,0-11.6,4.7-11.6,11.6c0,29.1,5.8,48.9,19.8,62.8c12.8,12.8,30.3,18.6,52.4,18.6
			c60.5,0,93.1-39.6,93.1-110.5C512,132.7,455,69.8,378.2,69.8z"/>
	</g>
</g>
</svg>
