<?xml version="1.0" encoding="utf-8"?>
<!-- Generator: Adobe Illustrator 20.1.0, SVG Export Plug-In . SVG Version: 6.00 Build 0)  -->
<svg version="1.1" id="Layer_1" xmlns="http://www.w3.org/2000/svg" xmlns:xlink="http://www.w3.org/1999/xlink" x="0px" y="0px"
	 viewBox="0 0 512 512" style="enable-background:new 0 0 512 512;" xml:space="preserve">
<style type="text/css">
	.st0{fill:#48A1AA;}
</style>
<g>
	<g>
		<path class="st0" d="M504.4,219.1h-35.9v-37.7c0-11.4-9.3-20.7-20.7-20.7h-24.3c-1.9,0-3.8,0.3-5.5,0.8v-7.6
			c0-11.4-9.3-20.7-20.7-20.7h-40.2c-11.4,0-20.7,9.3-20.7,20.7v65.3h-161v-65.3c0-11.4-9.3-20.7-20.7-20.7h-40.2
			c-11.4,0-20.7,9.3-20.7,20.7v7.6c-1.8-0.5-3.6-0.8-5.5-0.8H64.1c-11.4,0-20.7,9.3-20.7,20.7v37.7H7.6c-4.2,0-7.6,3.4-7.6,7.6v58.7
			c0,4.2,3.4,7.6,7.6,7.6h35.9v37.7c0,11.4,9.3,20.7,20.7,20.7h24.3c1.9,0,3.8-0.3,5.5-0.8v7.6c0,11.4,9.3,20.7,20.7,20.7h40.2
			c11.4,0,20.7-9.3,20.7-20.7v-65.3h161v65.3c0,11.4,9.3,20.7,20.7,20.7h40.2c11.4,0,20.7-9.3,20.7-20.7v-7.6
			c1.8,0.5,3.6,0.8,5.5,0.8h24.3c11.4,0,20.7-9.3,20.7-20.7v-37.7h35.9c4.2,0,7.6-3.4,7.6-7.6v-58.7
			C512,222.5,508.6,219.1,504.4,219.1z M43.4,277.8H15.1v-43.5h28.3V277.8z M94,330.6c0,3.1-2.5,5.5-5.5,5.5H64.1
			c-3.1,0-5.5-2.5-5.5-5.5v-45.3v-58.7v-45.3c0-3.1,2.5-5.5,5.5-5.5h24.3c3.1,0,5.5,2.5,5.5,5.5V330.6z M160.4,226.7v58.7v72.8
			c0,3.1-2.5,5.5-5.5,5.5h-40.2c-3.1,0-5.5-2.5-5.5-5.5v-27.5V181.4v-27.5c0-3.1,2.5-5.5,5.5-5.5h40.2c3.1,0,5.5,2.5,5.5,5.5V226.7z
			 M336.5,277.8h-161v-43.5h161V277.8z M402.9,181.4v149.3v27.5c0,3.1-2.5,5.5-5.5,5.5h-40.2c-3.1,0-5.5-2.5-5.5-5.5v-72.8v-58.7
			v-72.8c0-3.1,2.5-5.5,5.5-5.5h40.2c3.1,0,5.5,2.5,5.5,5.5V181.4z M453.4,226.7v58.7v45.3c0,3.1-2.5,5.5-5.5,5.5h-24.3
			c-3.1,0-5.5-2.5-5.5-5.5V181.4c0-3.1,2.5-5.5,5.5-5.5h24.3c3.1,0,5.5,2.5,5.5,5.5V226.7z M496.9,277.8h-28.3v-43.5h28.3V277.8z"/>
	</g>
</g>
</svg>
