<?xml version="1.0" encoding="utf-8"?>
<!-- Generator: Adobe Illustrator 20.1.0, SVG Export Plug-In . SVG Version: 6.00 Build 0)  -->
<svg version="1.1" id="Capa_1" xmlns="http://www.w3.org/2000/svg" xmlns:xlink="http://www.w3.org/1999/xlink" x="0px" y="0px"
	 viewBox="0 0 60 60" style="enable-background:new 0 0 60 60;" xml:space="preserve">
<style type="text/css">
	.st0{fill:#40919A;}
</style>
<g>
	<circle class="st0" cx="45" cy="44" r="1"/>
	<circle class="st0" cx="50" cy="46" r="1"/>
	<circle class="st0" cx="43" cy="49" r="1"/>
	<circle class="st0" cx="40" cy="43" r="1"/>
	<circle class="st0" cx="39" cy="53" r="1"/>
	<circle class="st0" cx="20" cy="42" r="1"/>
	<circle class="st0" cx="17" cy="50" r="1"/>
	<circle class="st0" cx="16" cy="45" r="1"/>
	<circle class="st0" cx="10" cy="45" r="1"/>
	<circle class="st0" cx="7" cy="41" r="1"/>
	<path class="st0" d="M26.3,45.6c-0.5,1.2-0.3,2.6,0.4,3.7c0.7,1.1,2,1.8,3.3,1.8s2.6-0.7,3.3-1.8c0.7-1.1,0.9-2.5,0.4-3.7L31,38.8
		V8c0-0.6-0.4-1-1-1s-1,0.4-1,1v30.8L26.3,45.6z M31.7,48.2c-0.4,0.6-1,0.9-1.7,0.9s-1.3-0.3-1.7-0.9c-0.4-0.6-0.4-1.2-0.2-1.9
		l1.9-4.6l1.9,4.6C32.1,47,32,47.6,31.7,48.2z"/>
	<path class="st0" d="M60,31L60,31c0-0.3,0-0.7,0-1C60,13.5,46.5,0,30,0S0,13.5,0,30c0,0.3,0,0.7,0,1h0l0,0.5c0,0.2,0,0.3,0,0.5
		l0,0.1c0,0,0,0,0,0.1c0,0.5,0.1,0.9,0.1,1.4c0,0,0,0.1,0,0.1C0.3,34,0.3,34.5,0.4,35c0,0,0,0,0,0c0.1,0.8,0.3,1.5,0.5,2.3l0,0
		L1.1,38c0,0,0,0.1,0,0.1c0.2,0.8,0.5,1.5,0.7,2.2c0,0,0,0,0,0.1c0.3,0.7,0.5,1.3,0.8,2c0.1,0.1,0.1,0.2,0.2,0.4
		c0.3,0.6,0.6,1.2,0.9,1.8c0.1,0.2,0.2,0.3,0.3,0.5c0.3,0.6,0.7,1.2,1.1,1.7c0.1,0.1,0.2,0.2,0.2,0.3c0.4,0.5,0.7,1,1.1,1.5
		c0.1,0.1,0.2,0.2,0.3,0.3c0.4,0.5,0.9,1.1,1.4,1.6c0.1,0.1,0.2,0.2,0.3,0.3c0.5,0.5,1,1,1.6,1.5c0,0,0,0,0,0
		c3.6,3.2,8,5.6,12.8,6.8c0,0,0.1,0,0.1,0c0.4,0.1,0.9,0.2,1.3,0.3c0.1,0,0.2,0,0.2,0c0.2,0,0.3,0.1,0.5,0.1c0,0,0.1,0,0.1,0
		c0.2,0,0.3,0.1,0.5,0.1c0.1,0,0.3,0,0.4,0.1c0.3,0,0.7,0.1,1,0.1c0.1,0,0.2,0,0.3,0c0.1,0,0.2,0,0.3,0c0,0,0,0,0.1,0
		c0.2,0,0.5,0,0.7,0.1c0.5,0,1,0,1.5,0s1,0,1.5,0c0.2,0,0.5,0,0.7-0.1c0,0,0.1,0,0.1,0c0.1,0,0.3,0,0.4,0c0.1,0,0.1,0,0.2,0
		c0.3,0,0.7-0.1,1-0.1c0.1,0,0.3,0,0.4-0.1c0.2,0,0.3,0,0.5-0.1c0.2,0,0.5-0.1,0.7-0.1c0,0,0,0,0,0c0.1,0,0.2,0,0.2,0
		c0.4-0.1,0.9-0.2,1.3-0.3c0,0,0,0,0.1,0c0.4-0.1,0.8-0.2,1.2-0.3c0.3-0.1,0.6-0.2,0.9-0.3c7.7-2.5,14-7.9,17.6-15.2
		c0.2-0.3,0.3-0.6,0.4-0.9c0.1-0.3,0.3-0.6,0.4-0.9c0.3-0.6,0.5-1.3,0.7-1.9c0-0.1,0.1-0.3,0.1-0.4c0.2-0.7,0.5-1.5,0.6-2.3
		c0,0,0,0,0-0.1l0.1-0.5l0,0c0.1-0.5,0.2-0.9,0.3-1.4c0,0,0,0,0,0c0.1-0.5,0.1-0.9,0.2-1.4c0,0,0-0.1,0-0.1c0.1-0.5,0.1-0.9,0.1-1.4
		c0,0,0,0,0-0.1l0-0.1c0-0.2,0-0.3,0-0.5L60,31z M26,35.8l-0.6,1.4c-0.9,0.1-1.9-0.1-2.6-0.8l-0.5-0.5c-2-2-5.2-2-7.2,0l-0.5,0.5
		c-1.2,1.2-3.1,1.2-4.3,0l-0.5-0.5c-2-2-5.2-2-7.2,0l0,0C2.4,35,2.3,34,2.2,33h21.3c1.4,0,2.5,1.1,2.5,2.5V35.8z M27.9,57.9
		c-0.1,0-0.2,0-0.4,0c-0.7-0.1-1.3-0.1-1.9-0.2c-0.1,0-0.2,0-0.3-0.1c-0.7-0.1-1.3-0.2-2-0.4c-0.1,0-0.1,0-0.2,0
		c-0.7-0.2-1.3-0.4-2-0.6c0,0,0,0-0.1,0c-0.6-0.2-1.3-0.5-1.9-0.7c-0.1,0-0.2-0.1-0.3-0.1c-0.6-0.2-1.1-0.5-1.7-0.8
		c-0.1-0.1-0.3-0.1-0.4-0.2c-0.5-0.3-1-0.6-1.5-0.9c-0.2-0.1-0.3-0.2-0.5-0.3c-0.4-0.2-0.7-0.5-1.1-0.8c-0.2-0.2-0.5-0.3-0.7-0.5
		c-0.3-0.3-0.7-0.5-1-0.8c-0.2-0.2-0.5-0.4-0.7-0.6c-0.3-0.3-0.7-0.6-1-0.9c-0.2-0.2-0.5-0.5-0.7-0.7c-0.2-0.2-0.3-0.4-0.5-0.6
		c-0.4-0.4-0.7-0.8-1-1.2c-0.1-0.2-0.3-0.4-0.4-0.6C7.3,46.4,7,46,6.7,45.5c-0.2-0.2-0.3-0.5-0.5-0.7c-0.2-0.3-0.3-0.6-0.5-0.8
		c-0.2-0.4-0.5-0.8-0.7-1.3c-0.1-0.2-0.2-0.5-0.4-0.8c-0.2-0.5-0.4-1-0.7-1.5c-0.1-0.2-0.1-0.4-0.2-0.6c-0.2-0.5-0.4-1-0.5-1.6
		c0-0.1-0.1-0.2-0.1-0.2c0.1-0.1,0.2-0.2,0.4-0.3l0.5-0.5c1.2-1.2,3.2-1.2,4.3,0l0.5,0.5c1,1,2.2,1.5,3.6,1.5s2.6-0.5,3.6-1.5
		l0.5-0.5c1.2-1.2,3.1-1.2,4.3,0l0.5,0.5c0.8,0.8,1.9,1.3,3.1,1.4l-1.9,4.8c-1,2.5-0.7,5.3,0.8,7.5c1.5,2.2,4,3.5,6.6,3.5
		s5.1-1.3,6.6-3.5c1.5-2.2,1.8-5,0.8-7.5l0,0c0,0,0,0,0,0l0,0l-2.1-5.2c1.9,0.9,4.2,0.6,5.8-1c1.2-1.2,3.1-1.2,4.3,0
		c1,1,2.2,1.5,3.6,1.5s2.6-0.5,3.6-1.5l0.5-0.5c1.1-1.1,2.8-1.2,4-0.3c0,0.1-0.1,0.2-0.1,0.3c-0.1,0.5-0.3,1.1-0.5,1.6
		c-0.1,0.3-0.2,0.7-0.4,1c-0.1,0.3-0.2,0.6-0.4,0.9c-3.3,7.7-9.9,13.7-18,16.1c0,0-0.1,0-0.1,0c0,0,0,0,0,0
		c-0.4,0.1-0.7,0.2-1.1,0.3c0,0-0.1,0-0.1,0c-0.4,0.1-0.9,0.2-1.4,0.3c-0.1,0-0.1,0-0.2,0c-0.2,0-0.4,0.1-0.6,0.1
		c-0.6,0.1-1.2,0.2-1.8,0.2c-0.2,0-0.3,0-0.5,0C31.4,58,30.7,58,30,58C29.3,58,28.6,58,27.9,57.9z M34,35.5L34,35.5
		c0-1.4,1.1-2.5,2.5-2.5h21.3c-0.1,0.7-0.2,1.3-0.3,2c-1.9-1-4.3-0.7-5.9,0.9l-0.5,0.5c-1.2,1.2-3.2,1.2-4.3,0c-2-2-5.2-2-7.2,0
		c-1.2,1.2-3.1,1.2-4.3,0l-1.1-1.1L34,35.5z M2,30C2,14.6,14.6,2,30,2s28,12.6,28,28c0,0.3,0,0.7,0,1H36.5C34,31,32,33,32,35.5v0.7
		l3.6,8.6c0.7,1.8,0.5,3.9-0.6,5.6s-3,2.6-5,2.6s-3.9-1-5-2.6c-1.1-1.6-1.3-3.7-0.6-5.6l3.6-8.7v-0.7c0-2.5-2-4.5-4.5-4.5H2
		C2,30.7,2,30.3,2,30z"/>
</g>
</svg>
