<?xml version="1.0" encoding="utf-8"?>
<!-- Generator: Adobe Illustrator 20.1.0, SVG Export Plug-In . SVG Version: 6.00 Build 0)  -->
<svg version="1.1" id="Capa_1" xmlns="http://www.w3.org/2000/svg" xmlns:xlink="http://www.w3.org/1999/xlink" x="0px" y="0px"
	 viewBox="0 0 512 512" style="enable-background:new 0 0 512 512;" xml:space="preserve">
<style type="text/css">
	.st0{fill:#48A1AA;}
</style>
<g>
	<g>
		<path class="st0" d="M437,75C388.7,26.6,324.4,0,256,0S123.3,26.6,75,75C26.6,123.3,0,187.6,0,256c0,8.7,0.4,17.4,1.3,26H0v230
			h376v-29.8c39.3-20.9,72.6-51.7,96.5-89.4C498.3,351.9,512,304.6,512,256C512,187.6,485.4,123.3,437,75z M136,482H30V312h106V482z
			 M141,256c0-63.4,51.6-115,115-115s115,51.6,115,115c0,34-14.9,65.6-40,87.2V322h-11.3c0.8-3.2,1.3-6.5,1.3-10
			c0-22.1-17.9-40-40-40h-50c-22.1,0-40,17.9-40,40c0,3.5,0.4,6.8,1.3,10H181v50h-15v-90h-22C142,273.5,141,264.8,141,256z M301,352
			v20h-90v-20H301z M221,312c0-5.5,4.5-10,10-10h50c5.5,0,10,4.5,10,10s-4.5,10-10,10h-50C225.5,322,221,317.5,221,312z M346,482
			H166v-80h180V482z M447.1,376.7c-18.2,28.7-42.5,52.9-71.1,70.9V372h-33c36.2-27.1,58-69.8,58-116c0-80-65-145-145-145
			s-145,65-145,145c0,8.8,0.8,17.5,2.3,26H31.5c-1-8.6-1.5-17.3-1.5-26c0-60.4,23.5-117.1,66.2-159.8S195.6,30,256,30
			s117.1,23.5,159.8,66.2S482,195.6,482,256C482,298.9,469.9,340.6,447.1,376.7z"/>
	</g>
</g>
<g>
	<g>
		<circle class="st0" cx="444" cy="256" r="15"/>
	</g>
</g>
<g>
	<g>
		<circle class="st0" cx="429" cy="184" r="15"/>
	</g>
</g>
<g>
	<g>
		<circle class="st0" cx="383" cy="120" r="15"/>
	</g>
</g>
<g>
	<g>
		<rect x="45" y="332" class="st0" width="76" height="30"/>
	</g>
</g>
<g>
	<g>
		<rect x="45" y="382" class="st0" width="76" height="30"/>
	</g>
</g>
<g>
	<g>
		<rect x="45" y="432" class="st0" width="76" height="30"/>
	</g>
</g>
</svg>
