<?xml version="1.0" encoding="UTF-8"?>
<!DOCTYPE svg PUBLIC "-//W3C//DTD SVG 1.1//EN" "http://www.w3.org/Graphics/SVG/1.1/DTD/svg11.dtd">
<!-- Creator: CorelDRAW 2018 (64-Bit) -->
<svg xmlns="http://www.w3.org/2000/svg" xml:space="preserve" width="5906px" height="5906px" version="1.1" style="shape-rendering:geometricPrecision; text-rendering:geometricPrecision; image-rendering:optimizeQuality; fill-rule:evenodd; clip-rule:evenodd"
viewBox="0 0 5906 5906"
 xmlns:xlink="http://www.w3.org/1999/xlink">
 <defs>
  <style type="text/css">
   <![CDATA[
    .fil0 {fill:#40919A}
   ]]>
  </style>
 </defs>
 <g id="Слой_x0020_1">
  <metadata id="CorelCorpID_0Corel-Layer"/>
  <g id="_2632570365936">
   <path class="fil0" d="M0 1847.31c0,256.68 14.36,467.53 93.58,702.34 24.71,73.24 55.15,139.74 86.03,213.89 18.26,43.85 26.45,62.65 47.07,102.88 21.65,42.22 39.95,55.97 50.16,99.8 -183.62,0 -276.84,70.2 -276.84,253.77 0,111.89 95.74,207.64 207.63,207.64l1361.15 0c214.06,0 288.16,-492.09 403.73,-576.76 4.57,54.87 456.25,1048.22 479.92,1077.32 105.02,129.12 313.83,118.77 396.54,-27.84l311.66 -622.69 32.78 47.98c5.59,7.91 12.79,17.56 20.18,25.96 38.94,44.24 82.68,76.03 154.67,76.03l703.65 0c202.1,0 280.36,-291.97 134.15,-411 -51.55,-41.96 -99.85,-51.22 -191.67,-50.57 -161.42,1.14 -323.18,0.16 -484.63,0.16 -17.9,-76.83 -94.28,-188.39 -130.88,-261.32 -60.79,-121.15 -113.44,-177.02 -261.32,-177.02 -189.93,0 -277.8,315.61 -372.91,492.22 -32.49,60.34 -84.22,132.03 -100.03,199.89l-23.07 0c-5.39,-64.75 -239.41,-557.2 -269.28,-618.93 -80.03,-165.36 -184.14,-546.12 -353.62,-546.12 -147.65,0 -211.6,29.32 -276.93,161.41l-311.36 634.52c-79.96,160.13 -2.72,115.35 -565.22,115.35 -67.51,0 -392.2,-590.23 -392.2,-945.88 0,-222.66 18.03,-402.33 95.47,-596.65 153.14,-384.27 520.54,-672.22 954.23,-672.22 250.72,0 440.49,16.11 653.72,130.67 269.43,144.75 436.24,417.01 511.6,711.13 45.86,179.02 31.51,369.39 276.57,369.39 216.32,0 214.41,-208.49 251.2,-360.17 72.29,-298.1 238.76,-567.45 506.42,-716.31 420.29,-233.75 1090.71,-175.53 1407.59,203.21 255.63,305.53 303.32,550.55 303.32,954.01 0,357.63 -299.76,869.08 -510.51,1104.42l-146.97 176.01c-98.58,128 -276.87,223.25 -276.87,403.71 0,110.28 97.75,219.17 207.63,219.17 152.89,0 181.42,-49.74 285.6,-152.74 37.25,-36.83 50.92,-62.93 86.2,-98.37 95.68,-96.14 182.87,-203.31 264.23,-312.52 281.95,-378.46 563.63,-836.31 563.63,-1339.68 0,-280.24 -20.88,-588.99 -134.52,-822.9 -21.56,-44.38 -34.79,-85.23 -59.25,-125.3l-148.87 -231.79c-58.01,-78.02 -119.09,-128.11 -185.14,-195.53 -44.35,-45.26 -59.09,-51.44 -108.44,-87.65 -42.22,-30.98 -59.31,-47.88 -109.52,-75.05 -47.68,-25.8 -76.32,-43.58 -127.08,-69.02 -467.54,-234.31 -1136.63,-210.09 -1586.37,59.33 -158.06,94.7 -442.24,348.29 -482.28,498.22l-23.06 0c-31.41,-117.61 -226.66,-307.58 -332.73,-393.99 -49.14,-40.04 -93.52,-70.65 -149.55,-104.23 -443.1,-265.44 -1114.92,-296.59 -1578.7,-63.19 -160.23,80.64 -325.08,181.35 -440.67,320.65 -31.61,38.1 -55.11,54.19 -87.35,97.21 -85.6,114.19 -152.03,235.91 -214.07,362.69 -67.61,138.17 -138.4,427.55 -138.4,634.46z"/>
   <path class="fil0" d="M1291.94 4027.45c0,81.32 -5.6,126.29 65.81,199.5l208.08 184.11c37.66,38.29 65.2,53.03 103.82,92.28 86.93,88.38 308.04,265.27 415.12,369.27l599.52 577.07c147.67,176.6 135.28,181.16 314.85,181.16 93.76,0 170.15,-121.79 227.91,-187.36l357.45 -357.73c105.1,-106.34 356.86,-309.43 450.02,-403.58 104.03,-105.14 106.6,-91.09 106.6,-250.99 0,-126.79 -212.58,-282.23 -389.09,-135.32 -22.68,18.88 -28.09,29.46 -54.12,49.7l-349.32 308.19c-22.25,18.6 -37.59,36.39 -58.18,57.16l-337.41 320.1c-50.26,-33.65 -117.03,-111.26 -164.37,-158.61 -120.94,-120.95 -333.5,-297.57 -420.97,-386.5 -35.05,-35.62 -58.24,-46.18 -92.52,-80.5l-513.35 -455.6c-112.08,-108.86 -131.7,-129.98 -262.22,-129.98 -104.85,0 -207.63,101.49 -207.63,207.63z"/>
  </g>
 </g>
</svg>
