<?xml version="1.0" encoding="utf-8"?>
<!-- Generator: Adobe Illustrator 20.1.0, SVG Export Plug-In . SVG Version: 6.00 Build 0)  -->
<svg version="1.1" id="Capa_1" xmlns="http://www.w3.org/2000/svg" xmlns:xlink="http://www.w3.org/1999/xlink" x="0px" y="0px"
	 viewBox="0 0 512 512" style="enable-background:new 0 0 512 512;" xml:space="preserve">
<style type="text/css">
	.st0{fill:#48A1AA;}
</style>
<g>
	<g>
		<path class="st0" d="M256,170.3c-27.6,0-50,22.5-50,50.1s22.4,50.1,50,50.1s50-22.5,50-50.1S283.6,170.3,256,170.3z M256,250.5
			c-16.5,0-30-13.5-30-30.1s13.5-30.1,30-30.1s30,13.5,30,30.1S272.5,250.5,256,250.5z"/>
	</g>
</g>
<g>
	<g>
		<path class="st0" d="M411.6,64.6C370,22.9,314.8,0,256,0c-58.8,0-114,22.9-155.6,64.6C58.9,106.2,36,161.6,36,220.4V502
			c0,5.5,4.5,10,10,10h420c5.5,0,10-4.5,10-10V220.4C476,161.6,453.1,106.2,411.6,64.6z M166,492H56v-20h110V492z M326,451.9h-30
			c-5.5,0-10,4.5-10,10s4.5,10,10,10h30v20H186v-20h30c5.5,0,10-4.5,10-10s-4.5-10-10-10h-30v-20h140V451.9z M326,411.8H186v-20h140
			V411.8z M336,371.7H176c-5.5,0-10-4.5-10-10s4.5-10,10-10h160c5.5,0,10,4.5,10,10S341.5,371.7,336,371.7z M155.5,339.8
			c-33.9-28.7-55.5-71.6-55.5-119.4c0-86.2,70-156.3,156-156.3s156,70.1,156,156.3c0,47.8-21.6,90.7-55.5,119.4
			c-5.4-5.1-12.6-8.2-20.5-8.2H176C168.1,331.6,160.8,334.8,155.5,339.8z M456,492H346v-20h110V492z M456,451.9H346V390
			c11.6-4.1,20-15.3,20-28.3c0-1.2-0.1-2.4-0.2-3.6c40.3-32.3,66.2-82.1,66.2-137.7c0-97.2-79-176.3-176-176.3S80,123.2,80,220.4
			c0,55.7,25.9,105.4,66.2,137.7c-0.1,1.2-0.2,2.4-0.2,3.6c0,13.1,8.4,24.2,20,28.3v61.8H56V220.4C56,109.9,145.7,20,256,20
			s200,89.9,200,200.4V451.9z"/>
	</g>
</g>
<g>
	<g>
		<path class="st0" d="M256,451.9c-5.5,0-10,4.5-10,10s4.5,10,10,10c5.5,0,10-4.5,10-10S261.5,451.9,256,451.9z"/>
	</g>
</g>
<g>
	<g>
		<path class="st0" d="M195.4,185.4c2.8-4.8,1.1-10.9-3.7-13.7c-4.8-2.8-10.9-1.1-13.7,3.7c-16,27.8-16,62.4,0,90.2
			c1.9,3.2,5.2,5,8.7,5c1.7,0,3.4-0.4,5-1.3c4.8-2.8,6.4-8.9,3.7-13.7C182.9,233.9,182.9,207,195.4,185.4z"/>
	</g>
</g>
<g>
	<g>
		<path class="st0" d="M159,272.4c-17.2-32.2-17.4-70.8-0.4-103.2c2.6-4.9,0.7-11-4.2-13.5c-4.9-2.6-10.9-0.7-13.5,4.2
			c-20.1,38.3-19.9,83.9,0.4,122c1.8,3.4,5.3,5.3,8.8,5.3c1.6,0,3.2-0.4,4.7-1.2C159.7,283.3,161.6,277.3,159,272.4z"/>
	</g>
</g>
</svg>
