<?xml version="1.0" encoding="utf-8"?>
<!-- Generator: Adobe Illustrator 20.1.0, SVG Export Plug-In . SVG Version: 6.00 Build 0)  -->
<svg version="1.1" id="Слой_1" xmlns="http://www.w3.org/2000/svg" xmlns:xlink="http://www.w3.org/1999/xlink" x="0px" y="0px"
	 viewBox="0 0 200 200" style="enable-background:new 0 0 200 200;" xml:space="preserve">
<style type="text/css">
	.st0{fill:#40919A;}
</style>
<rect x="79.9" y="69.3" transform="matrix(0.7476 -0.6642 0.6642 0.7476 -23.8728 93.5397)" class="st0" width="62.5" height="17.7"/>
<rect x="161" y="21.9" transform="matrix(0.7476 -0.6642 0.6642 0.7476 21.7025 118.6897)" class="st0" width="12" height="17.7"/>
<path class="st0" d="M135.9,33.3c-5.1-3.4-8.9-5.5-13.3-7.2c-14.7-5.6-27.5-3.8-33-3c-2.6,0.4-25.5,4-41.1,19.9
	c-19.9,20.3-22.7,54.4-7,84.8l5.2-2.7c-14.6-28.1-12.2-59.5,5.9-78C66.9,32.6,88,29.2,90.4,28.9c5-0.7,16.8-2.4,30.1,2.7
	c4,1.5,7.4,3.4,12.1,6.5c0,0,0.1,0,0.1,0.1c0.9-1.8,2-3.4,3.4-4.8C136,33.4,135.9,33.3,135.9,33.3z"/>
<path class="st0" d="M170.1,65.6c-1.9-3.1-3.9-5.9-6-8.5c-1.2,1.6-2.6,3-4.2,4.2c1.8,2.3,3.5,4.7,5.1,7.3
	c10.7,17.7,13.6,36.3,8.2,53.8c-4.9,16-16.5,29.7-32.7,38.8c-17.8,9.9-34.3,12.5-49,7.7c-13.1-4.3-27.3-15.5-24.2-33.1
	c2.5-14.1,12.8-28.5,27.5-38.4l-3.3-4.9c-16,10.8-27.2,26.6-30,42.2c-3.1,17.5,7.9,33.1,28.2,39.8c5.4,1.8,11,2.6,16.7,2.6
	c11.7,0,24.1-3.6,37-10.8c17.6-9.8,30.2-24.8,35.5-42.2C184.7,105.3,181.6,84.5,170.1,65.6z"/>
<path class="st0" d="M149.2,30.7c-4.2,0-8,1.6-10.8,4.3c-1.4,1.4-2.6,3-3.4,4.8c-0.9,2-1.5,4.3-1.5,6.6c0,8.7,7,15.7,15.7,15.7
	c3.4,0,6.5-1.1,9-2.9c1.6-1.1,3-2.6,4.1-4.3c1.6-2.5,2.5-5.4,2.5-8.6C164.9,37.7,157.8,30.7,149.2,30.7z"/>
</svg>
