<?xml version="1.0" encoding="utf-8"?>
<!-- Generator: Adobe Illustrator 20.1.0, SVG Export Plug-In . SVG Version: 6.00 Build 0)  -->
<svg version="1.1" id="Capa_1" xmlns="http://www.w3.org/2000/svg" xmlns:xlink="http://www.w3.org/1999/xlink" x="0px" y="0px"
	 viewBox="0 0 59.4 59.4" style="enable-background:new 0 0 59.4 59.4;" xml:space="preserve">
<style type="text/css">
	.st0{fill:#40919A;}
</style>
<g>
	<path class="st0" d="M59.4,6.2c0-1.2-0.5-2.4-1.4-3.3c-1.8-1.8-4.8-1.8-6.6,0L18.1,36.3c-0.5,0.5-0.7,1.2-0.6,1.9L0.3,55.4
		C0.1,55.6,0,56,0,56.3s0.3,0.6,0.6,0.7c0.2,0.1,2.2,0.8,4.9,0.8c2.7,0,6.1-0.7,9.1-3.6l7.1-7.1c0.2-0.2,0.3-0.6,0.3-0.9l-0.5-2.7
		l2.3-2.3l0.4,0.1c0.2,0.1,0.5,0.1,0.7,0.1c0.8,0,1.7-0.3,2.3-1l27-27c0,0,0,0,0,0L58,9.5C58.9,8.6,59.4,7.5,59.4,6.2z M49.9,14.9
		l-2.4-5.2l2.4-2.4l2.4,5.2L49.9,14.9z M46,18.7l-2.4-5.2l2.4-2.4l2.4,5.2L46,18.7z M21.5,40.6l-1.8,1.8c-0.2,0.2-0.3,0.6-0.3,0.9
		L20,46l-6.7,6.7c-3.6,3.5-8,3.3-10.3,2.8l15.7-15.7c0,0,0,0,0,0c0.2,0.1,0.4,0.2,0.6,0.2L21.5,40.6z M25.8,39
		c-0.3,0.3-0.7,0.4-1.2,0.3l-4.9-1.1c-0.1,0-0.1,0-0.1-0.1c0,0,0,0-0.1-0.1c0,0,0,0,0-0.1c0-0.1,0-0.2,0.1-0.3l22.6-22.6l2.4,5.2
		L25.8,39z M56.6,8.1L53.8,11l-2.4-5.2l1.5-1.5c0.5-0.5,1.2-0.8,1.9-0.8c0.7,0,1.4,0.3,1.9,0.8c0.5,0.5,0.8,1.2,0.8,1.9
		S57.1,7.6,56.6,8.1z"/>
	<path class="st0" d="M12.8,47.9l-2,2c-0.4,0.4-0.4,1,0,1.4c0.2,0.2,0.5,0.3,0.7,0.3s0.5-0.1,0.7-0.3l2-2c0.4-0.4,0.4-1,0-1.4
		S13.1,47.5,12.8,47.9z"/>
	<path class="st0" d="M8.8,51.9c-0.2,0.2-0.3,0.5-0.3,0.7s0.1,0.5,0.3,0.7c0.2,0.2,0.4,0.3,0.7,0.3c0.3,0,0.5-0.1,0.7-0.3
		c0.2-0.2,0.3-0.5,0.3-0.7s-0.1-0.5-0.3-0.7C9.8,51.5,9.1,51.5,8.8,51.9z"/>
</g>
</svg>
