<svg width="70" height="69" viewBox="0 0 70 69" version="1.1" xmlns="http://www.w3.org/2000/svg" xmlns:xlink="http://www.w3.org/1999/xlink">
<title>infrared</title>
<desc>Created using Figma</desc>
<g id="Canvas" transform="translate(-43781 -1158)">
<g id="infrared">
<g id="Group">
<g id="Group">
<g id="Vector">
<use xlink:href="#path0_fill" transform="translate(43781.3 1158.79)" fill="#40919A"/>
</g>
</g>
</g>
<g id="Group">
<g id="Group">
<g id="Vector">
<use xlink:href="#path1_fill" transform="translate(43791.7 1201.31)" fill="#40919A"/>
</g>
</g>
</g>
<g id="Group">
<g id="Group">
<g id="Vector">
<use xlink:href="#path2_fill" transform="translate(43798.5 1180.05)" fill="#40919A"/>
</g>
</g>
</g>
<g id="Group">
<g id="Group">
<g id="Vector">
<use xlink:href="#path3_fill" transform="translate(43802.5 1180.05)" fill="#40919A"/>
</g>
</g>
</g>
<g id="Group">
<g id="Group">
<g id="Vector">
<use xlink:href="#path4_fill" transform="translate(43793.2 1180.05)" fill="#40919A"/>
</g>
</g>
</g>
</g>
</g>
<defs>
<path id="path0_fill" d="M 67.773 47.8398L 65.6986 47.8398C 67.0635 45.4298 67.7992 42.6754 67.7992 39.8665C 67.7992 31.0736 60.7742 23.9199 52.1391 23.9199C 46.8983 23.9199 42.0633 26.569 39.1667 30.9308C 37.6373 29.8287 35.8162 29.2354 33.8996 29.2354L 6.64444 29.2354L 6.64444 7.47501C 6.64444 4.81891 8.8055 2.65786 11.4616 2.65786L 12.4583 2.65786C 14.8311 2.65786 16.8074 4.38284 17.2025 6.64458L 15.9466 6.64458C 15.2128 6.64458 14.6177 7.23964 14.6177 7.97344L 14.6177 10.6331C 12.9615 11.879 11.96 13.8505 11.96 15.9467L 11.96 18.6045C 11.96 19.3383 12.5551 19.9333 13.2889 19.9333L 23.9199 19.9333C 24.6537 19.9333 25.2488 19.3383 25.2488 18.6045L 25.2488 15.9467C 25.2488 13.8505 24.2473 11.879 22.5911 10.6331L 22.5911 7.9733C 22.5911 7.2395 21.996 6.64444 21.2622 6.64444L 19.8861 6.64444C 19.4715 2.91227 16.2993 -1.90494e-08 12.4583 -1.90494e-08L 11.4616 -1.90494e-08C 7.33978 -1.90494e-08 3.98658 3.35319 3.98658 7.47501L 3.98658 29.2355L 1.32886 29.2355C 0.595059 29.2355 0 29.8305 0 30.5644L 0 57.142C 0 57.8758 0.595059 58.4708 1.32886 58.4708L 22.1481 58.4708L 22.1481 61.1286C 22.1481 64.7923 25.082 67.773 28.6883 67.773C 32.2946 67.773 35.2285 64.7923 35.2285 61.1286L 35.2285 58.4708L 67.773 58.4708C 68.5068 58.4708 69.1019 57.8758 69.1019 57.142L 69.1019 49.1687C 69.1019 48.4349 68.5068 47.8398 67.773 47.8398ZM 17.2755 9.30217L 19.9332 9.30217L 19.9332 11.3439C 19.9332 11.8183 20.186 12.2564 20.5964 12.4942C 21.8267 13.2062 22.5909 14.5289 22.5909 15.9466L 22.5909 17.2755L 14.6176 17.2755L 14.6176 15.9466C 14.6176 14.5289 15.3819 13.206 16.6121 12.4942C 17.0225 12.2567 17.2753 11.8183 17.2753 11.344L 17.2753 9.30217L 17.2755 9.30217ZM 22.1481 55.8131L 2.65772 55.8131L 2.65772 50.4975L 22.1481 50.4975L 22.1481 55.8131ZM 33.8995 39.8665C 33.1657 39.8665 32.5706 40.4616 32.5706 41.1954L 32.5706 61.1286C 32.5706 63.3269 30.829 65.1153 28.6881 65.1153C 26.5473 65.1153 24.8057 63.3269 24.8057 61.1286L 24.8057 41.1954C 24.8057 40.4616 24.2106 39.8665 23.4768 39.8665C 22.743 39.8665 22.148 40.4616 22.148 41.1954L 22.148 47.8398L 2.65772 47.8398L 2.65772 45.1821L 7.84306 45.1821C 8.57687 45.1821 9.17193 44.587 9.17193 43.8532C 9.17193 43.1194 8.57687 42.5244 7.84306 42.5244L 2.65772 42.5244L 2.65772 31.8933L 33.8995 31.8933C 35.3582 31.8933 36.7391 32.3835 37.8711 33.2865C 37.1474 34.9083 36.7008 36.6305 36.5427 38.4209C 36.4781 39.1519 37.0184 39.797 37.7495 39.8615C 37.7893 39.865 37.8288 39.8668 37.868 39.8668C 38.549 39.8668 39.1291 39.346 39.1901 38.6547C 39.3479 36.8699 39.8479 35.167 40.6755 33.5916C 42.948 29.2653 47.3402 26.5778 52.1391 26.5778C 59.3086 26.5778 65.1415 32.539 65.1415 39.8666C 65.1415 42.743 64.2221 45.5503 62.5417 47.84L 35.2285 47.84L 35.2285 41.1955C 35.2285 40.4616 34.6333 39.8665 33.8995 39.8665ZM 66.4442 55.8131L 35.2285 55.8131L 35.2285 50.4975L 66.4442 50.4975L 66.4442 55.8131Z"/>
<path id="path1_fill" d="M 2.26835 0.389374C 2.02109 0.142119 1.67828 0 1.32886 0C 0.979438 0 0.636493 0.142119 0.389373 0.389374C 0.142388 0.636494 -1.31801e-07 0.979439 -1.31801e-07 1.32886C -1.31801e-07 1.67829 0.142253 2.02123 0.389373 2.26822C 0.636493 2.51534 0.979438 2.65772 1.32886 2.65772C 1.67828 2.65772 2.02123 2.51547 2.26835 2.26822C 2.51534 2.02123 2.65772 1.67829 2.65772 1.32886C 2.65772 0.979439 2.51547 0.636494 2.26835 0.389374Z"/>
<path id="path2_fill" d="M 1.32886 7.57858e-07C 0.595058 7.57858e-07 0 0.595059 0 1.32886L 0 3.98658C 0 4.72039 0.595058 5.31544 1.32886 5.31544C 2.06266 5.31544 2.65772 4.72039 2.65772 3.98658L 2.65772 1.32886C 2.65772 0.595059 2.06266 7.57858e-07 1.32886 7.57858e-07Z"/>
<path id="path3_fill" d="M 3.59745 1.71783L 2.26859 0.389102C 1.74951 -0.129702 0.908413 -0.129702 0.389204 0.389102C -0.129735 0.908041 -0.129735 1.74955 0.389204 2.26848L 1.71807 3.59735C 1.97774 3.85661 2.31771 3.98645 2.65782 3.98645C 2.99794 3.98645 3.33791 3.85661 3.59745 3.59721C 4.11639 3.07827 4.11639 2.2369 3.59745 1.71783Z"/>
<path id="path4_fill" d="M 3.59731 0.389085C 3.07824 -0.129719 2.23714 -0.129718 1.71807 0.389221L 0.389204 1.71808C -0.129735 2.23702 -0.129735 3.07839 0.389204 3.59746C 0.648741 3.85673 0.988717 3.98657 1.32883 3.98657C 1.66894 3.98657 2.00892 3.85673 2.26845 3.59733L 3.59731 2.26847C 4.11625 1.74966 4.11625 0.908159 3.59731 0.389085Z"/>
</defs>
</svg>
