<?xml version="1.0" encoding="utf-8"?>
<!-- Generator: Adobe Illustrator 20.1.0, SVG Export Plug-In . SVG Version: 6.00 Build 0)  -->
<svg version="1.1" id="Capa_1" xmlns="http://www.w3.org/2000/svg" xmlns:xlink="http://www.w3.org/1999/xlink" x="0px" y="0px"
	 viewBox="0 0 214.5 214.5" style="enable-background:new 0 0 214.5 214.5;" xml:space="preserve">
<style type="text/css">
	.st0{fill:#40919A;}
</style>
<g>
	<path class="st0" d="M107.2,214.5c-34.4,0-62.4-28-62.4-62.4V97.7c0,0,0-0.1,0-0.1V62.4C44.9,28,72.9,0,107.2,0s62.4,28,62.4,62.4
		v89.8c0,3.2-0.2,6.4-0.7,9.5c0,0.1,0,0.2,0,0.2C164.2,191.6,138.3,214.5,107.2,214.5z M49.9,101.9v50.3c0,31.6,25.7,57.4,57.4,57.4
		c28,0,51.4-20.2,56.4-46.8l-55.7-29.8c0,0-0.1,0-0.1-0.1L49.9,101.9z M114.2,130.6l50.2,26.8c0.2-1.7,0.2-3.5,0.2-5.3v-50.5
		L114.2,130.6z M49.9,96.2l59.1,31.6l55.6-32V62.4c0-31.6-25.7-57.4-57.4-57.4S49.9,30.7,49.9,62.4V96.2z M107.2,100.2
		c-21,0-38.1-17.1-38.1-38.1c0-21,17.1-38.1,38.1-38.1s38.1,17.1,38.1,38.1C145.3,83.1,128.2,100.2,107.2,100.2z M107.2,29
		C89,29,74.2,43.9,74.2,62.1S89,95.2,107.2,95.2s33.1-14.8,33.1-33.1S125.5,29,107.2,29z M107.2,88.1c-5.9,0-10.7-4.8-10.7-10.7
		s4.8-10.7,10.7-10.7s10.7,4.8,10.7,10.7S113.1,88.1,107.2,88.1z M107.2,71.6c-3.2,0-5.7,2.6-5.7,5.7c0,3.2,2.6,5.7,5.7,5.7
		s5.7-2.6,5.7-5.7C112.9,74.2,110.4,71.6,107.2,71.6z M128.8,55.3c-0.9,0-1.7-0.4-2.1-1.2c-0.1-0.1-1.2-1.9-3.8-1.9
		c-2.5,0-3.6,1.7-3.7,1.9c-0.7,1.2-2.2,1.6-3.4,0.9c-1.2-0.7-1.6-2.2-0.9-3.4c0.9-1.6,3.6-4.4,8-4.4c4.4,0,7.1,2.7,8.1,4.4
		c0.7,1.2,0.3,2.7-0.9,3.4C129.7,55.2,129.3,55.3,128.8,55.3z M97.9,55.3c-0.9,0-1.7-0.4-2.1-1.2c-0.1-0.1-1.2-1.9-3.8-1.9
		c-2.5,0-3.6,1.7-3.7,1.9c-0.7,1.2-2.2,1.6-3.4,0.9c-1.2-0.7-1.6-2.2-0.9-3.4c0.9-1.6,3.6-4.4,8-4.4c4.4,0,7.1,2.7,8.1,4.4
		c0.7,1.2,0.3,2.7-0.9,3.4C98.7,55.2,98.3,55.3,97.9,55.3z"/>
	<path class="st0" d="M107.2,215.5c-34.9,0-63.4-28.4-63.4-63.4V62.4C43.9,27.4,72.3-1,107.2-1c34.9,0,63.4,28.4,63.4,63.4v89.8
		c0,3.2-0.2,6.4-0.7,9.6c0,0.1,0,0.2,0,0.3c-2.3,14.7-9.8,28.2-21.2,38C137.1,210,122.4,215.5,107.2,215.5z M107.2,1
		C73.4,1,45.9,28.5,45.9,62.4v89.8c0,33.8,27.5,61.4,61.4,61.4c14.7,0,28.9-5.3,40.1-14.9c11-9.5,18.3-22.6,20.6-36.9
		c0-0.1,0-0.1,0-0.2c0.5-3.1,0.7-6.2,0.7-9.4V62.4C168.6,28.5,141.1,1,107.2,1z M107.2,210.5c-32.2,0-58.4-26.2-58.4-58.4v-52
		l59.4,31.8l-0.4,0.9l0.5-0.9l56.4,30.2l-0.1,0.7C159.5,190.5,135.3,210.5,107.2,210.5z M50.9,103.5v48.6
		c0,31.1,25.3,56.4,56.4,56.4c26.9,0,50-19,55.3-45.3L50.9,103.5z M165.2,159l-53.1-28.4l53.5-30.7v52.3c0,1.8-0.1,3.6-0.2,5.4
		L165.2,159z M116.2,130.5l47.3,25.3c0.1-1.2,0.1-2.4,0.1-3.7v-48.8L116.2,130.5z M109,128.9L48.9,96.8V62.4
		C48.9,30.2,75.1,4,107.2,4c32.2,0,58.4,26.2,58.4,58.4v34.1L109,128.9z M50.9,95.6l58.1,31.1l54.6-31.4V62.4
		c0-31.1-25.3-56.4-56.4-56.4S50.9,31.3,50.9,62.4V95.6z M107.2,101.2c-21.5,0-39.1-17.5-39.1-39.1c0-21.5,17.5-39.1,39.1-39.1
		s39.1,17.5,39.1,39.1C146.3,83.7,128.8,101.2,107.2,101.2z M107.2,25c-20.4,0-37.1,16.6-37.1,37.1c0,20.4,16.6,37.1,37.1,37.1
		c20.4,0,37.1-16.6,37.1-37.1C144.3,41.7,127.7,25,107.2,25z M107.2,96.2c-18.8,0-34.1-15.3-34.1-34.1c0-18.8,15.3-34.1,34.1-34.1
		c18.8,0,34.1,15.3,34.1,34.1C141.3,80.9,126,96.2,107.2,96.2z M107.2,30c-17.7,0-32.1,14.4-32.1,32.1s14.4,32.1,32.1,32.1
		c17.7,0,32.1-14.4,32.1-32.1S124.9,30,107.2,30z M107.2,89.1c-6.5,0-11.7-5.3-11.7-11.7s5.3-11.7,11.7-11.7s11.7,5.3,11.7,11.7
		S113.7,89.1,107.2,89.1z M107.2,67.6c-5.4,0-9.7,4.4-9.7,9.7c0,5.4,4.4,9.7,9.7,9.7s9.7-4.4,9.7-9.7
		C116.9,72,112.6,67.6,107.2,67.6z M107.2,84.1c-3.7,0-6.7-3-6.7-6.7s3-6.7,6.7-6.7s6.7,3,6.7,6.7S110.9,84.1,107.2,84.1z
		 M107.2,72.6c-2.6,0-4.7,2.1-4.7,4.7s2.1,4.7,4.7,4.7s4.7-2.1,4.7-4.7S109.8,72.6,107.2,72.6z M128.8,56.3c-1.2,0-2.4-0.7-3-1.7
		c0,0-0.9-1.4-2.9-1.4c-1.9,0-2.8,1.2-2.8,1.4c-1,1.6-3.1,2.2-4.8,1.2c-1.7-1-2.2-3-1.3-4.7c1-1.8,4-4.9,8.9-4.9
		c4.8,0,7.9,3.1,8.9,4.9c0.5,0.8,0.6,1.8,0.4,2.7c-0.2,0.9-0.8,1.7-1.6,2.1C130.1,56.1,129.5,56.3,128.8,56.3z M122.9,51.2
		c3,0,4.5,2.1,4.6,2.3c0.4,0.7,1.4,1,2.1,0.6c0.3-0.2,0.6-0.5,0.7-0.9c0.1-0.4,0-0.8-0.2-1.1c-0.8-1.4-3.3-3.9-7.2-3.9
		c-3.9,0-6.4,2.4-7.2,3.9c-0.4,0.7-0.1,1.6,0.6,2c0.7,0.4,1.6,0.2,2.1-0.5C118.5,53.3,119.9,51.2,122.9,51.2z M97.9,56.3
		c-1.2,0-2.4-0.7-3-1.7c0,0-0.9-1.4-2.9-1.4c-2,0-2.8,1.3-2.8,1.4c-1,1.6-3.1,2.2-4.8,1.2c-1.7-1-2.2-3-1.3-4.7c1-1.8,4-4.9,8.9-4.9
		c4.8,0,7.9,3,8.9,4.9c0.5,0.8,0.6,1.8,0.4,2.7c-0.2,0.9-0.8,1.7-1.6,2.1C99.1,56.1,98.5,56.3,97.9,56.3z M92,51.2
		c3,0,4.5,2.1,4.6,2.3c0.4,0.7,1.4,1,2.1,0.6c0.3-0.2,0.6-0.5,0.7-0.9c0.1-0.4,0-0.8-0.2-1.1c-0.8-1.4-3.3-3.9-7.2-3.9
		c-3.9,0-6.4,2.4-7.2,3.9c-0.4,0.7-0.1,1.6,0.6,2c0.7,0.4,1.6,0.2,2.1-0.5C87.6,53.3,88.9,51.2,92,51.2z"/>
</g>
</svg>
