<svg width="50" height="50" viewBox="0 0 50 50" fill="none" xmlns="http://www.w3.org/2000/svg">
<path fill-rule="evenodd" clip-rule="evenodd" d="M25.9444 13.114C26.1769 13.5529 26.0946 14.0494 25.7646 14.3571C25.57 14.5411 25.3212 14.631 25.0723 14.631C24.8042 14.631 24.5363 14.5248 24.3361 14.3157L22.1444 11.9341C21.9384 11.5202 22.0029 11.0798 22.2844 10.7722L22.8529 10.1535L21.3505 8.43634C21.1297 7.99445 21.2268 7.50098 21.5641 7.20055C21.9764 6.82955 22.6171 6.86484 22.9884 7.27717L25.1106 9.69686C25.3037 10.1077 25.2358 10.5423 24.9604 10.8413L24.4081 11.4451L25.9444 13.114ZM19.3269 11.5661L20.156 10.7456C20.3506 10.5571 20.4595 10.292 20.458 10.0211C20.458 9.84285 20.4079 9.66609 20.29 9.47184L17.9689 7.22107C17.8392 7.0974 17.6802 7.01053 17.4724 6.96347L17.2504 6.93844L16.9868 6.98248C16.642 7.08413 16.3757 7.36404 16.29 7.71303C16.2252 7.97243 16.268 8.2433 16.43 8.50843L17.9955 10.0386L17.1427 10.8811C16.9455 11.0741 16.8351 11.345 16.8408 11.6249C16.8453 11.8074 16.8996 11.9872 17.0233 12.1772L19.4342 14.3746C19.6273 14.5468 19.8674 14.6322 20.1087 14.6322C20.3856 14.6322 20.6625 14.5187 20.8613 14.2964C21.0383 14.0977 21.1312 13.8325 21.1179 13.5689C21.1092 13.3909 21.0531 13.2184 20.9324 13.0389L19.3269 11.5661ZM25.3052 15.8284C25.0431 15.7621 24.7734 15.8049 24.5424 15.9506L22.2946 18.2849C22.009 18.5884 21.9384 19.0272 22.1357 19.4426L22.8529 20.279L21.4817 21.8065C21.1119 22.2218 21.1487 22.861 21.5626 23.2308C21.7484 23.3985 21.9839 23.4854 22.227 23.4854C22.4243 23.4854 22.6276 23.428 22.8131 23.3071L24.9665 20.9477C25.2403 20.6428 25.3037 20.2099 25.1064 19.8033L24.4081 18.9874L25.8074 17.5043C26.0532 17.2422 26.1431 16.8651 26.04 16.5177C25.9356 16.1729 25.6527 15.9093 25.3052 15.8284ZM20.4227 15.8489C20.1678 15.7663 19.8882 15.7901 19.6523 15.9078L17.1765 18.0801C16.9705 18.2659 16.8468 18.5311 16.8408 18.8076C16.8366 18.9919 16.8821 19.1729 16.9971 19.3705L17.9958 20.3942L16.5727 21.7489C16.3136 21.9992 16.2044 22.3705 16.2897 22.7195C16.3751 23.07 16.6432 23.3499 16.985 23.4486C17.0764 23.4766 17.169 23.4899 17.2634 23.4899C17.4356 23.4899 17.6124 23.4443 17.7876 23.3469L20.1455 21.1362C20.3412 20.9477 20.4547 20.6841 20.4577 20.4144C20.4595 20.2365 20.4139 20.0597 20.3005 19.8667L19.3269 18.8668L20.7819 17.5634C21.0501 17.3248 21.1707 16.9565 21.0986 16.603C21.025 16.251 20.7659 15.9624 20.4227 15.8489ZM17.1192 15.6294C17.346 15.4806 17.4993 15.2523 17.5536 14.9887C17.6435 14.5426 17.4239 14.0889 16.9835 13.8708L14.527 13.3394C14.0941 13.2552 13.6477 13.457 13.4342 13.8533L13.0822 15.2333L11.1294 14.7591C10.7862 14.6795 10.4061 14.7842 10.1588 15.0418C9.9084 15.3024 9.81701 15.6794 9.91866 16.0242C9.99376 16.2791 10.169 16.4984 10.4387 16.6428L13.5995 17.4382C13.6806 17.4572 13.7599 17.4678 13.8411 17.4678C14.0266 17.4678 14.2079 17.4162 14.3683 17.3161C14.5201 17.2232 14.6437 17.0908 14.7454 16.8962L15.0901 15.5178L16.3612 15.7769C16.62 15.8284 16.8954 15.7753 17.1192 15.6294ZM30.594 14.2581C30.4525 14.4865 30.4085 14.7588 30.4703 15.024C30.5792 15.4644 30.968 15.7826 31.466 15.7959L32.5794 15.5527L32.8385 16.6839C32.9033 16.949 33.0653 17.1728 33.2951 17.3158C33.4453 17.4099 33.6191 17.4615 33.8402 17.4645L37.0127 16.7222C37.3632 16.6383 37.6431 16.3702 37.7433 16.0242C37.8464 15.6767 37.752 15.2997 37.5047 15.0418C37.3192 14.8472 37.0658 14.7368 36.7594 14.7311L34.5825 15.2333L34.3234 14.1007C34.2585 13.8401 34.0935 13.6117 33.8344 13.4528L33.6637 13.3762L33.3663 13.3189L31.216 13.8048C30.9533 13.8681 30.7325 14.0301 30.594 14.2581ZM47.6815 28.9156L43.8257 21.9006L42.3619 20.1273L42.3797 20.0537C43.331 15.1727 42.2883 10.66 39.3573 7.00449C35.9344 2.73037 30.2906 0.180979 23.8737 0.00874732L23.1799 0C19.5878 0 16.103 0.815914 13.106 2.35786C4.85667 6.60694 1.17194 12.8236 2.15556 20.8388C2.71509 25.3986 4.77583 30.3001 8.11309 35.0101C8.99959 36.2619 9.51236 38.259 9.63452 40.9513C9.72139 42.8043 9.62125 44.8807 9.33409 47.1194L9.21193 48.0119C9.15312 48.4155 9.09701 48.7482 9.05147 49.0016L8.95132 49.5289L11.3209 50L11.536 48.7775C11.5978 48.3944 11.6627 47.9411 11.7275 47.4283C12.0325 45.0511 12.1384 42.8332 12.0473 40.8361C11.8971 37.6343 11.2549 35.2719 10.0824 33.6163C6.97443 29.2278 5.06118 24.7079 4.55021 20.5441C3.68996 13.5409 6.84925 8.29488 14.2118 4.50366C16.8674 3.13546 19.969 2.41215 23.1796 2.41215C29.056 2.41215 34.2079 4.57274 37.3186 8.33861C39.896 11.4581 40.8269 15.3359 40.0167 19.5497L39.7485 20.7574L41.834 23.2465L44.5912 28.2894L41.7574 30.5444L41.8959 34.9658L40.5439 36.9041L40.7825 37.8614C40.8239 38.0352 40.8649 38.2445 40.9062 38.471C41.0359 39.1986 41.1095 39.8585 41.127 40.4386C41.1653 41.8789 40.8383 42.3769 40.6616 42.4387C39.0062 43.016 37.0149 43.3107 34.7496 43.3107C34.2576 43.3107 33.7805 43.2959 33.3386 43.2724L32.4225 43.2018L30.5961 42.9515L30.2661 49.7086L32.6756 49.8266L32.8819 45.6586L34.7493 45.7235C37.2824 45.7235 39.5389 45.3847 41.4564 44.719C42.9205 44.2066 43.6037 42.7868 43.5361 40.3713C43.5183 39.6586 43.43 38.8749 43.2797 38.0412L43.1473 37.3812L44.1017 36.0203L44.3198 35.3398L44.2079 31.6756L47.6815 28.9156ZM31.4778 23.1777C31.79 22.8507 31.8461 22.35 31.5897 21.9286L30.0197 20.3939L30.8769 19.5515C31.0742 19.3557 31.1834 19.083 31.1744 18.8076C31.1713 18.6237 31.1182 18.4454 30.9946 18.2539L28.5851 16.0595C28.4527 15.94 28.2904 15.8577 28.0784 15.8164L27.8576 15.7986L27.594 15.8489C27.2522 15.9624 26.9946 16.251 26.918 16.6045C26.8649 16.8651 26.9165 17.142 27.086 17.3939L28.6913 18.8668L27.8576 19.6872C27.6661 19.8803 27.5572 20.1439 27.5587 20.4147C27.5617 20.596 27.6118 20.7728 27.7267 20.9598L30.0463 23.2118C30.2435 23.3988 30.4939 23.4902 30.7442 23.4902C31.0124 23.4899 31.2802 23.3852 31.4778 23.1777ZM26.9192 13.831C26.9943 14.1815 27.2522 14.4702 27.5952 14.5836C27.6923 14.6147 27.794 14.6322 27.8971 14.6322C28.0606 14.6322 28.2286 14.5893 28.4008 14.5025L30.8383 12.3536C31.0474 12.1666 31.1713 11.9 31.1741 11.6246C31.1801 11.4421 31.1357 11.2623 31.0208 11.062L30.0194 10.0383L31.4452 8.68338C31.7073 8.43302 31.8135 8.06051 31.7281 7.71423C31.6428 7.36525 31.3746 7.08382 31.0302 6.98067C30.7711 6.90707 30.4999 6.93512 30.2643 7.06301L27.8709 9.29569C27.6751 9.48421 27.5617 9.74784 27.5587 10.0175C27.5572 10.1979 27.6042 10.3758 27.7177 10.5659L28.6913 11.5658L27.2347 12.8691C26.9663 13.108 26.8456 13.4763 26.9192 13.831Z" fill="#48A1AA"/>
</svg>
