<svg width="68" height="56" viewBox="0 0 68 56" version="1.1" xmlns="http://www.w3.org/2000/svg" xmlns:xlink="http://www.w3.org/1999/xlink">
<title>uterus</title>
<desc>Created using Figma</desc>
<g id="Canvas" transform="translate(-44010 -881)">
<g id="uterus">
<g id="Group">
<g id="Group">
<g id="Vector">
<use xlink:href="#path0_fill" transform="translate(44032.6 888.688)" fill="#40919A"/>
<mask id="mask0_outline_out">
<rect id="mask0_outline_inv" fill="white" x="-1" y="-1" width="24" height="25" transform="translate(44032.6 888.688)"/>
<use xlink:href="#path0_fill" fill="black" transform="translate(44032.6 888.688)"/>
</mask>
<g mask="url(#mask0_outline_out)">
<use xlink:href="#path1_stroke_2x" transform="translate(44032.6 888.688)" fill="#40919A"/>
</g>
</g>
</g>
</g>
<g id="Group">
<g id="Group">
<g id="Vector">
<use xlink:href="#path2_fill" transform="translate(44010.4 881.497)" fill="#40919A"/>
<mask id="mask1_outline_out">
<rect id="mask1_outline_inv" fill="white" x="-1" y="-1" width="69" height="57" transform="translate(44010.4 881.497)"/>
<use xlink:href="#path2_fill" fill="black" transform="translate(44010.4 881.497)"/>
</mask>
<g mask="url(#mask1_outline_out)">
<use xlink:href="#path3_stroke_2x" transform="translate(44010.4 881.497)" fill="#40919A"/>
</g>
</g>
</g>
</g>
</g>
</g>
<defs>
<path id="path0_fill" d="M 21.8735 0.275773C 21.67 0.0974878 21.4087 -0.000416394 21.1382 8.10138e-07L 1.11241 8.10138e-07C 0.498003 0.000139878 -0.000138054 0.498283 1.01372e-06 1.11269C 1.01372e-06 1.38234 0.0980422 1.64281 0.275771 1.84571C 5.23925 7.51914 8.5723 14.4317 9.92043 21.8482L 10.0317 22.4501C 10.1411 23.0547 10.7201 23.4561 11.3246 23.3466C 11.7812 23.264 12.1384 22.9066 12.2212 22.4501L 12.3324 21.8471C 13.6808 14.4308 17.0139 7.51872 21.9771 1.84571C 22.382 1.38359 22.3356 0.68074 21.8735 0.275773ZM 11.1253 17.2279C 9.56706 11.7806 6.96968 6.68612 3.47657 2.22523L 18.7741 2.22523C 15.2809 6.68612 12.6837 11.7805 11.1253 17.2279Z"/>
<path id="path1_stroke_2x" d="M 21.8735 0.275773L 22.0382 0.0877518L 22.0382 0.0877485L 21.8735 0.275773ZM 21.1382 8.10138e-07L 21.1382 0.250001L 21.1386 0.250001L 21.1382 8.10138e-07ZM 1.11241 8.10138e-07L 1.11241 -0.249999L 1.11235 -0.249999L 1.11241 8.10138e-07ZM 1.01372e-06 1.11269L 0.250001 1.11269L 0.250001 1.11263L 1.01372e-06 1.11269ZM 0.275771 1.84571L 0.463928 1.6811L 0.463828 1.68099L 0.275771 1.84571ZM 9.92043 21.8482L 9.67446 21.8929L 9.67459 21.8936L 9.92043 21.8482ZM 10.0317 22.4501L 10.2777 22.4055L 10.2775 22.4046L 10.0317 22.4501ZM 11.3246 23.3466L 11.2801 23.1006L 11.2801 23.1006L 11.3246 23.3466ZM 12.2212 22.4501L 11.9753 22.4047L 11.9752 22.4055L 12.2212 22.4501ZM 12.3324 21.8471L 12.5783 21.8924L 12.5784 21.8918L 12.3324 21.8471ZM 21.9771 1.84571L 21.7891 1.68095L 21.7889 1.6811L 21.9771 1.84571ZM 11.1253 17.2279L 10.885 17.2967L 11.1253 18.1369L 11.3657 17.2967L 11.1253 17.2279ZM 3.47657 2.22523L 3.47657 1.97523L 2.96328 1.97523L 3.27973 2.37936L 3.47657 2.22523ZM 18.7741 2.22523L 18.9709 2.37936L 19.2874 1.97523L 18.7741 1.97523L 18.7741 2.22523ZM 22.0382 0.0877485C 21.789 -0.130637 21.469 -0.25051 21.1378 -0.249999L 21.1386 0.250001C 21.3484 0.249677 21.551 0.325613 21.7087 0.463798L 22.0382 0.0877485ZM 21.1382 -0.249999L 1.11241 -0.249999L 1.11241 0.250001L 21.1382 0.250001L 21.1382 -0.249999ZM 1.11235 -0.249999C 0.359941 -0.249829 -0.250169 0.360203 -0.249999 1.11274L 0.250001 1.11263C 0.249893 0.636363 0.636065 0.250109 1.11246 0.250001L 1.11235 -0.249999ZM -0.249999 1.11269C -0.249999 1.44301 -0.1299 1.762 0.087715 2.01044L 0.463828 1.68099C 0.325985 1.52362 0.250001 1.32167 0.250001 1.11269L -0.249999 1.11269ZM 0.0876146 2.01033C 5.02135 7.64974 8.33441 14.5208 9.67446 21.8929L 10.1664 21.8035C 8.81019 14.3425 5.45716 7.38853 0.463928 1.6811L 0.0876146 2.01033ZM 9.67459 21.8936L 9.78585 22.4955L 10.2775 22.4046L 10.1663 21.8027L 9.67459 21.8936ZM 9.78568 22.4946C 9.91972 23.2351 10.6288 23.7267 11.3691 23.5926L 11.2801 23.1006C 10.8114 23.1855 10.3625 22.8743 10.2777 22.4055L 9.78568 22.4946ZM 11.3691 23.5926C 11.9283 23.4914 12.3658 23.0537 12.4672 22.4946L 11.9752 22.4055C 11.911 22.7595 11.634 23.0366 11.2801 23.1006L 11.3691 23.5926ZM 12.467 22.4954L 12.5783 21.8924L 12.0866 21.8017L 11.9753 22.4047L 12.467 22.4954ZM 12.5784 21.8918C 13.9187 14.52 17.2318 7.64933 22.1652 2.01033L 21.7889 1.6811C 16.796 7.38811 13.4429 14.3417 12.0865 21.8023L 12.5784 21.8918ZM 22.1651 2.01048C 22.6611 1.44448 22.6042 0.583683 22.0382 0.0877518L 21.7087 0.463795C 22.067 0.777796 22.103 1.3227 21.7891 1.68095L 22.1651 2.01048ZM 11.3657 17.1591C 9.79855 11.6808 7.18639 6.55737 3.6734 2.0711L 3.27973 2.37936C 6.75297 6.81487 9.33557 11.8804 10.885 17.2967L 11.3657 17.1591ZM 3.47657 2.47523L 18.7741 2.47523L 18.7741 1.97523L 3.47657 1.97523L 3.47657 2.47523ZM 18.5772 2.0711C 15.0642 6.55737 12.4522 11.6807 10.885 17.1591L 11.3657 17.2967C 12.9152 11.8802 15.4977 6.81487 18.9709 2.37936L 18.5772 2.0711Z"/>
<path id="path2_fill" d="M 56.0723 11.53L 57.5698 13.7762C 58.1283 14.6109 59.1756 14.9697 60.1286 14.6529L 62.3025 13.9264L 63.8234 14.4326C 64.9891 14.8216 66.2494 14.1919 66.6383 13.0261C 66.7141 12.7991 66.7526 12.5613 66.7527 12.322L 66.7527 6.98178C 66.7491 3.41218 63.8562 0.519281 60.2866 0.515665C 57.8264 0.515248 55.3792 0.874322 53.0228 1.58148L 50.6208 2.30366C 47.4489 3.2567 44.0389 3.02626 41.024 1.65505C 36.1686 -0.551683 30.5964 -0.551683 25.741 1.65505C 22.7255 3.02571 19.3155 3.25614 16.143 2.30366L 13.7288 1.58162C 11.3731 0.874461 8.92679 0.515387 6.46723 0.515804C 2.89707 0.51942 0.0037566 3.41273 1.7615e-06 6.98289L 1.7615e-06 12.3231C -0.00152799 13.5521 0.993505 14.5495 2.22231 14.551C 2.4622 14.5513 2.70057 14.5127 2.92822 14.4369L 4.45018 13.9264L 6.62966 14.6529C 7.58269 14.9722 8.63141 14.6129 9.18851 13.7762L 10.6804 11.53C 14.678 10.8522 18.6066 13.0556 20.1126 16.8202L 14.9437 20.9555C 13.7778 19.3733 11.0854 18.3165 7.78782 18.3165C 3.34765 18.3165 1.7615e-06 20.2301 1.7615e-06 22.7667C 1.7615e-06 25.3033 3.34765 27.2169 7.78782 27.2169C 11.8753 27.2169 15.0305 25.5937 15.5067 23.3564L 20.7123 19.1921L 21.7536 25.439C 22.121 27.668 23.1796 29.7253 24.7797 31.32L 26.7011 33.2402L 26.7011 53.918C 26.7011 54.5324 27.1992 55.0305 27.8136 55.0305L 38.9391 55.0305C 39.5535 55.0305 40.0516 54.5324 40.0516 53.918L 40.0516 33.2402L 41.973 31.32C 43.5731 29.7253 44.6317 27.668 44.9991 25.439L 46.0405 19.1921L 51.2461 23.3564C 51.7222 25.5937 54.8774 27.2169 58.9649 27.2169C 63.4051 27.2169 66.7527 25.3033 66.7527 22.7667C 66.7527 20.2301 63.4051 18.3165 58.9649 18.3165C 55.6673 18.3165 52.975 19.3734 51.8068 20.9555L 46.6379 16.8202C 48.144 13.0546 52.0739 10.8509 56.0723 11.53ZM 7.78782 24.9918C 4.39233 24.9918 2.22509 23.6734 2.22509 22.7667C 2.22509 21.86 4.39233 20.5416 7.78782 20.5416C 11.1833 20.5416 13.3505 21.86 13.3505 22.7667C 13.3505 23.6734 11.1833 24.9918 7.78782 24.9918ZM 58.9649 20.5416C 62.3604 20.5416 64.5276 21.86 64.5276 22.7667C 64.5276 23.6734 62.3604 24.9918 58.9649 24.9918C 55.5694 24.9918 53.4022 23.6734 53.4022 22.7667C 53.4022 21.86 55.5694 20.5416 58.9649 20.5416ZM 44.056 17.67C 44.0141 17.8584 43.9772 18.0481 43.9455 18.2385L 42.8063 25.0729C 42.5147 26.8441 41.6736 28.4787 40.4021 29.7456L 38.1547 31.9929C 37.9453 32.2011 37.8272 32.4841 37.8265 32.7795L 37.8265 52.8053L 28.9262 52.8053L 28.9262 32.7795C 28.9262 32.4844 28.8088 32.2015 28.6002 31.9929L 26.354 29.7456C 25.0816 28.4791 24.2401 26.8443 23.9487 25.0729L 22.8072 18.2387C 21.8241 12.3365 16.2426 8.34882 10.3404 9.33189C 10.1491 9.36374 9.95854 9.40073 9.76926 9.44287C 9.48932 9.50503 9.24428 9.67275 9.08505 9.91125L 7.3339 12.5424L 4.80175 11.698C 4.57354 11.6219 4.32683 11.6219 4.09862 11.698L 2.22509 12.3221L 2.22509 6.98192C 2.22815 4.64057 4.12588 2.7434 6.46723 2.74089C 8.7104 2.74076 10.9417 3.06826 13.0902 3.71326L 15.4989 4.4353C 19.1865 5.54242 23.1507 5.27402 26.6555 3.67988C 30.9258 1.73905 35.8269 1.73905 40.0972 3.67988C 43.6025 5.2736 47.5669 5.54201 51.255 4.4353L 53.6625 3.71326C 55.8114 3.06826 58.043 2.74062 60.2866 2.74089C 62.6282 2.74326 64.5258 4.64126 64.5276 6.98289L 64.5276 12.322L 62.6541 11.6979C 62.4259 11.6218 62.1792 11.6218 61.951 11.6979L 59.4188 12.5423L 57.6655 9.91111C 57.5062 9.67261 57.2612 9.50489 56.9812 9.44273C 51.1401 8.1455 45.3533 11.8289 44.056 17.67Z"/>
<path id="path3_stroke_2x" d="M 56.0723 11.53L 56.2803 11.3913L 56.2205 11.3016L 56.1142 11.2835L 56.0723 11.53ZM 57.5698 13.7762L 57.3618 13.9149L 57.362 13.9153L 57.5698 13.7762ZM 60.1286 14.6529L 60.2075 14.8902L 60.2079 14.89L 60.1286 14.6529ZM 62.3025 13.9264L 62.3815 13.6892L 62.3024 13.6629L 62.2233 13.6893L 62.3025 13.9264ZM 63.8234 14.4326L 63.9025 14.1955L 63.9023 14.1954L 63.8234 14.4326ZM 66.6383 13.0261L 66.4011 12.9469L 66.4011 12.947L 66.6383 13.0261ZM 66.7527 12.322L 67.0027 12.3221L 67.0027 12.322L 66.7527 12.322ZM 66.7527 6.98178L 67.0027 6.98178L 67.0027 6.98153L 66.7527 6.98178ZM 60.2866 0.515665L 60.2869 0.265665L 60.2867 0.265665L 60.2866 0.515665ZM 53.0228 1.58148L 52.9509 1.34203L 52.9508 1.34207L 53.0228 1.58148ZM 50.6208 2.30366L 50.6928 2.54309L 50.6928 2.54308L 50.6208 2.30366ZM 41.024 1.65505L 41.1275 1.42748L 41.1274 1.42745L 41.024 1.65505ZM 25.741 1.65505L 25.6375 1.42745L 25.6375 1.42746L 25.741 1.65505ZM 16.143 2.30366L 16.2149 2.06422L 16.2147 2.06415L 16.143 2.30366ZM 13.7288 1.58162L 13.6569 1.82107L 13.6572 1.82114L 13.7288 1.58162ZM 6.46723 0.515804L 6.46719 0.265804L 6.46698 0.265804L 6.46723 0.515804ZM 1.7615e-06 6.98289L -0.249998 6.98263L -0.249998 6.98289L 1.7615e-06 6.98289ZM 1.7615e-06 12.3231L 0.250002 12.3234L 0.250002 12.3231L 1.7615e-06 12.3231ZM 2.22231 14.551L 2.222 14.801L 2.22202 14.801L 2.22231 14.551ZM 2.92822 14.4369L 3.00719 14.6741L 3.00773 14.674L 2.92822 14.4369ZM 4.45018 13.9264L 4.52924 13.6893L 4.44993 13.6628L 4.37068 13.6894L 4.45018 13.9264ZM 6.62966 14.6529L 6.70908 14.4159L 6.70872 14.4157L 6.62966 14.6529ZM 9.18851 13.7762L 9.3966 13.9148L 9.39676 13.9146L 9.18851 13.7762ZM 10.6804 11.53L 10.6386 11.2835L 10.532 11.3016L 10.4722 11.3917L 10.6804 11.53ZM 20.1126 16.8202L 20.2688 17.0154L 20.4136 16.8995L 20.3447 16.7273L 20.1126 16.8202ZM 14.9437 20.9555L 14.7425 21.1038L 14.8968 21.3132L 15.0999 21.1507L 14.9437 20.9555ZM 15.5067 23.3564L 15.3505 23.1611L 15.2807 23.2169L 15.2621 23.3043L 15.5067 23.3564ZM 20.7123 19.1921L 20.9589 19.151L 20.8888 18.7307L 20.5561 18.9969L 20.7123 19.1921ZM 21.7536 25.439L 22.0003 25.3984L 22.0002 25.3979L 21.7536 25.439ZM 24.7797 31.32L 24.9565 31.1431L 24.9562 31.1429L 24.7797 31.32ZM 26.7011 33.2402L 26.9511 33.2402L 26.9511 33.1366L 26.8778 33.0634L 26.7011 33.2402ZM 40.0516 33.2402L 39.8749 33.0634L 39.8016 33.1366L 39.8016 33.2402L 40.0516 33.2402ZM 41.973 31.32L 41.7965 31.1429L 41.7963 31.1431L 41.973 31.32ZM 44.9991 25.439L 44.7525 25.3979L 44.7524 25.3984L 44.9991 25.439ZM 46.0405 19.1921L 46.1966 18.9969L 45.8639 18.7307L 45.7939 19.151L 46.0405 19.1921ZM 51.2461 23.3564L 51.4906 23.3043L 51.472 23.2169L 51.4022 23.1611L 51.2461 23.3564ZM 51.8068 20.9555L 51.6506 21.1507L 51.8535 21.313L 52.0079 21.104L 51.8068 20.9555ZM 46.6379 16.8202L 46.4058 16.7273L 46.3369 16.8995L 46.4817 17.0154L 46.6379 16.8202ZM 44.056 17.67L 44.3 17.7242L 44.3 17.7242L 44.056 17.67ZM 43.9455 18.2385L 44.1921 18.2796L 44.1921 18.2796L 43.9455 18.2385ZM 42.8063 25.0729L 42.5597 25.0318L 42.5596 25.0323L 42.8063 25.0729ZM 40.4021 29.7456L 40.2256 29.5685L 40.2253 29.5688L 40.4021 29.7456ZM 38.1547 31.9929L 38.331 32.1702L 38.3315 32.1697L 38.1547 31.9929ZM 37.8265 32.7795L 37.5765 32.7789L 37.5765 32.7795L 37.8265 32.7795ZM 37.8265 52.8053L 37.8265 53.0553L 38.0765 53.0553L 38.0765 52.8053L 37.8265 52.8053ZM 28.9262 52.8053L 28.6762 52.8053L 28.6762 53.0553L 28.9262 53.0553L 28.9262 52.8053ZM 28.6002 31.9929L 28.4234 32.1696L 28.4234 32.1697L 28.6002 31.9929ZM 26.354 29.7456L 26.5308 29.5688L 26.5303 29.5684L 26.354 29.7456ZM 23.9487 25.0729L 24.1953 25.0323L 24.1952 25.0317L 23.9487 25.0729ZM 22.8072 18.2387L 22.5606 18.2797L 22.5606 18.2798L 22.8072 18.2387ZM 10.3404 9.33189L 10.3815 9.5785L 10.3815 9.57849L 10.3404 9.33189ZM 9.76926 9.44287L 9.82346 9.68692L 9.82359 9.68689L 9.76926 9.44287ZM 9.08505 9.91125L 8.87713 9.77244L 8.87693 9.77274L 9.08505 9.91125ZM 7.3339 12.5424L 7.25481 12.7796L 7.43613 12.84L 7.54202 12.6809L 7.3339 12.5424ZM 4.80175 11.698L 4.88084 11.4608L 4.8808 11.4608L 4.80175 11.698ZM 4.09862 11.698L 4.17763 11.9352L 4.17768 11.9352L 4.09862 11.698ZM 2.22509 12.3221L 1.97509 12.3221L 1.97509 12.6689L 2.30411 12.5593L 2.22509 12.3221ZM 2.22509 6.98192L 1.97509 6.98159L 1.97509 6.98192L 2.22509 6.98192ZM 6.46723 2.74089L 6.46721 2.49089L 6.46696 2.49089L 6.46723 2.74089ZM 13.0902 3.71326L 13.0183 3.9527L 13.0184 3.95273L 13.0902 3.71326ZM 15.4989 4.4353L 15.5708 4.19586L 15.5707 4.19583L 15.4989 4.4353ZM 26.6555 3.67988L 26.552 3.45229L 26.552 3.45232L 26.6555 3.67988ZM 40.0972 3.67988L 40.2007 3.4523L 40.2007 3.45229L 40.0972 3.67988ZM 51.255 4.4353L 51.1832 4.19584L 51.1831 4.19585L 51.255 4.4353ZM 53.6625 3.71326L 53.7343 3.95272L 53.7344 3.95271L 53.6625 3.71326ZM 60.2866 2.74089L 60.2869 2.49089L 60.2866 2.49089L 60.2866 2.74089ZM 64.5276 6.98289L 64.7776 6.98289L 64.7776 6.9827L 64.5276 6.98289ZM 64.5276 12.322L 64.4486 12.5592L 64.7776 12.6688L 64.7776 12.322L 64.5276 12.322ZM 62.6541 11.6979L 62.5751 11.935L 62.5751 11.935L 62.6541 11.6979ZM 61.951 11.6979L 61.8719 11.4607L 61.8719 11.4607L 61.951 11.6979ZM 59.4188 12.5423L 59.2108 12.6809L 59.3167 12.8399L 59.4979 12.7794L 59.4188 12.5423ZM 57.6655 9.91111L 57.8735 9.77248L 57.8734 9.7723L 57.6655 9.91111ZM 56.9812 9.44273L 56.927 9.68678L 56.927 9.68678L 56.9812 9.44273ZM 55.8643 11.6687L 57.3618 13.9149L 57.7778 13.6376L 56.2803 11.3913L 55.8643 11.6687ZM 57.362 13.9153C 57.9831 14.8435 59.1477 15.2424 60.2075 14.8902L 60.0498 14.4157C 59.2035 14.697 58.2735 14.3784 57.7775 13.6372L 57.362 13.9153ZM 60.2079 14.89L 62.3818 14.1635L 62.2233 13.6893L 60.0494 14.4158L 60.2079 14.89ZM 62.2236 14.1636L 63.7444 14.6698L 63.9023 14.1954L 62.3815 13.6892L 62.2236 14.1636ZM 63.7443 14.6698C 65.0409 15.1025 66.4429 14.402 66.8754 13.1052L 66.4011 12.947C 66.056 13.9818 64.9372 14.5408 63.9025 14.1955L 63.7443 14.6698ZM 66.8754 13.1053C 66.9597 12.8527 67.0026 12.5882 67.0027 12.3221L 66.5027 12.3219C 66.5026 12.5345 66.4684 12.7456 66.4011 12.9469L 66.8754 13.1053ZM 67.0027 12.322L 67.0027 6.98178L 66.5027 6.98178L 66.5027 12.322L 67.0027 12.322ZM 67.0027 6.98153C 66.999 3.27405 63.9943 0.26942 60.2869 0.265665L 60.2864 0.765665C 63.7181 0.769141 66.4992 3.5503 66.5027 6.98203L 67.0027 6.98153ZM 60.2867 0.265665C 57.802 0.265244 55.3306 0.627872 52.9509 1.34203L 53.0947 1.82093C 55.4277 1.12077 57.8507 0.765252 60.2866 0.765665L 60.2867 0.265665ZM 52.9508 1.34207L 50.5488 2.06425L 50.6928 2.54308L 53.0948 1.8209L 52.9508 1.34207ZM 50.5489 2.06424C 47.435 2.99985 44.0872 2.77363 41.1275 1.42748L 40.9205 1.88262C 43.9905 3.2789 47.4629 3.51355 50.6928 2.54309L 50.5489 2.06424ZM 41.1274 1.42745C 36.2063 -0.809151 30.5587 -0.809151 25.6375 1.42745L 25.8444 1.88265C 30.6341 -0.294216 36.1309 -0.294216 40.9206 1.88265L 41.1274 1.42745ZM 25.6375 1.42746C 22.6772 2.77308 19.3294 2.9993 16.2149 2.06422L 16.0711 2.54311C 19.3015 3.51298 22.7739 3.27834 25.8444 1.88264L 25.6375 1.42746ZM 16.2147 2.06415L 13.8004 1.34211L 13.6572 1.82114L 16.0714 2.54318L 16.2147 2.06415ZM 13.8007 1.34218C 11.4217 0.628013 8.95111 0.265382 6.46719 0.265804L 6.46727 0.765804C 8.90247 0.765391 11.3246 1.12091 13.6569 1.82107L 13.8007 1.34218ZM 6.46698 0.265804C 2.75894 0.269559 -0.246098 3.27461 -0.249998 6.98263L 0.250002 6.98315C 0.253611 3.55086 3.0352 0.76928 6.46748 0.765804L 6.46698 0.265804ZM -0.249998 6.98289L -0.249998 12.3231L 0.250002 12.3231L 0.250002 6.98289L -0.249998 6.98289ZM -0.249998 12.3228C -0.2517 13.6898 0.855129 14.7993 2.222 14.801L 2.22262 14.301C 1.13188 14.2996 0.248644 13.4143 0.250002 12.3234L -0.249998 12.3228ZM 2.22202 14.801C 2.48887 14.8013 2.754 14.7584 3.00719 14.6741L 2.84925 14.1997C 2.64713 14.267 2.43553 14.3012 2.2226 14.301L 2.22202 14.801ZM 3.00773 14.674L 4.52969 14.1634L 4.37068 13.6894L 2.84872 14.1999L 3.00773 14.674ZM 4.37113 14.1636L 6.5506 14.8901L 6.70872 14.4157L 4.52924 13.6893L 4.37113 14.1636ZM 6.55024 14.89C 7.61038 15.2452 8.77692 14.8454 9.3966 13.9148L 8.98043 13.6377C 8.4859 14.3803 7.55501 14.6993 6.70908 14.4159L 6.55024 14.89ZM 9.39676 13.9146L 10.8887 11.6683L 10.4722 11.3917L 8.98026 13.6379L 9.39676 13.9146ZM 10.7222 11.7765C 14.6037 11.1184 18.4182 13.2578 19.8805 16.913L 20.3447 16.7273C 18.795 12.8534 14.7522 10.586 10.6386 11.2835L 10.7222 11.7765ZM 19.9564 16.6249L 14.7875 20.7603L 15.0999 21.1507L 20.2688 17.0154L 19.9564 16.6249ZM 15.145 20.8072C 13.9104 19.1319 11.1199 18.0665 7.78782 18.0665L 7.78782 18.5665C 11.0509 18.5665 13.6451 19.6147 14.7425 21.1038L 15.145 20.8072ZM 7.78782 18.0665C 5.53525 18.0665 3.54305 18.5514 2.1048 19.3733C 0.669243 20.1937 -0.249998 21.3752 -0.249998 22.7667L 0.250002 22.7667C 0.250002 21.6216 1.00458 20.578 2.35289 19.8075C 3.69851 19.0385 5.60022 18.5665 7.78782 18.5665L 7.78782 18.0665ZM -0.249998 22.7667C -0.249998 24.1582 0.669243 25.3397 2.1048 26.1601C 3.54305 26.982 5.53525 27.4669 7.78782 27.4669L 7.78782 26.9669C 5.60022 26.9669 3.69851 26.495 2.35289 25.726C 1.00458 24.9554 0.250002 23.9118 0.250002 22.7667L -0.249998 22.7667ZM 7.78782 27.4669C 9.8622 27.4669 11.713 27.0554 13.1141 26.3488C 14.5109 25.6444 15.4915 24.6288 15.7512 23.4084L 15.2621 23.3043C 15.0457 24.3213 14.2105 25.2359 12.8889 25.9024C 11.5714 26.5668 9.80093 26.9669 7.78782 26.9669L 7.78782 27.4669ZM 15.6628 23.5516L 20.8684 19.3873L 20.5561 18.9969L 15.3505 23.1611L 15.6628 23.5516ZM 20.4657 19.2332L 21.507 25.4802L 22.0002 25.3979L 20.9589 19.151L 20.4657 19.2332ZM 21.5069 25.4797C 21.8829 27.7604 22.966 29.8654 24.6033 31.497L 24.9562 31.1429C 23.3932 29.5852 22.3592 27.5757 22.0003 25.3984L 21.5069 25.4797ZM 24.603 31.4968L 26.5244 33.417L 26.8778 33.0634L 24.9565 31.1431L 24.603 31.4968ZM 26.4511 33.2402L 26.4511 53.918L 26.9511 53.918L 26.9511 33.2402L 26.4511 33.2402ZM 26.4511 53.918C 26.4511 54.6705 27.0612 55.2805 27.8136 55.2805L 27.8136 54.7805C 27.3373 54.7805 26.9511 54.3943 26.9511 53.918L 26.4511 53.918ZM 27.8136 55.2805L 38.9391 55.2805L 38.9391 54.7805L 27.8136 54.7805L 27.8136 55.2805ZM 38.9391 55.2805C 39.6916 55.2805 40.3016 54.6705 40.3016 53.918L 39.8016 53.918C 39.8016 54.3943 39.4154 54.7805 38.9391 54.7805L 38.9391 55.2805ZM 40.3016 53.918L 40.3016 33.2402L 39.8016 33.2402L 39.8016 53.918L 40.3016 53.918ZM 40.2284 33.417L 42.1497 31.4968L 41.7963 31.1431L 39.8749 33.0634L 40.2284 33.417ZM 42.1495 31.497C 43.7867 29.8654 44.8699 27.7604 45.2458 25.4797L 44.7524 25.3984C 44.3936 27.5757 43.3595 29.5852 41.7965 31.1429L 42.1495 31.497ZM 45.2457 25.4802L 46.2871 19.2332L 45.7939 19.151L 44.7525 25.3979L 45.2457 25.4802ZM 45.8843 19.3873L 51.0899 23.5516L 51.4022 23.1611L 46.1966 18.9969L 45.8843 19.3873ZM 51.0015 23.4084C 51.2613 24.6288 52.2418 25.6444 53.6387 26.3488C 55.0397 27.0554 56.8905 27.4669 58.9649 27.4669L 58.9649 26.9669C 56.9518 26.9669 55.1813 26.5668 53.8638 25.9024C 52.5422 25.2359 51.707 24.3213 51.4906 23.3043L 51.0015 23.4084ZM 58.9649 27.4669C 61.2175 27.4669 63.2097 26.982 64.6479 26.1601C 66.0835 25.3397 67.0027 24.1582 67.0027 22.7667L 66.5027 22.7667C 66.5027 23.9118 65.7481 24.9554 64.3998 25.726C 63.0542 26.495 61.1525 26.9669 58.9649 26.9669L 58.9649 27.4669ZM 67.0027 22.7667C 67.0027 21.3752 66.0835 20.1937 64.6479 19.3733C 63.2097 18.5514 61.2175 18.0665 58.9649 18.0665L 58.9649 18.5665C 61.1525 18.5665 63.0542 19.0385 64.3998 19.8075C 65.7481 20.578 66.5027 21.6216 66.5027 22.7667L 67.0027 22.7667ZM 58.9649 18.0665C 55.6327 18.0665 52.8424 19.1321 51.6057 20.807L 52.0079 21.104C 53.1075 19.6148 55.7019 18.5665 58.9649 18.5665L 58.9649 18.0665ZM 51.963 20.7603L 46.7941 16.6249L 46.4817 17.0154L 51.6506 21.1507L 51.963 20.7603ZM 46.87 16.913C 48.3324 13.2568 52.1482 11.1171 56.0304 11.7765L 56.1142 11.2835C 51.9997 10.5847 47.9556 12.8524 46.4058 16.7273L 46.87 16.913ZM 7.78782 24.7418C 6.12066 24.7418 4.76633 24.4179 3.83733 23.992C 3.37203 23.7787 3.02167 23.5437 2.79176 23.3184C 2.55635 23.0877 2.47509 22.8959 2.47509 22.7667L 1.97509 22.7667C 1.97509 23.0909 2.16474 23.4039 2.4418 23.6755C 2.72435 23.9524 3.12802 24.2169 3.62897 24.4465C 4.63246 24.9065 6.05949 25.2418 7.78782 25.2418L 7.78782 24.7418ZM 2.47509 22.7667C 2.47509 22.6375 2.55635 22.4458 2.79176 22.2151C 3.02167 21.9898 3.37203 21.7547 3.83733 21.5414C 4.76633 21.1155 6.12066 20.7916 7.78782 20.7916L 7.78782 20.2916C 6.05949 20.2916 4.63246 20.6269 3.62897 21.0869C 3.12802 21.3165 2.72435 21.5811 2.4418 21.858C 2.16474 22.1295 1.97509 22.4425 1.97509 22.7667L 2.47509 22.7667ZM 7.78782 20.7916C 9.45498 20.7916 10.8093 21.1155 11.7383 21.5414C 12.2036 21.7547 12.554 21.9898 12.7839 22.2151C 13.0193 22.4458 13.1005 22.6375 13.1005 22.7667L 13.6005 22.7667C 13.6005 22.4425 13.4109 22.1295 13.1338 21.858C 12.8513 21.5811 12.4476 21.3165 11.9467 21.0869C 10.9432 20.6269 9.51615 20.2916 7.78782 20.2916L 7.78782 20.7916ZM 13.1005 22.7667C 13.1005 22.8959 13.0193 23.0877 12.7839 23.3184C 12.554 23.5437 12.2036 23.7787 11.7383 23.992C 10.8093 24.4179 9.45498 24.7418 7.78782 24.7418L 7.78782 25.2418C 9.51615 25.2418 10.9432 24.9065 11.9467 24.4465C 12.4476 24.2169 12.8513 23.9524 13.1338 23.6755C 13.4109 23.4039 13.6005 23.0909 13.6005 22.7667L 13.1005 22.7667ZM 58.9649 20.7916C 60.6321 20.7916 61.9864 21.1155 62.9154 21.5414C 63.3807 21.7547 63.7311 21.9898 63.961 22.2151C 64.1964 22.4458 64.2776 22.6375 64.2776 22.7667L 64.7776 22.7667C 64.7776 22.4425 64.588 22.1295 64.3109 21.858C 64.0284 21.5811 63.6247 21.3165 63.1238 21.0869C 62.1203 20.6269 60.6932 20.2916 58.9649 20.2916L 58.9649 20.7916ZM 64.2776 22.7667C 64.2776 22.8959 64.1964 23.0877 63.961 23.3184C 63.7311 23.5437 63.3807 23.7787 62.9154 23.992C 61.9864 24.4179 60.6321 24.7418 58.9649 24.7418L 58.9649 25.2418C 60.6932 25.2418 62.1203 24.9065 63.1238 24.4465C 63.6247 24.2169 64.0284 23.9524 64.3109 23.6755C 64.588 23.4039 64.7776 23.0909 64.7776 22.7667L 64.2776 22.7667ZM 58.9649 24.7418C 57.2977 24.7418 55.9434 24.4179 55.0144 23.992C 54.5491 23.7787 54.1988 23.5437 53.9688 23.3184C 53.7334 23.0877 53.6522 22.8959 53.6522 22.7667L 53.1522 22.7667C 53.1522 23.0909 53.3418 23.4039 53.6189 23.6755C 53.9014 23.9524 54.3051 24.2169 54.8061 24.4465C 55.8095 24.9065 57.2366 25.2418 58.9649 25.2418L 58.9649 24.7418ZM 53.6522 22.7667C 53.6522 22.6375 53.7334 22.4458 53.9688 22.2151C 54.1988 21.9898 54.5491 21.7547 55.0144 21.5414C 55.9434 21.1155 57.2977 20.7916 58.9649 20.7916L 58.9649 20.2916C 57.2366 20.2916 55.8095 20.6269 54.8061 21.0869C 54.3051 21.3165 53.9014 21.5811 53.6189 21.858C 53.3418 22.1295 53.1522 22.4425 53.1522 22.7667L 53.6522 22.7667ZM 43.8119 17.6158C 43.7691 17.8086 43.7314 18.0026 43.6989 18.1974L 44.1921 18.2796C 44.2231 18.0936 44.2591 17.9083 44.3 17.7242L 43.8119 17.6158ZM 43.6989 18.1974L 42.5597 25.0318L 43.0529 25.114L 44.1921 18.2796L 43.6989 18.1974ZM 42.5596 25.0323C 42.2765 26.7517 41.46 28.3386 40.2256 29.5685L 40.5785 29.9227C 41.8872 28.6188 42.7528 26.9364 43.053 25.1135L 42.5596 25.0323ZM 40.2253 29.5688L 37.978 31.8161L 38.3315 32.1697L 40.5789 29.9223L 40.2253 29.5688ZM 37.9785 31.8156C 37.722 32.0706 37.5774 32.4172 37.5765 32.7789L 38.0765 32.7801C 38.0771 32.551 38.1686 32.3316 38.331 32.1702L 37.9785 31.8156ZM 37.5765 32.7795L 37.5765 52.8053L 38.0765 52.8053L 38.0765 32.7795L 37.5765 32.7795ZM 37.8265 52.5553L 28.9262 52.5553L 28.9262 53.0553L 37.8265 53.0553L 37.8265 52.5553ZM 29.1762 52.8053L 29.1762 32.7795L 28.6762 32.7795L 28.6762 52.8053L 29.1762 52.8053ZM 29.1762 32.7795C 29.1762 32.418 29.0324 32.0715 28.777 31.8161L 28.4234 32.1697C 28.5852 32.3315 28.6762 32.5508 28.6762 32.7795L 29.1762 32.7795ZM 28.777 31.8162L 26.5308 29.5688L 26.1772 29.9223L 28.4234 32.1696L 28.777 31.8162ZM 26.5303 29.5684C 25.2952 28.3389 24.4783 26.752 24.1953 25.0323L 23.702 25.1135C 24.002 26.9367 24.8681 28.6192 26.1776 29.9228L 26.5303 29.5684ZM 24.1952 25.0317L 23.0538 18.1975L 22.5606 18.2798L 23.7021 25.1141L 24.1952 25.0317ZM 23.0538 18.1976C 22.048 12.1592 16.3377 8.07953 10.2993 9.08529L 10.3815 9.57849C 16.1475 8.61811 21.6002 12.5137 22.5606 18.2797L 23.0538 18.1976ZM 10.2994 9.08528C 10.1036 9.11786 9.90865 9.15572 9.71494 9.19884L 9.82359 9.68689C 10.0084 9.64574 10.1945 9.60961 10.3815 9.5785L 10.2994 9.08528ZM 9.71507 9.19881C 9.37226 9.27494 9.07214 9.48034 8.87713 9.77244L 9.29297 10.0501C 9.41642 9.86515 9.60638 9.73513 9.82346 9.68692L 9.71507 9.19881ZM 8.87693 9.77274L 7.12578 12.4039L 7.54202 12.6809L 9.29317 10.0498L 8.87693 9.77274ZM 7.41299 12.3053L 4.88084 11.4608L 4.72266 11.9352L 7.25481 12.7796L 7.41299 12.3053ZM 4.8808 11.4608C 4.60128 11.3677 4.29909 11.3677 4.01956 11.4608L 4.17768 11.9352C 4.35457 11.8762 4.5458 11.8762 4.72269 11.9352L 4.8808 11.4608ZM 4.0196 11.4608L 2.14608 12.085L 2.30411 12.5593L 4.17763 11.9352L 4.0196 11.4608ZM 2.47509 12.3221L 2.47509 6.98192L 1.97509 6.98192L 1.97509 12.3221L 2.47509 12.3221ZM 2.47509 6.98224C 2.47797 4.77874 4.26397 2.99325 6.4675 2.99089L 6.46696 2.49089C 3.98778 2.49355 1.97833 4.50239 1.97509 6.98159L 2.47509 6.98224ZM 6.46724 2.99089C 8.68607 2.99076 10.8932 3.31471 13.0183 3.9527L 13.1621 3.47382C 10.9903 2.82181 8.73472 2.49075 6.46721 2.49089L 6.46724 2.99089ZM 13.0184 3.95273L 15.4271 4.67477L 15.5707 4.19583L 13.162 3.47379L 13.0184 3.95273ZM 15.427 4.67474C 19.1726 5.79927 23.1991 5.52665 26.759 3.90745L 26.552 3.45232C 23.1023 5.02139 19.2005 5.28558 15.5708 4.19586L 15.427 4.67474ZM 26.7589 3.90748C 30.9636 1.99652 35.7892 1.99652 39.9938 3.90748L 40.2007 3.45229C 35.8646 1.48158 30.8881 1.48158 26.552 3.45229L 26.7589 3.90748ZM 39.9938 3.90746C 43.5541 5.52623 47.5808 5.79885 51.3268 4.67475L 51.1831 4.19585C 47.553 5.28516 43.6509 5.02098 40.2007 3.4523L 39.9938 3.90746ZM 51.3268 4.67476L 53.7343 3.95272L 53.5907 3.4738L 51.1832 4.19584L 51.3268 4.67476ZM 53.7344 3.95271C 55.86 3.31471 58.0674 2.99062 60.2866 2.99089L 60.2866 2.49089C 58.0187 2.49061 55.7628 2.82182 53.5906 3.47381L 53.7344 3.95271ZM 60.2864 2.99089C 62.4901 2.99312 64.2759 4.77935 64.2776 6.98308L 64.7776 6.9827C 64.7757 4.50317 62.7664 2.4934 60.2869 2.49089L 60.2864 2.99089ZM 64.2776 6.98289L 64.2776 12.322L 64.7776 12.322L 64.7776 6.98289L 64.2776 6.98289ZM 64.6067 12.0848L 62.7331 11.4607L 62.5751 11.935L 64.4486 12.5592L 64.6067 12.0848ZM 62.7332 11.4607C 62.4536 11.3675 62.1514 11.3675 61.8719 11.4607L 62.03 11.935C 62.2069 11.8761 62.3982 11.8761 62.5751 11.935L 62.7332 11.4607ZM 61.8719 11.4607L 59.3397 12.3051L 59.4979 12.7794L 62.0301 11.935L 61.8719 11.4607ZM 59.6269 12.4036L 57.8735 9.77248L 57.4574 10.0497L 59.2108 12.6809L 59.6269 12.4036ZM 57.8734 9.7723C 57.6784 9.4802 57.3782 9.2748 57.0354 9.19867L 56.927 9.68678C 57.1441 9.73499 57.3341 9.86502 57.4575 10.0499L 57.8734 9.7723ZM 57.0354 9.19868C 51.0595 7.87151 45.1392 11.6399 43.8119 17.6158L 44.3 17.7242C 45.5674 12.0179 51.2207 8.41949 56.927 9.68678L 57.0354 9.19868Z"/>
</defs>
</svg>
