<svg width="50" height="50" viewBox="0 0 50 50" fill="none" xmlns="http://www.w3.org/2000/svg">
<path fill-rule="evenodd" clip-rule="evenodd" d="M21.5407 26.8685L21.5392 26.8514C21.3788 24.8799 21.2497 23.2916 21.688 22.1292C22.5084 22.5437 23.5374 23.0233 24.392 23.391C25.0621 23.6791 25.651 23.9091 26.1408 24.0765L26.2315 24.1076C26.714 24.2736 27.096 24.4044 27.5969 24.4044H33.7769C35.8832 24.4044 37.598 22.6899 37.598 20.5833C37.598 18.4755 35.8835 16.7596 33.7769 16.7596H28.2242C26.751 16.0314 25.3868 14.9088 24.0667 13.8216L23.3615 13.2426C21.7221 11.9098 19.9337 10.6084 17.7123 10.6054H17.7082C17.6911 10.6054 17.6757 10.6054 17.66 10.6054C14.6084 10.6054 12.668 12.8836 12.1544 15.0097C11.155 19.1499 11.1934 22.6643 11.2402 27.1127L11.2529 28.2949L8.23096 37.4696L4.718 43.4453C3.4817 45.424 3.87617 47.8937 5.63773 49.191C6.36445 49.7276 7.21181 49.9887 8.05625 49.9887C9.34226 49.9887 10.6224 49.3869 11.4669 48.2399L15.9307 41.4779C15.9917 41.3814 16.0371 41.2878 16.067 41.1939L17.6766 36.2743L19.5928 39.5757L19.1896 45.7725L19.1812 45.8719C19.1812 47.0896 19.6695 48.2111 20.5195 48.9463C21.2718 49.5936 22.2555 49.9285 23.3368 49.9314C24.3958 49.923 25.392 49.5567 26.1428 48.9038C26.9902 48.1687 27.4756 47.0614 27.4756 45.8719L27.7608 37.4722C27.7721 37.2452 27.7125 37.0208 27.5934 36.8223L21.5407 26.8685ZM22.0529 47.1699C21.6965 46.8632 21.5363 46.4658 21.5334 45.8981L21.9633 39.3774C21.979 39.1446 21.925 38.9146 21.8072 38.7103L18.3951 32.8285C18.1594 32.4227 17.7266 32.1785 17.2554 32.2495C16.7885 32.2977 16.408 32.607 16.2632 33.0529L13.8857 40.3172L9.59632 46.8178L9.53818 46.8972C8.92919 47.7175 7.82632 47.8908 7.03158 47.3059C6.22667 46.7097 6.09469 45.6595 6.72084 44.6659L10.2992 38.5824C10.3445 38.5085 10.38 38.4292 10.4056 38.3466L13.5252 28.8909C13.5665 28.7717 13.5877 28.6438 13.5877 28.5133L13.575 27.2543C13.5296 22.7335 13.4956 19.4676 14.4395 15.5628C14.7546 14.26 15.8731 12.9513 17.6673 12.9513C17.6786 12.9513 17.6885 12.9513 17.6984 12.9513H17.7053C19.014 12.9513 20.3212 13.7943 21.8811 15.062C22.1537 15.2835 22.4305 15.5149 22.7142 15.7503C24.054 16.8703 25.5728 18.1377 27.398 18.9935C27.557 19.0688 27.7245 19.1072 27.9006 19.1072H33.7769C34.603 19.1072 35.253 19.7557 35.253 20.5833C35.253 21.4094 34.603 22.0565 33.7769 22.0565H27.6396L27.5998 22.0481C27.482 22.0225 27.2065 21.9614 26.9001 21.8565C26.4899 21.7173 25.9434 21.503 25.3202 21.2347C24.1848 20.7481 22.8336 20.0996 21.7904 19.5429C21.3049 19.2874 20.6933 19.4051 20.3355 19.8295C18.7201 21.7798 18.9431 24.3898 19.1573 26.915L19.1884 27.274C19.2012 27.4557 19.2579 27.633 19.353 27.788L25.4051 37.742L25.1283 45.8635C25.1283 46.4283 24.9664 46.8202 24.6016 47.1382C24.2795 47.4193 23.8109 47.5838 23.3185 47.5896C22.8366 47.6012 22.3694 47.4422 22.0529 47.1699ZM20.7939 10.2874C23.6313 10.2874 25.9391 7.97966 25.9391 5.14226C25.9391 2.30631 23.6313 0 20.7939 0C17.9579 0 15.6502 2.30661 15.6502 5.14226C15.6502 7.97937 17.9579 10.2874 20.7939 10.2874ZM17.9963 5.14197C17.9963 3.60046 19.2509 2.3473 20.7939 2.3473C22.3395 2.3473 23.5973 3.60075 23.5973 5.14197C23.5973 6.68494 22.3398 7.941 20.7939 7.941C19.2512 7.941 17.9963 6.68494 17.9963 5.14197ZM44.587 28.3688C44.3486 26.5462 42.9632 24.7012 40.7801 24.7012H35.4858C34.4864 24.7012 33.5243 25.1227 32.8429 25.8578C32.2525 26.4938 31.8493 27.3438 31.679 28.3147L28.1477 48.6062C28.0683 49.0404 28.2018 49.4436 28.5169 49.7105C28.741 49.898 29.0308 50 29.3203 50C29.4622 50 29.607 49.9744 29.7404 49.9262C30.1264 49.7814 30.3904 49.4491 30.4613 49.0178L33.056 34.1029H42.9716L44.9076 48.9637C45.0012 49.6564 45.532 49.9884 46.0631 49.9884C46.1171 49.9884 46.1709 49.9826 46.2276 49.977C46.8037 49.9003 47.3374 49.4262 47.2409 48.6628L44.587 28.3688ZM42.6649 31.7582H33.4647L33.9926 28.7237C34.0806 28.2156 34.2905 27.7528 34.5632 27.4578C34.8329 27.1682 35.0998 27.0505 35.4858 27.0505H40.7801C41.5749 27.0505 42.1286 27.6566 42.262 28.6699L42.6649 31.7582Z" fill="#48A1AA"/>
</svg>
