<svg width="50" height="50" viewBox="0 0 50 50" fill="none" xmlns="http://www.w3.org/2000/svg">
<g clip-path="url(#clip0)">
<path fill-rule="evenodd" clip-rule="evenodd" d="M41.9848 42.9693C41.7556 43.3583 41.2976 43.5541 40.8783 43.4329L40.663 43.3501C37.4843 41.5124 33.6269 41.4132 30.3984 43.0328C32.0429 43.4606 33.5633 44.2772 34.8272 45.4195C36.16 46.6227 37.7024 47.5166 39.4158 48.0767C39.9318 48.2504 40.2104 48.8107 40.0366 49.3295C39.8959 49.7378 39.5068 50 39.0957 50C38.9962 50 38.8971 49.9862 38.8004 49.9559C36.8248 49.3103 35.0422 48.2781 33.4969 46.8877C31.9104 45.4529 29.8656 44.6691 27.7272 44.6691C27.6927 44.6691 27.6583 44.6691 27.6224 44.6691C23.2558 46.9207 18.0215 46.9592 13.6202 44.7767C10.4113 43.1817 6.67226 43.0549 3.36104 44.4292C2.85188 44.625 2.27943 44.3851 2.07231 43.8856C1.87086 43.3778 2.10396 42.8178 2.6021 42.6025C6.4417 41.0103 10.7792 41.1595 14.4987 43.0054C14.8753 43.1902 15.2491 43.3558 15.6119 43.4965C18.29 42.8978 20.5815 41.3028 22.0728 38.9932C23.3214 37.0699 25.3314 35.7399 27.5885 35.3483C28.1072 35.2626 28.6398 35.6158 28.7337 36.1513V36.1541C28.7777 36.4135 28.7198 36.6757 28.5653 36.8935C28.4135 37.1088 28.1872 37.2524 27.925 37.2965C26.2102 37.5971 24.6816 38.6072 23.7336 40.0694C22.5582 41.8851 20.9482 43.3476 19.0401 44.3354C22.2217 44.6914 25.4058 43.9051 28.0877 42.0976C32.1053 39.3825 37.4142 39.1921 41.6166 41.6175C42.0896 41.8905 42.2524 42.4949 41.9848 42.9693ZM46.6921 4.29239C46.6921 4.56703 46.5816 4.83178 46.3858 5.0194L30.7847 20.6191C30.8039 22.712 29.7141 31.8771 10.1547 38.1546L4.80714 39.6555H4.76871C4.61274 39.6555 4.46101 39.6168 4.30363 39.5368L4.21689 39.4817C4.08437 39.3907 4.00017 39.3023 3.93264 39.2031L3.84702 39.0652C3.78345 38.9466 3.7422 38.7892 3.7422 38.6321L3.76141 38.5134C3.76 38.5078 3.76706 38.4775 3.77526 38.4473C3.81397 38.265 3.87471 38.119 3.96005 38.0031V37.9921L4.04283 37.9065L41.6613 0.290322C42.0532 -0.0967741 42.7248 -0.0970566 43.1158 0.29117L46.3912 3.5651C46.5844 3.75837 46.6921 4.02312 46.6921 4.29239ZM26.4608 18.3965L8.25625 36.6011C16.4709 34.1175 22.3621 30.889 25.7753 27.0014C28.409 23.9993 28.7099 21.5117 28.7263 20.6618L26.4608 18.3965ZM40.1278 4.72809L27.9151 16.9434L29.7361 18.7644L41.9514 6.55026L40.1278 4.72809ZM42.3849 2.46823L41.5819 3.27549L43.4057 5.09936L44.2087 4.29239L42.3849 2.46823Z" fill="#48A1AA"/>
</g>
<defs>
<clipPath id="clip0">
<rect width="50" height="50" fill="white"/>
</clipPath>
</defs>
</svg>
