<?xml version="1.0" encoding="utf-8"?>
<!-- Generator: Adobe Illustrator 20.1.0, SVG Export Plug-In . SVG Version: 6.00 Build 0)  -->
<svg version="1.1" id="Layer_1" xmlns="http://www.w3.org/2000/svg" xmlns:xlink="http://www.w3.org/1999/xlink" x="0px" y="0px"
	 viewBox="0 0 496 496" style="enable-background:new 0 0 496 496;" xml:space="preserve">
<style type="text/css">
	.st0{fill:#40919A;}
</style>
<g>
	<g>
		<g>
			<path class="st0" d="M474.9,88c-9.6,0-18.7,3.7-25.5,10.5l-15.6,15.6c-3.7,3.7-8.9,5.9-14.1,5.9h-8.4c-11,0-20-9-20-20
				s9-20,20-20h4h8V0h-16v54.1l-11.2-22.4C386.4,12.2,366.7,0,344.8,0c-31.7,0-57.4,25.8-57.4,57.4V90c0,2.4,0.2,5,0.2,7.5L267.2,72
				h-43.8v117.6l-11.1,16.6l-16-9.2l-19.3,35h-17.6l-68.5,16.9l-74.1,90.7l-16,24l13.3,8.9l15.5-23.4l70.3-85.9l60.5-15.1h19
				c11,0,20,9,20,20s-9,20-20,20h-15l-34.7,29.8l-69,125.1l42.7,25.6c0,0,0,0,0,0.1c0,15.1,12.3,27.4,27.4,27.4
				c9.7,0,19.2-2.6,27.5-7.6l19.8-11.9c8.2-4.9,13.3-13.9,13.3-23.5v-1.6c0-7.7-3.2-14.6-8.2-19.5l18.9-11.4
				c8.2-4.9,13.3-13.9,13.3-23.5v-1.6c0-7.7-3.2-14.6-8.2-19.5l18.9-11.4c8.2-4.9,13.3-13.9,13.3-23.5v-1.6
				c0-10.8-6.4-20.1-15.5-24.6l42.3-77.9l-15.2-8.7l19-31.7l27.8-34.7c3.4,12,7.4,23.7,12.3,34.7c6.2,14,9.4,28.9,9.4,44.3v38.8
				c0,31.1,25.3,56.4,56.4,56.4c19.7,0,37.5-10.3,47.6-26.3V496h16V280h-22.5l-1.5,7.6c-3.8,18.8-20.4,32.4-39.6,32.4
				c-22.3,0-40.4-18.1-40.4-40.4v-38.8c0-17.6-3.6-34.7-10.8-50.8c-4.2-9.5-7.7-19.7-10.8-30.1h45.6v-48h-54.9
				c-0.7-7.5-1.1-14.9-1.1-22V57.4c0-22.9,18.6-41.4,41.4-41.4c15.8,0,30,8.8,37.1,22.9l14.3,28.6c-12.2,5.8-20.8,18.1-20.8,32.5
				c0,19.8,16.2,36,36,36h8.4c9.6,0,18.7-3.7,25.5-10.5l15.6-15.6c3.7-3.7,8.9-5.9,14.1-5.9h20.4V88H474.9z M175.3,453
				c0,4-2.1,7.7-5.5,9.8L150,474.7c-5.8,3.5-12.5,5.3-19.3,5.3c-6.3,0-11.4-5.1-11.4-12c0-4.4,2.4-8.3,6.3-10.2l33.2-16.6
				c1.6-0.8,3.4-1.2,5.1-1.2c6.3,0,11.4,5.1,11.4,11.4L175.3,453L175.3,453z M199.3,397c0,4-2.1,7.7-5.5,9.8L174,418.7
				c-5.8,3.5-12.5,5.3-19.3,5.3c-6.3,0-11.4-5.1-11.4-12c0-4.4,2.4-8.3,6.3-10.2l33.2-16.6c1.6-0.8,3.4-1.2,5.1-1.2
				c6.3,0,11.4,5.1,11.4,11.4L199.3,397L199.3,397z M223.3,341c0,4-2.1,7.7-5.5,9.8L198,362.7c-5.8,3.5-12.5,5.3-19.3,5.3
				c-6.3,0-11.4-5.1-11.4-12c0-4.4,2.4-8.3,6.3-10.2l33.2-16.6c1.6-0.8,3.4-1.2,5.1-1.2c6.3,0,11.4,5.1,11.4,11.4L223.3,341
				L223.3,341z M206.8,312.6c-2.5,0.5-4.9,1.2-7.2,2.3l-33.2,16.6c-9.3,4.7-15.2,14.1-15.2,25.1c0,8.6,4.1,16.3,10.4,21.3l-19.2,9.6
				c-9.3,4.7-15.2,14.1-15.2,25.1c0,8.6,4.1,16.3,10.4,21.3l-19.2,9.6c-4.3,2.2-7.8,5.4-10.4,9.2l-26-15.6L142.2,328l28.1-24h9
				c19.8,0,36-16.2,36-36c0-3.2-0.6-6.3-1.4-9.3l16.9,9.6L206.8,312.6z M238.5,254.3l-42.2-24.1l6.2-11.2l42.2,24.1L238.5,254.3z
				 M237,220.3l-10.8-6.2l9.4-14.1h13.6L237,220.3z M255.3,184h-16V88h16V184z M319.3,128h24v16h-24V128z M303.3,144h-11.8
				l-20.2,25.2v-66.4l20.2,25.2h11.8V144z"/>
			<path class="st0" d="M395.4,210.6l-3.6,10.8l15.2,5.1l3.6-10.8c6.3-18.9,24-31.7,44-31.7h40.8v-16h-40.8
				C427.6,168,403.9,185.1,395.4,210.6z"/>
			<path class="st0" d="M372.2,44.8c-5.4-8-14.3-12.8-24-12.8c-15.9,0-28.8,12.9-28.8,28.8V88h16V60.8c0-7.1,5.8-12.8,12.8-12.8
				c4.3,0,8.3,2.1,10.7,5.7l9.8,14.7l13.3-8.9L372.2,44.8z"/>
			<path class="st0" d="M375.3,264v-24c0-11.7-2.8-23.4-8-33.9l-1.7-3.4c-4.1-8.3-6.3-17.5-6.3-26.7h-16c0,11.7,2.8,23.4,8,33.9
				l1.7,3.4c4.1,8.3,6.3,17.5,6.3,26.7v24H375.3z"/>
		</g>
	</g>
</g>
</svg>
