<?xml version="1.0" encoding="utf-8"?>
<!-- Generator: Adobe Illustrator 20.1.0, SVG Export Plug-In . SVG Version: 6.00 Build 0)  -->
<svg version="1.1" id="Capa_1" xmlns="http://www.w3.org/2000/svg" xmlns:xlink="http://www.w3.org/1999/xlink" x="0px" y="0px"
	 viewBox="0 0 31.8 31.8" style="enable-background:new 0 0 31.8 31.8;" xml:space="preserve">
<style type="text/css">
	.st0{fill:#40919A;}
</style>
<g>
	<g>
		<path class="st0" d="M20.1,12.5c1.5-0.2,2.9,0.7,3.5,1.9c0.3,0.4,1.4,1.7,5.5,1.5l2.7-0.3V4.4c0-0.8-0.6-1.4-1.4-1.4h-4
			c-0.8,0-1.4,0.6-1.4,1.4v1.8c0,0.8-0.6,1.4-1.4,1.4H8.2c-0.8,0-1.4-0.6-1.4-1.4V4.4C6.8,3.6,6.2,3,5.5,3H1.4C0.6,3,0,3.6,0,4.4
			v22.3l1.8-1.6c0-0.1,0.2-0.4,0.8-1c2.4-2.5,2.7-4.1,2.6-4.8c0-0.2-0.1-0.3-0.1-0.5c0,0,0,0,0,0l0,0c-0.1-1.1,0.2-2.2,1.1-3
			c1.4-1.3,3.6-1.2,4.9,0.2c0.4,0.5,0.7,1,0.8,1.6c0.2,0.5,0.7,1.5,2.1,2.2c0.5,0.2,1,0.5,1.4,0.9c1.3,1.4,1.2,3.6-0.2,4.9
			c-1.1,1-2.7,1.2-4,0.5c-0.5-0.2-2.1-0.5-5.4,2.1L2,31.8h28.5c0.8,0,1.4-0.6,1.4-1.4v-9.6L30.6,21c-0.1,0.1-0.4,0.2-1.2,0.3
			c-3.4,0.5-4.6,1.6-5,2.3c-0.1,0.1-0.1,0.3-0.2,0.4c0,0,0,0,0,0l0,0c-0.5,0.9-1.5,1.6-2.7,1.7c-1.9,0.2-3.6-1.2-3.8-3.1
			c-0.1-0.6,0-1.2,0.3-1.8c0.1-0.5,0.3-1.6-0.4-3c-0.3-0.5-0.5-1-0.6-1.6C16.8,14.4,18.2,12.7,20.1,12.5z M15.1,17.6
			c-0.9,0.3-2.8-2.3-2.8-2.3c-1.3-1.4,2.4-2.9,3-2.4C15.9,13.3,16.1,17.4,15.1,17.6z"/>
		<path class="st0" d="M23.5,1.4c0-0.8-0.6-1.4-1.4-1.4H9.8C9,0,8.4,0.6,8.4,1.4v3.3c0,0.8,0.6,1.4,1.4,1.4h12.4
			c0.8,0,1.4-0.6,1.4-1.4L23.5,1.4L23.5,1.4z"/>
	</g>
</g>
</svg>
