<?xml version="1.0" encoding="utf-8"?>
<!-- Generator: Adobe Illustrator 20.1.0, SVG Export Plug-In . SVG Version: 6.00 Build 0)  -->
<svg version="1.1" id="Capa_1" xmlns="http://www.w3.org/2000/svg" xmlns:xlink="http://www.w3.org/1999/xlink" x="0px" y="0px"
	 viewBox="0 0 333.7 333.7" style="enable-background:new 0 0 333.7 333.7;" xml:space="preserve">
<style type="text/css">
	.st0{fill:#40919A;}
</style>
<g>
	<path class="st0" d="M311.1,170.5c-4.1-5.9-13.4-18.4-24-23.9L311.6,19c0.8-4.1-1.9-8-6-8.8c-4.1-0.8-8,1.9-8.8,6l-24.4,127.4
		c-20.5,0.1-44.7,13.7-65,36.2c-16.3,18.2-27.2,38.9-30.7,57.5H157c-3.4-18.6-14.3-39.3-30.7-57.5c-20.2-22.6-44.5-36.1-65-36.2
		L36.9,16.2c-0.8-4.1-4.7-6.7-8.8-6c-4.1,0.8-6.7,4.7-6,8.8l24.5,127.6c-10.6,5.5-19.9,18-24,23.9C8.3,191.4-4.7,224,1.7,252.8
		C6,272.3,17,285.7,35,293.4c0.3,0.5,10.6,25.7,10.6,25.7c1.2,2.8,3.9,4.6,6.9,4.6h228.8c3,0,5.8-1.8,6.9-4.6l10.7-25.7
		c17.9-7.6,28.8-21.1,33.1-40.5C338.5,224,325.4,191.4,311.1,170.5z M272.7,158.5c0.1,0,18.5,56.3-5,98.5
		c-9.3,16.8-22.3,25.5-26.8,28.4c-31.4-2.8-50.3-16.1-50.3-36.1C190.6,211.1,238.2,158.5,272.7,158.5z M158,252.2h17.7
		c0.4,6.3,2.2,12.6,5.6,18.6h-28.8C155.7,265.2,157.6,258.9,158,252.2z M61,158.5c34.5,0,82.1,52.6,82.1,90.7
		c0,20-19,33.3-50.3,36.1c-4.4-2.8-16.9-11.2-26.4-27.7C38.9,209.8,60.9,158.5,61,158.5z M16.3,249.6C10.9,225.4,23,196.4,35,179
		c2.5-3.7,5-6.8,7.3-9.4c-10.4,45.6-0.2,76.9,11.2,95.8c5,8.4,10.6,15,15.8,20.2C29.2,283,19.8,265.2,16.3,249.6z M276.2,308.6H57.5
		l-4.1-9.9c7.9,1.5,16.8,2.2,26.6,2.2c38.1,0,58.3-14.8,58.7-15.1h56.2c12.4,9,31.4,15.1,58.9,15.1c9.8,0,18.6-0.7,26.6-2.2
		L276.2,308.6z M317.4,249.6c-3.5,15.6-12.8,33.4-53,36c5.2-5.1,10.8-11.8,15.8-20.2c11.4-19,21.6-50.3,11.2-95.8
		c2.3,2.6,4.8,5.7,7.3,9.4C310.7,196.4,322.8,225.4,317.4,249.6z"/>
</g>
</svg>
