<svg width="117" height="34" viewBox="0 0 117 34" fill="none" xmlns="http://www.w3.org/2000/svg">
<path d="M4.68731 0H112.313C113.943 0 114.534 0.1581 115.13 0.4539C115.726 0.75055 116.193 1.1849 116.512 1.7391C116.83 2.2933 117 2.84325 117 4.3588V29.6412C117 31.1567 116.83 31.7067 116.512 32.2609C116.2 32.8085 115.718 33.2562 115.13 33.5461C114.534 33.8419 113.943 34 112.313 34H4.68731C3.05754 34 2.46614 33.8419 1.87017 33.5461C1.28134 33.2562 0.799815 32.8085 0.488109 32.2609C0.170016 31.7067 0 31.1567 0 29.6412V4.3588C0 2.84325 0.170016 2.2933 0.488109 1.7391C0.799815 1.19154 1.28134 0.743758 1.87017 0.4539C2.46614 0.1581 3.05754 0 4.68731 0Z" fill="#EAECEF"/>
<path d="M20.8938 16.6572C20.8957 18.4085 21.947 19.989 23.5641 20.6718C23.2534 21.6797 22.7844 22.6322 22.1748 23.4938C21.3566 24.7161 20.4991 25.9095 19.1363 25.9316C17.8135 25.9622 17.3686 25.1547 15.8506 25.1547C14.3181 25.1547 13.8442 25.9095 12.5751 25.9622C11.2779 26.0107 10.2867 24.6592 9.43775 23.4496C7.7425 20.9804 6.42226 16.4881 8.19252 13.4324C9.0236 11.9425 10.5777 10.9971 12.2862 10.9418C13.5843 10.9155 14.7895 11.8165 15.5881 11.8165C16.3705 11.8165 17.8612 10.7387 19.3979 10.8985C20.8588 10.9432 22.2127 11.6733 23.0501 12.868C21.7279 13.6793 20.9143 15.1092 20.8938 16.6572ZM18.3948 9.27415C17.674 10.1683 16.5816 10.6831 15.4313 10.6707C15.3586 9.54978 15.7354 8.44594 16.4788 7.60217C17.232 6.74748 18.2802 6.20701 19.415 6.08832C19.5037 7.2422 19.1377 8.38513 18.3948 9.27415ZM36.9403 18.8997H32.608L31.5673 21.9639H29.7331L33.8371 10.63H35.7428L39.8459 21.9639H37.9802L36.9403 18.8997ZM33.0572 17.4861H36.4912L34.7985 12.5136H34.7516L33.0572 17.4861ZM48.7074 17.8312C48.7074 20.3982 47.3292 22.0489 45.2496 22.0489C44.1746 22.1048 43.162 21.5432 42.6423 20.6031H42.6031V24.6958H40.9028V13.6994H42.5494V15.0738H42.581C43.1235 14.139 44.1373 13.5773 45.2198 13.6118C47.3216 13.6135 48.7074 15.271 48.7074 17.8312ZM46.9593 17.8312C46.9593 16.1567 46.0925 15.0577 44.7689 15.0577C43.47 15.0577 42.5955 16.1796 42.5955 17.8312C42.5955 19.4963 43.47 20.6107 44.7689 20.6107C46.0925 20.6107 46.9593 19.5201 46.9593 17.8312ZM57.8272 17.8312C57.8272 20.3982 56.449 22.0489 54.3694 22.0489C53.2944 22.1048 52.2818 21.5432 51.7621 20.6031H51.7229V24.6958H50.0217V13.6994H51.6684V15.0738H51.6999C52.2425 14.139 53.2563 13.5773 54.3387 13.6118C56.4405 13.6135 57.8272 15.271 57.8272 17.8312ZM56.0791 17.8312C56.0791 16.1567 55.2123 15.0577 53.8895 15.0577C52.5906 15.0577 51.7161 16.1796 51.7161 17.8312C51.7161 19.4963 52.5906 20.6107 53.8895 20.6107C55.2123 20.6107 56.0791 19.5201 56.0791 17.8312ZM63.8548 18.8045C63.9801 19.9282 65.0754 20.666 66.572 20.666C68.0056 20.666 69.0369 19.9282 69.0369 18.9141C69.0369 18.0344 68.4147 17.5074 66.9419 17.1461L65.4691 16.7933C63.3827 16.2901 62.4136 15.3169 62.4136 13.7385C62.4136 11.7826 64.1225 10.4396 66.549 10.4396C68.9508 10.4396 70.5967 11.7826 70.6521 13.7376H68.9347C68.8324 12.6071 67.894 11.9245 66.5243 11.9245C65.1538 11.9245 64.2162 12.6147 64.2162 13.6212C64.2162 14.4227 64.8145 14.8936 66.2797 15.2531L67.5317 15.5609C69.8637 16.1108 70.8319 17.045 70.8319 18.7033C70.8319 20.8232 69.1384 22.1518 66.4442 22.1518C63.9247 22.1518 62.2226 20.8555 62.1118 18.8045H63.8548ZM74.5037 11.7443V13.6994H76.0788V15.044H74.5037V19.5992C74.5037 20.3073 74.819 20.6362 75.5111 20.6362C75.6981 20.6337 75.8848 20.6209 76.0703 20.598V21.9325C75.759 21.9909 75.4426 22.0175 75.1259 22.0115C73.4477 22.0115 72.7939 21.3825 72.7939 19.7803V15.044H71.5896V13.7002H72.7939V11.7443H74.5037ZM76.9925 17.8304C76.9925 15.2311 78.5279 13.5974 80.9213 13.5974C83.3233 13.5974 84.8521 15.2311 84.8521 17.8304C84.8521 20.4382 83.3318 22.0634 80.9213 22.0634C78.5124 22.0659 76.9925 20.439 76.9925 17.8304ZM83.1188 17.8304C83.1188 16.0479 82.299 14.9947 80.9213 14.9947C79.5445 14.9947 78.7255 16.0555 78.7255 17.8312C78.7255 19.6221 79.5445 20.6668 80.9213 20.6668C82.3005 20.6668 83.1188 19.6205 83.1188 17.8304ZM86.2545 13.6994H87.8763V15.1061H87.9158C88.142 14.2006 88.9742 13.5776 89.9094 13.6135C90.1055 13.6127 90.3007 13.6339 90.4921 13.6764V15.2625C90.2449 15.187 89.9869 15.1525 89.7281 15.1605C89.2276 15.1401 88.7441 15.3388 88.4031 15.7042C88.063 16.0696 87.8995 16.5653 87.9561 17.0611V21.9631H86.2545V13.6994ZM98.3334 19.5355C98.1041 21.0357 96.6404 22.0651 94.7661 22.0651C92.3556 22.0651 90.8594 20.4552 90.8594 17.8712C90.8594 15.2786 92.3641 13.5982 94.6948 13.5982C96.9875 13.5982 98.4295 15.1681 98.4295 17.674V18.2554H92.5772V18.3574C92.5222 18.9724 92.7352 19.5814 93.1614 20.0291C93.5876 20.4769 94.1865 20.7203 94.8048 20.6974C95.63 20.7744 96.4079 20.3019 96.7187 19.5355H98.3334ZM92.5841 17.0696H96.7264C96.7574 16.5169 96.5552 15.9763 96.1701 15.5782C95.7842 15.1801 95.2496 14.9606 94.694 14.9726C93.5356 14.966 92.5911 15.8971 92.5841 17.0526V17.0696Z" fill="#151833"/>
</svg>
