<svg width="110" height="51" viewBox="0 0 110 51" fill="none" xmlns="http://www.w3.org/2000/svg">
<path fill-rule="evenodd" clip-rule="evenodd" d="M51.1352 6.04543V1.90952V1.90888H59.4866V14.9529C59.4866 15.2061 59.5966 15.4488 59.7923 15.6278C59.9881 15.8068 60.2536 15.9074 60.5305 15.9074C60.8074 15.9074 61.0729 15.8068 61.2687 15.6278C61.4644 15.4488 61.5744 15.2061 61.5744 14.9529V1.90888C61.5744 1.44375 61.4464 0.919446 61.0079 0.51858C60.5688 0.117078 59.9953 0 59.4866 0H51.1352C50.6265 0 50.053 0.118351 49.6139 0.519216C49.1754 0.920082 49.0474 1.44439 49.0474 1.90952V6.04543C49.0474 6.29857 49.1573 6.54133 49.3531 6.72033C49.5489 6.89932 49.8144 6.99988 50.0913 6.99988C50.3681 6.99988 50.6337 6.89932 50.8294 6.72033C51.0252 6.54133 51.1352 6.29857 51.1352 6.04543ZM59.4866 21.6346V25.7706H51.1352V12.7265C51.1352 12.4734 51.0252 12.2306 50.8294 12.0516C50.6337 11.8726 50.3681 11.7721 50.0913 11.7721C49.8144 11.7721 49.5489 11.8726 49.3531 12.0516C49.1573 12.2306 49.0474 12.4734 49.0474 12.7265V25.7706C49.0474 26.2357 49.1754 26.7606 49.6139 27.1615C50.053 27.5624 50.6265 27.6794 51.1352 27.6794H59.4866C59.9953 27.6794 60.5695 27.5624 61.0079 27.1615C61.4464 26.76 61.5744 26.2357 61.5744 25.7706V21.6346C61.5744 21.3815 61.4644 21.1388 61.2687 20.9598C61.0729 20.7808 60.8074 20.6802 60.5305 20.6802C60.2536 20.6802 59.9881 20.7808 59.7923 20.9598C59.5966 21.1388 59.4866 21.3815 59.4866 21.6346ZM63.6622 10.1813H68.1859V17.8169H53.9189C53.6421 17.8169 53.3766 17.9174 53.1808 18.0964C52.985 18.2754 52.875 18.5182 52.875 18.7713C52.875 19.0245 52.985 19.2672 53.1808 19.4462C53.3766 19.6252 53.6421 19.7258 53.9189 19.7258H68.1859C68.6946 19.7258 69.2688 19.6087 69.7072 19.2078C70.1457 18.8063 70.2737 18.2826 70.2737 17.8169V10.1813C70.2737 9.71621 70.1457 9.19191 69.7072 8.79104C69.2681 8.38954 68.6946 8.27246 68.1859 8.27246H63.6622C63.3853 8.27246 63.1198 8.37302 62.924 8.55201C62.7283 8.731 62.6183 8.97377 62.6183 9.2269C62.6183 9.48004 62.7283 9.7228 62.924 9.9018C63.1198 10.0808 63.3853 10.1813 63.6622 10.1813ZM46.6115 17.8169H42.0878V10.1813H56.3548C56.6316 10.1813 56.8972 10.0808 57.0929 9.9018C57.2887 9.7228 57.3987 9.48004 57.3987 9.2269C57.3987 8.97377 57.2887 8.731 57.0929 8.55201C56.8972 8.37302 56.6316 8.27246 56.3548 8.27246H42.0878C41.5791 8.27246 41.0056 8.39018 40.5665 8.79104C40.1281 9.19191 40 9.71685 40 10.1813V17.8169C40 18.2826 40.1281 18.807 40.5665 19.2078C41.0056 19.6087 41.5791 19.7258 42.0878 19.7258H46.6115C46.8884 19.7258 47.1539 19.6252 47.3497 19.4462C47.5454 19.2672 47.6554 19.0245 47.6554 18.7713C47.6554 18.5182 47.5454 18.2754 47.3497 18.0964C47.1539 17.9174 46.8884 17.8169 46.6115 17.8169Z" fill="#56CBD6"/>
<path d="M7.60254 50.3052H4.88598L2.18176 45.5182H2.15598V50.3052H0V39.9132H2.15598V44.3947H2.18176L4.7862 39.9132H7.36485L4.13818 44.8324L7.60254 50.3062V50.3052ZM10.5164 42.0289V44H14.3552V46.0871H10.5164V48.1884H14.7286V50.3052H8.36044V39.9132H14.6288V42.0299H10.5164V42.0289ZM19.8601 39.9132C22.0374 39.9132 23.1249 40.9013 23.1249 42.8756C23.1249 43.509 22.9792 44.0493 22.6888 44.4962C22.3984 44.9339 22.0004 45.2404 21.4925 45.4156V45.4454C21.8087 45.5715 22.0621 45.7857 22.2526 46.0871C22.4432 46.3792 22.6439 46.861 22.8513 47.5324L23.7113 50.3052H21.3938L20.7212 47.9557C20.5619 47.4104 20.3758 47.0363 20.1606 46.8323C19.952 46.617 19.6404 46.5104 19.2244 46.5104H18.4149V50.3052H16.259V39.9132H19.8601ZM18.4149 44.5977H19.5989C20.5294 44.5977 20.9947 44.1313 20.9947 43.1974C20.9947 42.3118 20.5003 41.869 19.5114 41.869H18.4149V44.5987V44.5977ZM31.7623 46.2767C31.7623 47.6492 31.4461 48.705 30.8149 49.4441C30.1837 50.1739 29.2823 50.5389 28.1107 50.5389C26.948 50.5389 26.05 50.1739 25.4199 49.4441C24.7876 48.705 24.4714 47.6492 24.4714 46.2767V39.9132H26.6274V46.2183C26.6274 46.8999 26.7518 47.4207 27.0019 47.7804C27.2597 48.1402 27.6297 48.3207 28.1107 48.3207C28.6006 48.3207 28.9706 48.1402 29.2206 47.7804C29.4774 47.4207 29.6063 46.8989 29.6063 46.2183V39.9142H31.7623V46.2767ZM35.7323 42.0289V44H39.5711V46.0871H35.7323V48.1884H39.9444V50.3052H33.5763V39.9132H39.8447V42.0299H35.7323V42.0289ZM46.4595 50.3052L44.9145 46.2049C44.392 44.83 43.9098 43.4427 43.4682 42.0442H43.4436C43.5108 43.6013 43.5433 45.061 43.5433 46.4233V50.3052H41.4748V39.9132H44.5782L46.1354 44.0144C46.6837 45.5038 47.1658 46.8897 47.5817 48.1741H47.6064C47.5357 46.7156 47.502 45.2559 47.5055 43.7961V39.9132H49.5751V50.3052H46.4583H46.4595ZM60.0568 50.3052V45.225C60.0568 43.9314 60.0826 42.6521 60.1319 41.3872H60.1073C59.9077 42.3887 59.6252 43.6495 59.2597 45.1676L58.0006 50.3052H55.4477L54.1887 45.1666C53.8232 43.6495 53.5407 42.3887 53.3411 41.3872H53.3164C53.3669 42.6521 53.3915 43.9314 53.3915 45.226V50.3052H51.36V39.9121H54.8121L55.9455 44.5249C56.2527 45.8287 56.5106 47.1039 56.7191 48.3483H56.7438C56.9344 47.1521 57.1878 45.8779 57.5039 44.5249L58.6498 39.9121H62.0894V50.3052H60.0579H60.0568ZM66.1346 42.0289V43.999H69.9734V46.0871H66.1346V48.1884H70.3467V50.3052H63.9786V39.9121H70.247V42.0289H66.1346ZM75.0175 39.9132C76.5378 39.9132 77.7049 40.3642 78.5188 41.2703C79.3418 42.1652 79.7521 43.4445 79.7521 45.1092C79.7521 46.7728 79.3418 48.0572 78.5188 48.9623C77.7049 49.8572 76.5378 50.3052 75.0175 50.3052H71.8771V39.9121H75.0163L75.0175 39.9132ZM74.0196 48.1587H74.967C75.8068 48.1587 76.438 47.9065 76.8618 47.4002C77.2934 46.8846 77.5098 46.1209 77.5098 45.1092C77.5098 44.0964 77.2934 43.3379 76.8618 42.8315C76.438 42.3159 75.8068 42.0586 74.967 42.0586H74.0208V48.1587H74.0196ZM81.1255 50.3052V39.9121H83.2815V50.3052H81.1255ZM88.8043 39.6794C89.5611 39.6794 90.2259 39.8445 90.7988 40.1756C91.3717 40.4964 91.8202 40.9587 92.1442 41.5614C92.4693 42.156 92.6431 42.851 92.6678 43.6495H90.4367C90.3874 43.0857 90.2169 42.647 89.9266 42.3354C89.644 42.0237 89.2696 41.869 88.8054 41.869C88.2146 41.869 87.7493 42.1601 87.4096 42.7444C87.0766 43.3184 86.9107 44.1067 86.9107 45.1092C86.9107 46.1106 87.0766 46.904 87.4096 47.4873C87.7493 48.0613 88.2056 48.3483 88.7796 48.3483C89.2449 48.3483 89.6227 48.1884 89.9142 47.8666C90.2125 47.5457 90.3918 47.0937 90.4501 46.5104H92.7048C92.6218 47.7948 92.2317 48.786 91.5343 49.4872C90.8358 50.1883 89.9176 50.5389 88.7796 50.5389C87.932 50.5389 87.1966 50.3195 86.5743 49.8818C85.9588 49.4441 85.4868 48.8209 85.1538 48.0131C84.8208 47.1962 84.6549 46.2275 84.6549 45.1092C84.6549 43.9898 84.8208 43.0262 85.1538 42.2185C85.4935 41.4015 85.9756 40.7732 86.599 40.3355C87.2223 39.8978 87.9578 39.6794 88.8043 39.6794ZM101.303 46.2767C101.303 47.6482 100.987 48.704 100.354 49.4441C99.7232 50.1739 98.8218 50.5389 97.6502 50.5389C96.4876 50.5389 95.5906 50.1739 94.9594 49.4441C94.3271 48.704 94.012 47.6482 94.012 46.2767V39.9121H96.168V46.2183C96.168 46.8989 96.2914 47.4196 96.5414 47.7794C96.7992 48.1402 97.1692 48.3196 97.6513 48.3196C98.1412 48.3196 98.5101 48.1402 98.7601 47.7794C99.018 47.4207 99.1458 46.8989 99.1458 46.2183V39.9132H101.302V46.2767H101.303ZM106.095 39.6794C107.216 39.6794 108.076 39.9706 108.673 40.5548C109.272 41.1289 109.571 41.9704 109.571 43.0795H107.329C107.329 42.6131 107.212 42.2575 106.979 42.0135C106.755 41.7613 106.431 41.6342 106.007 41.6342C105.651 41.6342 105.364 41.7265 105.147 41.912C104.94 42.0873 104.836 42.321 104.836 42.6131C104.836 42.8366 104.891 43.0211 104.998 43.1667C105.115 43.304 105.293 43.425 105.534 43.5326C105.775 43.6392 106.132 43.7612 106.606 43.8975C107.312 44.1026 107.881 44.3158 108.313 44.5392C108.753 44.7545 109.109 45.0743 109.385 45.5028C109.667 45.9312 109.808 46.5002 109.808 47.2105C109.808 47.8819 109.659 48.4713 109.36 48.9767C109.061 49.4728 108.637 49.8572 108.089 50.1299C107.549 50.4025 106.913 50.5378 106.182 50.5378C105.02 50.5378 104.109 50.2221 103.453 49.5897C102.796 48.9572 102.469 48.0664 102.469 46.9184H104.762C104.762 47.9885 105.252 48.5236 106.231 48.5236C106.638 48.5236 106.959 48.4273 107.191 48.2325C107.424 48.0377 107.54 47.7702 107.54 47.4299C107.54 47.1767 107.483 46.9768 107.366 46.8312C107.244 46.6745 107.075 46.5529 106.88 46.4807C106.543 46.3402 106.198 46.2183 105.846 46.1158C105.123 45.9015 104.545 45.6873 104.114 45.4731C103.671 45.2495 103.301 44.9223 103.042 44.5249C102.759 44.1067 102.618 43.547 102.618 42.8458C102.618 42.2134 102.759 41.6588 103.042 41.1822C103.317 40.7121 103.737 40.3264 104.25 40.0731C104.782 39.8107 105.397 39.6794 106.095 39.6794Z" fill="#151833"/>
</svg>
