<svg width="120" height="39" viewBox="0 0 120 39" fill="none" xmlns="http://www.w3.org/2000/svg">
<path fill-rule="evenodd" clip-rule="evenodd" d="M14.2257 2.82946V8.60866C14.2257 8.96236 14.0852 9.30159 13.8351 9.5517C13.5849 9.80181 13.2457 9.94232 12.892 9.94232C12.5383 9.94232 12.1991 9.80181 11.949 9.5517C11.6989 9.30159 11.5583 8.96236 11.5583 8.60866V2.82946C11.5583 2.17953 11.7219 1.4469 12.2821 0.886766C12.8431 0.326629 13.5757 0.161255 14.2257 0.161255H24.8949C25.5449 0.161255 26.2775 0.32485 26.8385 0.885877C27.3987 1.44601 27.5623 2.17864 27.5623 2.82857V21.0553C27.5623 21.409 27.4218 21.7482 27.1716 21.9983C26.9215 22.2484 26.5823 22.3889 26.2286 22.3889C25.8749 22.3889 25.5357 22.2484 25.2856 21.9983C25.0355 21.7482 24.8949 21.409 24.8949 21.0553V2.82857H14.2257V2.82946ZM24.8949 36.171V30.3918C24.8949 30.0381 25.0355 29.6988 25.2856 29.4487C25.5357 29.1986 25.8749 29.0581 26.2286 29.0581C26.5823 29.0581 26.9215 29.1986 27.1716 29.4487C27.4218 29.6988 27.5623 30.0381 27.5623 30.3918V36.171C27.5623 36.8209 27.3987 37.5535 26.8385 38.1145C26.2784 38.6747 25.5449 38.8383 24.8949 38.8383H14.2257C13.5757 38.8383 12.8431 38.6747 12.2821 38.1145C11.7219 37.5544 11.5583 36.8209 11.5583 36.171V17.9443C11.5583 17.5906 11.6989 17.2513 11.949 17.0012C12.1991 16.7511 12.5383 16.6106 12.892 16.6106C13.2457 16.6106 13.5849 16.7511 13.8351 17.0012C14.0852 17.2513 14.2257 17.5906 14.2257 17.9443V36.171H24.8949Z" fill="#56CBD6"/>
<path fill-rule="evenodd" clip-rule="evenodd" d="M36.0088 14.3873H30.2296C29.8759 14.3873 29.5367 14.2468 29.2866 13.9967C29.0365 13.7466 28.896 13.4073 28.896 13.0536C28.896 12.6999 29.0365 12.3607 29.2866 12.1106C29.5367 11.8605 29.8759 11.72 30.2296 11.72H36.0088C36.6588 11.72 37.3914 11.8836 37.9524 12.4446C38.5125 13.0047 38.6761 13.7374 38.6761 14.3873V25.0566C38.6761 25.7074 38.5125 26.4391 37.9524 27.0002C37.3923 27.5603 36.6588 27.7239 36.0088 27.7239H17.7821C17.4284 27.7239 17.0892 27.5834 16.8391 27.3333C16.589 27.0832 16.4485 26.7439 16.4485 26.3902C16.4485 26.0365 16.589 25.6973 16.8391 25.4472C17.0892 25.1971 17.4284 25.0566 17.7821 25.0566H36.0088V14.3873ZM2.66732 25.0566H8.44651C8.80022 25.0566 9.13944 25.1971 9.38955 25.4472C9.63966 25.6973 9.78017 26.0365 9.78017 26.3902C9.78017 26.7439 9.63966 27.0832 9.38955 27.3333C9.13944 27.5834 8.80022 27.7239 8.44651 27.7239H2.66732C2.01738 27.7239 1.28476 27.5603 0.723734 27.0002C0.163597 26.44 0 25.7074 0 25.0566V14.3873C0 13.7382 0.163597 13.0047 0.723734 12.4446C1.28476 11.8845 2.01738 11.72 2.66732 11.72H20.894C21.2477 11.72 21.5869 11.8605 21.837 12.1106C22.0872 12.3607 22.2277 12.6999 22.2277 13.0536C22.2277 13.4073 22.0872 13.7466 21.837 13.9967C21.5869 14.2468 21.2477 14.3873 20.894 14.3873H2.66732V25.0566Z" fill="#56CBD6"/>
<path d="M56.1211 35.2947V29.0101C56.1211 27.4098 56.1503 25.8272 56.206 24.2624H56.1782C55.9524 25.5014 55.6329 27.0611 55.2195 28.9391L53.7954 35.2947H50.9081L49.484 28.9378C49.0706 27.0611 48.7511 25.5014 48.5254 24.2624H48.4975C48.5545 25.8272 48.5824 27.4098 48.5824 29.0114V35.2947H46.2847V22.4377H50.1891L51.4711 28.144C51.8185 29.757 52.1102 31.3345 52.346 32.8739H52.3739C52.5895 31.3941 52.8761 29.8179 53.2337 28.144L54.5297 22.4377H58.4201V35.2947H56.1211ZM62.9953 25.0563V27.4935H67.3372V30.0765H62.9953V32.6761H67.7594V35.2947H60.5568V22.4377H67.6466V25.0563H62.9953ZM73.0422 22.439C74.7617 22.439 76.0818 22.9969 77.0024 24.1179C77.9332 25.2249 78.3973 26.8075 78.3973 28.8668C78.3973 30.9249 77.9332 32.5138 77.0024 33.6335C76.0818 34.7405 74.7617 35.2947 73.0422 35.2947H69.4904V22.4377H73.0409L73.0422 22.439ZM71.9136 32.6393H72.9851C73.9349 32.6393 74.6489 32.3274 75.1282 31.7009C75.6164 31.0631 75.8611 30.1184 75.8611 28.8668C75.8611 27.614 75.6164 26.6756 75.1282 26.0492C74.6489 25.4113 73.9349 25.093 72.9851 25.093H71.9149L71.9136 32.6393ZM79.9507 35.2947V22.4377H82.3892V35.2947H79.9507ZM88.6357 22.1498C89.4916 22.1498 90.2436 22.354 90.8916 22.7636C91.5395 23.1605 92.0468 23.7324 92.4132 24.478C92.781 25.2135 92.9775 26.0733 93.0054 27.0611H90.482C90.4262 26.3636 90.2334 25.8209 89.905 25.4354C89.5855 25.0499 89.1619 24.8584 88.6369 24.8584C87.9687 24.8584 87.4424 25.2186 87.0582 25.9414C86.6816 26.6515 86.4939 27.6266 86.4939 28.8668C86.4939 30.1057 86.6816 31.0872 87.0582 31.8087C87.4424 32.5189 87.9585 32.8739 88.6078 32.8739C89.134 32.8739 89.5614 32.6761 89.8911 32.2779C90.2284 31.881 90.4313 31.3218 90.4972 30.6003H93.0473C92.9534 32.1892 92.5122 33.4154 91.7234 34.2827C90.9334 35.1501 89.8949 35.5838 88.6078 35.5838C87.6491 35.5838 86.8173 35.3124 86.1135 34.7709C85.4173 34.2295 84.8834 33.4585 84.5068 32.4593C84.1302 31.4486 83.9425 30.2503 83.9425 28.8668C83.9425 27.4821 84.1302 26.2901 84.5068 25.2909C84.8911 24.2802 85.4363 23.5029 86.1414 22.9614C86.8464 22.4199 87.6783 22.1498 88.6357 22.1498ZM102.772 30.3111C102.772 32.0078 102.415 33.3139 101.699 34.2295C100.985 35.1323 99.9659 35.5838 98.6407 35.5838C97.3258 35.5838 96.3113 35.1323 95.5974 34.2295C94.8822 33.3139 94.5258 32.0078 94.5258 30.3111V22.4377H96.9644V30.2389C96.9644 31.0809 97.1038 31.725 97.3866 32.1701C97.6783 32.6165 98.0967 32.8384 98.642 32.8384C99.1962 32.8384 99.6133 32.6165 99.8961 32.1701C100.188 31.7263 100.332 31.0809 100.332 30.2389V22.439H102.771L102.772 30.3111ZM108.192 22.1498C109.46 22.1498 110.433 22.51 111.108 23.2328C111.786 23.9429 112.124 24.984 112.124 26.356H109.588C109.588 25.7791 109.456 25.339 109.192 25.0372C108.939 24.7253 108.572 24.5681 108.093 24.5681C107.69 24.5681 107.365 24.6822 107.12 24.9117C106.886 25.1285 106.768 25.4177 106.768 25.7791C106.768 26.0555 106.83 26.2838 106.952 26.4638C107.084 26.6337 107.285 26.7834 107.558 26.9165C107.83 27.0484 108.234 27.1993 108.77 27.368C109.569 27.6216 110.212 27.8853 110.701 28.1618C111.198 28.4281 111.602 28.8237 111.914 29.3537C112.232 29.8838 112.392 30.5876 112.392 31.4664C112.392 32.2969 112.223 33.0261 111.884 33.6512C111.547 34.265 111.068 34.7405 110.448 35.0778C109.837 35.4151 109.118 35.5825 108.291 35.5825C106.976 35.5825 105.946 35.1919 105.204 34.4095C104.461 33.6271 104.091 32.5252 104.091 31.105H106.684C106.684 32.4288 107.238 33.0908 108.347 33.0908C108.807 33.0908 109.17 32.9716 109.432 32.7306C109.696 32.4897 109.826 32.1587 109.826 31.7377C109.826 31.4245 109.762 31.1772 109.63 30.9972C109.491 30.8033 109.3 30.6529 109.079 30.5635C108.699 30.3897 108.309 30.2389 107.91 30.1121C107.092 29.847 106.439 29.582 105.951 29.317C105.45 29.0405 105.032 28.6356 104.739 28.144C104.419 27.6266 104.26 26.9343 104.26 26.0669C104.26 25.2845 104.419 24.5985 104.739 24.0088C105.05 23.4273 105.526 22.9502 106.106 22.6368C106.707 22.3122 107.403 22.1498 108.192 22.1498Z" fill="#56CBD6"/>
<path d="M54.8835 16.2726H51.8109L48.7523 10.3507H48.7232V16.2726H46.2847V3.41687H48.7232V8.96087H48.7523L51.6981 3.41687H54.6146L50.9651 9.50234L54.8835 16.2726ZM58.1792 6.03417V8.47266H62.521V11.0545H58.1792V13.654H62.9433V16.2726H55.7407V3.41687H62.8304V6.03543L58.1792 6.03417ZM68.7473 3.41687C71.2099 3.41687 72.4399 4.63929 72.4399 7.08159C72.4399 7.86526 72.275 8.53353 71.9466 9.08641C71.6182 9.62788 71.168 10.007 70.5936 10.2239V10.2606C70.9512 10.4166 71.2378 10.6816 71.4533 11.0545C71.6689 11.4159 71.8959 12.0118 72.1305 12.8424L73.1031 16.2726H70.482L69.7211 13.3661C69.5411 12.6915 69.3306 12.2287 69.0871 11.9763C68.8512 11.71 68.4987 11.5782 68.0283 11.5782H67.1127V16.2726H64.6742V3.41687H68.7473ZM67.1127 9.21195H68.4518C69.5043 9.21195 70.0305 8.63498 70.0305 7.47976C70.0305 6.38415 69.4713 5.83635 68.3529 5.83635H67.1127V9.21195ZM82.2091 11.289C82.2091 12.987 81.8515 14.2931 81.1376 15.2074C80.4236 16.1103 79.4041 16.5617 78.079 16.5617C76.764 16.5617 75.7483 16.1103 75.0356 15.2074C74.3204 14.2931 73.9628 12.987 73.9628 11.289V3.41687H76.4013V11.2168C76.4013 12.06 76.5421 12.7042 76.8249 13.1493C77.1165 13.5944 77.535 13.8176 78.079 13.8176C78.6331 13.8176 79.0516 13.5944 79.3344 13.1493C79.6248 12.7042 79.7706 12.0588 79.7706 11.2168V3.41814H82.2091V11.289ZM86.6993 6.03417V8.47266H91.0412V11.0545H86.6993V13.654H91.4635V16.2726H84.2608V3.41687H91.3506V6.03543L86.6993 6.03417ZM98.8322 16.2726L97.0848 11.2003C96.4939 9.49944 95.9484 7.78313 95.449 6.05319H95.4211C95.4972 7.97938 95.534 9.78512 95.534 11.4704V16.2726H93.1944V3.41687H96.7044L98.4657 8.49042C99.0858 10.3329 99.6311 12.0474 100.102 13.6362H100.129C100.049 11.8321 100.011 10.0263 100.015 8.22032V3.41687H102.356V16.2726H98.8322Z" fill="#56CBD6"/>
</svg>
