<svg width="110" height="110" viewBox="0 0 110 110" fill="none" xmlns="http://www.w3.org/2000/svg">
<g filter="url(#filter0_d)">
<rect x="16" y="4" width="86" height="86" rx="18" fill="url(#paint0_linear)"/>
<path fill-rule="evenodd" clip-rule="evenodd" d="M52.6553 26.3111V33.4834C52.6553 33.9223 52.4809 34.3433 52.1705 34.6537C51.8601 34.9641 51.4391 35.1385 51.0001 35.1385C50.5612 35.1385 50.1402 34.9641 49.8298 34.6537C49.5194 34.3433 49.345 33.9223 49.345 33.4834V26.3111C49.345 25.5045 49.548 24.5953 50.2432 23.9001C50.9395 23.205 51.8487 22.9998 52.6553 22.9998H65.8967C66.7033 22.9998 67.6126 23.2028 68.3088 23.899C69.004 24.5942 69.207 25.5034 69.207 26.31V48.9302C69.207 49.3691 69.0327 49.7901 68.7222 50.1005C68.4118 50.4109 67.9908 50.5853 67.5519 50.5853C67.1129 50.5853 66.6919 50.4109 66.3815 50.1005C66.0711 49.7901 65.8967 49.3691 65.8967 48.9302V26.31H52.6553V26.3111ZM65.8967 67.6894V60.5172C65.8967 60.0782 66.0711 59.6572 66.3815 59.3468C66.6919 59.0364 67.1129 58.8621 67.5519 58.8621C67.9908 58.8621 68.4118 59.0364 68.7222 59.3468C69.0327 59.6572 69.207 60.0782 69.207 60.5172V67.6894C69.207 68.496 69.004 69.4053 68.3088 70.1015C67.6137 70.7967 66.7033 70.9997 65.8967 70.9997H52.6553C51.8487 70.9997 50.9395 70.7967 50.2432 70.1015C49.548 69.4064 49.345 68.496 49.345 67.6894V45.0693C49.345 44.6303 49.5194 44.2093 49.8298 43.8989C50.1402 43.5885 50.5612 43.4142 51.0001 43.4142C51.4391 43.4142 51.8601 43.5885 52.1705 43.8989C52.4809 44.2093 52.6553 44.6303 52.6553 45.0693V67.6894H65.8967Z" fill="white"/>
<path fill-rule="evenodd" clip-rule="evenodd" d="M79.6897 40.655H72.5172C72.0783 40.655 71.6573 40.4806 71.3469 40.1702C71.0365 39.8598 70.8621 39.4388 70.8621 38.9999C70.8621 38.5609 71.0365 38.1399 71.3469 37.8295C71.6573 37.5191 72.0783 37.3447 72.5172 37.3447H79.6897C80.4963 37.3447 81.4055 37.5478 82.1018 38.244C82.797 38.9392 83 39.8484 83 40.655V53.8961C83 54.7038 82.797 55.6119 82.1018 56.3081C81.4066 57.0033 80.4963 57.2063 79.6897 57.2063H57.069C56.63 57.2063 56.209 57.0319 55.8986 56.7215C55.5882 56.4112 55.4138 55.9902 55.4138 55.5512C55.4138 55.1122 55.5882 54.6912 55.8986 54.3808C56.209 54.0704 56.63 53.8961 57.069 53.8961H79.6897V40.655ZM38.3103 53.8961H45.4828C45.9217 53.8961 46.3427 54.0704 46.6531 54.3808C46.9635 54.6912 47.1379 55.1122 47.1379 55.5512C47.1379 55.9902 46.9635 56.4112 46.6531 56.7215C46.3427 57.0319 45.9217 57.2063 45.4828 57.2063H38.3103C37.5037 57.2063 36.5945 57.0033 35.8982 56.3081C35.203 55.613 35 54.7038 35 53.8961V40.655C35 39.8495 35.203 38.9392 35.8982 38.244C36.5945 37.5489 37.5037 37.3447 38.3103 37.3447H60.931C61.37 37.3447 61.791 37.5191 62.1014 37.8295C62.4118 38.1399 62.5862 38.5609 62.5862 38.9999C62.5862 39.4388 62.4118 39.8598 62.1014 40.1702C61.791 40.4806 61.37 40.655 60.931 40.655H38.3103V53.8961Z" fill="white"/>
</g>
<defs>
<filter id="filter0_d" x="0" y="0" width="110" height="110" filterUnits="userSpaceOnUse" color-interpolation-filters="sRGB">
<feFlood flood-opacity="0" result="BackgroundImageFix"/>
<feColorMatrix in="SourceAlpha" type="matrix" values="0 0 0 0 0 0 0 0 0 0 0 0 0 0 0 0 0 0 127 0" result="hardAlpha"/>
<feMorphology radius="4" operator="erode" in="SourceAlpha" result="effect1_dropShadow"/>
<feOffset dx="-4" dy="8"/>
<feGaussianBlur stdDeviation="8"/>
<feComposite in2="hardAlpha" operator="out"/>
<feColorMatrix type="matrix" values="0 0 0 0 0 0 0 0 0 0.638462 0 0 0 0 0.7 0 0 0 0.35 0"/>
<feBlend mode="normal" in2="BackgroundImageFix" result="effect1_dropShadow"/>
<feBlend mode="normal" in="SourceGraphic" in2="effect1_dropShadow" result="shape"/>
</filter>
<linearGradient id="paint0_linear" x1="102" y1="3.99999" x2="16" y2="90" gradientUnits="userSpaceOnUse">
<stop stop-color="#76EAF5"/>
<stop offset="1" stop-color="#2FBCCA"/>
</linearGradient>
</defs>
</svg>
