<svg width="117" height="34" viewBox="0 0 117 34" fill="none" xmlns="http://www.w3.org/2000/svg">
<path d="M4.68731 0H112.313C113.943 0 114.534 0.1581 115.13 0.4539C115.726 0.75055 116.193 1.1849 116.512 1.7391C116.83 2.2933 117 2.84325 117 4.3588V29.6412C117 31.1567 116.83 31.7067 116.512 32.2609C116.2 32.8085 115.718 33.2562 115.13 33.5461C114.534 33.8419 113.943 34 112.313 34H4.68731C3.05754 34 2.46614 33.8419 1.87017 33.5461C1.28134 33.2562 0.799815 32.8085 0.488109 32.2609C0.170016 31.7067 0 31.1567 0 29.6412V4.3588C0 2.84325 0.170016 2.2933 0.488109 1.7391C0.799815 1.19154 1.28134 0.743758 1.87017 0.4539C2.46614 0.1581 3.05754 0 4.68731 0Z" fill="#EAECEF"/>
<path d="M54.7344 13.6882C56.5839 13.6882 58.0916 15.0906 58.0916 17.0235C58.0916 18.9437 56.5839 20.359 54.7344 20.359C52.8848 20.359 51.3771 18.9437 51.3771 17.0235C51.3771 15.0898 52.8848 13.6882 54.7344 13.6882ZM54.7344 19.0448C55.7478 19.0448 56.6222 18.2118 56.6214 17.0235C56.6214 15.8233 55.7478 15.0023 54.7344 15.0023C53.7209 15.0023 52.8465 15.8233 52.8465 17.0235C52.8465 18.211 53.7209 19.0448 54.7344 19.0448ZM47.4121 13.6882C49.2616 13.6882 50.7685 15.0906 50.7694 17.0235C50.7694 18.9437 49.2616 20.359 47.4121 20.359C45.5626 20.359 44.0548 18.9437 44.0548 17.0235C44.0548 15.0898 45.5626 13.6882 47.4121 13.6882ZM47.4121 19.0448C48.4255 19.0448 49.2991 18.2118 49.2991 17.0235C49.2991 15.8233 48.4255 15.0023 47.4121 15.0023C46.3987 15.0023 45.5242 15.8233 45.5242 17.0235C45.5242 18.211 46.3987 19.0448 47.4121 19.0448ZM38.6997 14.7124H43.4761C43.5272 14.9648 43.5519 15.2683 43.5519 15.5964C43.5519 16.6581 43.2604 17.9722 42.3229 18.9072C41.4109 19.8549 40.2458 20.3598 38.7005 20.3598C35.8376 20.3598 33.4307 18.0351 33.4307 15.1799C33.4307 12.3239 35.8376 10 38.7005 10C40.2833 10 41.4109 10.6197 42.2598 11.428L41.2592 12.4259C40.6506 11.8564 39.8273 11.4144 38.6997 11.4144C36.6098 11.4144 34.9759 13.0957 34.9759 15.1799C34.9759 17.2641 36.6098 18.9445 38.6997 18.9445C40.0557 18.9445 40.8288 18.4005 41.3223 17.9092C41.728 17.5046 41.9939 16.9233 42.0953 16.1277H38.6997V14.7124ZM74.3266 15.8115L74.4783 16.1906L70.0062 18.035C70.348 18.704 70.879 19.0457 71.6273 19.0457C72.3748 19.0457 72.8938 18.6802 73.274 18.1243L74.4144 18.8825C74.047 19.4256 73.1615 20.3606 71.6281 20.3606C69.7283 20.3606 68.3092 18.8944 68.3092 17.0253C68.3092 15.0422 69.7403 13.6899 71.4636 13.6899C73.199 13.6899 74.0479 15.0669 74.3266 15.8115ZM69.7667 16.9233L72.7566 15.6848C72.5913 15.2683 72.0978 14.9776 71.5148 14.9776C70.7673 14.9776 69.7283 15.6338 69.7667 16.9233ZM66.1307 20.1575V10.3536H67.6009V20.1575H66.1307ZM63.7237 14.4345L63.7229 13.8922H65.1164V19.8813C65.1164 22.3446 63.6598 23.3552 61.9364 23.3552C60.3153 23.3552 59.3403 22.2689 58.9729 21.3832L60.2523 20.8536C60.4807 21.3968 61.0381 22.0411 61.9373 22.0411C63.0402 22.0411 63.7237 21.3586 63.7237 20.0827V19.6024H63.6726C63.3445 20.007 62.7103 20.3606 61.9126 20.3606C60.2412 20.3606 58.7079 18.9072 58.7079 17.0372C58.7079 15.1561 60.2403 13.6899 61.9126 13.6899C62.7103 13.6899 63.3428 14.0426 63.6726 14.4345H63.7237ZM62.0387 19.0448C63.0393 19.0448 63.8252 18.1991 63.8252 17.0354C63.8252 15.8599 63.0393 15.0014 62.0387 15.0014C61.0253 15.0014 60.1764 15.8599 60.1764 17.0354C60.1764 18.1982 61.0253 19.0448 62.0387 19.0448ZM81.2104 10.3536C82.8368 10.3536 84.4353 11.5283 84.4353 13.3983C84.4353 15.2683 82.8368 16.443 81.2104 16.443H79.1618V20.1566H77.695V10.3536H81.2104ZM81.2484 15.0788C82.3456 15.0788 82.9685 14.1582 82.9685 13.3992C82.9685 12.624 82.3456 11.7187 81.2484 11.7187H79.1618V15.0788H81.2484ZM90.3163 13.6711C91.9977 13.6711 93.3002 14.6419 93.3017 16.3827V20.1413H91.8853V19.3849H91.8342C91.4933 19.9008 90.9493 20.3428 89.9622 20.3428C88.6729 20.3428 87.5222 19.4979 87.5222 18.1863C87.5222 16.749 88.951 15.9789 90.3543 15.9789C91.0508 15.9789 91.6196 16.2067 91.8853 16.358V16.256C91.8729 15.4485 91.1012 14.9955 90.3426 14.9955C89.7987 14.9955 89.2796 15.1723 89.0022 15.7146L87.6989 15.1723C88.1537 14.1378 89.2532 13.6711 90.3163 13.6711ZM90.1389 19.0431C90.9858 19.0431 91.7691 18.3997 91.8846 17.4919C91.4925 17.3023 91.1888 17.1638 90.5433 17.1638C89.8227 17.1638 88.9882 17.4545 88.9882 18.211C88.9882 18.8035 89.6585 19.0431 90.1389 19.0431ZM98.4598 13.8854H100.091L96.0563 23.1299H94.526L96.0183 19.8251L93.4009 13.8854H94.9816L96.7273 18.1353H96.7784L98.4598 13.8854ZM85.245 20.1575V10.3536H86.7118V20.1575H85.245Z" fill="#151833"/>
<path d="M9.36308 7.28699C9.13466 7.52839 8.99829 7.90241 8.99829 8.38861V25.7312C8.99829 26.2165 9.13381 26.5914 9.36308 26.8328L9.42189 26.8889L19.1639 17.1734V16.9447L9.42189 7.22919L9.36308 7.28699Z" fill="url(#paint0_linear_909_9546)"/>
<path d="M22.4088 20.4155L19.1624 17.1753V16.9458L22.4097 13.7073L22.483 13.7489L26.3295 15.9292C27.4281 16.5514 27.4281 17.5714 26.3295 18.1936L22.483 20.3747L22.4088 20.4155Z" fill="url(#paint1_linear_909_9546)"/>
<path d="M22.483 20.3735L19.1615 17.0611L9.36157 26.8335C9.72381 27.216 10.3213 27.2628 10.9955 26.8811L22.483 20.3735Z" fill="url(#paint2_linear_909_9546)"/>
<path d="M22.483 13.7489L10.9955 7.23955C10.3213 6.8579 9.72381 6.90465 9.36157 7.28715L19.1607 17.0596L22.483 13.7489Z" fill="url(#paint3_linear_909_9546)"/>
<path opacity="0.2" d="M22.4096 20.3008L10.9962 26.7667C10.3578 27.128 9.78676 27.1042 9.42111 26.7752L9.3623 26.8339L9.42111 26.89C9.78761 27.2189 10.3578 27.2436 10.9962 26.8815L22.4837 20.3722L22.4096 20.2999V20.3008Z" fill="black"/>
<path opacity="0.12" d="M9.36308 26.7209C9.13466 26.4803 8.99829 26.1055 8.99829 25.6193V25.734C8.99829 26.2185 9.13381 26.5942 9.36308 26.8356L9.42189 26.7761L9.36308 26.7209Z" fill="black"/>
<path opacity="0.12" d="M26.3303 18.0794L22.4097 20.3004L22.483 20.3735L26.3295 18.1933C26.8792 17.8813 27.1545 17.4708 27.1545 17.0611C27.1076 17.4325 26.8289 17.7972 26.3303 18.0794Z" fill="black"/>
<path opacity="0.25" d="M10.997 7.35524L26.331 16.0439C26.8296 16.3261 27.1083 16.6899 27.1552 17.0614C27.1552 16.6508 26.8808 16.2403 26.331 15.9292L10.997 7.24049C9.89834 6.61829 8.99829 7.13509 8.99829 8.38967V8.50442C8.99829 7.24984 9.89749 6.73304 10.997 7.35524Z" fill="#151833"/>
<defs>
<linearGradient id="paint0_linear_909_9546" x1="15.2025" y1="8.20625" x2="6.87246" y2="16.5589" gradientUnits="userSpaceOnUse">
<stop stop-color="#00A0FF"/>
<stop offset="0.0066" stop-color="#00A1FF"/>
<stop offset="0.2601" stop-color="#00BEFF"/>
<stop offset="0.5122" stop-color="#00D2FF"/>
<stop offset="0.7604" stop-color="#00DFFF"/>
<stop offset="1" stop-color="#00E3FF"/>
</linearGradient>
<linearGradient id="paint1_linear_909_9546" x1="27.7613" y1="17.0618" x2="8.73494" y2="17.0618" gradientUnits="userSpaceOnUse">
<stop stop-color="#FFE000"/>
<stop offset="0.4087" stop-color="#FFBD00"/>
<stop offset="0.7754" stop-color="#FFA500"/>
<stop offset="1" stop-color="#FF9C00"/>
</linearGradient>
<linearGradient id="paint2_linear_909_9546" x1="20.6786" y1="20.1775" x2="6.45638" y2="34.4384" gradientUnits="userSpaceOnUse">
<stop stop-color="#FF3A44"/>
<stop offset="1" stop-color="#C31162"/>
</linearGradient>
<linearGradient id="paint3_linear_909_9546" x1="6.89464" y1="5.78087" x2="13.2454" y2="12.149" gradientUnits="userSpaceOnUse">
<stop stop-color="#32A071"/>
<stop offset="0.0685" stop-color="#2DA771"/>
<stop offset="0.4762" stop-color="#15CF74"/>
<stop offset="0.8009" stop-color="#06E775"/>
<stop offset="1" stop-color="#00F076"/>
</linearGradient>
</defs>
</svg>
