<svg width="113" height="114" viewBox="0 0 113 114" fill="none" xmlns="http://www.w3.org/2000/svg">
<path d="M113 0H0V114H113V0Z" fill="white"/>
<path d="M25.7718 4H23.7893V6H25.7718V4Z" fill="#151833"/>
<path d="M27.7544 4H25.772V6H27.7544V4Z" fill="#151833"/>
<path d="M33.7017 4H31.7192V6H33.7017V4Z" fill="#151833"/>
<path d="M39.649 4H37.6665V6H39.649V4Z" fill="#151833"/>
<path d="M43.614 4H41.6316V6H43.614V4Z" fill="#151833"/>
<path d="M45.5965 4H43.614V6H45.5965V4Z" fill="#151833"/>
<path d="M47.5789 4H45.5964V6H47.5789V4Z" fill="#151833"/>
<path d="M51.5437 4H49.5613V6H51.5437V4Z" fill="#151833"/>
<path d="M53.5262 4H51.5437V6H53.5262V4Z" fill="#151833"/>
<path d="M55.5088 4H53.5264V6H55.5088V4Z" fill="#151833"/>
<path d="M57.4912 4H55.5088V6H57.4912V4Z" fill="#151833"/>
<path d="M63.4385 4H61.4561V6H63.4385V4Z" fill="#151833"/>
<path d="M71.3684 4H69.386V6H71.3684V4Z" fill="#151833"/>
<path d="M73.3509 4H71.3684V6H73.3509V4Z" fill="#151833"/>
<path d="M75.3333 4H73.3508V6H75.3333V4Z" fill="#151833"/>
<path d="M79.2981 4H77.3157V6H79.2981V4Z" fill="#151833"/>
<path d="M81.2805 4H79.2981V6H81.2805V4Z" fill="#151833"/>
<path d="M83.263 4H81.2805V6H83.263V4Z" fill="#151833"/>
<path d="M85.2456 4H83.2632V6H85.2456V4Z" fill="#151833"/>
<path d="M87.2281 4H85.2456V6H87.2281V4Z" fill="#151833"/>
<path d="M89.2104 4H87.228V6H89.2104V4Z" fill="#151833"/>
<path d="M29.7369 6H27.7544V8H29.7369V6Z" fill="#151833"/>
<path d="M31.7193 6H29.7368V8H31.7193V6Z" fill="#151833"/>
<path d="M33.7017 6H31.7192V8H33.7017V6Z" fill="#151833"/>
<path d="M37.6665 6H35.6841V8H37.6665V6Z" fill="#151833"/>
<path d="M41.6316 6H39.6492V8H41.6316V6Z" fill="#151833"/>
<path d="M43.614 6H41.6316V8H43.614V6Z" fill="#151833"/>
<path d="M45.5965 6H43.614V8H45.5965V6Z" fill="#151833"/>
<path d="M63.4385 6H61.4561V8H63.4385V6Z" fill="#151833"/>
<path d="M65.4209 6H63.4385V8H65.4209V6Z" fill="#151833"/>
<path d="M67.4034 6H65.4209V8H67.4034V6Z" fill="#151833"/>
<path d="M73.3509 6H71.3684V8H73.3509V6Z" fill="#151833"/>
<path d="M83.263 6H81.2805V8H83.263V6Z" fill="#151833"/>
<path d="M89.2104 6H87.228V8H89.2104V6Z" fill="#151833"/>
<path d="M91.193 6H89.2104V8H91.193V6Z" fill="#151833"/>
<path d="M21.8069 8H19.8245V10H21.8069V8Z" fill="#151833"/>
<path d="M33.7017 8H31.7192V10H33.7017V8Z" fill="#151833"/>
<path d="M39.649 8H37.6665V10H39.649V8Z" fill="#151833"/>
<path d="M41.6316 8H39.6492V10H41.6316V8Z" fill="#151833"/>
<path d="M51.5437 8H49.5613V10H51.5437V8Z" fill="#151833"/>
<path d="M53.5262 8H51.5437V10H53.5262V8Z" fill="#151833"/>
<path d="M57.4912 8H55.5088V10H57.4912V8Z" fill="#151833"/>
<path d="M59.4737 8H57.4912V10H59.4737V8Z" fill="#151833"/>
<path d="M63.4385 8H61.4561V10H63.4385V8Z" fill="#151833"/>
<path d="M65.4209 8H63.4385V10H65.4209V8Z" fill="#151833"/>
<path d="M69.3858 8H67.4033V10H69.3858V8Z" fill="#151833"/>
<path d="M73.3509 8H71.3684V10H73.3509V8Z" fill="#151833"/>
<path d="M77.3157 8H75.3333V10H77.3157V8Z" fill="#151833"/>
<path d="M83.263 8H81.2805V10H83.263V8Z" fill="#151833"/>
<path d="M91.193 8H89.2104V10H91.193V8Z" fill="#151833"/>
<path d="M21.8069 10H19.8245V12H21.8069V10Z" fill="#151833"/>
<path d="M29.7369 10H27.7544V12H29.7369V10Z" fill="#151833"/>
<path d="M33.7017 10H31.7192V12H33.7017V10Z" fill="#151833"/>
<path d="M35.6841 10H33.7017V12H35.6841V10Z" fill="#151833"/>
<path d="M37.6665 10H35.6841V12H37.6665V10Z" fill="#151833"/>
<path d="M39.649 10H37.6665V12H39.649V10Z" fill="#151833"/>
<path d="M41.6316 10H39.6492V12H41.6316V10Z" fill="#151833"/>
<path d="M47.5789 10H45.5964V12H47.5789V10Z" fill="#151833"/>
<path d="M49.5613 10H47.5789V12H49.5613V10Z" fill="#151833"/>
<path d="M51.5437 10H49.5613V12H51.5437V10Z" fill="#151833"/>
<path d="M59.4737 10H57.4912V12H59.4737V10Z" fill="#151833"/>
<path d="M63.4385 10H61.4561V12H63.4385V10Z" fill="#151833"/>
<path d="M65.4209 10H63.4385V12H65.4209V10Z" fill="#151833"/>
<path d="M67.4034 10H65.4209V12H67.4034V10Z" fill="#151833"/>
<path d="M71.3684 10H69.386V12H71.3684V10Z" fill="#151833"/>
<path d="M75.3333 10H73.3508V12H75.3333V10Z" fill="#151833"/>
<path d="M81.2805 10H79.2981V12H81.2805V10Z" fill="#151833"/>
<path d="M83.263 10H81.2805V12H83.263V10Z" fill="#151833"/>
<path d="M85.2456 10H83.2632V12H85.2456V10Z" fill="#151833"/>
<path d="M87.2281 10H85.2456V12H87.2281V10Z" fill="#151833"/>
<path d="M89.2104 10H87.228V12H89.2104V10Z" fill="#151833"/>
<path d="M93.1753 10H91.1929V12H93.1753V10Z" fill="#151833"/>
<path d="M23.7893 12H21.8069V14H23.7893V12Z" fill="#151833"/>
<path d="M25.7718 12H23.7893V14H25.7718V12Z" fill="#151833"/>
<path d="M31.7193 12H29.7368V14H31.7193V12Z" fill="#151833"/>
<path d="M45.5965 12H43.614V14H45.5965V12Z" fill="#151833"/>
<path d="M51.5437 12H49.5613V14H51.5437V12Z" fill="#151833"/>
<path d="M53.5262 12H51.5437V14H53.5262V12Z" fill="#151833"/>
<path d="M55.5088 12H53.5264V14H55.5088V12Z" fill="#151833"/>
<path d="M57.4912 12H55.5088V14H57.4912V12Z" fill="#151833"/>
<path d="M59.4737 12H57.4912V14H59.4737V12Z" fill="#151833"/>
<path d="M61.4561 12H59.4736V14H61.4561V12Z" fill="#151833"/>
<path d="M65.4209 12H63.4385V14H65.4209V12Z" fill="#151833"/>
<path d="M67.4034 12H65.4209V14H67.4034V12Z" fill="#151833"/>
<path d="M69.3858 12H67.4033V14H69.3858V12Z" fill="#151833"/>
<path d="M73.3509 12H71.3684V14H73.3509V12Z" fill="#151833"/>
<path d="M75.3333 12H73.3508V14H75.3333V12Z" fill="#151833"/>
<path d="M81.2805 12H79.2981V14H81.2805V12Z" fill="#151833"/>
<path d="M85.2456 12H83.2632V14H85.2456V12Z" fill="#151833"/>
<path d="M89.2104 12H87.228V14H89.2104V12Z" fill="#151833"/>
<path d="M23.7893 14H21.8069V16H23.7893V14Z" fill="#151833"/>
<path d="M25.7718 14H23.7893V16H25.7718V14Z" fill="#151833"/>
<path d="M27.7544 14H25.772V16H27.7544V14Z" fill="#151833"/>
<path d="M29.7369 14H27.7544V16H29.7369V14Z" fill="#151833"/>
<path d="M31.7193 14H29.7368V16H31.7193V14Z" fill="#151833"/>
<path d="M33.7017 14H31.7192V16H33.7017V14Z" fill="#151833"/>
<path d="M35.6841 14H33.7017V16H35.6841V14Z" fill="#151833"/>
<path d="M37.6665 14H35.6841V16H37.6665V14Z" fill="#151833"/>
<path d="M53.5262 14H51.5437V16H53.5262V14Z" fill="#151833"/>
<path d="M61.4561 14H59.4736V16H61.4561V14Z" fill="#151833"/>
<path d="M67.4034 14H65.4209V16H67.4034V14Z" fill="#151833"/>
<path d="M71.3684 14H69.386V16H71.3684V14Z" fill="#151833"/>
<path d="M79.2981 14H77.3157V16H79.2981V14Z" fill="#151833"/>
<path d="M81.2805 14H79.2981V16H81.2805V14Z" fill="#151833"/>
<path d="M85.2456 14H83.2632V16H85.2456V14Z" fill="#151833"/>
<path d="M87.2281 14H85.2456V16H87.2281V14Z" fill="#151833"/>
<path d="M89.2104 14H87.228V16H89.2104V14Z" fill="#151833"/>
<path d="M21.8069 16H19.8245V18H21.8069V16Z" fill="#151833"/>
<path d="M25.7718 16H23.7893V18H25.7718V16Z" fill="#151833"/>
<path d="M29.7369 16H27.7544V18H29.7369V16Z" fill="#151833"/>
<path d="M33.7017 16H31.7192V18H33.7017V16Z" fill="#151833"/>
<path d="M37.6665 16H35.6841V18H37.6665V16Z" fill="#151833"/>
<path d="M41.6316 16H39.6492V18H41.6316V16Z" fill="#151833"/>
<path d="M45.5965 16H43.614V18H45.5965V16Z" fill="#151833"/>
<path d="M49.5613 16H47.5789V18H49.5613V16Z" fill="#151833"/>
<path d="M53.5262 16H51.5437V18H53.5262V16Z" fill="#151833"/>
<path d="M57.4912 16H55.5088V18H57.4912V16Z" fill="#151833"/>
<path d="M61.4561 16H59.4736V18H61.4561V16Z" fill="#151833"/>
<path d="M65.4209 16H63.4385V18H65.4209V16Z" fill="#151833"/>
<path d="M69.3858 16H67.4033V18H69.3858V16Z" fill="#151833"/>
<path d="M73.3509 16H71.3684V18H73.3509V16Z" fill="#151833"/>
<path d="M77.3157 16H75.3333V18H77.3157V16Z" fill="#151833"/>
<path d="M81.2805 16H79.2981V18H81.2805V16Z" fill="#151833"/>
<path d="M85.2456 16H83.2632V18H85.2456V16Z" fill="#151833"/>
<path d="M89.2104 16H87.228V18H89.2104V16Z" fill="#151833"/>
<path d="M93.1753 16H91.1929V18H93.1753V16Z" fill="#151833"/>
<path d="M29.7369 18H27.7544V20H29.7369V18Z" fill="#151833"/>
<path d="M37.6665 18H35.6841V20H37.6665V18Z" fill="#151833"/>
<path d="M41.6316 18H39.6492V20H41.6316V18Z" fill="#151833"/>
<path d="M53.5262 18H51.5437V20H53.5262V18Z" fill="#151833"/>
<path d="M61.4561 18H59.4736V20H61.4561V18Z" fill="#151833"/>
<path d="M65.4209 18H63.4385V20H65.4209V18Z" fill="#151833"/>
<path d="M75.3333 18H73.3508V20H75.3333V18Z" fill="#151833"/>
<path d="M81.2805 18H79.2981V20H81.2805V18Z" fill="#151833"/>
<path d="M85.2456 18H83.2632V20H85.2456V18Z" fill="#151833"/>
<path d="M89.2104 18H87.228V20H89.2104V18Z" fill="#151833"/>
<path d="M11.8946 20H9.91211V22H11.8946V20Z" fill="#151833"/>
<path d="M13.8772 20H11.8948V22H13.8772V20Z" fill="#151833"/>
<path d="M17.8421 20H15.8596V22H17.8421V20Z" fill="#151833"/>
<path d="M19.8245 20H17.842V22H19.8245V20Z" fill="#151833"/>
<path d="M23.7893 20H21.8069V22H23.7893V20Z" fill="#151833"/>
<path d="M31.7193 20H29.7368V22H31.7193V20Z" fill="#151833"/>
<path d="M33.7017 20H31.7192V22H33.7017V20Z" fill="#151833"/>
<path d="M39.649 20H37.6665V22H39.649V20Z" fill="#151833"/>
<path d="M41.6316 20H39.6492V22H41.6316V20Z" fill="#151833"/>
<path d="M47.5789 20H45.5964V22H47.5789V20Z" fill="#151833"/>
<path d="M53.5262 20H51.5437V22H53.5262V20Z" fill="#151833"/>
<path d="M55.5088 20H53.5264V22H55.5088V20Z" fill="#151833"/>
<path d="M57.4912 20H55.5088V22H57.4912V20Z" fill="#151833"/>
<path d="M59.4737 20H57.4912V22H59.4737V20Z" fill="#151833"/>
<path d="M61.4561 20H59.4736V22H61.4561V20Z" fill="#151833"/>
<path d="M63.4385 20H61.4561V22H63.4385V20Z" fill="#151833"/>
<path d="M71.3684 20H69.386V22H71.3684V20Z" fill="#151833"/>
<path d="M77.3157 20H75.3333V22H77.3157V20Z" fill="#151833"/>
<path d="M79.2981 20H77.3157V22H79.2981V20Z" fill="#151833"/>
<path d="M85.2456 20H83.2632V22H85.2456V20Z" fill="#151833"/>
<path d="M89.2104 20H87.228V22H89.2104V20Z" fill="#151833"/>
<path d="M93.1753 20H91.1929V22H93.1753V20Z" fill="#151833"/>
<path d="M103.088 20H101.105V22H103.088V20Z" fill="#151833"/>
<path d="M105.07 20H103.088V22H105.07V20Z" fill="#151833"/>
<path d="M7.92972 22H5.94727V24H7.92972V22Z" fill="#151833"/>
<path d="M21.8069 22H19.8245V24H21.8069V22Z" fill="#151833"/>
<path d="M23.7893 22H21.8069V24H23.7893V22Z" fill="#151833"/>
<path d="M25.7718 22H23.7893V24H25.7718V22Z" fill="#151833"/>
<path d="M27.7544 22H25.772V24H27.7544V22Z" fill="#151833"/>
<path d="M29.7369 22H27.7544V24H29.7369V22Z" fill="#151833"/>
<path d="M37.6665 22H35.6841V24H37.6665V22Z" fill="#151833"/>
<path d="M43.614 22H41.6316V24H43.614V22Z" fill="#151833"/>
<path d="M47.5789 22H45.5964V24H47.5789V22Z" fill="#151833"/>
<path d="M53.5262 22H51.5437V24H53.5262V22Z" fill="#151833"/>
<path d="M57.4912 22H55.5088V24H57.4912V22Z" fill="#151833"/>
<path d="M63.4385 22H61.4561V24H63.4385V22Z" fill="#151833"/>
<path d="M67.4034 22H65.4209V24H67.4034V22Z" fill="#151833"/>
<path d="M69.3858 22H67.4033V24H69.3858V22Z" fill="#151833"/>
<path d="M73.3509 22H71.3684V24H73.3509V22Z" fill="#151833"/>
<path d="M81.2805 22H79.2981V24H81.2805V22Z" fill="#151833"/>
<path d="M83.263 22H81.2805V24H83.263V22Z" fill="#151833"/>
<path d="M89.2104 22H87.228V24H89.2104V22Z" fill="#151833"/>
<path d="M93.1753 22H91.1929V24H93.1753V22Z" fill="#151833"/>
<path d="M95.1578 22H93.1753V24H95.1578V22Z" fill="#151833"/>
<path d="M97.1402 22H95.1577V24H97.1402V22Z" fill="#151833"/>
<path d="M99.1228 22H97.1404V24H99.1228V22Z" fill="#151833"/>
<path d="M101.105 22H99.1228V24H101.105V22Z" fill="#151833"/>
<path d="M105.07 22H103.088V24H105.07V22Z" fill="#151833"/>
<path d="M107.053 22H105.07V24H107.053V22Z" fill="#151833"/>
<path d="M5.9473 24H3.96484V26H5.9473V24Z" fill="#151833"/>
<path d="M7.92972 24H5.94727V26H7.92972V24Z" fill="#151833"/>
<path d="M11.8946 24H9.91211V26H11.8946V24Z" fill="#151833"/>
<path d="M13.8772 24H11.8948V26H13.8772V24Z" fill="#151833"/>
<path d="M17.8421 24H15.8596V26H17.8421V24Z" fill="#151833"/>
<path d="M25.7718 24H23.7893V26H25.7718V24Z" fill="#151833"/>
<path d="M27.7544 24H25.772V26H27.7544V24Z" fill="#151833"/>
<path d="M31.7193 24H29.7368V26H31.7193V24Z" fill="#151833"/>
<path d="M33.7017 24H31.7192V26H33.7017V24Z" fill="#151833"/>
<path d="M39.649 24H37.6665V26H39.649V24Z" fill="#151833"/>
<path d="M43.614 24H41.6316V26H43.614V24Z" fill="#151833"/>
<path d="M45.5965 24H43.614V26H45.5965V24Z" fill="#151833"/>
<path d="M49.5613 24H47.5789V26H49.5613V24Z" fill="#151833"/>
<path d="M51.5437 24H49.5613V26H51.5437V24Z" fill="#151833"/>
<path d="M59.4737 24H57.4912V26H59.4737V24Z" fill="#151833"/>
<path d="M73.3509 24H71.3684V26H73.3509V24Z" fill="#151833"/>
<path d="M77.3157 24H75.3333V26H77.3157V24Z" fill="#151833"/>
<path d="M79.2981 24H77.3157V26H79.2981V24Z" fill="#151833"/>
<path d="M85.2456 24H83.2632V26H85.2456V24Z" fill="#151833"/>
<path d="M87.2281 24H85.2456V26H87.2281V24Z" fill="#151833"/>
<path d="M91.193 24H89.2104V26H91.193V24Z" fill="#151833"/>
<path d="M95.1578 24H93.1753V26H95.1578V24Z" fill="#151833"/>
<path d="M97.1402 24H95.1577V26H97.1402V24Z" fill="#151833"/>
<path d="M99.1228 24H97.1404V26H99.1228V24Z" fill="#151833"/>
<path d="M103.088 24H101.105V26H103.088V24Z" fill="#151833"/>
<path d="M105.07 24H103.088V26H105.07V24Z" fill="#151833"/>
<path d="M7.92972 26H5.94727V28H7.92972V26Z" fill="#151833"/>
<path d="M9.91214 26H7.92969V28H9.91214V26Z" fill="#151833"/>
<path d="M11.8946 26H9.91211V28H11.8946V26Z" fill="#151833"/>
<path d="M13.8772 26H11.8948V28H13.8772V26Z" fill="#151833"/>
<path d="M15.8597 26H13.8772V28H15.8597V26Z" fill="#151833"/>
<path d="M19.8245 26H17.842V28H19.8245V26Z" fill="#151833"/>
<path d="M27.7544 26H25.772V28H27.7544V26Z" fill="#151833"/>
<path d="M29.7369 26H27.7544V28H29.7369V26Z" fill="#151833"/>
<path d="M31.7193 26H29.7368V28H31.7193V26Z" fill="#151833"/>
<path d="M37.6665 26H35.6841V28H37.6665V26Z" fill="#151833"/>
<path d="M39.649 26H37.6665V28H39.649V26Z" fill="#151833"/>
<path d="M49.5613 26H47.5789V28H49.5613V26Z" fill="#151833"/>
<path d="M51.5437 26H49.5613V28H51.5437V26Z" fill="#151833"/>
<path d="M59.4737 26H57.4912V28H59.4737V26Z" fill="#151833"/>
<path d="M67.4034 26H65.4209V28H67.4034V26Z" fill="#151833"/>
<path d="M69.3858 26H67.4033V28H69.3858V26Z" fill="#151833"/>
<path d="M73.3509 26H71.3684V28H73.3509V26Z" fill="#151833"/>
<path d="M79.2981 26H77.3157V28H79.2981V26Z" fill="#151833"/>
<path d="M85.2456 26H83.2632V28H85.2456V26Z" fill="#151833"/>
<path d="M87.2281 26H85.2456V28H87.2281V26Z" fill="#151833"/>
<path d="M89.2104 26H87.228V28H89.2104V26Z" fill="#151833"/>
<path d="M97.1402 26H95.1577V28H97.1402V26Z" fill="#151833"/>
<path d="M99.1228 26H97.1404V28H99.1228V26Z" fill="#151833"/>
<path d="M5.9473 28H3.96484V30H5.9473V28Z" fill="#151833"/>
<path d="M7.92972 28H5.94727V30H7.92972V28Z" fill="#151833"/>
<path d="M9.91214 28H7.92969V30H9.91214V28Z" fill="#151833"/>
<path d="M11.8946 28H9.91211V30H11.8946V28Z" fill="#151833"/>
<path d="M15.8597 28H13.8772V30H15.8597V28Z" fill="#151833"/>
<path d="M17.8421 28H15.8596V30H17.8421V28Z" fill="#151833"/>
<path d="M19.8245 28H17.842V30H19.8245V28Z" fill="#151833"/>
<path d="M21.8069 28H19.8245V30H21.8069V28Z" fill="#151833"/>
<path d="M23.7893 28H21.8069V30H23.7893V28Z" fill="#151833"/>
<path d="M25.7718 28H23.7893V30H25.7718V28Z" fill="#151833"/>
<path d="M27.7544 28H25.772V30H27.7544V28Z" fill="#151833"/>
<path d="M33.7017 28H31.7192V30H33.7017V28Z" fill="#151833"/>
<path d="M35.6841 28H33.7017V30H35.6841V28Z" fill="#151833"/>
<path d="M43.614 28H41.6316V30H43.614V28Z" fill="#151833"/>
<path d="M45.5965 28H43.614V30H45.5965V28Z" fill="#151833"/>
<path d="M49.5613 28H47.5789V30H49.5613V28Z" fill="#151833"/>
<path d="M51.5437 28H49.5613V30H51.5437V28Z" fill="#151833"/>
<path d="M59.4737 28H57.4912V30H59.4737V28Z" fill="#151833"/>
<path d="M67.4034 28H65.4209V30H67.4034V28Z" fill="#151833"/>
<path d="M71.3684 28H69.386V30H71.3684V28Z" fill="#151833"/>
<path d="M77.3157 28H75.3333V30H77.3157V28Z" fill="#151833"/>
<path d="M81.2805 28H79.2981V30H81.2805V28Z" fill="#151833"/>
<path d="M87.2281 28H85.2456V30H87.2281V28Z" fill="#151833"/>
<path d="M93.1753 28H91.1929V30H93.1753V28Z" fill="#151833"/>
<path d="M97.1402 28H95.1577V30H97.1402V28Z" fill="#151833"/>
<path d="M99.1228 28H97.1404V30H99.1228V28Z" fill="#151833"/>
<path d="M101.105 28H99.1228V30H101.105V28Z" fill="#151833"/>
<path d="M103.088 28H101.105V30H103.088V28Z" fill="#151833"/>
<path d="M107.053 28H105.07V30H107.053V28Z" fill="#151833"/>
<path d="M109.035 28H107.052V30H109.035V28Z" fill="#151833"/>
<path d="M5.9473 30H3.96484V32H5.9473V30Z" fill="#151833"/>
<path d="M9.91214 30H7.92969V32H9.91214V30Z" fill="#151833"/>
<path d="M11.8946 30H9.91211V32H11.8946V30Z" fill="#151833"/>
<path d="M13.8772 30H11.8948V32H13.8772V30Z" fill="#151833"/>
<path d="M15.8597 30H13.8772V32H15.8597V30Z" fill="#151833"/>
<path d="M19.8245 30H17.842V32H19.8245V30Z" fill="#151833"/>
<path d="M23.7893 30H21.8069V32H23.7893V30Z" fill="#151833"/>
<path d="M27.7544 30H25.772V32H27.7544V30Z" fill="#151833"/>
<path d="M29.7369 30H27.7544V32H29.7369V30Z" fill="#151833"/>
<path d="M31.7193 30H29.7368V32H31.7193V30Z" fill="#151833"/>
<path d="M39.649 30H37.6665V32H39.649V30Z" fill="#151833"/>
<path d="M41.6316 30H39.6492V32H41.6316V30Z" fill="#151833"/>
<path d="M45.5965 30H43.614V32H45.5965V30Z" fill="#151833"/>
<path d="M53.5262 30H51.5437V32H53.5262V30Z" fill="#151833"/>
<path d="M55.5088 30H53.5264V32H55.5088V30Z" fill="#151833"/>
<path d="M59.4737 30H57.4912V32H59.4737V30Z" fill="#151833"/>
<path d="M63.4385 30H61.4561V32H63.4385V30Z" fill="#151833"/>
<path d="M65.4209 30H63.4385V32H65.4209V30Z" fill="#151833"/>
<path d="M71.3684 30H69.386V32H71.3684V30Z" fill="#151833"/>
<path d="M73.3509 30H71.3684V32H73.3509V30Z" fill="#151833"/>
<path d="M75.3333 30H73.3508V32H75.3333V30Z" fill="#151833"/>
<path d="M81.2805 30H79.2981V32H81.2805V30Z" fill="#151833"/>
<path d="M85.2456 30H83.2632V32H85.2456V30Z" fill="#151833"/>
<path d="M89.2104 30H87.228V32H89.2104V30Z" fill="#151833"/>
<path d="M91.193 30H89.2104V32H91.193V30Z" fill="#151833"/>
<path d="M93.1753 30H91.1929V32H93.1753V30Z" fill="#151833"/>
<path d="M101.105 30H99.1228V32H101.105V30Z" fill="#151833"/>
<path d="M103.088 30H101.105V32H103.088V30Z" fill="#151833"/>
<path d="M105.07 30H103.088V32H105.07V30Z" fill="#151833"/>
<path d="M109.035 30H107.052V32H109.035V30Z" fill="#151833"/>
<path d="M9.91214 32H7.92969V34H9.91214V32Z" fill="#151833"/>
<path d="M13.8772 32H11.8948V34H13.8772V32Z" fill="#151833"/>
<path d="M15.8597 32H13.8772V34H15.8597V32Z" fill="#151833"/>
<path d="M17.8421 32H15.8596V34H17.8421V32Z" fill="#151833"/>
<path d="M19.8245 32H17.842V34H19.8245V32Z" fill="#151833"/>
<path d="M23.7893 32H21.8069V34H23.7893V32Z" fill="#151833"/>
<path d="M25.7718 32H23.7893V34H25.7718V32Z" fill="#151833"/>
<path d="M27.7544 32H25.772V34H27.7544V32Z" fill="#151833"/>
<path d="M29.7369 32H27.7544V34H29.7369V32Z" fill="#151833"/>
<path d="M33.7017 32H31.7192V34H33.7017V32Z" fill="#151833"/>
<path d="M51.5437 32H49.5613V34H51.5437V32Z" fill="#151833"/>
<path d="M57.4912 32H55.5088V34H57.4912V32Z" fill="#151833"/>
<path d="M59.4737 32H57.4912V34H59.4737V32Z" fill="#151833"/>
<path d="M61.4561 32H59.4736V34H61.4561V32Z" fill="#151833"/>
<path d="M65.4209 32H63.4385V34H65.4209V32Z" fill="#151833"/>
<path d="M71.3684 32H69.386V34H71.3684V32Z" fill="#151833"/>
<path d="M73.3509 32H71.3684V34H73.3509V32Z" fill="#151833"/>
<path d="M77.3157 32H75.3333V34H77.3157V32Z" fill="#151833"/>
<path d="M79.2981 32H77.3157V34H79.2981V32Z" fill="#151833"/>
<path d="M81.2805 32H79.2981V34H81.2805V32Z" fill="#151833"/>
<path d="M87.2281 32H85.2456V34H87.2281V32Z" fill="#151833"/>
<path d="M97.1402 32H95.1577V34H97.1402V32Z" fill="#151833"/>
<path d="M101.105 32H99.1228V34H101.105V32Z" fill="#151833"/>
<path d="M103.088 32H101.105V34H103.088V32Z" fill="#151833"/>
<path d="M107.053 32H105.07V34H107.053V32Z" fill="#151833"/>
<path d="M109.035 32H107.052V34H109.035V32Z" fill="#151833"/>
<path d="M5.9473 34H3.96484V36H5.9473V34Z" fill="#151833"/>
<path d="M7.92972 34H5.94727V36H7.92972V34Z" fill="#151833"/>
<path d="M9.91214 34H7.92969V36H9.91214V34Z" fill="#151833"/>
<path d="M11.8946 34H9.91211V36H11.8946V34Z" fill="#151833"/>
<path d="M15.8597 34H13.8772V36H15.8597V34Z" fill="#151833"/>
<path d="M19.8245 34H17.842V36H19.8245V34Z" fill="#151833"/>
<path d="M23.7893 34H21.8069V36H23.7893V34Z" fill="#151833"/>
<path d="M39.649 34H37.6665V36H39.649V34Z" fill="#151833"/>
<path d="M43.614 34H41.6316V36H43.614V34Z" fill="#151833"/>
<path d="M45.5965 34H43.614V36H45.5965V34Z" fill="#151833"/>
<path d="M47.5789 34H45.5964V36H47.5789V34Z" fill="#151833"/>
<path d="M49.5613 34H47.5789V36H49.5613V34Z" fill="#151833"/>
<path d="M51.5437 34H49.5613V36H51.5437V34Z" fill="#151833"/>
<path d="M59.4737 34H57.4912V36H59.4737V34Z" fill="#151833"/>
<path d="M61.4561 34H59.4736V36H61.4561V34Z" fill="#151833"/>
<path d="M63.4385 34H61.4561V36H63.4385V34Z" fill="#151833"/>
<path d="M65.4209 34H63.4385V36H65.4209V34Z" fill="#151833"/>
<path d="M67.4034 34H65.4209V36H67.4034V34Z" fill="#151833"/>
<path d="M69.3858 34H67.4033V36H69.3858V34Z" fill="#151833"/>
<path d="M73.3509 34H71.3684V36H73.3509V34Z" fill="#151833"/>
<path d="M75.3333 34H73.3508V36H75.3333V34Z" fill="#151833"/>
<path d="M81.2805 34H79.2981V36H81.2805V34Z" fill="#151833"/>
<path d="M83.263 34H81.2805V36H83.263V34Z" fill="#151833"/>
<path d="M93.1753 34H91.1929V36H93.1753V34Z" fill="#151833"/>
<path d="M95.1578 34H93.1753V36H95.1578V34Z" fill="#151833"/>
<path d="M97.1402 34H95.1577V36H97.1402V34Z" fill="#151833"/>
<path d="M99.1228 34H97.1404V36H99.1228V34Z" fill="#151833"/>
<path d="M105.07 34H103.088V36H105.07V34Z" fill="#151833"/>
<path d="M107.053 34H105.07V36H107.053V34Z" fill="#151833"/>
<path d="M9.91214 36H7.92969V38H9.91214V36Z" fill="#151833"/>
<path d="M11.8946 36H9.91211V38H11.8946V36Z" fill="#151833"/>
<path d="M15.8597 36H13.8772V38H15.8597V36Z" fill="#151833"/>
<path d="M17.8421 36H15.8596V38H17.8421V36Z" fill="#151833"/>
<path d="M21.8069 36H19.8245V38H21.8069V36Z" fill="#151833"/>
<path d="M25.7718 36H23.7893V38H25.7718V36Z" fill="#151833"/>
<path d="M33.7017 36H31.7192V38H33.7017V36Z" fill="#151833"/>
<path d="M35.6841 36H33.7017V38H35.6841V36Z" fill="#151833"/>
<path d="M37.6665 36H35.6841V38H37.6665V36Z" fill="#151833"/>
<path d="M39.649 36H37.6665V38H39.649V36Z" fill="#151833"/>
<path d="M41.6316 36H39.6492V38H41.6316V36Z" fill="#151833"/>
<path d="M43.614 36H41.6316V38H43.614V36Z" fill="#151833"/>
<path d="M47.5789 36H45.5964V38H47.5789V36Z" fill="#151833"/>
<path d="M49.5613 36H47.5789V38H49.5613V36Z" fill="#151833"/>
<path d="M51.5437 36H49.5613V38H51.5437V36Z" fill="#151833"/>
<path d="M53.5262 36H51.5437V38H53.5262V36Z" fill="#151833"/>
<path d="M57.4912 36H55.5088V38H57.4912V36Z" fill="#151833"/>
<path d="M59.4737 36H57.4912V38H59.4737V36Z" fill="#151833"/>
<path d="M61.4561 36H59.4736V38H61.4561V36Z" fill="#151833"/>
<path d="M63.4385 36H61.4561V38H63.4385V36Z" fill="#151833"/>
<path d="M73.3509 36H71.3684V38H73.3509V36Z" fill="#151833"/>
<path d="M75.3333 36H73.3508V38H75.3333V36Z" fill="#151833"/>
<path d="M77.3157 36H75.3333V38H77.3157V36Z" fill="#151833"/>
<path d="M79.2981 36H77.3157V38H79.2981V36Z" fill="#151833"/>
<path d="M81.2805 36H79.2981V38H81.2805V36Z" fill="#151833"/>
<path d="M83.263 36H81.2805V38H83.263V36Z" fill="#151833"/>
<path d="M87.2281 36H85.2456V38H87.2281V36Z" fill="#151833"/>
<path d="M89.2104 36H87.228V38H89.2104V36Z" fill="#151833"/>
<path d="M91.193 36H89.2104V38H91.193V36Z" fill="#151833"/>
<path d="M95.1578 36H93.1753V38H95.1578V36Z" fill="#151833"/>
<path d="M99.1228 36H97.1404V38H99.1228V36Z" fill="#151833"/>
<path d="M101.105 36H99.1228V38H101.105V36Z" fill="#151833"/>
<path d="M107.053 36H105.07V38H107.053V36Z" fill="#151833"/>
<path d="M5.9473 38H3.96484V40H5.9473V38Z" fill="#151833"/>
<path d="M7.92972 38H5.94727V40H7.92972V38Z" fill="#151833"/>
<path d="M11.8946 38H9.91211V40H11.8946V38Z" fill="#151833"/>
<path d="M19.8245 38H17.842V40H19.8245V38Z" fill="#151833"/>
<path d="M21.8069 38H19.8245V40H21.8069V38Z" fill="#151833"/>
<path d="M23.7893 38H21.8069V40H23.7893V38Z" fill="#151833"/>
<path d="M37.6665 38H35.6841V40H37.6665V38Z" fill="#151833"/>
<path d="M43.614 38H41.6316V40H43.614V38Z" fill="#151833"/>
<path d="M47.5789 38H45.5964V40H47.5789V38Z" fill="#151833"/>
<path d="M51.5437 38H49.5613V40H51.5437V38Z" fill="#151833"/>
<path d="M53.5262 38H51.5437V40H53.5262V38Z" fill="#151833"/>
<path d="M55.5088 38H53.5264V40H55.5088V38Z" fill="#151833"/>
<path d="M59.4737 38H57.4912V40H59.4737V38Z" fill="#151833"/>
<path d="M67.4034 38H65.4209V40H67.4034V38Z" fill="#151833"/>
<path d="M71.3684 38H69.386V40H71.3684V38Z" fill="#151833"/>
<path d="M75.3333 38H73.3508V40H75.3333V38Z" fill="#151833"/>
<path d="M85.2456 38H83.2632V40H85.2456V38Z" fill="#151833"/>
<path d="M87.2281 38H85.2456V40H87.2281V38Z" fill="#151833"/>
<path d="M89.2104 38H87.228V40H89.2104V38Z" fill="#151833"/>
<path d="M95.1578 38H93.1753V40H95.1578V38Z" fill="#151833"/>
<path d="M97.1402 38H95.1577V40H97.1402V38Z" fill="#151833"/>
<path d="M99.1228 38H97.1404V40H99.1228V38Z" fill="#151833"/>
<path d="M101.105 38H99.1228V40H101.105V38Z" fill="#151833"/>
<path d="M103.088 38H101.105V40H103.088V38Z" fill="#151833"/>
<path d="M7.92972 40H5.94727V42H7.92972V40Z" fill="#151833"/>
<path d="M9.91214 40H7.92969V42H9.91214V40Z" fill="#151833"/>
<path d="M13.8772 40H11.8948V42H13.8772V40Z" fill="#151833"/>
<path d="M15.8597 40H13.8772V42H15.8597V40Z" fill="#151833"/>
<path d="M17.8421 40H15.8596V42H17.8421V40Z" fill="#151833"/>
<path d="M19.8245 40H17.842V42H19.8245V40Z" fill="#151833"/>
<path d="M21.8069 40H19.8245V42H21.8069V40Z" fill="#151833"/>
<path d="M25.7718 40H23.7893V42H25.7718V40Z" fill="#151833"/>
<path d="M27.7544 40H25.772V42H27.7544V40Z" fill="#151833"/>
<path d="M31.7193 40H29.7368V42H31.7193V40Z" fill="#151833"/>
<path d="M33.7017 40H31.7192V42H33.7017V40Z" fill="#151833"/>
<path d="M75.3333 40H73.3508V42H75.3333V40Z" fill="#151833"/>
<path d="M77.3157 40H75.3333V42H77.3157V40Z" fill="#151833"/>
<path d="M83.263 40H81.2805V42H83.263V40Z" fill="#151833"/>
<path d="M85.2456 40H83.2632V42H85.2456V40Z" fill="#151833"/>
<path d="M93.1753 40H91.1929V42H93.1753V40Z" fill="#151833"/>
<path d="M101.105 40H99.1228V42H101.105V40Z" fill="#151833"/>
<path d="M105.07 40H103.088V42H105.07V40Z" fill="#151833"/>
<path d="M109.035 40H107.052V42H109.035V40Z" fill="#151833"/>
<path d="M9.91214 42H7.92969V44H9.91214V42Z" fill="#151833"/>
<path d="M11.8946 42H9.91211V44H11.8946V42Z" fill="#151833"/>
<path d="M21.8069 42H19.8245V44H21.8069V42Z" fill="#151833"/>
<path d="M23.7893 42H21.8069V44H23.7893V42Z" fill="#151833"/>
<path d="M25.7718 42H23.7893V44H25.7718V42Z" fill="#151833"/>
<path d="M27.7544 42H25.772V44H27.7544V42Z" fill="#151833"/>
<path d="M31.7193 42H29.7368V44H31.7193V42Z" fill="#151833"/>
<path d="M35.6841 42H33.7017V44H35.6841V42Z" fill="#151833"/>
<path d="M37.6665 42H35.6841V44H37.6665V42Z" fill="#151833"/>
<path d="M75.3333 42H73.3508V44H75.3333V42Z" fill="#151833"/>
<path d="M77.3157 42H75.3333V44H77.3157V42Z" fill="#151833"/>
<path d="M79.2981 42H77.3157V44H79.2981V42Z" fill="#151833"/>
<path d="M81.2805 42H79.2981V44H81.2805V42Z" fill="#151833"/>
<path d="M85.2456 42H83.2632V44H85.2456V42Z" fill="#151833"/>
<path d="M87.2281 42H85.2456V44H87.2281V42Z" fill="#151833"/>
<path d="M89.2104 42H87.228V44H89.2104V42Z" fill="#151833"/>
<path d="M91.193 42H89.2104V44H91.193V42Z" fill="#151833"/>
<path d="M93.1753 42H91.1929V44H93.1753V42Z" fill="#151833"/>
<path d="M99.1228 42H97.1404V44H99.1228V42Z" fill="#151833"/>
<path d="M105.07 42H103.088V44H105.07V42Z" fill="#151833"/>
<path d="M107.053 42H105.07V44H107.053V42Z" fill="#151833"/>
<path d="M109.035 42H107.052V44H109.035V42Z" fill="#151833"/>
<path d="M5.9473 44H3.96484V46H5.9473V44Z" fill="#151833"/>
<path d="M9.91214 44H7.92969V46H9.91214V44Z" fill="#151833"/>
<path d="M13.8772 44H11.8948V46H13.8772V44Z" fill="#151833"/>
<path d="M15.8597 44H13.8772V46H15.8597V44Z" fill="#151833"/>
<path d="M17.8421 44H15.8596V46H17.8421V44Z" fill="#151833"/>
<path d="M19.8245 44H17.842V46H19.8245V44Z" fill="#151833"/>
<path d="M27.7544 44H25.772V46H27.7544V44Z" fill="#151833"/>
<path d="M31.7193 44H29.7368V46H31.7193V44Z" fill="#151833"/>
<path d="M39.649 44H37.6665V46H39.649V44Z" fill="#151833"/>
<path d="M77.3157 44H75.3333V46H77.3157V44Z" fill="#151833"/>
<path d="M85.2456 44H83.2632V46H85.2456V44Z" fill="#151833"/>
<path d="M89.2104 44H87.228V46H89.2104V44Z" fill="#151833"/>
<path d="M91.193 44H89.2104V46H91.193V44Z" fill="#151833"/>
<path d="M95.1578 44H93.1753V46H95.1578V44Z" fill="#151833"/>
<path d="M97.1402 44H95.1577V46H97.1402V44Z" fill="#151833"/>
<path d="M101.105 44H99.1228V46H101.105V44Z" fill="#151833"/>
<path d="M103.088 44H101.105V46H103.088V44Z" fill="#151833"/>
<path d="M109.035 44H107.052V46H109.035V44Z" fill="#151833"/>
<path d="M7.92972 46H5.94727V48H7.92972V46Z" fill="#151833"/>
<path d="M9.91214 46H7.92969V48H9.91214V46Z" fill="#151833"/>
<path d="M11.8946 46H9.91211V48H11.8946V46Z" fill="#151833"/>
<path d="M13.8772 46H11.8948V48H13.8772V46Z" fill="#151833"/>
<path d="M15.8597 46H13.8772V48H15.8597V46Z" fill="#151833"/>
<path d="M19.8245 46H17.842V48H19.8245V46Z" fill="#151833"/>
<path d="M27.7544 46H25.772V48H27.7544V46Z" fill="#151833"/>
<path d="M29.7369 46H27.7544V48H29.7369V46Z" fill="#151833"/>
<path d="M31.7193 46H29.7368V48H31.7193V46Z" fill="#151833"/>
<path d="M35.6841 46H33.7017V48H35.6841V46Z" fill="#151833"/>
<path d="M75.3333 46H73.3508V48H75.3333V46Z" fill="#151833"/>
<path d="M77.3157 46H75.3333V48H77.3157V46Z" fill="#151833"/>
<path d="M81.2805 46H79.2981V48H81.2805V46Z" fill="#151833"/>
<path d="M83.263 46H81.2805V48H83.263V46Z" fill="#151833"/>
<path d="M85.2456 46H83.2632V48H85.2456V46Z" fill="#151833"/>
<path d="M89.2104 46H87.228V48H89.2104V46Z" fill="#151833"/>
<path d="M91.193 46H89.2104V48H91.193V46Z" fill="#151833"/>
<path d="M93.1753 46H91.1929V48H93.1753V46Z" fill="#151833"/>
<path d="M95.1578 46H93.1753V48H95.1578V46Z" fill="#151833"/>
<path d="M97.1402 46H95.1577V48H97.1402V46Z" fill="#151833"/>
<path d="M101.105 46H99.1228V48H101.105V46Z" fill="#151833"/>
<path d="M105.07 46H103.088V48H105.07V46Z" fill="#151833"/>
<path d="M107.053 46H105.07V48H107.053V46Z" fill="#151833"/>
<path d="M9.91214 48H7.92969V50H9.91214V48Z" fill="#151833"/>
<path d="M13.8772 48H11.8948V50H13.8772V48Z" fill="#151833"/>
<path d="M17.8421 48H15.8596V50H17.8421V48Z" fill="#151833"/>
<path d="M21.8069 48H19.8245V50H21.8069V48Z" fill="#151833"/>
<path d="M27.7544 48H25.772V50H27.7544V48Z" fill="#151833"/>
<path d="M29.7369 48H27.7544V50H29.7369V48Z" fill="#151833"/>
<path d="M31.7193 48H29.7368V50H31.7193V48Z" fill="#151833"/>
<path d="M33.7017 48H31.7192V50H33.7017V48Z" fill="#151833"/>
<path d="M35.6841 48H33.7017V50H35.6841V48Z" fill="#151833"/>
<path d="M37.6665 48H35.6841V50H37.6665V48Z" fill="#151833"/>
<path d="M75.3333 48H73.3508V50H75.3333V48Z" fill="#151833"/>
<path d="M77.3157 48H75.3333V50H77.3157V48Z" fill="#151833"/>
<path d="M79.2981 48H77.3157V50H79.2981V48Z" fill="#151833"/>
<path d="M81.2805 48H79.2981V50H81.2805V48Z" fill="#151833"/>
<path d="M85.2456 48H83.2632V50H85.2456V48Z" fill="#151833"/>
<path d="M87.2281 48H85.2456V50H87.2281V48Z" fill="#151833"/>
<path d="M97.1402 48H95.1577V50H97.1402V48Z" fill="#151833"/>
<path d="M101.105 48H99.1228V50H101.105V48Z" fill="#151833"/>
<path d="M103.088 48H101.105V50H103.088V48Z" fill="#151833"/>
<path d="M107.053 48H105.07V50H107.053V48Z" fill="#151833"/>
<path d="M9.91214 50H7.92969V52H9.91214V50Z" fill="#151833"/>
<path d="M13.8772 50H11.8948V52H13.8772V50Z" fill="#151833"/>
<path d="M19.8245 50H17.842V52H19.8245V50Z" fill="#151833"/>
<path d="M21.8069 50H19.8245V52H21.8069V50Z" fill="#151833"/>
<path d="M27.7544 50H25.772V52H27.7544V50Z" fill="#151833"/>
<path d="M35.6841 50H33.7017V52H35.6841V50Z" fill="#151833"/>
<path d="M37.6665 50H35.6841V52H37.6665V50Z" fill="#151833"/>
<path d="M85.2456 50H83.2632V52H85.2456V50Z" fill="#151833"/>
<path d="M87.2281 50H85.2456V52H87.2281V50Z" fill="#151833"/>
<path d="M89.2104 50H87.228V52H89.2104V50Z" fill="#151833"/>
<path d="M97.1402 50H95.1577V52H97.1402V50Z" fill="#151833"/>
<path d="M99.1228 50H97.1404V52H99.1228V50Z" fill="#151833"/>
<path d="M109.035 50H107.052V52H109.035V50Z" fill="#151833"/>
<path d="M11.8946 52H9.91211V54H11.8946V52Z" fill="#151833"/>
<path d="M13.8772 52H11.8948V54H13.8772V52Z" fill="#151833"/>
<path d="M15.8597 52H13.8772V54H15.8597V52Z" fill="#151833"/>
<path d="M17.8421 52H15.8596V54H17.8421V52Z" fill="#151833"/>
<path d="M19.8245 52H17.842V54H19.8245V52Z" fill="#151833"/>
<path d="M21.8069 52H19.8245V54H21.8069V52Z" fill="#151833"/>
<path d="M27.7544 52H25.772V54H27.7544V52Z" fill="#151833"/>
<path d="M31.7193 52H29.7368V54H31.7193V52Z" fill="#151833"/>
<path d="M33.7017 52H31.7192V54H33.7017V52Z" fill="#151833"/>
<path d="M35.6841 52H33.7017V54H35.6841V52Z" fill="#151833"/>
<path d="M39.649 52H37.6665V54H39.649V52Z" fill="#151833"/>
<path d="M75.3333 52H73.3508V54H75.3333V52Z" fill="#151833"/>
<path d="M77.3157 52H75.3333V54H77.3157V52Z" fill="#151833"/>
<path d="M81.2805 52H79.2981V54H81.2805V52Z" fill="#151833"/>
<path d="M85.2456 52H83.2632V54H85.2456V52Z" fill="#151833"/>
<path d="M93.1753 52H91.1929V54H93.1753V52Z" fill="#151833"/>
<path d="M95.1578 52H93.1753V54H95.1578V52Z" fill="#151833"/>
<path d="M97.1402 52H95.1577V54H97.1402V52Z" fill="#151833"/>
<path d="M99.1228 52H97.1404V54H99.1228V52Z" fill="#151833"/>
<path d="M101.105 52H99.1228V54H101.105V52Z" fill="#151833"/>
<path d="M103.088 52H101.105V54H103.088V52Z" fill="#151833"/>
<path d="M109.035 52H107.052V54H109.035V52Z" fill="#151833"/>
<path d="M5.9473 54H3.96484V56H5.9473V54Z" fill="#151833"/>
<path d="M9.91214 54H7.92969V56H9.91214V54Z" fill="#151833"/>
<path d="M11.8946 54H9.91211V56H11.8946V54Z" fill="#151833"/>
<path d="M13.8772 54H11.8948V56H13.8772V54Z" fill="#151833"/>
<path d="M21.8069 54H19.8245V56H21.8069V54Z" fill="#151833"/>
<path d="M23.7893 54H21.8069V56H23.7893V54Z" fill="#151833"/>
<path d="M29.7369 54H27.7544V56H29.7369V54Z" fill="#151833"/>
<path d="M31.7193 54H29.7368V56H31.7193V54Z" fill="#151833"/>
<path d="M37.6665 54H35.6841V56H37.6665V54Z" fill="#151833"/>
<path d="M39.649 54H37.6665V56H39.649V54Z" fill="#151833"/>
<path d="M75.3333 54H73.3508V56H75.3333V54Z" fill="#151833"/>
<path d="M77.3157 54H75.3333V56H77.3157V54Z" fill="#151833"/>
<path d="M81.2805 54H79.2981V56H81.2805V54Z" fill="#151833"/>
<path d="M83.263 54H81.2805V56H83.263V54Z" fill="#151833"/>
<path d="M89.2104 54H87.228V56H89.2104V54Z" fill="#151833"/>
<path d="M93.1753 54H91.1929V56H93.1753V54Z" fill="#151833"/>
<path d="M101.105 54H99.1228V56H101.105V54Z" fill="#151833"/>
<path d="M103.088 54H101.105V56H103.088V54Z" fill="#151833"/>
<path d="M105.07 54H103.088V56H105.07V54Z" fill="#151833"/>
<path d="M107.053 54H105.07V56H107.053V54Z" fill="#151833"/>
<path d="M109.035 54H107.052V56H109.035V54Z" fill="#151833"/>
<path d="M5.9473 56H3.96484V58H5.9473V56Z" fill="#151833"/>
<path d="M7.92972 56H5.94727V58H7.92972V56Z" fill="#151833"/>
<path d="M9.91214 56H7.92969V58H9.91214V56Z" fill="#151833"/>
<path d="M13.8772 56H11.8948V58H13.8772V56Z" fill="#151833"/>
<path d="M17.8421 56H15.8596V58H17.8421V56Z" fill="#151833"/>
<path d="M21.8069 56H19.8245V58H21.8069V56Z" fill="#151833"/>
<path d="M25.7718 56H23.7893V58H25.7718V56Z" fill="#151833"/>
<path d="M35.6841 56H33.7017V58H35.6841V56Z" fill="#151833"/>
<path d="M37.6665 56H35.6841V58H37.6665V56Z" fill="#151833"/>
<path d="M39.649 56H37.6665V58H39.649V56Z" fill="#151833"/>
<path d="M81.2805 56H79.2981V58H81.2805V56Z" fill="#151833"/>
<path d="M85.2456 56H83.2632V58H85.2456V56Z" fill="#151833"/>
<path d="M87.2281 56H85.2456V58H87.2281V56Z" fill="#151833"/>
<path d="M91.193 56H89.2104V58H91.193V56Z" fill="#151833"/>
<path d="M93.1753 56H91.1929V58H93.1753V56Z" fill="#151833"/>
<path d="M97.1402 56H95.1577V58H97.1402V56Z" fill="#151833"/>
<path d="M101.105 56H99.1228V58H101.105V56Z" fill="#151833"/>
<path d="M103.088 56H101.105V58H103.088V56Z" fill="#151833"/>
<path d="M109.035 56H107.052V58H109.035V56Z" fill="#151833"/>
<path d="M5.9473 58H3.96484V60H5.9473V58Z" fill="#151833"/>
<path d="M9.91214 58H7.92969V60H9.91214V58Z" fill="#151833"/>
<path d="M11.8946 58H9.91211V60H11.8946V58Z" fill="#151833"/>
<path d="M13.8772 58H11.8948V60H13.8772V58Z" fill="#151833"/>
<path d="M21.8069 58H19.8245V60H21.8069V58Z" fill="#151833"/>
<path d="M23.7893 58H21.8069V60H23.7893V58Z" fill="#151833"/>
<path d="M25.7718 58H23.7893V60H25.7718V58Z" fill="#151833"/>
<path d="M27.7544 58H25.772V60H27.7544V58Z" fill="#151833"/>
<path d="M31.7193 58H29.7368V60H31.7193V58Z" fill="#151833"/>
<path d="M33.7017 58H31.7192V60H33.7017V58Z" fill="#151833"/>
<path d="M35.6841 58H33.7017V60H35.6841V58Z" fill="#151833"/>
<path d="M37.6665 58H35.6841V60H37.6665V58Z" fill="#151833"/>
<path d="M79.2981 58H77.3157V60H79.2981V58Z" fill="#151833"/>
<path d="M85.2456 58H83.2632V60H85.2456V58Z" fill="#151833"/>
<path d="M87.2281 58H85.2456V60H87.2281V58Z" fill="#151833"/>
<path d="M93.1753 58H91.1929V60H93.1753V58Z" fill="#151833"/>
<path d="M101.105 58H99.1228V60H101.105V58Z" fill="#151833"/>
<path d="M105.07 58H103.088V60H105.07V58Z" fill="#151833"/>
<path d="M107.053 58H105.07V60H107.053V58Z" fill="#151833"/>
<path d="M109.035 58H107.052V60H109.035V58Z" fill="#151833"/>
<path d="M5.9473 60H3.96484V62H5.9473V60Z" fill="#151833"/>
<path d="M7.92972 60H5.94727V62H7.92972V60Z" fill="#151833"/>
<path d="M13.8772 60H11.8948V62H13.8772V60Z" fill="#151833"/>
<path d="M15.8597 60H13.8772V62H15.8597V60Z" fill="#151833"/>
<path d="M17.8421 60H15.8596V62H17.8421V60Z" fill="#151833"/>
<path d="M19.8245 60H17.842V62H19.8245V60Z" fill="#151833"/>
<path d="M21.8069 60H19.8245V62H21.8069V60Z" fill="#151833"/>
<path d="M33.7017 60H31.7192V62H33.7017V60Z" fill="#151833"/>
<path d="M39.649 60H37.6665V62H39.649V60Z" fill="#151833"/>
<path d="M77.3157 60H75.3333V62H77.3157V60Z" fill="#151833"/>
<path d="M79.2981 60H77.3157V62H79.2981V60Z" fill="#151833"/>
<path d="M87.2281 60H85.2456V62H87.2281V60Z" fill="#151833"/>
<path d="M91.193 60H89.2104V62H91.193V60Z" fill="#151833"/>
<path d="M93.1753 60H91.1929V62H93.1753V60Z" fill="#151833"/>
<path d="M95.1578 60H93.1753V62H95.1578V60Z" fill="#151833"/>
<path d="M97.1402 60H95.1577V62H97.1402V60Z" fill="#151833"/>
<path d="M99.1228 60H97.1404V62H99.1228V60Z" fill="#151833"/>
<path d="M101.105 60H99.1228V62H101.105V60Z" fill="#151833"/>
<path d="M105.07 60H103.088V62H105.07V60Z" fill="#151833"/>
<path d="M5.9473 62H3.96484V64H5.9473V62Z" fill="#151833"/>
<path d="M11.8946 62H9.91211V64H11.8946V62Z" fill="#151833"/>
<path d="M13.8772 62H11.8948V64H13.8772V62Z" fill="#151833"/>
<path d="M15.8597 62H13.8772V64H15.8597V62Z" fill="#151833"/>
<path d="M29.7369 62H27.7544V64H29.7369V62Z" fill="#151833"/>
<path d="M37.6665 62H35.6841V64H37.6665V62Z" fill="#151833"/>
<path d="M77.3157 62H75.3333V64H77.3157V62Z" fill="#151833"/>
<path d="M79.2981 62H77.3157V64H79.2981V62Z" fill="#151833"/>
<path d="M83.263 62H81.2805V64H83.263V62Z" fill="#151833"/>
<path d="M85.2456 62H83.2632V64H85.2456V62Z" fill="#151833"/>
<path d="M93.1753 62H91.1929V64H93.1753V62Z" fill="#151833"/>
<path d="M95.1578 62H93.1753V64H95.1578V62Z" fill="#151833"/>
<path d="M97.1402 62H95.1577V64H97.1402V62Z" fill="#151833"/>
<path d="M101.105 62H99.1228V64H101.105V62Z" fill="#151833"/>
<path d="M105.07 62H103.088V64H105.07V62Z" fill="#151833"/>
<path d="M5.9473 64H3.96484V66H5.9473V64Z" fill="#151833"/>
<path d="M7.92972 64H5.94727V66H7.92972V64Z" fill="#151833"/>
<path d="M9.91214 64H7.92969V66H9.91214V64Z" fill="#151833"/>
<path d="M13.8772 64H11.8948V66H13.8772V64Z" fill="#151833"/>
<path d="M15.8597 64H13.8772V66H15.8597V64Z" fill="#151833"/>
<path d="M17.8421 64H15.8596V66H17.8421V64Z" fill="#151833"/>
<path d="M19.8245 64H17.842V66H19.8245V64Z" fill="#151833"/>
<path d="M23.7893 64H21.8069V66H23.7893V64Z" fill="#151833"/>
<path d="M25.7718 64H23.7893V66H25.7718V64Z" fill="#151833"/>
<path d="M31.7193 64H29.7368V66H31.7193V64Z" fill="#151833"/>
<path d="M35.6841 64H33.7017V66H35.6841V64Z" fill="#151833"/>
<path d="M39.649 64H37.6665V66H39.649V64Z" fill="#151833"/>
<path d="M75.3333 64H73.3508V66H75.3333V64Z" fill="#151833"/>
<path d="M79.2981 64H77.3157V66H79.2981V64Z" fill="#151833"/>
<path d="M85.2456 64H83.2632V66H85.2456V64Z" fill="#151833"/>
<path d="M87.2281 64H85.2456V66H87.2281V64Z" fill="#151833"/>
<path d="M89.2104 64H87.228V66H89.2104V64Z" fill="#151833"/>
<path d="M91.193 64H89.2104V66H91.193V64Z" fill="#151833"/>
<path d="M93.1753 64H91.1929V66H93.1753V64Z" fill="#151833"/>
<path d="M97.1402 64H95.1577V66H97.1402V64Z" fill="#151833"/>
<path d="M103.088 64H101.105V66H103.088V64Z" fill="#151833"/>
<path d="M105.07 64H103.088V66H105.07V64Z" fill="#151833"/>
<path d="M107.053 64H105.07V66H107.053V64Z" fill="#151833"/>
<path d="M109.035 64H107.052V66H109.035V64Z" fill="#151833"/>
<path d="M5.9473 66H3.96484V68H5.9473V66Z" fill="#151833"/>
<path d="M15.8597 66H13.8772V68H15.8597V66Z" fill="#151833"/>
<path d="M25.7718 66H23.7893V68H25.7718V66Z" fill="#151833"/>
<path d="M27.7544 66H25.772V68H27.7544V66Z" fill="#151833"/>
<path d="M29.7369 66H27.7544V68H29.7369V66Z" fill="#151833"/>
<path d="M31.7193 66H29.7368V68H31.7193V66Z" fill="#151833"/>
<path d="M77.3157 66H75.3333V68H77.3157V66Z" fill="#151833"/>
<path d="M79.2981 66H77.3157V68H79.2981V66Z" fill="#151833"/>
<path d="M81.2805 66H79.2981V68H81.2805V66Z" fill="#151833"/>
<path d="M91.193 66H89.2104V68H91.193V66Z" fill="#151833"/>
<path d="M95.1578 66H93.1753V68H95.1578V66Z" fill="#151833"/>
<path d="M97.1402 66H95.1577V68H97.1402V66Z" fill="#151833"/>
<path d="M99.1228 66H97.1404V68H99.1228V66Z" fill="#151833"/>
<path d="M105.07 66H103.088V68H105.07V66Z" fill="#151833"/>
<path d="M107.053 66H105.07V68H107.053V66Z" fill="#151833"/>
<path d="M7.92972 68H5.94727V70H7.92972V68Z" fill="#151833"/>
<path d="M11.8946 68H9.91211V70H11.8946V68Z" fill="#151833"/>
<path d="M15.8597 68H13.8772V70H15.8597V68Z" fill="#151833"/>
<path d="M17.8421 68H15.8596V70H17.8421V68Z" fill="#151833"/>
<path d="M21.8069 68H19.8245V70H21.8069V68Z" fill="#151833"/>
<path d="M29.7369 68H27.7544V70H29.7369V68Z" fill="#151833"/>
<path d="M31.7193 68H29.7368V70H31.7193V68Z" fill="#151833"/>
<path d="M35.6841 68H33.7017V70H35.6841V68Z" fill="#151833"/>
<path d="M37.6665 68H35.6841V70H37.6665V68Z" fill="#151833"/>
<path d="M75.3333 68H73.3508V70H75.3333V68Z" fill="#151833"/>
<path d="M77.3157 68H75.3333V70H77.3157V68Z" fill="#151833"/>
<path d="M79.2981 68H77.3157V70H79.2981V68Z" fill="#151833"/>
<path d="M85.2456 68H83.2632V70H85.2456V68Z" fill="#151833"/>
<path d="M91.193 68H89.2104V70H91.193V68Z" fill="#151833"/>
<path d="M93.1753 68H91.1929V70H93.1753V68Z" fill="#151833"/>
<path d="M95.1578 68H93.1753V70H95.1578V68Z" fill="#151833"/>
<path d="M97.1402 68H95.1577V70H97.1402V68Z" fill="#151833"/>
<path d="M99.1228 68H97.1404V70H99.1228V68Z" fill="#151833"/>
<path d="M105.07 68H103.088V70H105.07V68Z" fill="#151833"/>
<path d="M109.035 68H107.052V70H109.035V68Z" fill="#151833"/>
<path d="M11.8946 70H9.91211V72H11.8946V70Z" fill="#151833"/>
<path d="M13.8772 70H11.8948V72H13.8772V70Z" fill="#151833"/>
<path d="M19.8245 70H17.842V72H19.8245V70Z" fill="#151833"/>
<path d="M21.8069 70H19.8245V72H21.8069V70Z" fill="#151833"/>
<path d="M23.7893 70H21.8069V72H23.7893V70Z" fill="#151833"/>
<path d="M25.7718 70H23.7893V72H25.7718V70Z" fill="#151833"/>
<path d="M75.3333 70H73.3508V72H75.3333V70Z" fill="#151833"/>
<path d="M77.3157 70H75.3333V72H77.3157V70Z" fill="#151833"/>
<path d="M81.2805 70H79.2981V72H81.2805V70Z" fill="#151833"/>
<path d="M83.263 70H81.2805V72H83.263V70Z" fill="#151833"/>
<path d="M85.2456 70H83.2632V72H85.2456V70Z" fill="#151833"/>
<path d="M89.2104 70H87.228V72H89.2104V70Z" fill="#151833"/>
<path d="M97.1402 70H95.1577V72H97.1402V70Z" fill="#151833"/>
<path d="M99.1228 70H97.1404V72H99.1228V70Z" fill="#151833"/>
<path d="M101.105 70H99.1228V72H101.105V70Z" fill="#151833"/>
<path d="M103.088 70H101.105V72H103.088V70Z" fill="#151833"/>
<path d="M107.053 70H105.07V72H107.053V70Z" fill="#151833"/>
<path d="M5.9473 72H3.96484V74H5.9473V72Z" fill="#151833"/>
<path d="M9.91214 72H7.92969V74H9.91214V72Z" fill="#151833"/>
<path d="M11.8946 72H9.91211V74H11.8946V72Z" fill="#151833"/>
<path d="M17.8421 72H15.8596V74H17.8421V72Z" fill="#151833"/>
<path d="M19.8245 72H17.842V74H19.8245V72Z" fill="#151833"/>
<path d="M21.8069 72H19.8245V74H21.8069V72Z" fill="#151833"/>
<path d="M23.7893 72H21.8069V74H23.7893V72Z" fill="#151833"/>
<path d="M25.7718 72H23.7893V74H25.7718V72Z" fill="#151833"/>
<path d="M35.6841 72H33.7017V74H35.6841V72Z" fill="#151833"/>
<path d="M37.6665 72H35.6841V74H37.6665V72Z" fill="#151833"/>
<path d="M39.649 72H37.6665V74H39.649V72Z" fill="#151833"/>
<path d="M77.3157 72H75.3333V74H77.3157V72Z" fill="#151833"/>
<path d="M87.2281 72H85.2456V74H87.2281V72Z" fill="#151833"/>
<path d="M95.1578 72H93.1753V74H95.1578V72Z" fill="#151833"/>
<path d="M101.105 72H99.1228V74H101.105V72Z" fill="#151833"/>
<path d="M107.053 72H105.07V74H107.053V72Z" fill="#151833"/>
<path d="M9.91214 74H7.92969V76H9.91214V74Z" fill="#151833"/>
<path d="M11.8946 74H9.91211V76H11.8946V74Z" fill="#151833"/>
<path d="M13.8772 74H11.8948V76H13.8772V74Z" fill="#151833"/>
<path d="M19.8245 74H17.842V76H19.8245V74Z" fill="#151833"/>
<path d="M21.8069 74H19.8245V76H21.8069V74Z" fill="#151833"/>
<path d="M27.7544 74H25.772V76H27.7544V74Z" fill="#151833"/>
<path d="M31.7193 74H29.7368V76H31.7193V74Z" fill="#151833"/>
<path d="M37.6665 74H35.6841V76H37.6665V74Z" fill="#151833"/>
<path d="M39.649 74H37.6665V76H39.649V74Z" fill="#151833"/>
<path d="M47.5789 74H45.5964V76H47.5789V74Z" fill="#151833"/>
<path d="M51.5437 74H49.5613V76H51.5437V74Z" fill="#151833"/>
<path d="M59.4737 74H57.4912V76H59.4737V74Z" fill="#151833"/>
<path d="M63.4385 74H61.4561V76H63.4385V74Z" fill="#151833"/>
<path d="M89.2104 74H87.228V76H89.2104V74Z" fill="#151833"/>
<path d="M91.193 74H89.2104V76H91.193V74Z" fill="#151833"/>
<path d="M93.1753 74H91.1929V76H93.1753V74Z" fill="#151833"/>
<path d="M99.1228 74H97.1404V76H99.1228V74Z" fill="#151833"/>
<path d="M101.105 74H99.1228V76H101.105V74Z" fill="#151833"/>
<path d="M103.088 74H101.105V76H103.088V74Z" fill="#151833"/>
<path d="M109.035 74H107.052V76H109.035V74Z" fill="#151833"/>
<path d="M5.9473 76H3.96484V78H5.9473V76Z" fill="#151833"/>
<path d="M7.92972 76H5.94727V78H7.92972V76Z" fill="#151833"/>
<path d="M11.8946 76H9.91211V78H11.8946V76Z" fill="#151833"/>
<path d="M13.8772 76H11.8948V78H13.8772V76Z" fill="#151833"/>
<path d="M15.8597 76H13.8772V78H15.8597V76Z" fill="#151833"/>
<path d="M17.8421 76H15.8596V78H17.8421V76Z" fill="#151833"/>
<path d="M21.8069 76H19.8245V78H21.8069V76Z" fill="#151833"/>
<path d="M25.7718 76H23.7893V78H25.7718V76Z" fill="#151833"/>
<path d="M27.7544 76H25.772V78H27.7544V76Z" fill="#151833"/>
<path d="M31.7193 76H29.7368V78H31.7193V76Z" fill="#151833"/>
<path d="M33.7017 76H31.7192V78H33.7017V76Z" fill="#151833"/>
<path d="M35.6841 76H33.7017V78H35.6841V76Z" fill="#151833"/>
<path d="M37.6665 76H35.6841V78H37.6665V76Z" fill="#151833"/>
<path d="M39.649 76H37.6665V78H39.649V76Z" fill="#151833"/>
<path d="M43.614 76H41.6316V78H43.614V76Z" fill="#151833"/>
<path d="M49.5613 76H47.5789V78H49.5613V76Z" fill="#151833"/>
<path d="M51.5437 76H49.5613V78H51.5437V76Z" fill="#151833"/>
<path d="M53.5262 76H51.5437V78H53.5262V76Z" fill="#151833"/>
<path d="M57.4912 76H55.5088V78H57.4912V76Z" fill="#151833"/>
<path d="M59.4737 76H57.4912V78H59.4737V76Z" fill="#151833"/>
<path d="M65.4209 76H63.4385V78H65.4209V76Z" fill="#151833"/>
<path d="M67.4034 76H65.4209V78H67.4034V76Z" fill="#151833"/>
<path d="M71.3684 76H69.386V78H71.3684V76Z" fill="#151833"/>
<path d="M75.3333 76H73.3508V78H75.3333V76Z" fill="#151833"/>
<path d="M77.3157 76H75.3333V78H77.3157V76Z" fill="#151833"/>
<path d="M81.2805 76H79.2981V78H81.2805V76Z" fill="#151833"/>
<path d="M85.2456 76H83.2632V78H85.2456V76Z" fill="#151833"/>
<path d="M89.2104 76H87.228V78H89.2104V76Z" fill="#151833"/>
<path d="M91.193 76H89.2104V78H91.193V76Z" fill="#151833"/>
<path d="M93.1753 76H91.1929V78H93.1753V76Z" fill="#151833"/>
<path d="M95.1578 76H93.1753V78H95.1578V76Z" fill="#151833"/>
<path d="M97.1402 76H95.1577V78H97.1402V76Z" fill="#151833"/>
<path d="M103.088 76H101.105V78H103.088V76Z" fill="#151833"/>
<path d="M107.053 76H105.07V78H107.053V76Z" fill="#151833"/>
<path d="M5.9473 78H3.96484V80H5.9473V78Z" fill="#151833"/>
<path d="M7.92972 78H5.94727V80H7.92972V78Z" fill="#151833"/>
<path d="M11.8946 78H9.91211V80H11.8946V78Z" fill="#151833"/>
<path d="M15.8597 78H13.8772V80H15.8597V78Z" fill="#151833"/>
<path d="M19.8245 78H17.842V80H19.8245V78Z" fill="#151833"/>
<path d="M21.8069 78H19.8245V80H21.8069V78Z" fill="#151833"/>
<path d="M27.7544 78H25.772V80H27.7544V78Z" fill="#151833"/>
<path d="M31.7193 78H29.7368V80H31.7193V78Z" fill="#151833"/>
<path d="M33.7017 78H31.7192V80H33.7017V78Z" fill="#151833"/>
<path d="M35.6841 78H33.7017V80H35.6841V78Z" fill="#151833"/>
<path d="M37.6665 78H35.6841V80H37.6665V78Z" fill="#151833"/>
<path d="M41.6316 78H39.6492V80H41.6316V78Z" fill="#151833"/>
<path d="M51.5437 78H49.5613V80H51.5437V78Z" fill="#151833"/>
<path d="M53.5262 78H51.5437V80H53.5262V78Z" fill="#151833"/>
<path d="M75.3333 78H73.3508V80H75.3333V78Z" fill="#151833"/>
<path d="M77.3157 78H75.3333V80H77.3157V78Z" fill="#151833"/>
<path d="M79.2981 78H77.3157V80H79.2981V78Z" fill="#151833"/>
<path d="M81.2805 78H79.2981V80H81.2805V78Z" fill="#151833"/>
<path d="M85.2456 78H83.2632V80H85.2456V78Z" fill="#151833"/>
<path d="M89.2104 78H87.228V80H89.2104V78Z" fill="#151833"/>
<path d="M91.193 78H89.2104V80H91.193V78Z" fill="#151833"/>
<path d="M93.1753 78H91.1929V80H93.1753V78Z" fill="#151833"/>
<path d="M95.1578 78H93.1753V80H95.1578V78Z" fill="#151833"/>
<path d="M99.1228 78H97.1404V80H99.1228V78Z" fill="#151833"/>
<path d="M101.105 78H99.1228V80H101.105V78Z" fill="#151833"/>
<path d="M105.07 78H103.088V80H105.07V78Z" fill="#151833"/>
<path d="M5.9473 80H3.96484V82H5.9473V80Z" fill="#151833"/>
<path d="M9.91214 80H7.92969V82H9.91214V80Z" fill="#151833"/>
<path d="M15.8597 80H13.8772V82H15.8597V80Z" fill="#151833"/>
<path d="M17.8421 80H15.8596V82H17.8421V80Z" fill="#151833"/>
<path d="M23.7893 80H21.8069V82H23.7893V80Z" fill="#151833"/>
<path d="M29.7369 80H27.7544V82H29.7369V80Z" fill="#151833"/>
<path d="M31.7193 80H29.7368V82H31.7193V80Z" fill="#151833"/>
<path d="M33.7017 80H31.7192V82H33.7017V80Z" fill="#151833"/>
<path d="M39.649 80H37.6665V82H39.649V80Z" fill="#151833"/>
<path d="M43.614 80H41.6316V82H43.614V80Z" fill="#151833"/>
<path d="M47.5789 80H45.5964V82H47.5789V80Z" fill="#151833"/>
<path d="M51.5437 80H49.5613V82H51.5437V80Z" fill="#151833"/>
<path d="M53.5262 80H51.5437V82H53.5262V80Z" fill="#151833"/>
<path d="M57.4912 80H55.5088V82H57.4912V80Z" fill="#151833"/>
<path d="M61.4561 80H59.4736V82H61.4561V80Z" fill="#151833"/>
<path d="M63.4385 80H61.4561V82H63.4385V80Z" fill="#151833"/>
<path d="M65.4209 80H63.4385V82H65.4209V80Z" fill="#151833"/>
<path d="M71.3684 80H69.386V82H71.3684V80Z" fill="#151833"/>
<path d="M73.3509 80H71.3684V82H73.3509V80Z" fill="#151833"/>
<path d="M75.3333 80H73.3508V82H75.3333V80Z" fill="#151833"/>
<path d="M77.3157 80H75.3333V82H77.3157V80Z" fill="#151833"/>
<path d="M79.2981 80H77.3157V82H79.2981V80Z" fill="#151833"/>
<path d="M81.2805 80H79.2981V82H81.2805V80Z" fill="#151833"/>
<path d="M91.193 80H89.2104V82H91.193V80Z" fill="#151833"/>
<path d="M95.1578 80H93.1753V82H95.1578V80Z" fill="#151833"/>
<path d="M97.1402 80H95.1577V82H97.1402V80Z" fill="#151833"/>
<path d="M101.105 80H99.1228V82H101.105V80Z" fill="#151833"/>
<path d="M109.035 80H107.052V82H109.035V80Z" fill="#151833"/>
<path d="M5.9473 82H3.96484V84H5.9473V82Z" fill="#151833"/>
<path d="M11.8946 82H9.91211V84H11.8946V82Z" fill="#151833"/>
<path d="M15.8597 82H13.8772V84H15.8597V82Z" fill="#151833"/>
<path d="M19.8245 82H17.842V84H19.8245V82Z" fill="#151833"/>
<path d="M21.8069 82H19.8245V84H21.8069V82Z" fill="#151833"/>
<path d="M23.7893 82H21.8069V84H23.7893V82Z" fill="#151833"/>
<path d="M25.7718 82H23.7893V84H25.7718V82Z" fill="#151833"/>
<path d="M31.7193 82H29.7368V84H31.7193V82Z" fill="#151833"/>
<path d="M35.6841 82H33.7017V84H35.6841V82Z" fill="#151833"/>
<path d="M43.614 82H41.6316V84H43.614V82Z" fill="#151833"/>
<path d="M45.5965 82H43.614V84H45.5965V82Z" fill="#151833"/>
<path d="M47.5789 82H45.5964V84H47.5789V82Z" fill="#151833"/>
<path d="M53.5262 82H51.5437V84H53.5262V82Z" fill="#151833"/>
<path d="M55.5088 82H53.5264V84H55.5088V82Z" fill="#151833"/>
<path d="M63.4385 82H61.4561V84H63.4385V82Z" fill="#151833"/>
<path d="M67.4034 82H65.4209V84H67.4034V82Z" fill="#151833"/>
<path d="M77.3157 82H75.3333V84H77.3157V82Z" fill="#151833"/>
<path d="M81.2805 82H79.2981V84H81.2805V82Z" fill="#151833"/>
<path d="M87.2281 82H85.2456V84H87.2281V82Z" fill="#151833"/>
<path d="M91.193 82H89.2104V84H91.193V82Z" fill="#151833"/>
<path d="M99.1228 82H97.1404V84H99.1228V82Z" fill="#151833"/>
<path d="M101.105 82H99.1228V84H101.105V82Z" fill="#151833"/>
<path d="M105.07 82H103.088V84H105.07V82Z" fill="#151833"/>
<path d="M7.92972 84H5.94727V86H7.92972V84Z" fill="#151833"/>
<path d="M9.91214 84H7.92969V86H9.91214V84Z" fill="#151833"/>
<path d="M11.8946 84H9.91211V86H11.8946V84Z" fill="#151833"/>
<path d="M17.8421 84H15.8596V86H17.8421V84Z" fill="#151833"/>
<path d="M27.7544 84H25.772V86H27.7544V84Z" fill="#151833"/>
<path d="M33.7017 84H31.7192V86H33.7017V84Z" fill="#151833"/>
<path d="M35.6841 84H33.7017V86H35.6841V84Z" fill="#151833"/>
<path d="M37.6665 84H35.6841V86H37.6665V84Z" fill="#151833"/>
<path d="M39.649 84H37.6665V86H39.649V84Z" fill="#151833"/>
<path d="M41.6316 84H39.6492V86H41.6316V84Z" fill="#151833"/>
<path d="M47.5789 84H45.5964V86H47.5789V84Z" fill="#151833"/>
<path d="M51.5437 84H49.5613V86H51.5437V84Z" fill="#151833"/>
<path d="M53.5262 84H51.5437V86H53.5262V84Z" fill="#151833"/>
<path d="M55.5088 84H53.5264V86H55.5088V84Z" fill="#151833"/>
<path d="M59.4737 84H57.4912V86H59.4737V84Z" fill="#151833"/>
<path d="M61.4561 84H59.4736V86H61.4561V84Z" fill="#151833"/>
<path d="M65.4209 84H63.4385V86H65.4209V84Z" fill="#151833"/>
<path d="M67.4034 84H65.4209V86H67.4034V84Z" fill="#151833"/>
<path d="M69.3858 84H67.4033V86H69.3858V84Z" fill="#151833"/>
<path d="M71.3684 84H69.386V86H71.3684V84Z" fill="#151833"/>
<path d="M73.3509 84H71.3684V86H73.3509V84Z" fill="#151833"/>
<path d="M77.3157 84H75.3333V86H77.3157V84Z" fill="#151833"/>
<path d="M81.2805 84H79.2981V86H81.2805V84Z" fill="#151833"/>
<path d="M83.263 84H81.2805V86H83.263V84Z" fill="#151833"/>
<path d="M93.1753 84H91.1929V86H93.1753V84Z" fill="#151833"/>
<path d="M99.1228 84H97.1404V86H99.1228V84Z" fill="#151833"/>
<path d="M101.105 84H99.1228V86H101.105V84Z" fill="#151833"/>
<path d="M107.053 84H105.07V86H107.053V84Z" fill="#151833"/>
<path d="M5.9473 86H3.96484V88H5.9473V86Z" fill="#151833"/>
<path d="M11.8946 86H9.91211V88H11.8946V86Z" fill="#151833"/>
<path d="M21.8069 86H19.8245V88H21.8069V86Z" fill="#151833"/>
<path d="M23.7893 86H21.8069V88H23.7893V86Z" fill="#151833"/>
<path d="M25.7718 86H23.7893V88H25.7718V86Z" fill="#151833"/>
<path d="M29.7369 86H27.7544V88H29.7369V86Z" fill="#151833"/>
<path d="M31.7193 86H29.7368V88H31.7193V86Z" fill="#151833"/>
<path d="M33.7017 86H31.7192V88H33.7017V86Z" fill="#151833"/>
<path d="M35.6841 86H33.7017V88H35.6841V86Z" fill="#151833"/>
<path d="M39.649 86H37.6665V88H39.649V86Z" fill="#151833"/>
<path d="M51.5437 86H49.5613V88H51.5437V86Z" fill="#151833"/>
<path d="M53.5262 86H51.5437V88H53.5262V86Z" fill="#151833"/>
<path d="M69.3858 86H67.4033V88H69.3858V86Z" fill="#151833"/>
<path d="M73.3509 86H71.3684V88H73.3509V86Z" fill="#151833"/>
<path d="M77.3157 86H75.3333V88H77.3157V86Z" fill="#151833"/>
<path d="M83.263 86H81.2805V88H83.263V86Z" fill="#151833"/>
<path d="M87.2281 86H85.2456V88H87.2281V86Z" fill="#151833"/>
<path d="M89.2104 86H87.228V88H89.2104V86Z" fill="#151833"/>
<path d="M95.1578 86H93.1753V88H95.1578V86Z" fill="#151833"/>
<path d="M97.1402 86H95.1577V88H97.1402V86Z" fill="#151833"/>
<path d="M103.088 86H101.105V88H103.088V86Z" fill="#151833"/>
<path d="M107.053 86H105.07V88H107.053V86Z" fill="#151833"/>
<path d="M5.9473 88H3.96484V89.9999H5.9473V88Z" fill="#151833"/>
<path d="M7.92972 88H5.94727V89.9999H7.92972V88Z" fill="#151833"/>
<path d="M11.8946 88H9.91211V89.9999H11.8946V88Z" fill="#151833"/>
<path d="M13.8772 88H11.8948V89.9999H13.8772V88Z" fill="#151833"/>
<path d="M15.8597 88H13.8772V89.9999H15.8597V88Z" fill="#151833"/>
<path d="M17.8421 88H15.8596V89.9999H17.8421V88Z" fill="#151833"/>
<path d="M19.8245 88H17.842V89.9999H19.8245V88Z" fill="#151833"/>
<path d="M23.7893 88H21.8069V89.9999H23.7893V88Z" fill="#151833"/>
<path d="M25.7718 88H23.7893V89.9999H25.7718V88Z" fill="#151833"/>
<path d="M27.7544 88H25.772V89.9999H27.7544V88Z" fill="#151833"/>
<path d="M33.7017 88H31.7192V89.9999H33.7017V88Z" fill="#151833"/>
<path d="M39.649 88H37.6665V89.9999H39.649V88Z" fill="#151833"/>
<path d="M41.6316 88H39.6492V89.9999H41.6316V88Z" fill="#151833"/>
<path d="M43.614 88H41.6316V89.9999H43.614V88Z" fill="#151833"/>
<path d="M55.5088 88H53.5264V89.9999H55.5088V88Z" fill="#151833"/>
<path d="M57.4912 88H55.5088V89.9999H57.4912V88Z" fill="#151833"/>
<path d="M59.4737 88H57.4912V89.9999H59.4737V88Z" fill="#151833"/>
<path d="M69.3858 88H67.4033V89.9999H69.3858V88Z" fill="#151833"/>
<path d="M77.3157 88H75.3333V89.9999H77.3157V88Z" fill="#151833"/>
<path d="M79.2981 88H77.3157V89.9999H79.2981V88Z" fill="#151833"/>
<path d="M87.2281 88H85.2456V89.9999H87.2281V88Z" fill="#151833"/>
<path d="M91.193 88H89.2104V89.9999H91.193V88Z" fill="#151833"/>
<path d="M97.1402 88H95.1577V89.9999H97.1402V88Z" fill="#151833"/>
<path d="M99.1228 88H97.1404V89.9999H99.1228V88Z" fill="#151833"/>
<path d="M105.07 88H103.088V89.9999H105.07V88Z" fill="#151833"/>
<path d="M109.035 88H107.052V89.9999H109.035V88Z" fill="#151833"/>
<path d="M7.92972 90H5.94727V92.0001H7.92972V90Z" fill="#151833"/>
<path d="M9.91214 90H7.92969V92.0001H9.91214V90Z" fill="#151833"/>
<path d="M23.7893 90H21.8069V92.0001H23.7893V90Z" fill="#151833"/>
<path d="M27.7544 90H25.772V92.0001H27.7544V90Z" fill="#151833"/>
<path d="M33.7017 90H31.7192V92.0001H33.7017V90Z" fill="#151833"/>
<path d="M37.6665 90H35.6841V92.0001H37.6665V90Z" fill="#151833"/>
<path d="M39.649 90H37.6665V92.0001H39.649V90Z" fill="#151833"/>
<path d="M41.6316 90H39.6492V92.0001H41.6316V90Z" fill="#151833"/>
<path d="M43.614 90H41.6316V92.0001H43.614V90Z" fill="#151833"/>
<path d="M45.5965 90H43.614V92.0001H45.5965V90Z" fill="#151833"/>
<path d="M47.5789 90H45.5964V92.0001H47.5789V90Z" fill="#151833"/>
<path d="M51.5437 90H49.5613V92.0001H51.5437V90Z" fill="#151833"/>
<path d="M57.4912 90H55.5088V92.0001H57.4912V90Z" fill="#151833"/>
<path d="M61.4561 90H59.4736V92.0001H61.4561V90Z" fill="#151833"/>
<path d="M65.4209 90H63.4385V92.0001H65.4209V90Z" fill="#151833"/>
<path d="M67.4034 90H65.4209V92.0001H67.4034V90Z" fill="#151833"/>
<path d="M71.3684 90H69.386V92.0001H71.3684V90Z" fill="#151833"/>
<path d="M81.2805 90H79.2981V92.0001H81.2805V90Z" fill="#151833"/>
<path d="M83.263 90H81.2805V92.0001H83.263V90Z" fill="#151833"/>
<path d="M87.2281 90H85.2456V92.0001H87.2281V90Z" fill="#151833"/>
<path d="M89.2104 90H87.228V92.0001H89.2104V90Z" fill="#151833"/>
<path d="M99.1228 90H97.1404V92.0001H99.1228V90Z" fill="#151833"/>
<path d="M105.07 90H103.088V92.0001H105.07V90Z" fill="#151833"/>
<path d="M107.053 90H105.07V92.0001H107.053V90Z" fill="#151833"/>
<path d="M109.035 90H107.052V92.0001H109.035V90Z" fill="#151833"/>
<path d="M11.8946 92H9.91211V94H11.8946V92Z" fill="#151833"/>
<path d="M17.8421 92H15.8596V94H17.8421V92Z" fill="#151833"/>
<path d="M19.8245 92H17.842V94H19.8245V92Z" fill="#151833"/>
<path d="M23.7893 92H21.8069V94H23.7893V92Z" fill="#151833"/>
<path d="M27.7544 92H25.772V94H27.7544V92Z" fill="#151833"/>
<path d="M29.7369 92H27.7544V94H29.7369V92Z" fill="#151833"/>
<path d="M31.7193 92H29.7368V94H31.7193V92Z" fill="#151833"/>
<path d="M37.6665 92H35.6841V94H37.6665V92Z" fill="#151833"/>
<path d="M45.5965 92H43.614V94H45.5965V92Z" fill="#151833"/>
<path d="M49.5613 92H47.5789V94H49.5613V92Z" fill="#151833"/>
<path d="M53.5262 92H51.5437V94H53.5262V92Z" fill="#151833"/>
<path d="M55.5088 92H53.5264V94H55.5088V92Z" fill="#151833"/>
<path d="M57.4912 92H55.5088V94H57.4912V92Z" fill="#151833"/>
<path d="M59.4737 92H57.4912V94H59.4737V92Z" fill="#151833"/>
<path d="M61.4561 92H59.4736V94H61.4561V92Z" fill="#151833"/>
<path d="M67.4034 92H65.4209V94H67.4034V92Z" fill="#151833"/>
<path d="M69.3858 92H67.4033V94H69.3858V92Z" fill="#151833"/>
<path d="M73.3509 92H71.3684V94H73.3509V92Z" fill="#151833"/>
<path d="M77.3157 92H75.3333V94H77.3157V92Z" fill="#151833"/>
<path d="M79.2981 92H77.3157V94H79.2981V92Z" fill="#151833"/>
<path d="M83.263 92H81.2805V94H83.263V92Z" fill="#151833"/>
<path d="M85.2456 92H83.2632V94H85.2456V92Z" fill="#151833"/>
<path d="M87.2281 92H85.2456V94H87.2281V92Z" fill="#151833"/>
<path d="M89.2104 92H87.228V94H89.2104V92Z" fill="#151833"/>
<path d="M91.193 92H89.2104V94H91.193V92Z" fill="#151833"/>
<path d="M93.1753 92H91.1929V94H93.1753V92Z" fill="#151833"/>
<path d="M95.1578 92H93.1753V94H95.1578V92Z" fill="#151833"/>
<path d="M97.1402 92H95.1577V94H97.1402V92Z" fill="#151833"/>
<path d="M99.1228 92H97.1404V94H99.1228V92Z" fill="#151833"/>
<path d="M101.105 92H99.1228V94H101.105V92Z" fill="#151833"/>
<path d="M103.088 92H101.105V94H103.088V92Z" fill="#151833"/>
<path d="M21.8069 94H19.8245V96H21.8069V94Z" fill="#151833"/>
<path d="M27.7544 94H25.772V96H27.7544V94Z" fill="#151833"/>
<path d="M29.7369 94H27.7544V96H29.7369V94Z" fill="#151833"/>
<path d="M31.7193 94H29.7368V96H31.7193V94Z" fill="#151833"/>
<path d="M41.6316 94H39.6492V96H41.6316V94Z" fill="#151833"/>
<path d="M49.5613 94H47.5789V96H49.5613V94Z" fill="#151833"/>
<path d="M53.5262 94H51.5437V96H53.5262V94Z" fill="#151833"/>
<path d="M61.4561 94H59.4736V96H61.4561V94Z" fill="#151833"/>
<path d="M65.4209 94H63.4385V96H65.4209V94Z" fill="#151833"/>
<path d="M67.4034 94H65.4209V96H67.4034V94Z" fill="#151833"/>
<path d="M69.3858 94H67.4033V96H69.3858V94Z" fill="#151833"/>
<path d="M73.3509 94H71.3684V96H73.3509V94Z" fill="#151833"/>
<path d="M75.3333 94H73.3508V96H75.3333V94Z" fill="#151833"/>
<path d="M77.3157 94H75.3333V96H77.3157V94Z" fill="#151833"/>
<path d="M79.2981 94H77.3157V96H79.2981V94Z" fill="#151833"/>
<path d="M81.2805 94H79.2981V96H81.2805V94Z" fill="#151833"/>
<path d="M83.263 94H81.2805V96H83.263V94Z" fill="#151833"/>
<path d="M85.2456 94H83.2632V96H85.2456V94Z" fill="#151833"/>
<path d="M89.2104 94H87.228V96H89.2104V94Z" fill="#151833"/>
<path d="M93.1753 94H91.1929V96H93.1753V94Z" fill="#151833"/>
<path d="M101.105 94H99.1228V96H101.105V94Z" fill="#151833"/>
<path d="M103.088 94H101.105V96H103.088V94Z" fill="#151833"/>
<path d="M105.07 94H103.088V96H105.07V94Z" fill="#151833"/>
<path d="M107.053 94H105.07V96H107.053V94Z" fill="#151833"/>
<path d="M21.8069 96H19.8245V98H21.8069V96Z" fill="#151833"/>
<path d="M25.7718 96H23.7893V98H25.7718V96Z" fill="#151833"/>
<path d="M45.5965 96H43.614V98H45.5965V96Z" fill="#151833"/>
<path d="M47.5789 96H45.5964V98H47.5789V96Z" fill="#151833"/>
<path d="M53.5262 96H51.5437V98H53.5262V96Z" fill="#151833"/>
<path d="M57.4912 96H55.5088V98H57.4912V96Z" fill="#151833"/>
<path d="M61.4561 96H59.4736V98H61.4561V96Z" fill="#151833"/>
<path d="M63.4385 96H61.4561V98H63.4385V96Z" fill="#151833"/>
<path d="M65.4209 96H63.4385V98H65.4209V96Z" fill="#151833"/>
<path d="M67.4034 96H65.4209V98H67.4034V96Z" fill="#151833"/>
<path d="M73.3509 96H71.3684V98H73.3509V96Z" fill="#151833"/>
<path d="M83.263 96H81.2805V98H83.263V96Z" fill="#151833"/>
<path d="M87.2281 96H85.2456V98H87.2281V96Z" fill="#151833"/>
<path d="M93.1753 96H91.1929V98H93.1753V96Z" fill="#151833"/>
<path d="M97.1402 96H95.1577V98H97.1402V96Z" fill="#151833"/>
<path d="M101.105 96H99.1228V98H101.105V96Z" fill="#151833"/>
<path d="M103.088 96H101.105V98H103.088V96Z" fill="#151833"/>
<path d="M105.07 96H103.088V98H105.07V96Z" fill="#151833"/>
<path d="M25.7718 98H23.7893V100H25.7718V98Z" fill="#151833"/>
<path d="M27.7544 98H25.772V100H27.7544V98Z" fill="#151833"/>
<path d="M29.7369 98H27.7544V100H29.7369V98Z" fill="#151833"/>
<path d="M31.7193 98H29.7368V100H31.7193V98Z" fill="#151833"/>
<path d="M33.7017 98H31.7192V100H33.7017V98Z" fill="#151833"/>
<path d="M35.6841 98H33.7017V100H35.6841V98Z" fill="#151833"/>
<path d="M37.6665 98H35.6841V100H37.6665V98Z" fill="#151833"/>
<path d="M41.6316 98H39.6492V100H41.6316V98Z" fill="#151833"/>
<path d="M43.614 98H41.6316V100H43.614V98Z" fill="#151833"/>
<path d="M45.5965 98H43.614V100H45.5965V98Z" fill="#151833"/>
<path d="M47.5789 98H45.5964V100H47.5789V98Z" fill="#151833"/>
<path d="M51.5437 98H49.5613V100H51.5437V98Z" fill="#151833"/>
<path d="M53.5262 98H51.5437V100H53.5262V98Z" fill="#151833"/>
<path d="M61.4561 98H59.4736V100H61.4561V98Z" fill="#151833"/>
<path d="M65.4209 98H63.4385V100H65.4209V98Z" fill="#151833"/>
<path d="M71.3684 98H69.386V100H71.3684V98Z" fill="#151833"/>
<path d="M79.2981 98H77.3157V100H79.2981V98Z" fill="#151833"/>
<path d="M83.263 98H81.2805V100H83.263V98Z" fill="#151833"/>
<path d="M87.2281 98H85.2456V100H87.2281V98Z" fill="#151833"/>
<path d="M89.2104 98H87.228V100H89.2104V98Z" fill="#151833"/>
<path d="M93.1753 98H91.1929V100H93.1753V98Z" fill="#151833"/>
<path d="M101.105 98H99.1228V100H101.105V98Z" fill="#151833"/>
<path d="M103.088 98H101.105V100H103.088V98Z" fill="#151833"/>
<path d="M109.035 98H107.052V100H109.035V98Z" fill="#151833"/>
<path d="M21.8069 100H19.8245V102H21.8069V100Z" fill="#151833"/>
<path d="M23.7893 100H21.8069V102H23.7893V100Z" fill="#151833"/>
<path d="M25.7718 100H23.7893V102H25.7718V100Z" fill="#151833"/>
<path d="M27.7544 100H25.772V102H27.7544V100Z" fill="#151833"/>
<path d="M35.6841 100H33.7017V102H35.6841V100Z" fill="#151833"/>
<path d="M39.649 100H37.6665V102H39.649V100Z" fill="#151833"/>
<path d="M43.614 100H41.6316V102H43.614V100Z" fill="#151833"/>
<path d="M45.5965 100H43.614V102H45.5965V100Z" fill="#151833"/>
<path d="M53.5262 100H51.5437V102H53.5262V100Z" fill="#151833"/>
<path d="M55.5088 100H53.5264V102H55.5088V100Z" fill="#151833"/>
<path d="M57.4912 100H55.5088V102H57.4912V100Z" fill="#151833"/>
<path d="M59.4737 100H57.4912V102H59.4737V100Z" fill="#151833"/>
<path d="M61.4561 100H59.4736V102H61.4561V100Z" fill="#151833"/>
<path d="M65.4209 100H63.4385V102H65.4209V100Z" fill="#151833"/>
<path d="M69.3858 100H67.4033V102H69.3858V100Z" fill="#151833"/>
<path d="M73.3509 100H71.3684V102H73.3509V100Z" fill="#151833"/>
<path d="M77.3157 100H75.3333V102H77.3157V100Z" fill="#151833"/>
<path d="M81.2805 100H79.2981V102H81.2805V100Z" fill="#151833"/>
<path d="M83.263 100H81.2805V102H83.263V100Z" fill="#151833"/>
<path d="M85.2456 100H83.2632V102H85.2456V100Z" fill="#151833"/>
<path d="M91.193 100H89.2104V102H91.193V100Z" fill="#151833"/>
<path d="M93.1753 100H91.1929V102H93.1753V100Z" fill="#151833"/>
<path d="M95.1578 100H93.1753V102H95.1578V100Z" fill="#151833"/>
<path d="M97.1402 100H95.1577V102H97.1402V100Z" fill="#151833"/>
<path d="M99.1228 100H97.1404V102H99.1228V100Z" fill="#151833"/>
<path d="M101.105 100H99.1228V102H101.105V100Z" fill="#151833"/>
<path d="M103.088 100H101.105V102H103.088V100Z" fill="#151833"/>
<path d="M105.07 100H103.088V102H105.07V100Z" fill="#151833"/>
<path d="M107.053 100H105.07V102H107.053V100Z" fill="#151833"/>
<path d="M109.035 100H107.052V102H109.035V100Z" fill="#151833"/>
<path d="M21.8069 102H19.8245V104H21.8069V102Z" fill="#151833"/>
<path d="M27.7544 102H25.772V104H27.7544V102Z" fill="#151833"/>
<path d="M35.6841 102H33.7017V104H35.6841V102Z" fill="#151833"/>
<path d="M37.6665 102H35.6841V104H37.6665V102Z" fill="#151833"/>
<path d="M41.6316 102H39.6492V104H41.6316V102Z" fill="#151833"/>
<path d="M43.614 102H41.6316V104H43.614V102Z" fill="#151833"/>
<path d="M45.5965 102H43.614V104H45.5965V102Z" fill="#151833"/>
<path d="M47.5789 102H45.5964V104H47.5789V102Z" fill="#151833"/>
<path d="M51.5437 102H49.5613V104H51.5437V102Z" fill="#151833"/>
<path d="M61.4561 102H59.4736V104H61.4561V102Z" fill="#151833"/>
<path d="M69.3858 102H67.4033V104H69.3858V102Z" fill="#151833"/>
<path d="M73.3509 102H71.3684V104H73.3509V102Z" fill="#151833"/>
<path d="M77.3157 102H75.3333V104H77.3157V102Z" fill="#151833"/>
<path d="M79.2981 102H77.3157V104H79.2981V102Z" fill="#151833"/>
<path d="M81.2805 102H79.2981V104H81.2805V102Z" fill="#151833"/>
<path d="M89.2104 102H87.228V104H89.2104V102Z" fill="#151833"/>
<path d="M91.193 102H89.2104V104H91.193V102Z" fill="#151833"/>
<path d="M93.1753 102H91.1929V104H93.1753V102Z" fill="#151833"/>
<path d="M95.1578 102H93.1753V104H95.1578V102Z" fill="#151833"/>
<path d="M105.07 102H103.088V104H105.07V102Z" fill="#151833"/>
<path d="M107.053 102H105.07V104H107.053V102Z" fill="#151833"/>
<path d="M25.7718 104H23.7893V106H25.7718V104Z" fill="#151833"/>
<path d="M27.7544 104H25.772V106H27.7544V104Z" fill="#151833"/>
<path d="M29.7369 104H27.7544V106H29.7369V104Z" fill="#151833"/>
<path d="M31.7193 104H29.7368V106H31.7193V104Z" fill="#151833"/>
<path d="M37.6665 104H35.6841V106H37.6665V104Z" fill="#151833"/>
<path d="M39.649 104H37.6665V106H39.649V104Z" fill="#151833"/>
<path d="M43.614 104H41.6316V106H43.614V104Z" fill="#151833"/>
<path d="M45.5965 104H43.614V106H45.5965V104Z" fill="#151833"/>
<path d="M53.5262 104H51.5437V106H53.5262V104Z" fill="#151833"/>
<path d="M55.5088 104H53.5264V106H55.5088V104Z" fill="#151833"/>
<path d="M57.4912 104H55.5088V106H57.4912V104Z" fill="#151833"/>
<path d="M61.4561 104H59.4736V106H61.4561V104Z" fill="#151833"/>
<path d="M63.4385 104H61.4561V106H63.4385V104Z" fill="#151833"/>
<path d="M65.4209 104H63.4385V106H65.4209V104Z" fill="#151833"/>
<path d="M77.3157 104H75.3333V106H77.3157V104Z" fill="#151833"/>
<path d="M81.2805 104H79.2981V106H81.2805V104Z" fill="#151833"/>
<path d="M83.263 104H81.2805V106H83.263V104Z" fill="#151833"/>
<path d="M93.1753 104H91.1929V106H93.1753V104Z" fill="#151833"/>
<path d="M95.1578 104H93.1753V106H95.1578V104Z" fill="#151833"/>
<path d="M97.1402 104H95.1577V106H97.1402V104Z" fill="#151833"/>
<path d="M99.1228 104H97.1404V106H99.1228V104Z" fill="#151833"/>
<path d="M101.105 104H99.1228V106H101.105V104Z" fill="#151833"/>
<path d="M103.088 104H101.105V106H103.088V104Z" fill="#151833"/>
<path d="M109.035 104H107.052V106H109.035V104Z" fill="#151833"/>
<path d="M29.7369 106H27.7544V108H29.7369V106Z" fill="#151833"/>
<path d="M37.6665 106H35.6841V108H37.6665V106Z" fill="#151833"/>
<path d="M51.5437 106H49.5613V108H51.5437V106Z" fill="#151833"/>
<path d="M53.5262 106H51.5437V108H53.5262V106Z" fill="#151833"/>
<path d="M59.4737 106H57.4912V108H59.4737V106Z" fill="#151833"/>
<path d="M61.4561 106H59.4736V108H61.4561V106Z" fill="#151833"/>
<path d="M65.4209 106H63.4385V108H65.4209V106Z" fill="#151833"/>
<path d="M69.3858 106H67.4033V108H69.3858V106Z" fill="#151833"/>
<path d="M77.3157 106H75.3333V108H77.3157V106Z" fill="#151833"/>
<path d="M79.2981 106H77.3157V108H79.2981V106Z" fill="#151833"/>
<path d="M87.2281 106H85.2456V108H87.2281V106Z" fill="#151833"/>
<path d="M97.1402 106H95.1577V108H97.1402V106Z" fill="#151833"/>
<path d="M99.1228 106H97.1404V108H99.1228V106Z" fill="#151833"/>
<path d="M105.07 106H103.088V108H105.07V106Z" fill="#151833"/>
<path d="M109.035 106H107.052V108H109.035V106Z" fill="#151833"/>
<path d="M23.7893 108H21.8069V110H23.7893V108Z" fill="#151833"/>
<path d="M25.7718 108H23.7893V110H25.7718V108Z" fill="#151833"/>
<path d="M27.7544 108H25.772V110H27.7544V108Z" fill="#151833"/>
<path d="M31.7193 108H29.7368V110H31.7193V108Z" fill="#151833"/>
<path d="M35.6841 108H33.7017V110H35.6841V108Z" fill="#151833"/>
<path d="M41.6316 108H39.6492V110H41.6316V108Z" fill="#151833"/>
<path d="M49.5613 108H47.5789V110H49.5613V108Z" fill="#151833"/>
<path d="M53.5262 108H51.5437V110H53.5262V108Z" fill="#151833"/>
<path d="M55.5088 108H53.5264V110H55.5088V108Z" fill="#151833"/>
<path d="M63.4385 108H61.4561V110H63.4385V108Z" fill="#151833"/>
<path d="M69.3858 108H67.4033V110H69.3858V108Z" fill="#151833"/>
<path d="M71.3684 108H69.386V110H71.3684V108Z" fill="#151833"/>
<path d="M89.2104 108H87.228V110H89.2104V108Z" fill="#151833"/>
<path d="M91.193 108H89.2104V110H91.193V108Z" fill="#151833"/>
<path d="M97.1402 108H95.1577V110H97.1402V108Z" fill="#151833"/>
<path d="M103.088 108H101.105V110H103.088V108Z" fill="#151833"/>
<path d="M15.7605 4H6.04642H3.96484V6.1V15.9V18H6.04642H15.7605H17.842V15.9V6.1V4H15.7605ZM15.7605 15.9H6.04642V6.1H15.7605V15.9Z" fill="#151833"/>
<path d="M106.953 4H97.2393H95.1577V6.1V15.9V18H97.2393H106.953H109.035V15.9V6.1V4H106.953ZM106.953 15.9H97.2393V6.1H106.953V15.9Z" fill="#151833"/>
<path d="M15.7605 96H6.04642H3.96484V98.1V107.9V110H6.04642H15.7605H17.842V107.9V98.1V96H15.7605ZM15.7605 107.9H6.04642V98.1H15.7605V107.9Z" fill="#151833"/>
<path d="M13.8771 8H7.92969V14H13.8771V8Z" fill="#151833"/>
<path d="M105.07 8H99.1228V14H105.07V8Z" fill="#151833"/>
<path d="M13.8771 100H7.92969V106H13.8771V100Z" fill="#151833"/>
<g clip-path="url(#clip0)">
<path fill-rule="evenodd" clip-rule="evenodd" d="M52.0564 42.83V47.7423C52.0564 48.043 51.938 48.3313 51.7273 48.5439C51.5166 48.7565 51.2308 48.8759 50.9328 48.8759C50.6347 48.8759 50.3489 48.7565 50.1382 48.5439C49.9275 48.3313 49.8091 48.043 49.8091 47.7423V42.83C49.8091 42.2775 49.9469 41.6548 50.4188 41.1787C50.8916 40.7026 51.5088 40.562 52.0564 40.562H61.0457C61.5933 40.562 62.2106 40.7011 62.6833 41.1779C63.1552 41.6541 63.2931 42.2768 63.2931 42.8292V58.322C63.2931 58.6226 63.1747 58.9109 62.964 59.1235C62.7532 59.3361 62.4675 59.4555 62.1694 59.4555C61.8714 59.4555 61.5856 59.3361 61.3748 59.1235C61.1641 58.9109 61.0457 58.6226 61.0457 58.322V42.8292H52.0564V42.83ZM61.0457 71.1703V66.258C61.0457 65.9573 61.1641 65.6689 61.3748 65.4563C61.5856 65.2438 61.8714 65.1243 62.1694 65.1243C62.4675 65.1243 62.7532 65.2438 62.964 65.4563C63.1747 65.6689 63.2931 65.9573 63.2931 66.258V71.1703C63.2931 71.7227 63.1552 72.3454 62.6833 72.8223C62.2113 73.2984 61.5933 73.4375 61.0457 73.4375H52.0564C51.5088 73.4375 50.8916 73.2984 50.4188 72.8223C49.9469 72.3462 49.8091 71.7227 49.8091 71.1703V55.6776C49.8091 55.377 49.9275 55.0886 50.1382 54.876C50.3489 54.6634 50.6347 54.544 50.9328 54.544C51.2308 54.544 51.5166 54.6634 51.7273 54.876C51.938 55.0886 52.0564 55.377 52.0564 55.6776V71.1703H61.0457Z" fill="#151833"/>
<path fill-rule="evenodd" clip-rule="evenodd" d="M70.4093 52.6542H65.5401C65.2421 52.6542 64.9563 52.5347 64.7456 52.3222C64.5348 52.1096 64.4165 51.8212 64.4165 51.5205C64.4165 51.2199 64.5348 50.9316 64.7456 50.719C64.9563 50.5064 65.2421 50.387 65.5401 50.387H70.4093C70.957 50.387 71.5742 50.526 72.0469 51.0029C72.5188 51.479 72.6566 52.1018 72.6566 52.6542V61.7231C72.6566 62.2763 72.5188 62.8982 72.0469 63.3751C71.575 63.8512 70.957 63.9903 70.4093 63.9903H55.0525C54.7545 63.9903 54.4687 63.8709 54.258 63.6583C54.0473 63.4457 53.9289 63.1573 53.9289 62.8566C53.9289 62.556 54.0473 62.2677 54.258 62.0551C54.4687 61.8425 54.7545 61.7231 55.0525 61.7231H70.4093V52.6542ZM42.3176 61.7231H47.1869C47.4849 61.7231 47.7707 61.8425 47.9814 62.0551C48.1921 62.2677 48.3105 62.556 48.3105 62.8566C48.3105 63.1573 48.1921 63.4457 47.9814 63.6583C47.7707 63.8709 47.4849 63.9903 47.1869 63.9903H42.3176C41.77 63.9903 41.1528 63.8512 40.6801 63.3751C40.2082 62.899 40.0703 62.2763 40.0703 61.7231V52.6542C40.0703 52.1024 40.2082 51.479 40.6801 51.0029C41.1528 50.5268 41.77 50.387 42.3176 50.387H57.6744C57.9724 50.387 58.2582 50.5064 58.4689 50.719C58.6797 50.9316 58.7981 51.2199 58.7981 51.5205C58.7981 51.8212 58.6797 52.1096 58.4689 52.3222C58.2582 52.5347 57.9724 52.6542 57.6744 52.6542H42.3176V61.7231Z" fill="#151833"/>
</g>
<defs>
<clipPath id="clip0">
<rect width="32.8592" height="34" fill="white" transform="translate(40.0703 40)"/>
</clipPath>
</defs>
</svg>
