<?xml version="1.0" encoding="utf-8"?>
<!-- Generator: Adobe Illustrator 20.1.0, SVG Export Plug-In . SVG Version: 6.00 Build 0)  -->
<svg version="1.1" id="Capa_1" xmlns="http://www.w3.org/2000/svg" xmlns:xlink="http://www.w3.org/1999/xlink" x="0px" y="0px"
	 viewBox="0 0 512 512" style="enable-background:new 0 0 512 512;" xml:space="preserve">
<style type="text/css">
	.st0{fill:#48A1AA;}
</style>
<g>
	<g>
		<path class="st0" d="M498.8,182.9L329.1,13.2c-17.5-17.5-46.1-17.5-63.6,0l-21.2,21.2c-5.9,5.9-5.9,15.4,0,21.2l10.6,10.6
			l-61.7,61.6c-6.3,6.3-10.6,14.3-12.3,23l-18.8,94l-102,142.8l-27.9,13.9c-35.6,17.8-43.3,65.1-15.1,93.3
			c28.1,28.1,75.5,20.5,93.3-15.1l13.9-27.9l142.8-102l94-18.8c8.7-1.7,16.7-6,23-12.3l61.7-61.6l10.6,10.6c5.9,5.9,15.4,5.9,21.2,0
			l21.2-21.2C516.4,229,516.4,200.4,498.8,182.9z M83.5,466.3c-8.6,17.3-31.6,21-45.2,7.3c-13.6-13.7-9.9-36.6,7.3-45.2l21.5-10.8
			l27.1,27.1L83.5,466.3z M114.2,422.3l-24.5-24.5l35.4-49.5l38.6,38.6L114.2,422.3z M188.4,369.2l-45.7-45.7l35.4-49.5l59.8,59.8
			L188.4,369.2z M362.9,297.5c-2.1,2.1-4.8,3.5-7.7,4.1L266,319.5L192.5,246l17.9-89.3c0.6-2.9,2-5.6,4.1-7.7l61.7-61.6l148.5,148.5
			L362.9,297.5z M477.6,225.3L467,235.9L276.1,45l10.6-10.6c5.9-5.8,15.4-5.8,21.2,0l169.7,169.7c2.8,2.8,4.4,6.6,4.4,10.6
			C482,218.7,480.5,222.5,477.6,225.3z"/>
	</g>
</g>
</svg>
